<svg clip-rule="evenodd" fill-rule="evenodd" stroke-linejoin="round" stroke-miterlimit="2" viewBox="0 0 742 948" xmlns="http://www.w3.org/2000/svg"><path d="m483.768 414.685c-52.354-3.318-92.474-48.87-89.154-101.224l13.888-219.02c3.318-52.354 48.87-92.472 101.224-89.152 52.354 3.318 92.472 48.87 89.154 101.224l-13.888 219.02c-3.318 52.354-48.87 92.472-101.224 89.152" fill="#f4921f" fill-rule="nonzero"/><g fill="#1e1c1a"><path d="m438.741 372.222-2.928 6.804.378.346 6.508-3.538zm-3.478 11.38-3.58-3.264 7.088-17.228 2.732 2.492-1.53 3.682 5.542 5.056 3.528-1.862 2.732 2.492z" fill-rule="nonzero"/><path d="m426.411 360.962-4.34-6.606.94-.618c4.074-2.674 8.892-1.718 11.55 2.332 2.662 4.048 1.626 9.304-2.762 12.184-4.388 2.882-9.624 1.744-12.284-2.306s-1.134-8.102.816-10.144l1.888 2.876c-.936 1.532-1.422 3.526-.092 5.554 1.68 2.556 4.822 3.24 7.852 1.25s3.65-5.144 1.972-7.7c-1.82-2.772-4.856-2.61-5.794-1.992l-.106.068 2.448 3.73z" fill-rule="nonzero"/><path d="m419.732 340.652-5.866 4.522.16.484 7.414.072zm-8.572 8.254-1.544-4.596 14.568-11.608 1.178 3.508-3.126 2.474 2.39 7.11 3.988.088 1.178 3.508z" fill-rule="nonzero"/><path d="m423.914 326.841.415 3.287-17.371 2.197-.416-3.286z"/><path d="m405.884 321.189.284-4.456 12.508-5.726.034-.508-12.1-.768.21-3.31 17.462 1.108-.282 4.456-12.51 5.726-.032.51 12.096.764-.208 3.312z" fill-rule="nonzero"/><path d="m419.329 298.761c1.498.094 2.84-1.356 2.994-3.774.16-2.546-.774-3.628-2.018-3.706-.998-.064-1.912.518-2.432 2.784l-.692 3.024c-.692 3.024-2.528 4.314-5.02 4.156-2.872-.182-5.088-2.752-4.822-6.95.292-4.586 2.932-6.718 6.174-6.512l-.21 3.31c-1.496-.096-2.824 1.098-2.97 3.39-.144 2.292.788 3.374 2.036 3.452.996.064 1.678-.406 2.148-2.292l.676-2.768c.85-3.526 2.452-5.086 5.322-4.906 2.992.19 5.092 2.626 4.802 7.208-.292 4.582-2.956 7.1-6.198 6.892z" fill-rule="nonzero"/><path d="m411.714 278.63-.338 5.348-3.12-.198.888-14.006 3.118.198-.338 5.348 14.342.908-.21 3.312z" fill-rule="nonzero"/><path d="m425.039 250.161c.074-1.146-.86-2.226-2.106-2.306-1.248-.078-2.31.874-2.384 2.02l-.306 4.838 4.49.286zm-7.374-.21c.08-1.274-.736-2.22-1.982-2.3-1.372-.086-2.302.748-2.382 2.022l-.292 4.582 4.364.278zm-7.734 7.432.524-8.274c.194-3.056 2.32-4.968 5.188-4.786 2.618.166 3.628 2.022 3.628 2.022l.124.008s1.252-1.966 3.998-1.792c2.866.182 4.732 2.346 4.54 5.398l-.542 8.532z" fill-rule="nonzero"/><path d="m420.611 227.179c-3.616-.23-6.006 1.918-6.2 4.974s1.906 5.488 5.522 5.72c3.618.228 6.008-1.922 6.2-4.976.194-3.056-1.904-5.49-5.522-5.718m.21-3.31c5.238.332 8.738 4.388 8.432 9.226-.308 4.838-4.292 8.418-9.53 8.086s-8.738-4.386-8.43-9.224c.306-4.838 4.29-8.42 9.528-8.088" fill-rule="nonzero"/><path d="m421.356 211.484c.082-1.276-.97-2.49-2.466-2.586-1.62-.102-2.816.97-2.896 2.246l-.3 4.71 5.364.338zm-8.99 7.48.518-8.146c.2-3.182 2.724-5.452 6.216-5.228 3.368.212 5.336 2.766 5.282 5.574l6.348-5.35-.264 4.202-6.35 5.348-.064 1.018 5.986.382-.21 3.308z" fill-rule="nonzero"/><path d="m431.223 198.041-.21 3.312-17.46-1.108.21-3.311z"/><path d="m414.117 191.357.282-4.458 12.51-5.724.034-.51-12.1-.766.21-3.31 17.462 1.108-.282 4.454-12.51 5.728-.032.508 12.096.766-.21 3.312z" fill-rule="nonzero"/><path d="m431.682 159.214-.008.126s2.14 1.798 1.914 5.362c-.306 4.838-4.29 8.42-9.528 8.088s-8.738-4.388-8.432-9.226 3.962-7.162 6.744-7.626l-.218 3.438c-1.668.662-3.254 1.966-3.406 4.384-.194 3.056 1.906 5.492 5.52 5.72 3.62.23 6.008-1.92 6.202-4.974.21-3.312-2.312-5.004-3.434-5.078l-.124-.006-.284 4.456-2.494-.158.492-7.766 9.23.584-.162 2.548z" fill-rule="nonzero"/><path d="m429.362 140.521c1.498.096 2.84-1.354 2.994-3.772.16-2.546-.774-3.628-2.018-3.708-.998-.062-1.912.52-2.432 2.784l-.692 3.026c-.692 3.024-2.528 4.314-5.02 4.156-2.872-.182-5.088-2.752-4.822-6.952.292-4.584 2.932-6.718 6.174-6.51l-.21 3.308c-1.496-.094-2.824 1.1-2.97 3.392-.144 2.29.788 3.374 2.036 3.452.996.062 1.678-.404 2.148-2.294l.676-2.768c.85-3.526 2.452-5.084 5.322-4.904 2.992.19 5.092 2.624 4.802 7.208-.292 4.582-2.956 7.098-6.198 6.892z" fill-rule="nonzero"/><path d="m421.749 120.37-.338 5.348-3.12-.2.888-14.004 3.12.198-.34 5.348 14.342.908-.21 3.312z" fill-rule="nonzero"/><path d="m428.435 99.829c.082-1.276-.968-2.49-2.466-2.586-1.62-.102-2.816.97-2.896 2.246l-.3 4.71 5.364.338zm-8.99 7.48.518-8.148c.2-3.18 2.724-5.45 6.216-5.226 3.368.212 5.336 2.766 5.282 5.572l6.35-5.348-.266 4.202-6.35 5.348-.064 1.018 5.986.38-.21 3.31z" fill-rule="nonzero"/><path d="m433.358 80.378-7.368.77-.116.498 6.266 3.944zm-11.628 2.528 1.098-4.72 18.494-2.236-.84 3.6-3.96.464-1.704 7.302 3.346 2.166-.84 3.602z" fill-rule="nonzero"/><path d="m444.103 70.918-1.368 3.02-15.938-7.22 1.367-3.02z"/><path d="m442.828 55.191 4.624-6.41.914.662c3.95 2.856 4.772 7.696 1.938 11.624-2.836 3.928-8.112 4.832-12.366 1.756-4.256-3.076-5.058-8.374-2.224-12.302s7.162-3.946 9.766-2.852l-2.014 2.794c-1.764-.334-3.802-.074-5.218 1.888-1.792 2.48-1.31 5.66 1.628 7.786 2.938 2.122 6.104 1.58 7.896-.902 1.938-2.684.706-5.464-.204-6.122l-.104-.076-2.61 3.618z" fill-rule="nonzero"/><path d="m445.874 38.823 2.59-2.068 4.372 5.464 6.28-5.016-4.37-5.464 2.592-2.07 10.928 13.664-2.594 2.07-4.524-5.66-6.282 5.014 4.528 5.662-2.594 2.068z" fill-rule="nonzero"/><path d="m468.323 27.277-4.85 2.268-1.322-2.832 12.704-5.94 1.322 2.832-4.852 2.268 6.086 13.028-3.004 1.404z" fill-rule="nonzero"/><path d="m486.43 16.798 3.694-.212 3.766 12.048.508-.028 2.476-12.412 3.822-.22 3.894 12.04.508-.026 2.348-12.404 3.694-.214-3.446 17.722-4.586.268-3.75-11.802-.512.032-2.36 12.154-4.588.262z" fill-rule="nonzero"/><path d="m523.687 29.476-.662-7.378-.494-.122-4.04 6.208zm-2.354-11.664 4.7 1.172 1.964 18.522-3.588-.894-.406-3.964-7.274-1.81-2.22 3.314-3.586-.892z" fill-rule="nonzero"/><path d="m534.311 34.343-.622-13.19 3.3 1.664.376 8.586.456.232 7.132-4.802 3.3 1.662-10.984 7.338-2.702 5.356-2.958-1.49z" fill-rule="nonzero"/><path d="m545.366 41.388c-.944 1.166-.542 3.1 1.34 4.626 1.982 1.604 3.404 1.47 4.188.498.63-.776.684-1.858-.862-3.594l-2.062-2.316c-2.062-2.316-2.05-4.558-.478-6.504 1.808-2.232 5.184-2.552 8.452.096 3.564 2.892 3.774 6.278 1.732 8.806l-2.576-2.088c.944-1.166.74-2.94-1.044-4.386-1.78-1.444-3.202-1.308-3.99-.34-.628.778-.642 1.606.624 3.08l1.864 2.158c2.38 2.732 2.724 4.94.914 7.174-1.888 2.332-5.084 2.638-8.648-.254-3.566-2.89-4.074-6.518-2.028-9.044z" fill-rule="nonzero"/><path d="m558.04 62.283-1.957-2.716 14.195-10.226 1.956 2.716z"/><path d="m576.858 58.896 1.818 4.074-8.416 10.888.206.466 11.066-4.948 1.352 3.026-15.972 7.142-1.818-4.074 8.418-10.886-.208-.466-11.066 4.948-1.35-3.028z" fill-rule="nonzero"/><path d="m575.153 91.443 10.886-7.494.324 3.684-7.102 4.854.046.508 7.842 3.526.326 3.686-12.03-5.462-5.98.532-.292-3.302z" fill-rule="nonzero"/><path d="m577.42 116.122c3.616.23 6.006-1.918 6.2-4.974s-1.906-5.488-5.522-5.72c-3.618-.228-6.006 1.922-6.2 4.976-.194 3.056 1.904 5.49 5.522 5.718m-.21 3.31c-5.238-.332-8.738-4.388-8.43-9.226.306-4.838 4.29-8.418 9.528-8.086s8.738 4.386 8.432 9.224c-.308 4.838-4.292 8.42-9.53 8.088" fill-rule="nonzero"/><path d="m585.722 123.427-.21 3.308-10.352-.656c-2.496-.158-4.354 1.516-4.498 3.806-.146 2.292 1.486 4.184 3.98 4.342l10.354.658-.21 3.312-10.354-.658c-4.488-.284-7.17-3.396-6.888-7.852.282-4.454 3.336-7.202 7.826-6.916z" fill-rule="nonzero"/><path d="m575.526 149.939c-.082 1.272.97 2.49 2.466 2.584 1.62.104 2.816-.972 2.896-2.244l.3-4.71-5.364-.34zm8.99-7.482-.518 8.148c-.2 3.184-2.724 5.45-6.216 5.228-3.368-.214-5.336-2.766-5.282-5.574l-6.35 5.35.266-4.204 6.35-5.348.064-1.018-5.986-.38.21-3.31z" fill-rule="nonzero"/><path d="m582.967 166.874-.21 3.31-14.342-.91-.532 8.4-3.12-.196.744-11.712z" fill-rule="nonzero"/><path d="m564.362 183.828.21-3.312 17.46 1.108-.211 3.313z"/><path d="m581.544 189.327-.75 11.84-2.994-.19.54-8.53-4.24-.268-.5 7.892-2.994-.192.5-7.89-7.232-.458.21-3.312z" fill-rule="nonzero"/><path d="m580.598 204.241-.758 11.964-2.994-.188.548-8.656-4.24-.27-.516 8.148-2.994-.19.516-8.148-4.238-.268-.55 8.656-2.994-.19.76-11.966z" fill-rule="nonzero"/><path d="m509.927 400.603c-.084-.006-.168-.018-.254-.034l-44.83-8.412c-.93-.174-1.624-.952-1.692-1.898-.066-.944.51-1.812 1.406-2.116l61.314-20.906-87.884-23.112c-.968-.256-1.616-1.16-1.548-2.158.07-.996.838-1.806 1.83-1.922l100.73-12.03-104.394-28.854c-.948-.262-1.584-1.15-1.524-2.13.06-.984.798-1.788 1.77-1.934l122.716-18.336-117.832-17.798c-1.026-.154-1.78-1.044-1.772-2.078.01-1.04.786-1.912 1.814-2.046l118.686-15.444-117.182-18.47c-.994-.154-1.734-1-1.758-2.006-.024-1.004.674-1.882 1.656-2.088l103.122-21.464-102.778-22.574c-.992-.222-1.68-1.12-1.634-2.136.05-1.012.82-1.844 1.826-1.966l103.618-12.726-101.162-26.134c-.97-.25-1.624-1.16-1.556-2.16.07-1 .844-1.81 1.842-1.924l104.326-11.924-94.79-23.218c-.998-.242-1.666-1.18-1.578-2.204.09-1.022.914-1.828 1.938-1.894l84.8-5.532-71.156-19.922c-.984-.278-1.622-1.228-1.508-2.244.118-1.016.954-1.796 1.976-1.842l66.574-3.022c1.19-.05 2.12.838 2.176 1.986.05 1.15-.838 2.124-1.986 2.176l-53.62 2.432 70.412 19.714c.978.272 1.614 1.212 1.508 2.222-.104 1.006-.922 1.796-1.934 1.86l-83.468 5.446 92.952 22.768c.98.238 1.646 1.148 1.582 2.154s-.84 1.82-1.84 1.936l-104.734 11.97 100.912 26.066c.97.252 1.622 1.154 1.556 2.152-.064.998-.83 1.81-1.822 1.932l-102.414 12.58 100.382 22.046c.96.212 1.642 1.064 1.636 2.046-.006.98-.696 1.826-1.658 2.028l-101.498 21.126 120.228 18.95c1.022.16 1.77 1.046 1.758 2.084-.016 1.034-.788 1.902-1.814 2.034l-118.35 15.406 116.888 17.656c1.02.154 1.772 1.028 1.772 2.058-.002 1.032-.756 1.906-1.776 2.058l-126.71 18.932 105.13 29.058c.96.264 1.598 1.172 1.524 2.164-.076.992-.842 1.792-1.83 1.91l-100.372 11.986 83.978 22.086c.89.234 1.518 1.02 1.552 1.938.032.918-.54 1.75-1.41 2.046l-60.352 20.576 37.044 6.95c1.13.214 1.874 1.302 1.662 2.43-.196 1.046-1.14 1.76-2.176 1.696" fill-rule="nonzero"/><path d="m538.836 383.501c1.236-.958 1.5-3.008.344-4.504-.946-1.224-2.274-1.394-3.212-.67l-1.292.998 2.772 5.246zm-6.928-4.75 3.004-2.322c1.7-1.314 4.354-.974 5.93 1.064 1.892 2.45 1.43 6.066-.91 7.876l-3.236 2.502z" fill-rule="nonzero"/><path d="m539.119 372.769 5.026-4.938 1.176 1.736-3.434 3.374 1.138 1.648 3.188-3.128 1.188 1.722-3.19 3.13 1.14 1.652 3.434-3.37 1.186 1.724-5.028 4.934z" fill-rule="nonzero"/><path d="m549.108 372.288 1.394-1.746.068.052c.604.486 1.45.392 2.414-.816.698-.87.604-1.716.202-2.038-.336-.27-.926-.082-1.664.428l-1.248.872c-1.246.874-2.332.994-3.206.296-1.554-1.244-1.72-3.488-.282-5.284 1.61-2.014 3.42-2.214 4.762-1.142.094.076.336.266.336.266l-1.396 1.746c-.026-.02-.052-.042-.066-.052-.538-.43-1.382-.336-2.134.602-.642.806-.562 1.53-.094 1.906.268.214.578.24 1.316-.268l1.246-.872c1.476-1.02 2.616-1.208 3.556-.458 1.542 1.234 1.784 3.406.174 5.42-1.768 2.212-3.7 2.43-5.11 1.302z" fill-rule="nonzero"/><path d="m550.329 359.341 1.23-1.862 7.466 7.076-1.232 1.862z" fill-rule="nonzero"/><path d="m558.472 354.644 2.14-4.11.486.37c2.356 1.792 3.192 4.646 1.96 7.004-1.15 2.204-3.698 3.006-6.054 1.778-2.982-1.556-4.06-5.022-2.71-7.608 1.072-2.056 3.154-2.71 5.268-1.936l-1.04 1.992c-1.042-.232-1.93.174-2.406 1.086-.754 1.446-.134 3.414 1.766 4.406 1.37.716 2.758.28 3.354-.862.516-.99.458-2.18-.348-3.048l-1.038 1.994z" fill-rule="nonzero"/><path d="m556.957 346.544.936-2.66 6.63.056.122-.34-5.548-3.136.742-2.108 8.972 5.054-.936 2.658-6.636-.04-.12.34 5.552 3.12-.742 2.108z" fill-rule="nonzero"/><path d="m560.929 333.144.24-2.254 6.604.408.036-.342-6.266-3.566.252-2.39 6.632.152.036-.34-6.294-3.31.25-2.356 9.628 5.236-.298 2.816-6.454-.184-.038.34 6.11 3.428-.3 2.82z" fill-rule="nonzero"/><path d="m568.649 313.675-3.726.364-.022.344 3.568 2.138zm-6.294 1.528.196-3.086 10.224-1.09-.142 2.262-1.906.188-.268 4.22 1.826 1.08-.15 2.364z" fill-rule="nonzero"/><path d="m562.885 306.823.142-2.228 7.882 1.912.294-4.632 2.12.514-.434 6.86z" fill-rule="nonzero"/><path d="m571.333 300.677-5.51-6.254-.302 4.77-2.118-.534.496-7.8 2.066.51 5.508 6.256.314-4.94 2.12.514-.506 7.972z" fill-rule="nonzero"/></g></svg>