<svg clip-rule="evenodd" fill-rule="evenodd" stroke-linejoin="round" stroke-miterlimit="2" viewBox="0 0 742 948" xmlns="http://www.w3.org/2000/svg" xmlns:xlink="http://www.w3.org/1999/xlink"><clipPath id="a"><path clip-rule="nonzero" d="m575.746 439.034 119.18 18.92 4.702-29.592-119.18-18.922z"/></clipPath><path d="m716.039 384.125-266.024 21.496 21.518 266.346h.022l266.026-21.496-21.52-266.346z" fill="#c8e7f9" fill-rule="nonzero"/><path d="m499.9 423.637 127.258 87.104-1.93 2.82-127.258-87.104z" fill="#1e1c1a"/><path d="m512.826 418.639c-.068.004-.138.012-.21.024-2.146.312-3.724 2.64-3.518 5.19.17 2.102 2.994 6.876 4.686 9.028 1.202-2.51 3.05-8.082 2.868-10.344-.106-1.31-.684-2.474-1.584-3.19-.472-.376-1.232-.79-2.242-.708m1.354 18.47c-.818.068-1.416-.41-1.618-.572-1.922-1.532-6.58-8.8-6.872-12.408-.348-4.314 2.538-8.284 6.436-8.852 1.824-.244 3.616.234 5.074 1.396 1.634 1.304 2.678 3.34 2.86 5.59.232 2.878-2.816 14.402-5.758 14.834-.042.004-.082.01-.122.012" fill="#1e1c1a" fill-rule="nonzero"/><path d="m516.709 435.448c2.486 1.252 8.022 3.216 10.288 3.08 1.352-.076 2.488-.628 3.226-1.52.41-.494.87-1.318.732-2.434-.262-2.116-2.606-3.774-5.12-3.624-.018 0-.038.002-.058.004-2.138.172-6.902 2.862-9.068 4.494m10.67 6.48c-.058.006-.118.01-.176.014-2.886.174-14.354-3.112-14.718-6.066-.11-.878.42-1.514.592-1.722 1.57-1.888 8.926-6.372 12.552-6.618 4.324-.26 8.234 2.706 8.72 6.618.226 1.816-.306 3.604-1.494 5.04-1.304 1.566-3.292 2.558-5.476 2.734" fill="#1e1c1a" fill-rule="nonzero"/><path d="m585.726 515.364c-6.042-17.012-8.754-38.904-5.682-55.624 2.664-14.502 9.974-25.286 19.588-23.472 19.544 3.69 19.794 24.218 19.794 24.218l-11.668-1.852s2.224-20.17-17.32-23.858c-24.262-4.58-29.248 58.778-8.862 88.332" fill="#c8e7f9" fill-rule="nonzero"/><path d="m609.635 457.092 7.792 1.236c-.606-4.658-3.224-15.376-14.514-19.314 6.058 6.014 6.736 14.468 6.722 18.078m-29.556 67.048c-16.182-23.46-16.456-66.044-5.322-83.16 4.172-6.42 9.712-9.184 16.018-7.992 1.808.34 3.442.814 4.922 1.396 1.396-.214 2.816-.176 4.274.1 20.764 3.918 21.27 25.758 21.272 25.98l.026 2.152-15.502-2.46.184-1.718c.07-.672 1.412-14.786-10.634-20.262-1.092.282-2.154.778-3.182 1.482-4.766 3.268-8.52 10.71-10.304 20.408-2.862 15.576-.66 37.044 5.606 54.69l-3.424 1.216c-6.466-18.202-8.726-40.404-5.758-56.56 1.958-10.648 6.266-18.938 11.824-22.752.04-.026.082-.052.122-.082-.034-.006-.066-.012-.102-.02-4.8-.898-8.944 1.246-12.298 6.406-12.324 18.946-7.478 60.63 5.27 79.112z" fill="#1e1c1a" fill-rule="nonzero"/><path d="m594.973 442.324 80.545 12.789-12.789 80.549-80.545-12.788z" fill="#c8e7f9"/><path d="m584.256 521.362 76.962 12.22 12.228-76.958-76.964-12.22zm79.984 16.38-84.146-13.358 13.368-84.14 84.144 13.358z" fill="#1e1c1a" fill-rule="nonzero"/><path d="m580.221 408.564 120.207 19.086-4.877 30.716-120.207-19.086z" fill="#c8e7f9"/><path d="m577.422 437.77 116.618 18.516 4.31-27.13-116.616-18.512zm119.638 22.678-123.8-19.658 5.454-34.308 123.796 19.656z" fill="#1e1c1a" fill-rule="nonzero"/><path d="m672.576 479.551c-13.542 3.814-28.1 4.854-42.908 2.504-13.882-2.206-26.638-7.166-37.816-14.22" fill="#c8e7f9" fill-rule="nonzero"/><path d="m653.622 484.803c-8.038.65-16.136.332-24.238-.956-13.802-2.19-26.756-7.062-38.5-14.478l1.938-3.072c11.328 7.15 23.822 11.85 37.132 13.964 14.174 2.248 28.344 1.42 42.13-2.46l.984 3.5c-6.412 1.804-12.906 2.974-19.446 3.502" fill="#1e1c1a" fill-rule="nonzero"/><path d="m618.617 410.202-6.38 39.184" fill="none"/><path d="m616.823 409.908 3.587.584-6.381 39.184-3.587-.584z" fill="#1e1c1a"/><path d="m661.691 417.039-6.25 39.15" fill="none"/><path d="m659.897 416.753 3.576.57-6.238 39.152-3.576-.57z" fill="#1e1c1a"/><path d="m607.921 470.939 7.755 1.229-2.429 15.315-7.754-1.23z" fill="#c8e7f9"/><path d="m607.57 484.741 4.166.662 1.864-11.722-4.168-.662zm7.188 4.824-11.348-1.802 3-18.902 11.35 1.798z" fill="#1e1c1a" fill-rule="nonzero"/><path d="m645.495 476.906 7.754 1.229-2.428 15.313-7.754-1.23z" fill="#c8e7f9"/><path d="m645.143 490.707 4.166.662 1.864-11.722-4.166-.664zm7.188 4.818-11.348-1.798 3.002-18.9 11.348 1.798z" fill="#1e1c1a" fill-rule="nonzero"/><path d="m576.808 521.491 84.787-7.556 7.557 84.794-84.788 7.556z" fill="#c8e7f9"/><g fill-rule="nonzero"><path d="m578.761 523.125 7.238 81.208 81.202-7.24-7.24-81.206zm3.97 85.112-7.876-88.38 88.372-7.876 7.878 88.378z" fill="#1e1c1a"/><path d="m655.123 528.223-83.286 2.96-.608-17.198 90.48-3.218.328 4.582z" fill="#c8e7f9"/><path d="m573.44 529.465 80.672-2.868 6.234-11.608-.18-2.506-87.218 3.104zm82.694.382-85.896 3.054-.728-20.518 93.742-3.332.476 6.66z" fill="#1e1c1a"/><path d="m636.488 546.307-27.386 2.44c-3.096.276-5.856-2.032-6.132-5.128-.274-3.096 2.032-5.854 5.128-6.13l27.386-2.442c3.096-.276 5.856 2.032 6.13 5.128v.002c.278 3.094-2.03 5.854-5.126 6.13" fill="#c8e7f9"/><path d="m635.675 536.838c-.012 0-.022.002-.032.002l-27.384 2.442c-1.02.09-1.946.576-2.608 1.368-.664.794-.978 1.79-.888 2.808s.578 1.946 1.37 2.608c.784.656 1.77.972 2.778.89.012 0 .02-.002.03-.002l27.386-2.44c2.116-.19 3.682-2.064 3.494-4.178-.188-2.106-2.044-3.668-4.146-3.498m-26.474 13.708c-4.068.328-7.662-2.694-8.024-6.764-.176-1.98.432-3.91 1.712-5.44 1.28-1.532 3.074-2.47 5.048-2.648l27.386-2.442c.02-.002.04-.002.062-.004 4.068-.33 7.662 2.694 8.024 6.766.364 4.096-2.67 7.72-6.762 8.086l-27.384 2.442c-.022 0-.044.002-.062.004" fill="#1e1c1a"/><path d="m492.497 659.582c1.562-.124 2.9-1.694 2.748-3.578-.122-1.542-1.136-2.408-2.32-2.314l-1.628.126-.546 5.906zm-3.198-7.76 3.784-.298c2.138-.17 4.172 1.564 4.374 4.132.246 3.082-2.12 5.858-5.064 6.09l-4.076.322z" fill="#1e1c1a"/><path d="m499.829 650.989 7.022-.556-.216 2.086-4.794.378-.188 1.998 4.456-.354-.2 2.086-4.452.352-.186 1.996 4.792-.38-.194 2.086-7.022.554z" fill="#1e1c1a"/><path d="m507.486 657.19 2.224-.176.006.086c.062.77.71 1.32 2.254 1.2 1.112-.09 1.664-.736 1.622-1.248-.03-.428-.572-.73-1.45-.918l-1.49-.314c-1.492-.314-2.32-1.022-2.412-2.138-.156-1.984 1.37-3.64 3.662-3.822 2.57-.204 3.956.98 4.094 2.692.01.12.03.428.03.428l-2.224.174c-.002-.032-.004-.068-.006-.086-.056-.682-.704-1.234-1.902-1.138-1.03.082-1.502.634-1.452 1.234.026.342.218.586 1.096.774l1.488.314c1.754.378 2.668 1.082 2.766 2.282.154 1.968-1.262 3.63-3.832 3.834-2.824.224-4.306-1.038-4.446-2.834z" fill="#1e1c1a"/><path d="m518.408 649.516 2.224-.176-.98 10.248-2.228.176z" fill="#1e1c1a"/><path d="m527.102 653.569 4.622-.368-.052.61c-.268 2.95-2.248 5.174-4.9 5.384-2.484.196-4.516-1.538-4.728-4.19-.266-3.358 2.1-6.114 5.014-6.346 2.308-.182 3.976 1.236 4.444 3.44l-2.248.178c-.356-1.006-1.17-1.546-2.198-1.464-1.628.13-2.97 1.702-2.802 3.844.124 1.54 1.232 2.484 2.516 2.382 1.114-.088 2.094-.768 2.402-1.912l-2.244.18z" fill="#1e1c1a"/><path d="m534.159 648.27 2.808-.222 2.636 6.082.36-.03.618-6.34 2.226-.176-.982 10.246-2.808.224-2.654-6.082-.358.028-.6 6.338-2.228.176z" fill="#1e1c1a"/><path d="m548.302 647.149 2.258-.18.814 6.572.342-.026 2.356-6.824 2.4-.188 1.07 6.55.342-.028 2.096-6.8 2.364-.19-3.378 10.438-2.828.224-1.004-6.386-.344.03-2.244 6.64-2.828.224z" fill="#1e1c1a"/><path d="m568.325 651.768-.89-3.636-.342.026-1.61 3.834zm-2.406-6.016 3.084-.242 2.53 9.966-2.258.178-.46-1.858-4.214.334-.81 1.96-2.364.188z" fill="#1e1c1a"/><path d="m573.625 645.141 2.226-.176-.772 8.076 4.626-.366-.21 2.172-6.85.542z" fill="#1e1c1a"/><path d="m580.285 652.68 5.41-6.34-4.762.378.226-2.172 7.792-.618-.212 2.12-5.41 6.34 4.936-.392-.21 2.17-7.964.634z" fill="#1e1c1a"/><path d="m594.066 626.43c-2.33.504-4.65-.988-5.156-3.318l-2.16-9.97c-.506-2.33.988-4.65 3.318-5.154 2.332-.506 4.652.986 5.156 3.318l2.162 9.968c.504 2.33-.988 4.65-3.32 5.156" fill="#1e1c1a"/><path d="m527.015 640.965c-2.332.506-4.652-.988-5.156-3.318l-2.162-9.968c-.504-2.33.988-4.65 3.32-5.156 2.33-.506 4.65.988 5.156 3.318l2.16 9.97c.506 2.33-.988 4.65-3.318 5.154" fill="#1e1c1a"/><path d="m588.124 551.444c-.084.006-.166.02-.25.036-.496.108-.922.406-1.204.838-.278.434-.372.946-.264 1.44l3.93 18.134c.11.498.406.924.838 1.202.434.278.948.368 1.444.266 1.03-.224 1.688-1.248 1.466-2.28l-3.93-18.132c-.108-.496-.406-.922-.84-1.204-.358-.23-.774-.336-1.19-.3m4.588 26.35c-1.374.11-2.74-.228-3.924-.992-1.424-.914-2.406-2.328-2.76-3.976l-3.934-18.13c-.358-1.648-.05-3.342.868-4.766.916-1.424 2.33-2.404 3.976-2.762 3.41-.77 6.786 1.434 7.526 4.844l3.93 18.132c.74 3.41-1.434 6.786-4.842 7.524-.278.064-.558.104-.84.126" fill="#1e1c1a"/><path d="m534.349 485.02c-.462.038-.924.104-1.388.204l-10.248 2.222c-2.736.594-5.082 2.228-6.612 4.602-1.526 2.37-2.04 5.182-1.448 7.918l8.888 41.002c1.232 5.674 6.848 9.282 12.52 8.06l10.25-2.22c2.736-.594 5.082-2.228 6.61-4.6 1.528-2.374 2.042-5.188 1.45-7.922l-8.89-41.002c-1.13-5.21-5.956-8.684-11.132-8.264m.584 67.442c-6.766.544-13.078-3.996-14.554-10.808l-8.888-41.002c-.778-3.58-.106-7.258 1.89-10.358s5.066-5.234 8.646-6.01l10.246-2.222c7.416-1.636 14.764 3.12 16.37 10.536l8.89 41c.778 3.582.108 7.262-1.89 10.36-1.996 3.102-5.066 5.236-8.646 6.012l-10.248 2.22c-.608.132-1.216.222-1.816.272" fill="#1e1c1a"/><path d="m590.481 619.522-64.508 13.984c-5.22 1.134-10.416-2.212-11.548-7.432l-18.794-86.692c-1.132-5.22 2.214-10.414 7.432-11.548l64.508-13.984c5.22-1.13 10.416 2.212 11.548 7.432l18.794 86.694c1.132 5.218-2.214 10.416-7.432 11.546" fill="#c8e7f9"/><path d="m568.993 515.405c-.348.028-.7.08-1.05.154l-64.508 13.986c-2.068.448-3.842 1.682-4.998 3.478-1.154 1.794-1.546 3.922-1.096 5.988l18.794 86.69c.45 2.07 1.684 3.844 3.48 5 1.794 1.156 3.922 1.544 5.988 1.094l64.506-13.984c2.068-.446 3.842-1.682 4.998-3.476 1.154-1.794 1.546-3.922 1.096-5.988l-18.794-86.694c-.854-3.938-4.502-6.564-8.416-6.248m-44.168 120.036c-2.486.2-4.962-.418-7.106-1.798-2.58-1.66-4.356-4.216-5.004-7.196l-18.794-86.694c-1.338-6.176 2.596-12.29 8.77-13.628l64.51-13.986c6.208-1.344 12.29 2.6 13.626 8.772l18.796 86.694c1.338 6.176-2.596 12.288-8.772 13.626l-64.506 13.984c-.506.11-1.012.184-1.52.226" fill="#1e1c1a"/><path d="m528.242 621.907c-.938.076-1.808-.552-2.014-1.496l-17.69-81.596c-.22-1.028.432-2.042 1.46-2.266 1.034-.214 2.042.434 2.266 1.46l17.688 81.596c.222 1.026-.43 2.042-1.458 2.264-.086.018-.168.03-.252.038" fill="#1e1c1a"/><path d="m541.92 618.94c-.938.076-1.808-.552-2.014-1.496l-17.69-81.594c-.22-1.028.432-2.042 1.46-2.266 1.038-.222 2.042.434 2.266 1.46l17.688 81.594c.222 1.026-.43 2.042-1.46 2.264-.084.018-.166.032-.25.038" fill="#1e1c1a"/><path d="m569.278 613.01c-.938.076-1.808-.552-2.014-1.496l-17.69-81.596c-.22-1.028.432-2.042 1.46-2.266 1.046-.232 2.04.432 2.266 1.46l17.688 81.596c.222 1.026-.43 2.042-1.46 2.264-.084.018-.166.032-.25.038" fill="#1e1c1a"/><path d="m582.958 610.043c-.938.076-1.808-.552-2.014-1.496l-17.692-81.596c-.222-1.028.432-2.042 1.46-2.264 1.032-.214 2.04.432 2.266 1.46l17.69 81.594c.222 1.026-.43 2.042-1.46 2.264-.084.018-.166.032-.25.038" fill="#1e1c1a"/><path d="m555.599 615.975c-.938.076-1.808-.552-2.014-1.496l-17.69-81.596c-.22-1.028.432-2.042 1.46-2.266 1.042-.226 2.042.432 2.266 1.46l17.688 81.596c.222 1.026-.43 2.042-1.46 2.264-.084.018-.166.032-.25.038" fill="#1e1c1a"/><path d="m475.25 465.291c-3.722 15.684 5.974 31.418 21.66 35.14 15.684 3.724 31.418-5.974 35.14-21.658 3.724-15.686-7.368-39.366-19.442-42.234-12.074-2.866-33.636 13.066-37.358 28.752" fill="#c8e7f9"/><path d="m476.914 465.686c-3.498 14.74 5.65 29.582 20.39 33.082 14.734 3.504 29.584-5.646 33.084-20.388 3.462-14.594-6.898-37.498-18.174-40.176-10.508-2.502-31.642 12.072-35.3 27.482m29.26 37.158c-3.196.258-6.448.014-9.658-.748-16.576-3.936-26.864-20.624-22.93-37.202 3.89-16.37 25.98-33.204 39.418-30.018 12.982 3.084 24.596 27.922 20.712 44.292-1.906 8.032-6.826 14.838-13.852 19.168-4.218 2.6-8.892 4.12-13.69 4.508" fill="#1e1c1a"/><g clip-path="url(#a)" fill="#1e1c1a"><path d="m698.142 417.69c.07.808-.544 1.512-1.374 1.574-.828.06-1.558-.542-1.628-1.35s.544-1.512 1.374-1.574c.828-.06 1.556.544 1.628 1.35"/><path d="m700.463 412.034c.07.806-.544 1.51-1.374 1.572-.828.062-1.558-.542-1.628-1.35s.544-1.512 1.374-1.574c.828-.06 1.558.544 1.628 1.352"/><path d="m694.867 412.448c.07.808-.544 1.512-1.374 1.574-.828.06-1.558-.542-1.628-1.35s.544-1.512 1.374-1.574c.828-.06 1.558.544 1.628 1.35"/><path d="m699.095 428.59c.072.806-.544 1.512-1.372 1.574-.83.06-1.558-.542-1.628-1.352-.072-.806.542-1.512 1.372-1.572.828-.062 1.558.544 1.628 1.35"/><path d="m701.417 422.932c.07.808-.544 1.512-1.374 1.574-.828.06-1.558-.542-1.628-1.352-.072-.806.544-1.51 1.374-1.572.828-.06 1.556.544 1.628 1.35"/><path d="m695.821 423.348c.07.806-.544 1.512-1.374 1.574-.828.06-1.558-.542-1.628-1.352-.072-.806.544-1.512 1.374-1.572.828-.062 1.556.544 1.628 1.35"/><path d="m698.142 417.69c.07.808-.544 1.512-1.374 1.574-.828.06-1.558-.542-1.628-1.35s.544-1.512 1.374-1.574c.828-.06 1.556.544 1.628 1.35"/><path d="m700.049 439.491c.07.806-.544 1.512-1.374 1.572-.828.062-1.556-.542-1.628-1.35-.07-.806.544-1.512 1.374-1.572.828-.062 1.558.544 1.628 1.35"/><path d="m702.371 433.832c.072.806-.544 1.512-1.374 1.572-.828.062-1.556-.54-1.628-1.35-.07-.806.544-1.512 1.374-1.572.828-.062 1.558.544 1.628 1.35"/><path d="m696.774 434.248c.072.806-.544 1.512-1.374 1.572-.828.062-1.556-.542-1.628-1.35-.07-.806.544-1.512 1.374-1.572.828-.062 1.558.544 1.628 1.35"/><path d="m699.095 428.59c.072.806-.544 1.512-1.372 1.574-.83.06-1.558-.542-1.628-1.352-.072-.806.542-1.512 1.372-1.572.828-.062 1.558.544 1.628 1.35"/><path d="m701.003 450.391c.07.806-.544 1.512-1.374 1.572-.828.062-1.558-.542-1.628-1.35s.544-1.512 1.374-1.574c.828-.06 1.556.544 1.628 1.352"/><path d="m697.728 445.149c.07.806-.544 1.512-1.374 1.572-.828.062-1.558-.542-1.628-1.35-.07-.806.544-1.512 1.374-1.574.828-.06 1.558.544 1.628 1.352"/><path d="m700.049 439.491c.07.806-.544 1.512-1.374 1.572-.828.062-1.556-.542-1.628-1.35-.07-.806.544-1.512 1.374-1.572.828-.062 1.558.544 1.628 1.35"/><path d="m698.682 456.047c.07.808-.544 1.512-1.374 1.574-.828.06-1.558-.542-1.628-1.35-.072-.808.544-1.512 1.374-1.574.828-.06 1.556.544 1.628 1.35"/><path d="m701.003 450.391c.07.806-.544 1.512-1.374 1.572-.828.062-1.558-.542-1.628-1.35s.544-1.512 1.374-1.574c.828-.06 1.556.544 1.628 1.352"/><path d="m692.545 418.106c.07.806-.544 1.512-1.374 1.574-.828.06-1.558-.542-1.628-1.352-.07-.806.544-1.512 1.374-1.572.828-.062 1.556.544 1.628 1.35"/><path d="m686.949 418.522c.07.806-.544 1.512-1.374 1.572-.828.062-1.558-.542-1.628-1.35-.07-.806.544-1.512 1.374-1.572.828-.062 1.556.544 1.628 1.35"/><path d="m694.867 412.448c.07.808-.544 1.512-1.374 1.574-.828.06-1.558-.542-1.628-1.35s.544-1.512 1.374-1.574c.828-.06 1.558.544 1.628 1.35"/><path d="m689.27 412.864c.07.806-.544 1.512-1.374 1.574-.828.06-1.558-.542-1.628-1.352-.07-.806.544-1.512 1.374-1.572.828-.062 1.558.544 1.628 1.35"/><path d="m683.673 413.28c.07.806-.544 1.512-1.374 1.572-.828.062-1.558-.542-1.628-1.35-.07-.806.544-1.512 1.374-1.572.828-.062 1.558.544 1.628 1.35"/><path d="m693.498 429.006c.072.806-.544 1.512-1.374 1.572-.828.062-1.556-.542-1.626-1.35-.072-.806.542-1.512 1.372-1.572.828-.062 1.558.544 1.628 1.35"/><path d="m687.902 429.422c.072.806-.544 1.512-1.374 1.572-.828.062-1.556-.542-1.626-1.35-.072-.806.542-1.512 1.372-1.574.828-.06 1.558.544 1.628 1.352"/><path d="m695.821 423.348c.07.806-.544 1.512-1.374 1.574-.828.06-1.558-.542-1.628-1.352-.072-.806.544-1.512 1.374-1.572.828-.062 1.556.544 1.628 1.35"/><path d="m690.224 423.764c.07.806-.544 1.512-1.374 1.572-.828.062-1.558-.542-1.628-1.35-.072-.806.544-1.512 1.374-1.572.828-.062 1.556.544 1.628 1.35"/><path d="m684.627 424.18c.07.806-.544 1.512-1.374 1.572-.828.062-1.558-.542-1.628-1.35-.072-.806.544-1.512 1.374-1.572.828-.062 1.556.542 1.628 1.35"/><path d="m692.545 418.106c.07.806-.544 1.512-1.374 1.574-.828.06-1.558-.542-1.628-1.352-.07-.806.544-1.512 1.374-1.572.828-.062 1.556.544 1.628 1.35"/><path d="m686.949 418.522c.07.806-.544 1.512-1.374 1.572-.828.062-1.558-.542-1.628-1.35-.07-.806.544-1.512 1.374-1.572.828-.062 1.556.544 1.628 1.35"/><path d="m694.453 439.907c.07.806-.544 1.512-1.374 1.572-.828.062-1.556-.542-1.628-1.35-.07-.806.544-1.512 1.374-1.574.828-.06 1.558.544 1.628 1.352"/><path d="m688.856 440.321c.07.808-.544 1.512-1.374 1.574-.828.06-1.556-.542-1.628-1.35-.07-.808.544-1.512 1.374-1.574.828-.06 1.558.544 1.628 1.35"/><path d="m696.774 434.248c.072.806-.544 1.512-1.374 1.572-.828.062-1.556-.542-1.628-1.35-.07-.806.544-1.512 1.374-1.572.828-.062 1.558.544 1.628 1.35"/><path d="m691.177 434.664c.072.806-.544 1.512-1.374 1.572-.828.062-1.556-.542-1.628-1.35-.07-.806.544-1.512 1.374-1.574.828-.06 1.558.544 1.628 1.352"/><path d="m685.58 435.08c.072.806-.544 1.51-1.374 1.572-.828.06-1.556-.542-1.628-1.35-.07-.808.544-1.512 1.374-1.574.828-.06 1.558.544 1.628 1.352"/><path d="m693.498 429.006c.072.806-.544 1.512-1.374 1.572-.828.062-1.556-.542-1.626-1.35-.072-.806.542-1.512 1.372-1.572.828-.062 1.558.544 1.628 1.35"/><path d="m687.902 429.422c.072.806-.544 1.512-1.374 1.572-.828.062-1.556-.542-1.626-1.35-.072-.806.542-1.512 1.372-1.574.828-.06 1.558.544 1.628 1.352"/><path d="m695.407 450.805c.07.808-.544 1.512-1.374 1.574-.828.06-1.558-.542-1.628-1.35s.544-1.512 1.374-1.574c.828-.06 1.556.544 1.628 1.35"/><path d="m689.81 451.221c.07.808-.544 1.512-1.374 1.574-.828.06-1.558-.542-1.628-1.352-.07-.806.544-1.51 1.374-1.572.828-.062 1.556.544 1.628 1.35"/><path d="m697.728 445.149c.07.806-.544 1.512-1.374 1.572-.828.062-1.558-.542-1.628-1.35-.07-.806.544-1.512 1.374-1.574.828-.06 1.558.544 1.628 1.352"/><path d="m692.131 445.563c.07.808-.544 1.512-1.374 1.574-.828.06-1.558-.542-1.628-1.35s.544-1.512 1.374-1.574c.828-.06 1.558.544 1.628 1.35"/><path d="m686.535 445.979c.07.808-.544 1.512-1.374 1.574-.828.06-1.558-.542-1.628-1.352-.07-.806.544-1.51 1.374-1.572.828-.06 1.558.544 1.628 1.35"/><path d="m694.453 439.907c.07.806-.544 1.512-1.374 1.572-.828.062-1.556-.542-1.628-1.35-.07-.806.544-1.512 1.374-1.574.828-.06 1.558.544 1.628 1.352"/><path d="m688.856 440.321c.07.808-.544 1.512-1.374 1.574-.828.06-1.556-.542-1.628-1.35-.07-.808.544-1.512 1.374-1.574.828-.06 1.558.544 1.628 1.35"/><path d="m698.682 456.047c.07.808-.544 1.512-1.374 1.574-.828.06-1.558-.542-1.628-1.35-.072-.808.544-1.512 1.374-1.574.828-.06 1.556.544 1.628 1.35"/><path d="m693.085 456.463c.07.806-.544 1.512-1.374 1.574-.828.06-1.558-.542-1.628-1.352-.072-.806.544-1.512 1.374-1.572.828-.062 1.556.544 1.628 1.35"/><path d="m687.489 456.879c.07.806-.544 1.512-1.374 1.572-.828.062-1.558-.542-1.628-1.35-.072-.806.544-1.512 1.374-1.572.828-.062 1.556.544 1.628 1.35"/><path d="m695.407 450.805c.07.808-.544 1.512-1.374 1.574-.828.06-1.558-.542-1.628-1.35s.544-1.512 1.374-1.574c.828-.06 1.556.544 1.628 1.35"/><path d="m689.81 451.221c.07.808-.544 1.512-1.374 1.574-.828.06-1.558-.542-1.628-1.352-.07-.806.544-1.51 1.374-1.572.828-.062 1.556.544 1.628 1.35"/><path d="m680.398 408.037c.07.806-.544 1.512-1.374 1.572-.828.062-1.556-.542-1.628-1.35-.07-.806.544-1.512 1.374-1.572.828-.062 1.558.544 1.628 1.35"/><path d="m674.801 408.453c.07.806-.544 1.512-1.374 1.572-.828.062-1.556-.542-1.628-1.35-.07-.806.544-1.512 1.374-1.572.828-.062 1.558.544 1.628 1.35"/><path d="m681.352 418.938c.07.806-.544 1.512-1.374 1.572-.828.062-1.558-.542-1.628-1.35-.07-.806.544-1.512 1.374-1.572.828-.062 1.556.544 1.628 1.35"/><path d="m675.755 419.354c.07.806-.544 1.51-1.374 1.572-.828.06-1.558-.542-1.628-1.35s.544-1.512 1.374-1.574c.828-.06 1.556.544 1.628 1.352"/><path d="m683.673 413.28c.07.806-.544 1.512-1.374 1.572-.828.062-1.558-.542-1.628-1.35-.07-.806.544-1.512 1.374-1.572.828-.062 1.558.544 1.628 1.35"/><path d="m678.077 413.696c.07.806-.544 1.512-1.374 1.572-.828.062-1.558-.542-1.628-1.35-.07-.806.544-1.512 1.374-1.572.828-.062 1.558.544 1.628 1.35"/><path d="m672.48 414.112c.07.806-.544 1.51-1.374 1.572-.828.06-1.558-.542-1.628-1.35s.544-1.512 1.374-1.574c.828-.06 1.558.544 1.628 1.352"/><path d="m680.398 408.037c.07.806-.544 1.512-1.374 1.572-.828.062-1.556-.542-1.628-1.35-.07-.806.544-1.512 1.374-1.572.828-.062 1.558.544 1.628 1.35"/><path d="m674.801 408.453c.07.806-.544 1.512-1.374 1.572-.828.062-1.556-.542-1.628-1.35-.07-.806.544-1.512 1.374-1.572.828-.062 1.558.544 1.628 1.35"/><path d="m682.305 429.838c.072.806-.544 1.51-1.374 1.572-.828.06-1.556-.542-1.626-1.35-.072-.808.542-1.512 1.372-1.574.828-.06 1.558.544 1.628 1.352"/><path d="m676.708 430.252c.072.808-.544 1.512-1.374 1.574-.828.06-1.556-.542-1.626-1.352-.072-.806.542-1.51 1.372-1.572.828-.06 1.558.544 1.628 1.35"/><path d="m684.627 424.18c.07.806-.544 1.512-1.374 1.572-.828.062-1.558-.542-1.628-1.35-.072-.806.544-1.512 1.374-1.572.828-.062 1.556.542 1.628 1.35"/><path d="m679.031 424.596c.07.806-.544 1.51-1.374 1.572-.828.06-1.558-.542-1.628-1.35-.072-.808.544-1.512 1.374-1.574.828-.06 1.556.544 1.628 1.352"/><path d="m673.434 425.01c.07.808-.544 1.512-1.374 1.574-.828.06-1.558-.542-1.628-1.352-.072-.806.544-1.51 1.374-1.572.828-.06 1.556.544 1.628 1.35"/><path d="m681.352 418.938c.07.806-.544 1.512-1.374 1.572-.828.062-1.558-.542-1.628-1.35-.07-.806.544-1.512 1.374-1.572.828-.062 1.556.544 1.628 1.35"/><path d="m675.755 419.354c.07.806-.544 1.51-1.374 1.572-.828.06-1.558-.542-1.628-1.35s.544-1.512 1.374-1.574c.828-.06 1.556.544 1.628 1.352"/><path d="m683.259 440.737c.07.808-.544 1.512-1.374 1.574-.828.06-1.556-.542-1.628-1.352-.07-.806.544-1.51 1.374-1.572.828-.06 1.558.544 1.628 1.35"/><path d="m677.663 441.153c.07.806-.544 1.512-1.374 1.572-.828.062-1.556-.542-1.628-1.35-.07-.806.544-1.512 1.374-1.572.828-.062 1.558.544 1.628 1.35"/><path d="m685.58 435.08c.072.806-.544 1.51-1.374 1.572-.828.06-1.556-.542-1.628-1.35-.07-.808.544-1.512 1.374-1.574.828-.06 1.558.544 1.628 1.352"/><path d="m679.984 435.494c.072.808-.544 1.512-1.374 1.574-.828.06-1.556-.542-1.628-1.352-.07-.806.544-1.51 1.374-1.572.828-.06 1.558.544 1.628 1.35"/><path d="m674.387 435.91c.072.806-.544 1.512-1.374 1.572-.828.062-1.556-.54-1.628-1.35-.07-.806.544-1.512 1.374-1.572.828-.062 1.558.544 1.628 1.35"/><path d="m682.305 429.838c.072.806-.544 1.51-1.374 1.572-.828.06-1.556-.542-1.626-1.35-.072-.808.542-1.512 1.372-1.574.828-.06 1.558.544 1.628 1.352"/><path d="m676.708 430.252c.072.808-.544 1.512-1.374 1.574-.828.06-1.556-.542-1.626-1.352-.072-.806.542-1.51 1.372-1.572.828-.06 1.558.544 1.628 1.35"/><path d="m684.213 451.637c.07.806-.544 1.512-1.374 1.572-.828.062-1.558-.542-1.628-1.35-.07-.806.544-1.512 1.374-1.572.828-.062 1.556.544 1.628 1.35"/><path d="m678.617 452.053c.07.806-.544 1.512-1.374 1.572-.828.062-1.558-.542-1.628-1.35-.07-.806.544-1.512 1.374-1.572.828-.062 1.556.544 1.628 1.35"/><path d="m686.535 445.979c.07.808-.544 1.512-1.374 1.574-.828.06-1.558-.542-1.628-1.352-.07-.806.544-1.51 1.374-1.572.828-.06 1.558.544 1.628 1.35"/><path d="m680.938 446.395c.07.806-.544 1.512-1.374 1.572-.828.062-1.558-.542-1.628-1.35-.07-.806.544-1.512 1.374-1.572.828-.062 1.558.544 1.628 1.35"/><path d="m675.341 446.811c.07.806-.544 1.512-1.374 1.572-.828.062-1.558-.542-1.628-1.35-.07-.806.544-1.512 1.374-1.572.828-.062 1.558.544 1.628 1.35"/><path d="m683.259 440.737c.07.808-.544 1.512-1.374 1.574-.828.06-1.556-.542-1.628-1.352-.07-.806.544-1.51 1.374-1.572.828-.06 1.558.544 1.628 1.35"/><path d="m677.663 441.153c.07.806-.544 1.512-1.374 1.572-.828.062-1.556-.542-1.628-1.35-.07-.806.544-1.512 1.374-1.572.828-.062 1.558.544 1.628 1.35"/><path d="m687.489 456.879c.07.806-.544 1.512-1.374 1.572-.828.062-1.558-.542-1.628-1.35-.072-.806.544-1.512 1.374-1.572.828-.062 1.556.544 1.628 1.35"/><path d="m681.892 457.295c.07.806-.544 1.512-1.374 1.572-.828.062-1.558-.542-1.628-1.35-.072-.806.544-1.512 1.374-1.572.828-.062 1.556.544 1.628 1.35"/><path d="m676.295 457.711c.07.806-.544 1.51-1.374 1.572-.828.062-1.558-.542-1.628-1.35-.072-.808.544-1.512 1.374-1.574.828-.06 1.556.544 1.628 1.352"/><path d="m684.213 451.637c.07.806-.544 1.512-1.374 1.572-.828.062-1.558-.542-1.628-1.35-.07-.806.544-1.512 1.374-1.572.828-.062 1.556.544 1.628 1.35"/><path d="m678.617 452.053c.07.806-.544 1.512-1.374 1.572-.828.062-1.558-.542-1.628-1.35-.07-.806.544-1.512 1.374-1.572.828-.062 1.556.544 1.628 1.35"/><path d="m669.205 408.869c.07.806-.544 1.51-1.374 1.572-.828.062-1.556-.542-1.628-1.35-.07-.808.544-1.512 1.374-1.574.828-.06 1.558.544 1.628 1.352"/><path d="m663.608 409.284c.07.808-.544 1.512-1.374 1.574-.828.06-1.556-.542-1.628-1.35-.07-.808.544-1.512 1.374-1.574.828-.06 1.558.544 1.628 1.35"/><path d="m670.159 419.768c.07.808-.544 1.512-1.374 1.574-.828.06-1.558-.542-1.628-1.35s.544-1.512 1.374-1.574c.828-.06 1.556.544 1.628 1.35"/><path d="m664.562 420.184c.07.806-.544 1.512-1.374 1.574-.828.06-1.558-.542-1.628-1.352-.07-.806.544-1.512 1.374-1.572.828-.062 1.556.544 1.628 1.35"/><path d="m672.48 414.112c.07.806-.544 1.51-1.374 1.572-.828.06-1.558-.542-1.628-1.35s.544-1.512 1.374-1.574c.828-.06 1.558.544 1.628 1.352"/><path d="m666.883 414.526c.07.808-.544 1.512-1.374 1.574-.828.06-1.558-.542-1.628-1.35s.544-1.512 1.374-1.574c.828-.06 1.558.544 1.628 1.35"/><path d="m661.287 414.942c.07.806-.544 1.512-1.374 1.574-.828.06-1.558-.542-1.628-1.352-.07-.806.544-1.512 1.374-1.572.828-.062 1.558.544 1.628 1.35"/><path d="m669.205 408.869c.07.806-.544 1.51-1.374 1.572-.828.062-1.556-.542-1.628-1.35-.07-.808.544-1.512 1.374-1.574.828-.06 1.558.544 1.628 1.352"/><path d="m663.608 409.284c.07.808-.544 1.512-1.374 1.574-.828.06-1.556-.542-1.628-1.35-.07-.808.544-1.512 1.374-1.574.828-.06 1.558.544 1.628 1.35"/><path d="m671.112 430.668c.072.806-.544 1.512-1.374 1.574-.828.06-1.556-.542-1.626-1.352-.072-.806.542-1.512 1.372-1.572.828-.062 1.558.544 1.628 1.35"/><path d="m665.515 431.084c.072.806-.544 1.512-1.374 1.572-.828.062-1.556-.542-1.626-1.35-.072-.806.542-1.512 1.372-1.572.828-.062 1.558.544 1.628 1.35"/><path d="m673.434 425.01c.07.808-.544 1.512-1.374 1.574-.828.06-1.558-.542-1.628-1.352-.072-.806.544-1.51 1.374-1.572.828-.06 1.556.544 1.628 1.35"/><path d="m667.837 425.426c.07.806-.544 1.512-1.374 1.574-.828.06-1.558-.542-1.628-1.352-.072-.806.544-1.512 1.374-1.572.828-.062 1.556.544 1.628 1.35"/><path d="m662.241 425.842c.07.806-.544 1.512-1.374 1.572-.828.062-1.558-.542-1.628-1.35-.072-.806.544-1.512 1.374-1.572.828-.062 1.556.544 1.628 1.35"/><path d="m670.159 419.768c.07.808-.544 1.512-1.374 1.574-.828.06-1.558-.542-1.628-1.35s.544-1.512 1.374-1.574c.828-.06 1.556.544 1.628 1.35"/><path d="m664.562 420.184c.07.806-.544 1.512-1.374 1.574-.828.06-1.558-.542-1.628-1.352-.07-.806.544-1.512 1.374-1.572.828-.062 1.556.544 1.628 1.35"/><path d="m672.066 441.569c.07.806-.544 1.512-1.374 1.572-.828.062-1.556-.542-1.628-1.35-.07-.806.544-1.512 1.374-1.572.828-.062 1.558.544 1.628 1.35"/><path d="m666.469 441.985c.07.806-.544 1.512-1.374 1.572-.828.062-1.556-.542-1.628-1.35-.07-.806.544-1.512 1.374-1.574.828-.06 1.558.544 1.628 1.352"/><path d="m674.387 435.91c.072.806-.544 1.512-1.374 1.572-.828.062-1.556-.54-1.628-1.35-.07-.806.544-1.512 1.374-1.572.828-.062 1.558.544 1.628 1.35"/><path d="m668.79 436.326c.072.806-.544 1.512-1.374 1.572-.828.062-1.556-.542-1.628-1.35-.07-.806.544-1.512 1.374-1.572.828-.062 1.558.544 1.628 1.35"/><path d="m663.194 436.743c.072.806-.544 1.512-1.374 1.572-.828.062-1.556-.542-1.628-1.35-.07-.806.544-1.512 1.374-1.574.828-.06 1.558.544 1.628 1.352"/><path d="m671.112 430.668c.072.806-.544 1.512-1.374 1.574-.828.06-1.556-.542-1.626-1.352-.072-.806.542-1.512 1.372-1.572.828-.062 1.558.544 1.628 1.35"/><path d="m665.515 431.084c.072.806-.544 1.512-1.374 1.572-.828.062-1.556-.542-1.626-1.35-.072-.806.542-1.512 1.372-1.572.828-.062 1.558.544 1.628 1.35"/><path d="m673.02 452.469c.07.806-.544 1.51-1.374 1.572-.828.062-1.558-.542-1.628-1.35s.544-1.512 1.374-1.574c.828-.06 1.556.544 1.628 1.352"/><path d="m667.423 452.883c.07.808-.544 1.512-1.374 1.574-.828.06-1.558-.542-1.628-1.35s.544-1.512 1.374-1.574c.828-.06 1.556.544 1.628 1.35"/><path d="m675.341 446.811c.07.806-.544 1.512-1.374 1.572-.828.062-1.558-.542-1.628-1.35-.07-.806.544-1.512 1.374-1.572.828-.062 1.558.544 1.628 1.35"/><path d="m669.745 447.227c.07.806-.544 1.512-1.374 1.572-.828.062-1.558-.542-1.628-1.35-.07-.806.544-1.512 1.374-1.574.828-.06 1.558.544 1.628 1.352"/><path d="m664.148 447.641c.07.808-.544 1.512-1.374 1.574-.828.06-1.558-.542-1.628-1.35s.544-1.512 1.374-1.574c.828-.06 1.558.544 1.628 1.35"/><path d="m672.066 441.569c.07.806-.544 1.512-1.374 1.572-.828.062-1.556-.542-1.628-1.35-.07-.806.544-1.512 1.374-1.572.828-.062 1.558.544 1.628 1.35"/><path d="m666.469 441.985c.07.806-.544 1.512-1.374 1.572-.828.062-1.556-.542-1.628-1.35-.07-.806.544-1.512 1.374-1.574.828-.06 1.558.544 1.628 1.352"/><path d="m676.295 457.711c.07.806-.544 1.51-1.374 1.572-.828.062-1.558-.542-1.628-1.35-.072-.808.544-1.512 1.374-1.574.828-.06 1.556.544 1.628 1.352"/><path d="m670.699 458.125c.07.808-.544 1.512-1.374 1.574-.828.06-1.558-.542-1.628-1.35-.072-.808.544-1.512 1.374-1.574.828-.06 1.556.544 1.628 1.35"/><path d="m665.102 458.541c.07.806-.544 1.512-1.374 1.574-.828.06-1.558-.542-1.628-1.352-.072-.806.544-1.512 1.374-1.572.828-.062 1.556.544 1.628 1.35"/><path d="m673.02 452.469c.07.806-.544 1.51-1.374 1.572-.828.062-1.558-.542-1.628-1.35s.544-1.512 1.374-1.574c.828-.06 1.556.544 1.628 1.352"/><path d="m667.423 452.883c.07.808-.544 1.512-1.374 1.574-.828.06-1.558-.542-1.628-1.35s.544-1.512 1.374-1.574c.828-.06 1.556.544 1.628 1.35"/><path d="m658.011 409.7c.07.808-.544 1.512-1.374 1.574-.828.06-1.558-.542-1.628-1.352-.07-.806.544-1.512 1.374-1.572.828-.062 1.558.544 1.628 1.35"/><path d="m652.414 410.116c.07.806-.544 1.512-1.374 1.572-.828.062-1.558-.542-1.628-1.35-.07-.806.544-1.512 1.374-1.572.828-.062 1.558.544 1.628 1.35"/><path d="m658.965 420.6c.07.806-.544 1.512-1.374 1.572-.828.062-1.558-.542-1.628-1.35-.07-.806.544-1.512 1.374-1.572.828-.062 1.556.544 1.628 1.35"/><path d="m653.369 421.016c.07.806-.544 1.512-1.374 1.572-.828.062-1.558-.542-1.628-1.35-.072-.806.544-1.512 1.374-1.572.828-.062 1.556.542 1.628 1.35"/><path d="m661.287 414.942c.07.806-.544 1.512-1.374 1.574-.828.06-1.558-.542-1.628-1.352-.07-.806.544-1.512 1.374-1.572.828-.062 1.558.544 1.628 1.35"/><path d="m655.69 415.358c.07.806-.544 1.512-1.374 1.572-.828.062-1.558-.542-1.628-1.35-.07-.806.544-1.512 1.374-1.572.828-.062 1.556.544 1.628 1.35"/><path d="m650.093 415.774c.07.806-.544 1.512-1.374 1.572-.828.062-1.558-.542-1.628-1.35-.07-.806.544-1.512 1.374-1.572.828-.062 1.556.544 1.628 1.35"/><path d="m658.011 409.7c.07.808-.544 1.512-1.374 1.574-.828.06-1.558-.542-1.628-1.352-.07-.806.544-1.512 1.374-1.572.828-.062 1.558.544 1.628 1.35"/><path d="m652.414 410.116c.07.806-.544 1.512-1.374 1.572-.828.062-1.558-.542-1.628-1.35-.07-.806.544-1.512 1.374-1.572.828-.062 1.558.544 1.628 1.35"/><path d="m659.918 431.5c.072.806-.544 1.512-1.374 1.572-.828.062-1.556-.542-1.626-1.35-.072-.806.542-1.512 1.372-1.574.828-.06 1.558.544 1.628 1.352"/><path d="m654.322 431.916c.072.806-.544 1.51-1.374 1.572-.828.06-1.556-.542-1.628-1.35-.07-.808.544-1.512 1.374-1.574.828-.06 1.558.544 1.628 1.352"/><path d="m662.241 425.842c.07.806-.544 1.512-1.374 1.572-.828.062-1.558-.542-1.628-1.35-.072-.806.544-1.512 1.374-1.572.828-.062 1.556.544 1.628 1.35"/><path d="m656.643 426.258c.072.806-.544 1.512-1.372 1.572-.83.062-1.558-.542-1.628-1.35-.072-.806.542-1.512 1.372-1.572.828-.062 1.558.542 1.628 1.35"/><path d="m651.046 426.674c.072.806-.544 1.51-1.372 1.572-.83.06-1.558-.542-1.628-1.35-.072-.808.542-1.512 1.372-1.574.828-.06 1.558.544 1.628 1.352"/><path d="m658.965 420.6c.07.806-.544 1.512-1.374 1.572-.828.062-1.558-.542-1.628-1.35-.07-.806.544-1.512 1.374-1.572.828-.062 1.556.544 1.628 1.35"/><path d="m653.369 421.016c.07.806-.544 1.512-1.374 1.572-.828.062-1.558-.542-1.628-1.35-.072-.806.544-1.512 1.374-1.572.828-.062 1.556.542 1.628 1.35"/><path d="m660.872 442.399c.07.808-.544 1.512-1.374 1.574-.828.06-1.556-.542-1.628-1.35-.07-.808.544-1.512 1.374-1.574.828-.06 1.558.544 1.628 1.35"/><path d="m655.276 442.815c.07.808-.544 1.512-1.374 1.574-.828.06-1.558-.542-1.628-1.352-.07-.806.544-1.51 1.374-1.572.828-.06 1.558.544 1.628 1.35"/><path d="m663.194 436.743c.072.806-.544 1.512-1.374 1.572-.828.062-1.556-.542-1.628-1.35-.07-.806.544-1.512 1.374-1.574.828-.06 1.558.544 1.628 1.352"/><path d="m657.597 437.159c.07.806-.544 1.51-1.374 1.572-.828.06-1.556-.542-1.628-1.35-.07-.808.544-1.512 1.374-1.574.828-.06 1.558.544 1.628 1.352"/><path d="m652 437.573c.07.808-.544 1.512-1.374 1.574-.828.06-1.556-.542-1.628-1.352-.07-.806.544-1.51 1.374-1.572.828-.06 1.558.544 1.628 1.35"/><path d="m659.918 431.5c.072.806-.544 1.512-1.374 1.572-.828.062-1.556-.542-1.626-1.35-.072-.806.542-1.512 1.372-1.574.828-.06 1.558.544 1.628 1.352"/><path d="m654.322 431.916c.072.806-.544 1.51-1.374 1.572-.828.06-1.556-.542-1.628-1.35-.07-.808.544-1.512 1.374-1.574.828-.06 1.558.544 1.628 1.352"/><path d="m661.827 453.299c.07.808-.544 1.512-1.374 1.574-.828.06-1.558-.542-1.628-1.352-.07-.806.544-1.51 1.374-1.572.828-.062 1.556.544 1.628 1.35"/><path d="m656.23 453.715c.07.806-.544 1.512-1.374 1.572-.828.062-1.558-.542-1.628-1.35-.07-.806.544-1.512 1.374-1.572.828-.062 1.556.544 1.628 1.35"/><path d="m664.148 447.641c.07.808-.544 1.512-1.374 1.574-.828.06-1.558-.542-1.628-1.35s.544-1.512 1.374-1.574c.828-.06 1.558.544 1.628 1.35"/><path d="m658.551 448.057c.07.808-.544 1.512-1.374 1.574-.828.06-1.558-.542-1.628-1.352-.07-.806.544-1.51 1.374-1.572.828-.062 1.558.544 1.628 1.35"/><path d="m652.955 448.473c.07.806-.544 1.512-1.374 1.572-.828.062-1.558-.542-1.628-1.35-.07-.806.544-1.512 1.374-1.572.828-.062 1.556.544 1.628 1.35"/><path d="m660.872 442.399c.07.808-.544 1.512-1.374 1.574-.828.06-1.556-.542-1.628-1.35-.07-.808.544-1.512 1.374-1.574.828-.06 1.558.544 1.628 1.35"/><path d="m655.276 442.815c.07.808-.544 1.512-1.374 1.574-.828.06-1.558-.542-1.628-1.352-.07-.806.544-1.51 1.374-1.572.828-.06 1.558.544 1.628 1.35"/><path d="m665.102 458.541c.07.806-.544 1.512-1.374 1.574-.828.06-1.558-.542-1.628-1.352-.072-.806.544-1.512 1.374-1.572.828-.062 1.556.544 1.628 1.35"/><path d="m659.505 458.957c.07.806-.544 1.512-1.374 1.572-.828.062-1.558-.542-1.628-1.35-.072-.806.544-1.512 1.374-1.572.828-.062 1.556.544 1.628 1.35"/><path d="m653.908 459.373c.072.806-.544 1.512-1.372 1.572-.83.062-1.558-.542-1.628-1.35-.072-.806.542-1.512 1.372-1.572.828-.062 1.558.544 1.628 1.35"/><path d="m661.827 453.299c.07.808-.544 1.512-1.374 1.574-.828.06-1.558-.542-1.628-1.352-.07-.806.544-1.51 1.374-1.572.828-.062 1.556.544 1.628 1.35"/><path d="m656.23 453.715c.07.806-.544 1.512-1.374 1.572-.828.062-1.558-.542-1.628-1.35-.07-.806.544-1.512 1.374-1.572.828-.062 1.556.544 1.628 1.35"/><path d="m646.818 410.532c.07.806-.544 1.512-1.374 1.572-.828.062-1.558-.542-1.628-1.35-.07-.806.544-1.512 1.374-1.572.828-.062 1.558.544 1.628 1.35"/><path d="m641.221 410.948c.07.806-.544 1.51-1.374 1.572-.828.062-1.558-.542-1.628-1.35s.544-1.512 1.374-1.574c.828-.06 1.558.544 1.628 1.352"/><path d="m647.772 421.432c.07.806-.544 1.51-1.374 1.572-.828.06-1.558-.542-1.628-1.35-.072-.808.544-1.512 1.374-1.574.828-.06 1.556.544 1.628 1.352"/><path d="m642.175 421.846c.07.808-.544 1.512-1.374 1.574-.828.06-1.558-.542-1.628-1.35-.072-.808.544-1.512 1.374-1.574.828-.06 1.556.544 1.628 1.35"/><path d="m650.093 415.774c.07.806-.544 1.512-1.374 1.572-.828.062-1.558-.542-1.628-1.35-.07-.806.544-1.512 1.374-1.572.828-.062 1.556.544 1.628 1.35"/><path d="m644.497 416.19c.07.806-.544 1.51-1.374 1.572-.828.06-1.558-.542-1.628-1.35s.544-1.512 1.374-1.574c.828-.06 1.556.544 1.628 1.352"/><path d="m638.9 416.604c.07.808-.544 1.512-1.374 1.574-.828.06-1.558-.542-1.628-1.35s.544-1.512 1.374-1.574c.828-.06 1.556.544 1.628 1.35"/><path d="m646.818 410.532c.07.806-.544 1.512-1.374 1.572-.828.062-1.558-.542-1.628-1.35-.07-.806.544-1.512 1.374-1.572.828-.062 1.558.544 1.628 1.35"/><path d="m641.221 410.948c.07.806-.544 1.51-1.374 1.572-.828.062-1.558-.542-1.628-1.35s.544-1.512 1.374-1.574c.828-.06 1.558.544 1.628 1.352"/><path d="m648.725 432.33c.072.808-.544 1.512-1.374 1.574-.828.06-1.556-.542-1.628-1.352-.07-.806.544-1.51 1.374-1.572.828-.06 1.558.544 1.628 1.35"/><path d="m643.128 432.746c.072.806-.544 1.512-1.374 1.572-.828.062-1.556-.54-1.628-1.35-.07-.806.544-1.512 1.374-1.572.828-.062 1.558.544 1.628 1.35"/><path d="m651.046 426.674c.072.806-.544 1.51-1.372 1.572-.83.06-1.558-.542-1.628-1.35-.072-.808.542-1.512 1.372-1.574.828-.06 1.558.544 1.628 1.352"/><path d="m645.45 427.088c.072.808-.544 1.512-1.374 1.574-.828.06-1.556-.542-1.626-1.352-.072-.806.542-1.51 1.372-1.572.828-.06 1.558.544 1.628 1.35"/><path d="m639.853 427.504c.072.806-.544 1.512-1.374 1.574-.828.06-1.556-.542-1.626-1.352-.072-.806.542-1.512 1.372-1.572.828-.062 1.558.544 1.628 1.35"/><path d="m647.772 421.432c.07.806-.544 1.51-1.374 1.572-.828.06-1.558-.542-1.628-1.35-.072-.808.544-1.512 1.374-1.574.828-.06 1.556.544 1.628 1.352"/><path d="m642.175 421.846c.07.808-.544 1.512-1.374 1.574-.828.06-1.558-.542-1.628-1.35-.072-.808.544-1.512 1.374-1.574.828-.06 1.556.544 1.628 1.35"/><path d="m649.679 443.231c.07.806-.544 1.512-1.374 1.572-.828.062-1.558-.542-1.628-1.35-.07-.806.544-1.512 1.374-1.572.828-.062 1.558.544 1.628 1.35"/><path d="m644.082 443.647c.07.806-.544 1.512-1.374 1.572-.828.062-1.558-.542-1.628-1.35-.07-.806.544-1.512 1.374-1.572.828-.062 1.558.544 1.628 1.35"/><path d="m652 437.573c.07.808-.544 1.512-1.374 1.574-.828.06-1.556-.542-1.628-1.352-.07-.806.544-1.51 1.374-1.572.828-.06 1.558.544 1.628 1.35"/><path d="m646.404 437.989c.07.806-.544 1.512-1.374 1.572-.828.062-1.556-.54-1.628-1.35-.07-.806.544-1.512 1.374-1.572.828-.062 1.558.544 1.628 1.35"/><path d="m640.807 438.405c.07.806-.544 1.512-1.374 1.572-.828.062-1.556-.542-1.628-1.35-.07-.806.544-1.512 1.374-1.572.828-.062 1.558.544 1.628 1.35"/><path d="m648.725 432.33c.072.808-.544 1.512-1.374 1.574-.828.06-1.556-.542-1.628-1.352-.07-.806.544-1.51 1.374-1.572.828-.06 1.558.544 1.628 1.35"/><path d="m643.128 432.746c.072.806-.544 1.512-1.374 1.572-.828.062-1.556-.54-1.628-1.35-.07-.806.544-1.512 1.374-1.572.828-.062 1.558.544 1.628 1.35"/><path d="m650.633 454.131c.07.806-.544 1.512-1.374 1.572-.828.062-1.558-.542-1.628-1.35-.072-.806.544-1.512 1.374-1.572.828-.062 1.556.544 1.628 1.35"/><path d="m645.037 454.547c.07.806-.544 1.51-1.374 1.572-.828.062-1.558-.542-1.628-1.35-.072-.808.544-1.512 1.374-1.574.828-.06 1.556.544 1.628 1.352"/><path d="m652.955 448.473c.07.806-.544 1.512-1.374 1.572-.828.062-1.558-.542-1.628-1.35-.07-.806.544-1.512 1.374-1.572.828-.062 1.556.544 1.628 1.35"/><path d="m647.358 448.889c.07.806-.544 1.512-1.374 1.572-.828.062-1.558-.542-1.628-1.35-.07-.806.544-1.512 1.374-1.572.828-.062 1.556.544 1.628 1.35"/><path d="m641.761 449.305c.07.806-.544 1.512-1.374 1.572-.828.062-1.558-.542-1.628-1.35-.07-.806.544-1.512 1.374-1.574.828-.06 1.556.544 1.628 1.352"/><path d="m649.679 443.231c.07.806-.544 1.512-1.374 1.572-.828.062-1.558-.542-1.628-1.35-.07-.806.544-1.512 1.374-1.572.828-.062 1.558.544 1.628 1.35"/><path d="m644.082 443.647c.07.806-.544 1.512-1.374 1.572-.828.062-1.558-.542-1.628-1.35-.07-.806.544-1.512 1.374-1.572.828-.062 1.558.544 1.628 1.35"/><path d="m653.908 459.373c.072.806-.544 1.512-1.372 1.572-.83.062-1.558-.542-1.628-1.35-.072-.806.542-1.512 1.372-1.572.828-.062 1.558.544 1.628 1.35"/><path d="m650.633 454.131c.07.806-.544 1.512-1.374 1.572-.828.062-1.558-.542-1.628-1.35-.072-.806.544-1.512 1.374-1.572.828-.062 1.556.544 1.628 1.35"/><path d="m645.037 454.547c.07.806-.544 1.51-1.374 1.572-.828.062-1.558-.542-1.628-1.35-.072-.808.544-1.512 1.374-1.574.828-.06 1.556.544 1.628 1.352"/><path d="m635.624 411.362c.07.808-.544 1.512-1.374 1.574-.828.06-1.558-.542-1.628-1.35s.544-1.512 1.374-1.574c.828-.06 1.558.544 1.628 1.35"/><path d="m630.028 411.778c.07.806-.544 1.512-1.374 1.574-.828.06-1.558-.542-1.628-1.352-.07-.806.544-1.512 1.374-1.572.828-.062 1.558.544 1.628 1.35"/><path d="m636.579 422.262c.07.806-.544 1.512-1.374 1.574-.828.06-1.558-.542-1.628-1.352-.072-.806.544-1.512 1.374-1.572.828-.062 1.556.544 1.628 1.35"/><path d="m630.982 422.678c.07.806-.544 1.512-1.374 1.572-.828.062-1.558-.542-1.628-1.35-.072-.806.544-1.512 1.374-1.572.828-.062 1.556.544 1.628 1.35"/><path d="m638.9 416.604c.07.808-.544 1.512-1.374 1.574-.828.06-1.558-.542-1.628-1.35s.544-1.512 1.374-1.574c.828-.06 1.556.544 1.628 1.35"/><path d="m633.303 417.02c.07.806-.544 1.512-1.374 1.574-.828.06-1.558-.542-1.628-1.352-.07-.806.544-1.512 1.374-1.572.828-.062 1.556.544 1.628 1.35"/><path d="m627.706 417.436c.07.806-.544 1.512-1.374 1.572-.828.062-1.558-.542-1.628-1.35-.07-.806.544-1.512 1.374-1.572.828-.062 1.556.544 1.628 1.35"/><path d="m635.624 411.362c.07.808-.544 1.512-1.374 1.574-.828.06-1.558-.542-1.628-1.35s.544-1.512 1.374-1.574c.828-.06 1.558.544 1.628 1.35"/><path d="m630.028 411.778c.07.806-.544 1.512-1.374 1.574-.828.06-1.558-.542-1.628-1.352-.07-.806.544-1.512 1.374-1.572.828-.062 1.558.544 1.628 1.35"/><path d="m637.532 433.162c.072.806-.544 1.512-1.374 1.572-.828.062-1.556-.542-1.628-1.35-.07-.806.544-1.512 1.374-1.572.828-.062 1.558.544 1.628 1.35"/><path d="m631.935 433.578c.072.806-.544 1.512-1.374 1.572-.828.062-1.556-.542-1.628-1.35-.07-.806.544-1.512 1.374-1.574.828-.06 1.558.544 1.628 1.352"/><path d="m639.853 427.504c.072.806-.544 1.512-1.374 1.574-.828.06-1.556-.542-1.626-1.352-.072-.806.542-1.512 1.372-1.572.828-.062 1.558.544 1.628 1.35"/><path d="m634.256 427.92c.072.806-.544 1.512-1.374 1.572-.828.062-1.556-.542-1.626-1.35-.072-.806.542-1.512 1.372-1.572.828-.062 1.558.544 1.628 1.35"/><path d="m628.66 428.336c.072.806-.544 1.512-1.374 1.572-.828.062-1.556-.542-1.626-1.35-.072-.806.542-1.512 1.372-1.574.828-.06 1.558.544 1.628 1.352"/><path d="m636.579 422.262c.07.806-.544 1.512-1.374 1.574-.828.06-1.558-.542-1.628-1.352-.072-.806.544-1.512 1.374-1.572.828-.062 1.556.544 1.628 1.35"/><path d="m630.982 422.678c.07.806-.544 1.512-1.374 1.572-.828.062-1.558-.542-1.628-1.35-.072-.806.544-1.512 1.374-1.572.828-.062 1.556.544 1.628 1.35"/><path d="m638.486 444.063c.07.806-.544 1.512-1.374 1.572-.828.062-1.558-.542-1.628-1.35-.07-.806.544-1.512 1.374-1.574.828-.06 1.558.544 1.628 1.352"/><path d="m632.889 444.477c.07.808-.544 1.512-1.374 1.574-.828.06-1.558-.542-1.628-1.35s.544-1.512 1.374-1.574c.828-.06 1.558.544 1.628 1.35"/><path d="m640.807 438.405c.07.806-.544 1.512-1.374 1.572-.828.062-1.556-.542-1.628-1.35-.07-.806.544-1.512 1.374-1.572.828-.062 1.558.544 1.628 1.35"/><path d="m635.21 438.821c.07.806-.544 1.512-1.374 1.572-.828.062-1.556-.542-1.628-1.35-.07-.806.544-1.512 1.374-1.574.828-.06 1.558.544 1.628 1.352"/><path d="m629.614 439.235c.07.808-.544 1.512-1.374 1.574-.828.06-1.556-.542-1.628-1.35-.07-.808.544-1.512 1.374-1.574.828-.06 1.558.544 1.628 1.35"/><path d="m637.532 433.162c.072.806-.544 1.512-1.374 1.572-.828.062-1.556-.542-1.628-1.35-.07-.806.544-1.512 1.374-1.572.828-.062 1.558.544 1.628 1.35"/><path d="m631.935 433.578c.072.806-.544 1.512-1.374 1.572-.828.062-1.556-.542-1.628-1.35-.07-.806.544-1.512 1.374-1.574.828-.06 1.558.544 1.628 1.352"/><path d="m639.44 454.961c.07.808-.544 1.512-1.374 1.574-.828.06-1.558-.542-1.628-1.35-.072-.808.544-1.512 1.374-1.574.828-.06 1.556.544 1.628 1.35"/><path d="m633.843 455.377c.07.808-.544 1.512-1.374 1.574-.828.06-1.558-.542-1.628-1.352-.072-.806.544-1.512 1.374-1.572.828-.062 1.556.544 1.628 1.35"/><path d="m641.761 449.305c.07.806-.544 1.512-1.374 1.572-.828.062-1.558-.542-1.628-1.35-.07-.806.544-1.512 1.374-1.574.828-.06 1.556.544 1.628 1.352"/><path d="m636.164 449.719c.07.808-.544 1.512-1.374 1.574-.828.06-1.558-.542-1.628-1.35s.544-1.512 1.374-1.574c.828-.06 1.556.544 1.628 1.35"/><path d="m630.568 450.135c.07.808-.544 1.512-1.374 1.574-.828.06-1.558-.542-1.628-1.352-.07-.806.544-1.51 1.374-1.572.828-.062 1.556.544 1.628 1.35"/><path d="m638.486 444.063c.07.806-.544 1.512-1.374 1.572-.828.062-1.558-.542-1.628-1.35-.07-.806.544-1.512 1.374-1.574.828-.06 1.558.544 1.628 1.352"/><path d="m632.889 444.477c.07.808-.544 1.512-1.374 1.574-.828.06-1.558-.542-1.628-1.35s.544-1.512 1.374-1.574c.828-.06 1.558.544 1.628 1.35"/><path d="m639.44 454.961c.07.808-.544 1.512-1.374 1.574-.828.06-1.558-.542-1.628-1.35-.072-.808.544-1.512 1.374-1.574.828-.06 1.556.544 1.628 1.35"/><path d="m633.843 455.377c.07.808-.544 1.512-1.374 1.574-.828.06-1.558-.542-1.628-1.352-.072-.806.544-1.512 1.374-1.572.828-.062 1.556.544 1.628 1.35"/><path d="m624.431 412.194c.07.806-.544 1.512-1.374 1.572-.828.062-1.558-.542-1.628-1.35-.07-.806.544-1.512 1.374-1.572.828-.062 1.558.544 1.628 1.35"/><path d="m618.834 412.61c.07.806-.544 1.512-1.374 1.572-.828.062-1.558-.542-1.628-1.35-.07-.806.544-1.512 1.374-1.572.828-.062 1.558.544 1.628 1.35"/><path d="m625.385 423.094c.07.806-.544 1.512-1.374 1.572-.828.062-1.558-.542-1.628-1.35-.072-.806.544-1.512 1.374-1.572.828-.062 1.556.542 1.628 1.35"/><path d="m619.789 423.51c.07.806-.544 1.51-1.374 1.572-.828.06-1.558-.542-1.628-1.35-.072-.808.544-1.512 1.374-1.574.828-.06 1.556.544 1.628 1.352"/><path d="m627.706 417.436c.07.806-.544 1.512-1.374 1.572-.828.062-1.558-.542-1.628-1.35-.07-.806.544-1.512 1.374-1.572.828-.062 1.556.544 1.628 1.35"/><path d="m622.11 417.852c.07.806-.544 1.512-1.374 1.572-.828.062-1.558-.542-1.628-1.35-.07-.806.544-1.512 1.374-1.572.828-.062 1.556.544 1.628 1.35"/><path d="m616.513 418.268c.07.806-.544 1.51-1.374 1.572-.828.06-1.558-.542-1.628-1.35s.544-1.512 1.374-1.574c.828-.06 1.556.544 1.628 1.352"/><path d="m624.431 412.194c.07.806-.544 1.512-1.374 1.572-.828.062-1.558-.542-1.628-1.35-.07-.806.544-1.512 1.374-1.572.828-.062 1.558.544 1.628 1.35"/><path d="m618.834 412.61c.07.806-.544 1.512-1.374 1.572-.828.062-1.558-.542-1.628-1.35-.07-.806.544-1.512 1.374-1.572.828-.062 1.558.544 1.628 1.35"/><path d="m626.338 433.994c.072.806-.544 1.51-1.374 1.572-.828.06-1.556-.542-1.628-1.35-.07-.808.544-1.512 1.374-1.574.828-.06 1.558.544 1.628 1.352"/><path d="m620.742 434.409c.072.808-.544 1.512-1.374 1.574-.828.06-1.556-.542-1.628-1.352-.07-.806.544-1.51 1.374-1.572.828-.06 1.558.544 1.628 1.35"/><path d="m628.66 428.336c.072.806-.544 1.512-1.374 1.572-.828.062-1.556-.542-1.626-1.35-.072-.806.542-1.512 1.372-1.574.828-.06 1.558.544 1.628 1.352"/><path d="m623.063 428.752c.072.806-.544 1.51-1.374 1.572-.828.06-1.556-.542-1.626-1.35-.072-.808.542-1.512 1.372-1.574.828-.06 1.558.544 1.628 1.352"/><path d="m617.466 429.166c.072.808-.544 1.512-1.374 1.574-.828.06-1.556-.542-1.626-1.352-.072-.806.542-1.51 1.372-1.572.828-.06 1.558.544 1.628 1.35"/><path d="m625.385 423.094c.07.806-.544 1.512-1.374 1.572-.828.062-1.558-.542-1.628-1.35-.072-.806.544-1.512 1.374-1.572.828-.062 1.556.542 1.628 1.35"/><path d="m619.789 423.51c.07.806-.544 1.51-1.374 1.572-.828.06-1.558-.542-1.628-1.35-.072-.808.544-1.512 1.374-1.574.828-.06 1.556.544 1.628 1.352"/><path d="m627.292 444.893c.07.808-.544 1.512-1.374 1.574-.828.06-1.558-.542-1.628-1.352-.07-.806.544-1.51 1.374-1.572.828-.06 1.558.544 1.628 1.35"/><path d="m621.696 445.309c.07.806-.544 1.512-1.374 1.572-.828.062-1.558-.542-1.628-1.35-.07-.806.544-1.512 1.374-1.572.828-.062 1.558.544 1.628 1.35"/><path d="m629.614 439.235c.07.808-.544 1.512-1.374 1.574-.828.06-1.556-.542-1.628-1.35-.07-.808.544-1.512 1.374-1.574.828-.06 1.558.544 1.628 1.35"/><path d="m624.017 439.651c.07.808-.544 1.512-1.374 1.574-.828.06-1.556-.542-1.628-1.352-.07-.806.544-1.51 1.374-1.572.828-.06 1.558.544 1.628 1.35"/><path d="m618.42 440.067c.07.806-.544 1.512-1.374 1.572-.828.062-1.556-.54-1.628-1.35-.07-.806.544-1.512 1.374-1.572.828-.062 1.558.544 1.628 1.35"/><path d="m626.338 433.994c.072.806-.544 1.51-1.374 1.572-.828.06-1.556-.542-1.628-1.35-.07-.808.544-1.512 1.374-1.574.828-.06 1.558.544 1.628 1.352"/><path d="m620.742 434.409c.072.808-.544 1.512-1.374 1.574-.828.06-1.556-.542-1.628-1.352-.07-.806.544-1.51 1.374-1.572.828-.06 1.558.544 1.628 1.35"/><path d="m628.247 455.793c.07.806-.544 1.512-1.374 1.572-.828.062-1.558-.542-1.628-1.35-.072-.806.544-1.512 1.374-1.572.828-.062 1.556.544 1.628 1.35"/><path d="m622.65 456.209c.07.806-.544 1.512-1.374 1.572-.828.062-1.558-.542-1.628-1.35-.072-.806.544-1.512 1.374-1.572.828-.062 1.556.544 1.628 1.35"/><path d="m630.568 450.135c.07.808-.544 1.512-1.374 1.574-.828.06-1.558-.542-1.628-1.352-.07-.806.544-1.51 1.374-1.572.828-.062 1.556.544 1.628 1.35"/><path d="m624.971 450.551c.07.806-.544 1.512-1.374 1.572-.828.062-1.558-.542-1.628-1.35-.07-.806.544-1.512 1.374-1.572.828-.062 1.556.544 1.628 1.35"/><path d="m619.374 450.967c.07.806-.544 1.512-1.374 1.572-.828.062-1.558-.542-1.628-1.35-.07-.806.544-1.512 1.374-1.572.828-.062 1.556.544 1.628 1.35"/><path d="m627.292 444.893c.07.808-.544 1.512-1.374 1.574-.828.06-1.558-.542-1.628-1.352-.07-.806.544-1.51 1.374-1.572.828-.06 1.558.544 1.628 1.35"/><path d="m621.696 445.309c.07.806-.544 1.512-1.374 1.572-.828.062-1.558-.542-1.628-1.35-.07-.806.544-1.512 1.374-1.572.828-.062 1.558.544 1.628 1.35"/><path d="m628.247 455.793c.07.806-.544 1.512-1.374 1.572-.828.062-1.558-.542-1.628-1.35-.072-.806.544-1.512 1.374-1.572.828-.062 1.556.544 1.628 1.35"/><path d="m622.65 456.209c.07.806-.544 1.512-1.374 1.572-.828.062-1.558-.542-1.628-1.35-.072-.806.544-1.512 1.374-1.572.828-.062 1.556.544 1.628 1.35"/><path d="m613.238 413.026c.07.806-.544 1.51-1.374 1.572-.828.06-1.558-.542-1.628-1.35s.544-1.512 1.374-1.574c.828-.06 1.558.544 1.628 1.352"/><path d="m607.641 413.44c.07.808-.544 1.512-1.374 1.574-.828.06-1.558-.542-1.628-1.35s.544-1.512 1.374-1.574c.828-.06 1.558.544 1.628 1.35"/><path d="m609.962 407.784c.07.806-.544 1.51-1.374 1.572-.828.062-1.556-.542-1.628-1.35-.07-.808.544-1.512 1.374-1.574.828-.06 1.558.544 1.628 1.352"/><path d="m604.366 408.198c.07.808-.544 1.512-1.374 1.574-.828.06-1.558-.542-1.628-1.35s.544-1.512 1.374-1.574c.828-.06 1.558.544 1.628 1.35"/><path d="m614.192 423.924c.07.808-.544 1.512-1.374 1.574-.828.06-1.558-.542-1.628-1.352-.072-.806.544-1.51 1.374-1.572.828-.06 1.556.544 1.628 1.35"/><path d="m608.595 424.34c.07.806-.544 1.512-1.374 1.574-.828.06-1.558-.542-1.628-1.352-.072-.806.544-1.512 1.374-1.572.828-.062 1.556.544 1.628 1.35"/><path d="m616.513 418.268c.07.806-.544 1.51-1.374 1.572-.828.06-1.558-.542-1.628-1.35s.544-1.512 1.374-1.574c.828-.06 1.556.544 1.628 1.352"/><path d="m610.916 418.682c.07.808-.544 1.512-1.374 1.574-.828.06-1.558-.542-1.628-1.35s.544-1.512 1.374-1.574c.828-.06 1.556.544 1.628 1.35"/><path d="m605.32 419.098c.07.806-.544 1.512-1.374 1.574-.828.06-1.558-.542-1.628-1.352-.07-.806.544-1.512 1.374-1.572.828-.062 1.556.544 1.628 1.35"/><path d="m613.238 413.026c.07.806-.544 1.51-1.374 1.572-.828.06-1.558-.542-1.628-1.35s.544-1.512 1.374-1.574c.828-.06 1.558.544 1.628 1.352"/><path d="m607.641 413.44c.07.808-.544 1.512-1.374 1.574-.828.06-1.558-.542-1.628-1.35s.544-1.512 1.374-1.574c.828-.06 1.558.544 1.628 1.35"/><path d="m615.145 434.825c.072.806-.544 1.512-1.374 1.572-.828.062-1.556-.54-1.628-1.35-.07-.806.544-1.512 1.374-1.572.828-.062 1.558.544 1.628 1.35"/><path d="m609.548 435.241c.072.806-.544 1.512-1.374 1.572-.828.062-1.556-.542-1.628-1.35-.07-.806.544-1.512 1.374-1.572.828-.062 1.558.544 1.628 1.35"/><path d="m617.466 429.166c.072.808-.544 1.512-1.374 1.574-.828.06-1.556-.542-1.626-1.352-.072-.806.542-1.51 1.372-1.572.828-.06 1.558.544 1.628 1.35"/><path d="m611.87 429.582c.072.806-.544 1.512-1.374 1.574-.828.06-1.556-.542-1.626-1.352-.072-.806.542-1.512 1.372-1.572.828-.062 1.558.544 1.628 1.35"/><path d="m606.273 429.998c.072.806-.544 1.512-1.374 1.572-.828.062-1.556-.542-1.626-1.35-.072-.806.542-1.512 1.372-1.572.828-.062 1.558.544 1.628 1.35"/><path d="m614.192 423.924c.07.808-.544 1.512-1.374 1.574-.828.06-1.558-.542-1.628-1.352-.072-.806.544-1.51 1.374-1.572.828-.06 1.556.544 1.628 1.35"/><path d="m608.595 424.34c.07.806-.544 1.512-1.374 1.574-.828.06-1.558-.542-1.628-1.352-.072-.806.544-1.512 1.374-1.572.828-.062 1.556.544 1.628 1.35"/><path d="m616.099 445.725c.07.806-.544 1.512-1.374 1.572-.828.062-1.558-.542-1.628-1.35-.07-.806.544-1.512 1.374-1.572.828-.062 1.558.544 1.628 1.35"/><path d="m610.502 446.141c.07.806-.544 1.512-1.374 1.572-.828.062-1.558-.542-1.628-1.35-.07-.806.544-1.512 1.374-1.574.828-.06 1.558.544 1.628 1.352"/><path d="m618.42 440.067c.07.806-.544 1.512-1.374 1.572-.828.062-1.556-.54-1.628-1.35-.07-.806.544-1.512 1.374-1.572.828-.062 1.558.544 1.628 1.35"/><path d="m612.824 440.483c.07.806-.544 1.512-1.374 1.572-.828.062-1.556-.542-1.628-1.35-.07-.806.544-1.512 1.374-1.572.828-.062 1.558.544 1.628 1.35"/><path d="m607.227 440.899c.07.806-.544 1.512-1.374 1.572-.828.062-1.556-.542-1.628-1.35-.07-.806.544-1.512 1.374-1.574.828-.06 1.558.544 1.628 1.352"/><path d="m615.145 434.825c.072.806-.544 1.512-1.374 1.572-.828.062-1.556-.54-1.628-1.35-.07-.806.544-1.512 1.374-1.572.828-.062 1.558.544 1.628 1.35"/><path d="m609.548 435.241c.072.806-.544 1.512-1.374 1.572-.828.062-1.556-.542-1.628-1.35-.07-.806.544-1.512 1.374-1.572.828-.062 1.558.544 1.628 1.35"/><path d="m617.053 456.625c.07.806-.544 1.51-1.374 1.572-.828.062-1.558-.542-1.628-1.35-.072-.808.544-1.512 1.374-1.574.828-.06 1.556.544 1.628 1.352"/><path d="m611.456 457.039c.07.808-.544 1.512-1.374 1.574-.828.06-1.558-.542-1.628-1.35-.072-.808.544-1.512 1.374-1.574.828-.06 1.556.544 1.628 1.35"/><path d="m619.374 450.967c.07.806-.544 1.512-1.374 1.572-.828.062-1.558-.542-1.628-1.35-.07-.806.544-1.512 1.374-1.572.828-.062 1.556.544 1.628 1.35"/><path d="m613.778 451.383c.07.806-.544 1.51-1.374 1.572-.828.062-1.558-.542-1.628-1.35s.544-1.512 1.374-1.574c.828-.06 1.556.544 1.628 1.352"/><path d="m608.181 451.797c.07.808-.544 1.512-1.374 1.574-.828.06-1.558-.542-1.628-1.35s.544-1.512 1.374-1.574c.828-.06 1.556.544 1.628 1.35"/><path d="m616.099 445.725c.07.806-.544 1.512-1.374 1.572-.828.062-1.558-.542-1.628-1.35-.07-.806.544-1.512 1.374-1.572.828-.062 1.558.544 1.628 1.35"/><path d="m610.502 446.141c.07.806-.544 1.512-1.374 1.572-.828.062-1.558-.542-1.628-1.35-.07-.806.544-1.512 1.374-1.574.828-.06 1.558.544 1.628 1.352"/><path d="m617.053 456.625c.07.806-.544 1.51-1.374 1.572-.828.062-1.558-.542-1.628-1.35-.072-.808.544-1.512 1.374-1.574.828-.06 1.556.544 1.628 1.352"/><path d="m611.456 457.039c.07.808-.544 1.512-1.374 1.574-.828.06-1.558-.542-1.628-1.35-.072-.808.544-1.512 1.374-1.574.828-.06 1.556.544 1.628 1.35"/><path d="m602.044 413.856c.07.806-.544 1.512-1.374 1.574-.828.06-1.558-.542-1.628-1.352-.07-.806.544-1.512 1.374-1.572.828-.062 1.556.544 1.628 1.35"/><path d="m596.448 414.272c.07.806-.544 1.512-1.374 1.572-.828.062-1.558-.542-1.628-1.35-.07-.806.544-1.512 1.374-1.572.828-.062 1.556.544 1.628 1.35"/><path d="m604.366 408.198c.07.808-.544 1.512-1.374 1.574-.828.06-1.558-.542-1.628-1.35s.544-1.512 1.374-1.574c.828-.06 1.558.544 1.628 1.35"/><path d="m598.769 408.614c.07.808-.544 1.512-1.374 1.574-.828.06-1.558-.542-1.628-1.352-.07-.806.544-1.51 1.374-1.572.828-.062 1.558.544 1.628 1.35"/><path d="m593.172 409.03c.07.806-.544 1.512-1.374 1.572-.828.062-1.558-.542-1.628-1.35-.07-.806.544-1.512 1.374-1.572.828-.062 1.558.544 1.628 1.35"/><path d="m602.997 424.756c.072.806-.544 1.512-1.372 1.572-.83.062-1.558-.542-1.628-1.35-.072-.806.542-1.512 1.372-1.572.828-.062 1.558.544 1.628 1.35"/><path d="m597.401 425.172c.072.806-.544 1.512-1.372 1.572-.83.062-1.558-.542-1.628-1.35-.072-.806.542-1.512 1.372-1.572.828-.062 1.558.542 1.628 1.35"/><path d="m605.32 419.098c.07.806-.544 1.512-1.374 1.574-.828.06-1.558-.542-1.628-1.352-.07-.806.544-1.512 1.374-1.572.828-.062 1.556.544 1.628 1.35"/><path d="m599.723 419.514c.07.806-.544 1.512-1.374 1.572-.828.062-1.558-.542-1.628-1.35-.072-.806.544-1.512 1.374-1.572.828-.062 1.556.544 1.628 1.35"/><path d="m594.126 419.93c.07.806-.544 1.512-1.374 1.572-.828.062-1.558-.542-1.628-1.35-.072-.806.544-1.512 1.374-1.572.828-.062 1.556.542 1.628 1.35"/><path d="m602.044 413.856c.07.806-.544 1.512-1.374 1.574-.828.06-1.558-.542-1.628-1.352-.07-.806.544-1.512 1.374-1.572.828-.062 1.556.544 1.628 1.35"/><path d="m596.448 414.272c.07.806-.544 1.512-1.374 1.572-.828.062-1.558-.542-1.628-1.35-.07-.806.544-1.512 1.374-1.572.828-.062 1.556.544 1.628 1.35"/><path d="m603.952 435.657c.07.806-.544 1.512-1.374 1.572-.828.062-1.556-.542-1.628-1.35-.07-.806.544-1.512 1.374-1.574.828-.06 1.558.544 1.628 1.352"/><path d="m598.355 436.073c.07.806-.544 1.51-1.374 1.572-.828.06-1.556-.542-1.628-1.35-.07-.808.544-1.512 1.374-1.574.828-.06 1.558.544 1.628 1.352"/><path d="m606.273 429.998c.072.806-.544 1.512-1.374 1.572-.828.062-1.556-.542-1.626-1.35-.072-.806.542-1.512 1.372-1.572.828-.062 1.558.544 1.628 1.35"/><path d="m600.676 430.414c.072.806-.544 1.512-1.374 1.572-.828.062-1.556-.542-1.628-1.35-.07-.806.544-1.512 1.374-1.574.828-.06 1.558.544 1.628 1.352"/><path d="m595.08 430.83c.072.806-.544 1.51-1.374 1.572-.828.06-1.556-.542-1.628-1.35-.07-.808.544-1.512 1.374-1.574.828-.06 1.558.544 1.628 1.352"/><path d="m602.997 424.756c.072.806-.544 1.512-1.372 1.572-.83.062-1.558-.542-1.628-1.35-.072-.806.542-1.512 1.372-1.572.828-.062 1.558.544 1.628 1.35"/><path d="m597.401 425.172c.072.806-.544 1.512-1.372 1.572-.83.062-1.558-.542-1.628-1.35-.072-.806.542-1.512 1.372-1.572.828-.062 1.558.542 1.628 1.35"/><path d="m604.906 446.555c.07.808-.544 1.512-1.374 1.574-.828.06-1.558-.542-1.628-1.35s.544-1.512 1.374-1.574c.828-.06 1.558.544 1.628 1.35"/><path d="m599.309 446.971c.07.808-.544 1.512-1.374 1.574-.828.06-1.558-.542-1.628-1.352-.07-.806.544-1.51 1.374-1.572.828-.062 1.556.544 1.628 1.35"/><path d="m607.227 440.899c.07.806-.544 1.512-1.374 1.572-.828.062-1.556-.542-1.628-1.35-.07-.806.544-1.512 1.374-1.574.828-.06 1.558.544 1.628 1.352"/><path d="m601.63 441.313c.07.808-.544 1.512-1.374 1.574-.828.06-1.558-.542-1.628-1.35s.544-1.512 1.374-1.574c.828-.06 1.558.544 1.628 1.35"/><path d="m596.034 441.729c.07.808-.544 1.512-1.374 1.574-.828.06-1.558-.542-1.628-1.352-.07-.806.544-1.51 1.374-1.572.828-.06 1.558.544 1.628 1.35"/><path d="m603.952 435.657c.07.806-.544 1.512-1.374 1.572-.828.062-1.556-.542-1.628-1.35-.07-.806.544-1.512 1.374-1.574.828-.06 1.558.544 1.628 1.352"/><path d="m598.355 436.073c.07.806-.544 1.51-1.374 1.572-.828.06-1.556-.542-1.628-1.35-.07-.808.544-1.512 1.374-1.574.828-.06 1.558.544 1.628 1.352"/><path d="m605.86 457.455c.07.806-.544 1.512-1.374 1.574-.828.06-1.558-.542-1.628-1.352-.072-.806.544-1.512 1.374-1.572.828-.062 1.556.544 1.628 1.35"/><path d="m600.262 457.871c.072.806-.544 1.512-1.372 1.572-.83.062-1.558-.542-1.628-1.35-.072-.806.542-1.512 1.372-1.572.828-.062 1.558.544 1.628 1.35"/><path d="m608.181 451.797c.07.808-.544 1.512-1.374 1.574-.828.06-1.558-.542-1.628-1.35s.544-1.512 1.374-1.574c.828-.06 1.556.544 1.628 1.35"/><path d="m602.584 452.213c.07.808-.544 1.512-1.374 1.574-.828.06-1.558-.542-1.628-1.352-.07-.806.544-1.51 1.374-1.572.828-.062 1.556.544 1.628 1.35"/><path d="m596.988 452.629c.07.806-.544 1.512-1.374 1.572-.828.062-1.558-.542-1.628-1.35-.072-.806.544-1.512 1.374-1.572.828-.062 1.556.544 1.628 1.35"/><path d="m604.906 446.555c.07.808-.544 1.512-1.374 1.574-.828.06-1.558-.542-1.628-1.35s.544-1.512 1.374-1.574c.828-.06 1.558.544 1.628 1.35"/><path d="m599.309 446.971c.07.808-.544 1.512-1.374 1.574-.828.06-1.558-.542-1.628-1.352-.07-.806.544-1.51 1.374-1.572.828-.062 1.556.544 1.628 1.35"/><path d="m605.86 457.455c.07.806-.544 1.512-1.374 1.574-.828.06-1.558-.542-1.628-1.352-.072-.806.544-1.512 1.374-1.572.828-.062 1.556.544 1.628 1.35"/><path d="m600.262 457.871c.072.806-.544 1.512-1.372 1.572-.83.062-1.558-.542-1.628-1.35-.072-.806.542-1.512 1.372-1.572.828-.062 1.558.544 1.628 1.35"/><path d="m590.851 414.688c.07.806-.544 1.512-1.374 1.572-.828.062-1.558-.542-1.628-1.35-.07-.806.544-1.512 1.374-1.572.828-.062 1.556.544 1.628 1.35"/><path d="m585.254 415.104c.07.806-.544 1.51-1.374 1.572-.828.06-1.558-.542-1.628-1.35s.544-1.512 1.374-1.574c.828-.06 1.556.544 1.628 1.352"/><path d="m593.172 409.03c.07.806-.544 1.512-1.374 1.572-.828.062-1.558-.542-1.628-1.35-.07-.806.544-1.512 1.374-1.572.828-.062 1.558.544 1.628 1.35"/><path d="m587.576 409.446c.07.806-.544 1.512-1.374 1.572-.828.062-1.558-.542-1.628-1.35-.07-.806.544-1.512 1.374-1.572.828-.062 1.558.544 1.628 1.35"/><path d="m581.979 409.862c.07.806-.544 1.51-1.374 1.572-.828.062-1.558-.542-1.628-1.35s.544-1.512 1.374-1.574c.828-.06 1.558.544 1.628 1.352"/><path d="m591.804 425.588c.072.806-.544 1.51-1.374 1.572-.828.06-1.556-.542-1.626-1.35-.072-.808.542-1.512 1.372-1.574.828-.06 1.558.544 1.628 1.352"/><path d="m586.207 426.002c.072.808-.544 1.512-1.374 1.574-.828.06-1.556-.542-1.626-1.352-.072-.806.542-1.51 1.372-1.572.828-.06 1.558.544 1.628 1.35"/><path d="m594.126 419.93c.07.806-.544 1.512-1.374 1.572-.828.062-1.558-.542-1.628-1.35-.072-.806.544-1.512 1.374-1.572.828-.062 1.556.542 1.628 1.35"/><path d="m588.53 420.346c.07.806-.544 1.51-1.374 1.572-.828.06-1.558-.542-1.628-1.35-.072-.808.544-1.512 1.374-1.574.828-.06 1.556.544 1.628 1.352"/><path d="m582.933 420.76c.07.808-.544 1.512-1.374 1.574-.828.06-1.558-.542-1.628-1.35-.072-.808.544-1.512 1.374-1.574.828-.06 1.556.544 1.628 1.35"/><path d="m590.851 414.688c.07.806-.544 1.512-1.374 1.572-.828.062-1.558-.542-1.628-1.35-.07-.806.544-1.512 1.374-1.572.828-.062 1.556.544 1.628 1.35"/><path d="m585.254 415.104c.07.806-.544 1.51-1.374 1.572-.828.06-1.558-.542-1.628-1.35s.544-1.512 1.374-1.574c.828-.06 1.556.544 1.628 1.352"/><path d="m592.758 436.487c.07.808-.544 1.512-1.374 1.574-.828.06-1.556-.542-1.628-1.352-.07-.806.544-1.51 1.374-1.572.828-.06 1.558.544 1.628 1.35"/><path d="m587.162 436.903c.07.806-.544 1.512-1.374 1.572-.828.062-1.556-.54-1.628-1.35-.07-.806.544-1.512 1.374-1.572.828-.062 1.558.544 1.628 1.35"/><path d="m595.08 430.83c.072.806-.544 1.51-1.374 1.572-.828.06-1.556-.542-1.628-1.35-.07-.808.544-1.512 1.374-1.574.828-.06 1.558.544 1.628 1.352"/><path d="m589.483 431.244c.072.808-.544 1.512-1.374 1.574-.828.06-1.556-.542-1.628-1.352-.07-.806.544-1.51 1.374-1.572.828-.06 1.558.544 1.628 1.35"/><path d="m583.886 431.66c.072.806-.544 1.512-1.374 1.572-.828.062-1.556-.54-1.628-1.35-.07-.806.544-1.512 1.374-1.572.828-.062 1.558.544 1.628 1.35"/><path d="m591.804 425.588c.072.806-.544 1.51-1.374 1.572-.828.06-1.556-.542-1.626-1.35-.072-.808.542-1.512 1.372-1.574.828-.06 1.558.544 1.628 1.352"/><path d="m586.207 426.002c.072.808-.544 1.512-1.374 1.574-.828.06-1.556-.542-1.626-1.352-.072-.806.542-1.51 1.372-1.572.828-.06 1.558.544 1.628 1.35"/><path d="m593.712 447.387c.07.806-.544 1.512-1.374 1.572-.828.062-1.558-.542-1.628-1.35-.07-.806.544-1.512 1.374-1.572.828-.062 1.556.544 1.628 1.35"/><path d="m588.116 447.803c.07.806-.544 1.512-1.374 1.572-.828.062-1.558-.542-1.628-1.35-.07-.806.544-1.512 1.374-1.572.828-.062 1.556.544 1.628 1.35"/><path d="m596.034 441.729c.07.808-.544 1.512-1.374 1.574-.828.06-1.558-.542-1.628-1.352-.07-.806.544-1.51 1.374-1.572.828-.06 1.558.544 1.628 1.35"/><path d="m590.437 442.145c.07.806-.544 1.512-1.374 1.572-.828.062-1.558-.542-1.628-1.35-.07-.806.544-1.512 1.374-1.572.828-.062 1.558.544 1.628 1.35"/><path d="m584.84 442.561c.07.806-.544 1.512-1.374 1.572-.828.062-1.558-.542-1.628-1.35-.07-.806.544-1.512 1.374-1.572.828-.062 1.558.544 1.628 1.35"/><path d="m592.758 436.487c.07.808-.544 1.512-1.374 1.574-.828.06-1.556-.542-1.628-1.352-.07-.806.544-1.51 1.374-1.572.828-.06 1.558.544 1.628 1.35"/><path d="m587.162 436.903c.07.806-.544 1.512-1.374 1.572-.828.062-1.556-.54-1.628-1.35-.07-.806.544-1.512 1.374-1.572.828-.062 1.558.544 1.628 1.35"/><path d="m594.665 458.287c.072.806-.544 1.512-1.372 1.572-.83.062-1.558-.542-1.628-1.35-.072-.806.542-1.512 1.372-1.572.828-.062 1.558.544 1.628 1.35"/><path d="m589.069 458.703c.072.806-.544 1.51-1.374 1.572-.828.06-1.556-.542-1.626-1.35-.072-.808.542-1.512 1.372-1.574.828-.06 1.558.544 1.628 1.352"/><path d="m596.988 452.629c.07.806-.544 1.512-1.374 1.572-.828.062-1.558-.542-1.628-1.35-.072-.806.544-1.512 1.374-1.572.828-.062 1.556.544 1.628 1.35"/><path d="m591.391 453.045c.07.806-.544 1.512-1.374 1.572-.828.062-1.558-.542-1.628-1.35-.072-.806.544-1.512 1.374-1.572.828-.062 1.556.544 1.628 1.35"/><path d="m585.794 453.461c.07.806-.544 1.51-1.374 1.572-.828.062-1.558-.542-1.628-1.35-.072-.808.544-1.512 1.374-1.574.828-.06 1.556.544 1.628 1.352"/><path d="m593.712 447.387c.07.806-.544 1.512-1.374 1.572-.828.062-1.558-.542-1.628-1.35-.07-.806.544-1.512 1.374-1.572.828-.062 1.556.544 1.628 1.35"/><path d="m588.116 447.803c.07.806-.544 1.512-1.374 1.572-.828.062-1.558-.542-1.628-1.35-.07-.806.544-1.512 1.374-1.572.828-.062 1.556.544 1.628 1.35"/><path d="m594.665 458.287c.072.806-.544 1.512-1.372 1.572-.83.062-1.558-.542-1.628-1.35-.072-.806.542-1.512 1.372-1.572.828-.062 1.558.544 1.628 1.35"/><path d="m589.069 458.703c.072.806-.544 1.51-1.374 1.572-.828.06-1.556-.542-1.626-1.35-.072-.808.542-1.512 1.372-1.574.828-.06 1.558.544 1.628 1.352"/><path d="m579.658 415.518c.07.808-.544 1.512-1.374 1.574-.828.06-1.558-.542-1.628-1.35s.544-1.512 1.374-1.574c.828-.06 1.556.544 1.628 1.35"/><path d="m581.979 409.862c.07.806-.544 1.51-1.374 1.572-.828.062-1.558-.542-1.628-1.35s.544-1.512 1.374-1.574c.828-.06 1.558.544 1.628 1.352"/><path d="m576.382 410.276c.07.808-.544 1.512-1.374 1.574-.828.06-1.558-.542-1.628-1.35s.544-1.512 1.374-1.574c.828-.06 1.558.544 1.628 1.35"/><path d="m580.611 426.418c.072.806-.544 1.512-1.374 1.574-.828.06-1.556-.542-1.626-1.352-.072-.806.542-1.512 1.372-1.572.828-.062 1.558.544 1.628 1.35"/><path d="m582.933 420.76c.07.808-.544 1.512-1.374 1.574-.828.06-1.558-.542-1.628-1.35-.072-.808.544-1.512 1.374-1.574.828-.06 1.556.544 1.628 1.35"/><path d="m577.336 421.176c.07.806-.544 1.512-1.374 1.574-.828.06-1.558-.542-1.628-1.352-.072-.806.544-1.512 1.374-1.572.828-.062 1.556.544 1.628 1.35"/><path d="m579.658 415.518c.07.808-.544 1.512-1.374 1.574-.828.06-1.558-.542-1.628-1.35s.544-1.512 1.374-1.574c.828-.06 1.556.544 1.628 1.35"/><path d="m581.565 437.319c.07.806-.544 1.512-1.374 1.572-.828.062-1.556-.542-1.628-1.35-.07-.806.544-1.512 1.374-1.572.828-.062 1.558.544 1.628 1.35"/><path d="m575.968 437.735c.07.806-.544 1.512-1.374 1.572-.828.062-1.556-.542-1.628-1.35-.07-.806.544-1.512 1.374-1.574.828-.06 1.558.544 1.628 1.352"/><path d="m583.886 431.66c.072.806-.544 1.512-1.374 1.572-.828.062-1.556-.54-1.628-1.35-.07-.806.544-1.512 1.374-1.572.828-.062 1.558.544 1.628 1.35"/><path d="m578.289 432.076c.072.806-.544 1.512-1.374 1.572-.828.062-1.556-.542-1.628-1.35-.07-.806.544-1.512 1.374-1.572.828-.062 1.558.544 1.628 1.35"/><path d="m580.611 426.418c.072.806-.544 1.512-1.374 1.574-.828.06-1.556-.542-1.626-1.352-.072-.806.542-1.512 1.372-1.572.828-.062 1.558.544 1.628 1.35"/><path d="m582.519 448.219c.07.806-.544 1.512-1.374 1.572-.828.062-1.558-.542-1.628-1.35-.07-.806.544-1.512 1.374-1.574.828-.06 1.556.544 1.628 1.352"/><path d="m576.922 448.633c.07.808-.544 1.512-1.374 1.574-.828.06-1.558-.542-1.628-1.35s.544-1.512 1.374-1.574c.828-.06 1.556.544 1.628 1.35"/><path d="m584.84 442.561c.07.806-.544 1.512-1.374 1.572-.828.062-1.558-.542-1.628-1.35-.07-.806.544-1.512 1.374-1.572.828-.062 1.558.544 1.628 1.35"/><path d="m579.244 442.977c.07.806-.544 1.512-1.374 1.572-.828.062-1.558-.542-1.628-1.35-.07-.806.544-1.512 1.374-1.574.828-.06 1.558.544 1.628 1.352"/><path d="m581.565 437.319c.07.806-.544 1.512-1.374 1.572-.828.062-1.556-.542-1.628-1.35-.07-.806.544-1.512 1.374-1.572.828-.062 1.558.544 1.628 1.35"/><path d="m575.968 437.735c.07.806-.544 1.512-1.374 1.572-.828.062-1.556-.542-1.628-1.35-.07-.806.544-1.512 1.374-1.574.828-.06 1.558.544 1.628 1.352"/><path d="m583.472 459.118c.072.808-.544 1.512-1.374 1.574-.828.06-1.556-.542-1.626-1.35-.072-.808.542-1.512 1.372-1.574.828-.06 1.558.544 1.628 1.35"/><path d="m585.794 453.461c.07.806-.544 1.51-1.374 1.572-.828.062-1.558-.542-1.628-1.35-.072-.808.544-1.512 1.374-1.574.828-.06 1.556.544 1.628 1.352"/><path d="m580.198 453.875c.07.808-.544 1.512-1.374 1.574-.828.06-1.558-.542-1.628-1.35-.072-.808.544-1.512 1.374-1.574.828-.06 1.556.544 1.628 1.35"/><path d="m582.519 448.219c.07.806-.544 1.512-1.374 1.572-.828.062-1.558-.542-1.628-1.35-.07-.806.544-1.512 1.374-1.574.828-.06 1.556.544 1.628 1.352"/><path d="m576.922 448.633c.07.808-.544 1.512-1.374 1.574-.828.06-1.558-.542-1.628-1.35s.544-1.512 1.374-1.574c.828-.06 1.556.544 1.628 1.35"/><path d="m583.472 459.118c.072.808-.544 1.512-1.374 1.574-.828.06-1.556-.542-1.626-1.35-.072-.808.542-1.512 1.372-1.574.828-.06 1.558.544 1.628 1.35"/></g></g></svg>