<svg clip-rule="evenodd" fill-rule="evenodd" stroke-linejoin="round" stroke-miterlimit="2" viewBox="0 0 742 948" xmlns="http://www.w3.org/2000/svg"><path d="m311.43 913.395 22.598-397.288 145.818 8.295-22.598 397.287z" fill="#106936"/><g fill="#fff"><path d="m435.195 767.686c-.258 4.54 2.49 7.676 6.704 7.916 4.052.23 7.292-2.404 7.558-7.104.268-4.698-2.652-7.686-6.704-7.916s-7.29 2.404-7.558 7.104m21.316-1.226c-.4 7.022-5.516 9.278-5.516 9.278l-.02.38 4.43.252-.442 7.778-37.814-2.152.442-7.776 14.098.8.018-.324s-3.676-3.028-3.288-9.834c.406-7.132 5.82-12.784 14.79-12.274 8.968.51 13.706 6.74 13.302 13.872" fill-rule="nonzero"/><path d="m450.869 725.596-1.62-.092s-1.712 1.476-1.992 6.39c-.196 3.46.18 6.408 2.286 6.526 2.16.124 2.812-2.766 3.008-6.222.272-4.754-1.682-6.602-1.682-6.602m-9.034 8.266c.348-6.104 2.766-8.622 2.766-8.622l-3.942-.224c-1.998-.114-4.178 1.01-4.432 5.494-.132 2.322.482 5.824 3.076 5.972l-.456 7.994c-6.37-.414-8.916-6.196-8.454-14.298.47-8.268 3.9-13.328 10.708-12.942l8.426.482c2.27.128 2.948-.376 3.018-1.618.044-.756-.15-1.146-.15-1.146l6.482.368s.486 1.004.35 3.382c-.302 5.292-4.152 6.32-4.152 6.32l-.022.378c.162.008 3.66 2.32 3.206 10.318-.342 5.996-3.176 11.036-8.792 10.718-5.89-.336-8-6.092-7.632-12.576" fill-rule="nonzero"/><path d="m421.432 706.687.442-7.776 37.814 2.148-.442 7.776z"/><path d="m453.905 672.221-1.62-.092s-1.712 1.476-1.992 6.392c-.196 3.458.18 6.406 2.286 6.524 2.16.124 2.812-2.766 3.008-6.222.272-4.754-1.682-6.602-1.682-6.602m-9.034 8.268c.348-6.104 2.766-8.624 2.766-8.624l-3.942-.224c-1.998-.114-4.178 1.01-4.432 5.494-.132 2.322.482 5.826 3.076 5.972l-.456 7.994c-6.37-.414-8.916-6.196-8.454-14.298.47-8.266 3.9-13.328 10.708-12.94l8.426.48c2.27.128 2.948-.376 3.018-1.618.044-.756-.148-1.146-.148-1.146l6.48.368s.486 1.004.35 3.382c-.302 5.292-4.152 6.32-4.152 6.32l-.022.378c.162.01 3.66 2.32 3.206 10.318-.342 5.996-3.176 11.038-8.792 10.718-5.89-.336-8-6.092-7.632-12.574" fill-rule="nonzero"/><path d="m449.893 633.188c-4.7-.268-7.18 2.356-7.414 6.458-.258 4.54 2.58 7.032 6.632 7.262l13.614.776-.442 7.778-27.012-1.536.442-7.78 4.486.256.024-.432s-4.906-2.396-4.472-10.01c.362-6.376 4.212-11.142 12.424-10.674l15.772.896-.442 7.78z" fill-rule="nonzero"/><path d="m437.687 601.924c.608-10.696 8.15-14.656 12.474-14.41l-.456 7.994s-4.974.748-5.318 6.796c-.27 4.754 2.766 7.584 6.924 7.822 4.16.236 7.5-2.232 7.77-6.986.344-6.048-4.514-7.354-4.514-7.354l.454-7.996c4.322.246 11.366 5.036 10.758 15.732-.508 8.914-5.954 15.108-14.922 14.598s-13.676-7.284-13.17-16.196" fill-rule="nonzero"/><path d="m450.713 573.018.808-14.208c-2.16-.122-5.414 1.806-5.696 6.774-.278 4.864 2.728 7.31 4.888 7.434m4.748.378c2.972.17 6.076-2.038 6.36-7.008.262-4.592-2.358-6.204-2.358-6.204l.486-8.536s8.66 2.118 7.922 15.082c-.512 9.022-5.906 15.22-14.928 14.706-9.02-.512-13.676-7.282-13.17-16.196.504-8.858 5.898-15.054 14.92-14.54.972.054 2.044.278 2.044.278z" fill-rule="nonzero"/><path d="m384.972 861.036-.224 3.944-4.484-.256-6.758-7.916.24-4.214 5.402.308.48-8.428 6.266.354-.478 8.43 9.508.54c4.32.246 5.422-1.968 5.594-4.992.138-2.432-.748-3.998-.748-3.998l6.482.368s.858 2.054.684 5.134c-.44 7.722-3.866 11.756-11.43 11.326z" fill-rule="nonzero"/><path d="m380.959 816.311 8.59.49s-.91 1.684-1.08 4.654c-.298 5.24 2.906 8.024 7.118 8.264l11.938.68-.442 7.778-27.01-1.538.442-7.778 4.97.284.024-.434s-5.39-2.422-4.974-9.712c.072-1.298.424-2.688.424-2.688" fill-rule="nonzero"/><path d="m402.287 791.995-1.62-.092s-1.712 1.476-1.992 6.392c-.196 3.458.18 6.406 2.286 6.526 2.16.122 2.812-2.768 3.008-6.224.272-4.754-1.682-6.602-1.682-6.602m-9.034 8.268c.348-6.104 2.768-8.624 2.768-8.624l-3.944-.224c-1.998-.114-4.178 1.01-4.432 5.494-.132 2.322.482 5.826 3.076 5.972l-.456 7.996c-6.37-.416-8.916-6.198-8.454-14.3.47-8.266 3.9-13.328 10.708-12.94l8.426.48c2.27.128 2.948-.376 3.018-1.618.044-.756-.148-1.146-.148-1.146l6.48.368s.486 1.004.35 3.382c-.302 5.292-4.152 6.32-4.152 6.32l-.022.378c.162.01 3.66 2.32 3.206 10.318-.342 5.996-3.174 11.038-8.792 10.718-5.89-.336-8-6.092-7.632-12.574" fill-rule="nonzero"/><path d="m411.614 758.544-.648 11.4-27.574 8.348.472-8.318 20.824-5.916.022-.378-20.018-8.238.472-8.318z" fill-rule="nonzero"/><path d="m396.67 735.417.808-14.208c-2.16-.122-5.414 1.808-5.696 6.776-.278 4.864 2.728 7.308 4.888 7.432m4.748.38c2.972.168 6.078-2.038 6.36-7.008.262-4.592-2.358-6.206-2.358-6.206l.486-8.536s8.66 2.12 7.922 15.084c-.512 9.022-5.906 15.22-14.928 14.706-9.02-.512-13.676-7.282-13.17-16.196.504-8.858 5.898-15.054 14.92-14.54.972.054 2.044.276 2.044.276z" fill-rule="nonzero"/><path d="m376.772 704.15.442-7.775 37.814 2.149-.442 7.775z"/><path d="m369.696 717.11-.592 10.424-27.424 5.702.462-8.102 19.912-3.256.018-.324-19.352-6.574.55-9.67 19.972-4.338.02-.324-19.414-5.496.46-8.102 26.598 8.774-.592 10.426-19.37 4.21-.016.272z" fill-rule="nonzero"/><path d="m351.611 667.299c-.27 4.754 2.766 7.584 6.924 7.82 4.16.236 7.498-2.23 7.77-6.984.27-4.752-2.768-7.582-6.928-7.818-4.158-.236-7.496 2.23-7.766 6.982m-6.7-.38c.508-8.914 5.956-15.108 14.922-14.596 8.968.51 13.676 7.278 13.17 16.192-.508 8.914-5.954 15.108-14.922 14.598-8.966-.51-13.678-7.282-13.17-16.194" fill-rule="nonzero"/><path d="m347.65 623.553 8.59.488s-.91 1.684-1.08 4.654c-.298 5.24 2.906 8.024 7.118 8.264l11.94.68-.444 7.778-27.01-1.536.442-7.78 4.97.284.024-.434s-5.39-2.422-4.974-9.712c.072-1.298.424-2.686.424-2.686" fill-rule="nonzero"/><path d="m362.376 600.922 14.596-11.742-.522 9.182-13.922 11.35 13.234.752-.442 7.778-37.814-2.152.442-7.778 23.444 1.334-12.004-11.902.518-9.13z" fill-rule="nonzero"/><path d="m337.917 902.307c1.564.088 3.106-1.284 3.212-3.17.092-1.544-.794-2.54-1.978-2.61l-1.63-.096-1.35 5.772zm-2.104-8.124 3.79.218c2.142.126 3.918 2.124 3.768 4.696-.18 3.086-2.904 5.51-5.852 5.338l-4.084-.24z" fill-rule="nonzero"/><path d="m346.358 894.797 7.032.412-.5 2.034-4.8-.282-.46 1.956 4.462.258-.484 2.04-4.458-.262-.458 1.952 4.8.278-.48 2.04-7.03-.412z" fill-rule="nonzero"/><path d="m353.093 901.989 2.226.13-.004.086c-.044.772.522 1.408 2.066 1.498 1.116.066 1.752-.502 1.78-1.012.028-.43-.468-.802-1.31-1.112l-1.434-.512c-1.434-.516-2.158-1.332-2.096-2.448.118-1.988 1.854-3.42 4.15-3.284 2.574.15 3.784 1.51 3.686 3.226-.006.122-.028.428-.028.428l-2.226-.13c.002-.036.004-.072.004-.086.04-.686-.526-1.322-1.728-1.39-1.03-.062-1.574.424-1.608 1.024-.02.344.138.612.98.916l1.432.516c1.686.612 2.496 1.438 2.428 2.638-.116 1.97-1.748 3.422-4.322 3.272-2.828-.164-4.122-1.616-4.016-3.416z" fill-rule="nonzero"/><path d="m364.963 895.883 2.226.13-2.374 10.018-2.23-.13z" fill-rule="nonzero"/><path d="m373.02 901.088 4.628.27-.134.596c-.668 2.884-2.936 4.818-5.59 4.662-2.488-.146-4.266-2.14-4.11-4.8.196-3.36 2.918-5.766 5.834-5.596 2.314.136 3.77 1.768 3.932 4.016l-2.25-.132c-.214-1.046-.948-1.69-1.978-1.752-1.63-.092-3.176 1.278-3.302 3.424-.086 1.544.88 2.632 2.168 2.704 1.114.068 2.178-.474 2.638-1.562l-2.246-.132z" fill-rule="nonzero"/><path d="m380.737 896.807 2.812.164 1.776 6.384.364.022 1.478-6.196 2.232.132-2.378 10.014-2.812-.164-1.796-6.388-.358-.018-1.464 6.196-2.23-.13z" fill-rule="nonzero"/><path d="m394.9 897.633 2.262.132-.096 6.624.344.02 3.27-6.436 2.402.14.162 6.634.344.018 3.008-6.446 2.366.138-4.774 9.874-2.832-.166-.122-6.462-.342-.02-3.136 6.274-2.83-.166z" fill-rule="nonzero"/><path d="m414.101 904.954-.382-3.726-.344-.02-2.12 3.58zm-1.558-6.29 3.088.184 1.14 10.218-2.262-.132-.2-1.906-4.22-.244-1.072 1.83-2.366-.138z" fill-rule="nonzero"/><path d="m420.259 899.116 2.23.13-1.872 7.896 4.632.27-.504 2.124-6.86-.402z" fill-rule="nonzero"/><path d="m425.824 907.495 6.226-5.538-4.768-.278.524-2.124 7.802.462-.5 2.068-6.228 5.536 4.942.29-.504 2.124-7.976-.466z" fill-rule="nonzero"/></g></svg>