<svg clip-rule="evenodd" fill-rule="evenodd" stroke-linejoin="round" stroke-miterlimit="2" viewBox="0 0 742 948" xmlns="http://www.w3.org/2000/svg"><g fill-rule="nonzero"><path d="m152.766 86.596-24.362 265.698 265.678 24.36 24.358-265.68v-.02z" fill="#2f3083"/><g fill="#fff"><path d="m179.015 117.857c-3.24-.24-8.814-.188-9.224 4.394-.218 2.44 1.188 4.07 3.478 4.278 1.594.142 2.676-.162 3.966-1.102.432-.362 1.18-.85 1.364-2.942zm6.896 7.644c-.36 2.328-2.31 3.908-4.6 3.704-1.842-.164-2.78-1.456-2.962-3.326-1.88 1.936-4.456 2.662-6.996 2.436-3.136-.282-5.716-1.72-5.388-5.402.566-4.618 5.526-6.784 13.144-6.102l.424-4.73c.21-2.34-1.57-3.202-3.312-3.356-1.096-.1-4.664-.068-4.79 1.376-.038.398 1.434.782 1.286 2.426-.11 1.244-.984 2.018-2.228 1.906-1.344-.12-2.002-1.182-1.876-2.576.16-1.792 2.47-4.598 8.394-4.064 6.772.604 6.514 3.49 6.336 5.482l-1.062 11.85c-.136 1.494-.206 2.29.838 2.384.996.09 1.62-1.26 1.944-2.084z"/><path d="m195.361 114.152.102.01c1.094-2.162 3.306-4.422 6.044-4.178 1.692.152 2.956 1.17 2.788 3.06-.112 1.246-1.462 1.728-2.506 1.634-.896-.08-1.852-1.168-1.762-2.164.034-.4.274-.83.292-1.03.026-.298-.272-.324-.422-.338-.05-.006-1.806.542-3.102 2.682-.824 1.384-1.548 3.276-1.726 5.268l-.848 9.458 3.834.344-.1 1.144-11.104-.994.1-1.146 3.388.302 1.562-17.424-3.388-.302.102-1.146 1.544.138c1.842.164 3.788.29 5.622.002z"/><path d="m211.747 115.621.102.01c1.094-2.162 3.306-4.422 6.044-4.176 1.692.15 2.956 1.166 2.788 3.056-.112 1.246-1.462 1.73-2.506 1.636-.896-.08-1.852-1.17-1.762-2.166.034-.398.274-.828.292-1.028.026-.298-.272-.326-.422-.34-.05-.006-1.806.544-3.102 2.684-.824 1.382-1.548 3.276-1.726 5.268l-.848 9.458 3.834.344-.102 1.144-11.102-.996.1-1.146 3.388.304 1.562-17.424-3.388-.304.102-1.146 1.544.14c1.842.164 3.788.29 5.62.002z"/><path d="m228.089 99.619c1.196.108 2.442 1.322 2.328 2.618-.14 1.542-1.332 2.538-2.778 2.412-1.442-.132-2.282-1.41-2.152-2.854.114-1.298 1.358-2.288 2.602-2.176m-8.168 32.392.1-1.144 3.336.296 1.562-17.422-3.336-.3.1-1.144 1.646.146c1.842.164 3.788.288 5.62 0l-1.708 19.068 2.936.264-.1 1.146z"/><path d="m232.588 114.427.1-1.146 8.964.802-.102 1.146-2.638-.236 3.548 14.722.098.008 6.31-13.838-3.036-.274.1-1.144 6.772.606-.1 1.146-2.39-.214-8.592 18.602-1.696-.15-4.948-19.818z"/><path d="m266.926 123.322.152-1.692c.32-3.586-1.668-4.918-4.156-5.14-2.988-.268-4.582 2.4-4.714 2.74-.38.87-.63 2.002-.79 3.24zm3.888 7.024c-1.41 4.542-4.992 6.43-9.376 6.038-5.076-.456-9.59-4.974-9.094-10.502.528-5.874 4.892-10.906 10.816-10.374 5.078.456 8.602 4.234 8.166 9.666l-14.09-1.262-.182 2.04c-.442 4.93-.15 8.97 5.276 9.456 2.84.254 6.396-1.936 7.388-5.16z"/><path d="m166.634 295.972c.216-2.44-.952-4.502-3.492-4.728-2.242-.204-4.362 1.062-4.586 3.552-.188 2.142 1.846 5.736 2.83 7.634 3.67-1.178 4.91-2.672 5.248-6.458m-9.162 8.666c-3.088.876-6.066 2.214-6.396 5.9-.366 4.082 2.4 11.858 6.978 12.268 2.74.246 4.832-.72 7.17-2.166zm11.398 12.866c3.322-3.47 4.952-7.084 5.49-11.406l-4.432-.396.1-1.146 9.81.878-.102 1.148-4.182-.376c-.764 4.6-2.484 9.214-6.136 12.452l2.632 5.352 4.33.388-.1 1.146-9.062-.812-1.44-2.99c-2.628 1.924-6.792 3.006-9.978 2.72-7.82-.7-9.944-6.662-9.528-11.292.272-3.038 2.702-7.236 10.748-9.628-1.094-2.356-2.418-4.936-2.18-7.572.394-4.432 4.52-6.22 8.402-5.874 3.588.322 7.278 2.812 6.912 6.896-.166 1.842-1.308 4.548-8.204 6.44z"/><path d="m219.906 328.296-.1 1.146-9.164-.82.106-1.144 2.784.248 1.27-14.138c.206-2.34-.882-3.594-2.478-3.736-3.084-.276-5.974 3.932-6.216 6.67l-.94 10.456 2.642.236-.106 1.144-9.158-.82.102-1.144 2.636.234 1.27-14.138c.206-2.34-.882-3.592-2.478-3.736-3.086-.276-5.974 3.932-6.312 7.716l-.844 9.41 2.79.25-.104 1.144-9.16-.82.102-1.144 2.49.22 1.562-17.424-2.49-.222.1-1.144.798.07c1.844.166 3.79.288 5.622.002l-.422 4.728.096.01c1.996-2.632 3.512-4.456 7.15-4.13 2.836.254 4.874 2.146 4.906 5.16l.1.008c1.838-2.594 4.056-4.354 7.288-4.066 1.844.166 5.314 1.178 4.856 6.308l-1.188 13.244z"/><path d="m227.31 320.228c-.374 4.184-.796 9.464 4.234 9.914 5.026.452 5.55-4.822 5.926-9.004.366-4.132.792-9.414-4.236-9.866-5.03-.448-5.552 4.826-5.924 8.956m14.688 1.316c-.542 6.024-5.316 10.064-10.546 9.594-5.228-.466-9.212-5.29-8.67-11.314.536-6.026 5.312-10.014 10.54-9.548 5.23.47 9.216 5.244 8.676 11.268"/><path d="m243.684 312.863.1-1.146 8.966.802-.106 1.146-2.638-.236 3.55 14.722.1.008 6.306-13.838-3.034-.27.1-1.146 6.774.604-.104 1.146-2.388-.214-8.59 18.602-1.698-.15-4.95-19.818z"/><path d="m277.723 321.732.152-1.692c.32-3.586-1.668-4.918-4.154-5.14-2.988-.268-4.582 2.398-4.714 2.738-.378.872-.632 2.004-.792 3.242zm3.89 7.024c-1.412 4.542-4.994 6.43-9.374 6.036-5.078-.454-9.59-4.974-9.096-10.502.524-5.874 4.892-10.904 10.818-10.372 5.076.454 8.602 4.234 8.162 9.666l-14.088-1.262-.184 2.038c-.44 4.93-.15 8.97 5.278 9.458 2.84.252 6.394-1.936 7.388-5.16z"/><path d="m301.113 326.837c-.376 4.184-.796 9.464 4.234 9.918 5.026.45 5.55-4.824 5.924-9.008.368-4.13.794-9.412-4.234-9.864-5.03-.45-5.552 4.824-5.924 8.954m14.688 1.318c-.542 6.024-5.316 10.062-10.546 9.594-5.228-.466-9.212-5.292-8.672-11.316.538-6.026 5.312-10.012 10.542-9.546 5.228.47 9.216 5.242 8.676 11.268"/><path d="m321.719 319.853-2.74-.246.102-1.146 1.048.096c.944.084 1.89.168 2.798.15.95.032 1.908-.032 2.822-.15l-.472 5.278.098.008c1.676-3.014 3.808-4.978 7.444-4.654 1.792.16 5.888.93 5.48 5.51l-1.264 14.09 2.688.24-.1 1.146-9.164-.82.106-1.144 2.586.23 1.206-13.442c.324-3.634-.772-4.286-2.764-4.462-3.386-.306-6.39 4.094-6.724 7.828l-.83 9.26 2.688.24-.1 1.146-9.31-.834.102-1.146 2.738.246z"/><path d="m273.163 226.736c.218-2.44-.952-4.5-3.494-4.728-2.238-.202-4.358 1.064-4.584 3.554-.19 2.14 1.846 5.736 2.83 7.63 3.672-1.176 4.91-2.67 5.248-6.456m-9.16 8.666c-3.09.878-6.068 2.216-6.398 5.902-.368 4.082 2.398 11.858 6.98 12.268 2.738.246 4.832-.72 7.17-2.166zm11.398 12.866c3.322-3.468 4.95-7.084 5.486-11.404l-4.432-.396.104-1.146 9.81.876-.104 1.148-4.184-.374c-.762 4.598-2.482 9.214-6.132 12.45l2.63 5.354 4.332.386-.102 1.146-9.062-.81-1.438-2.99c-2.63 1.924-6.794 3.006-9.98 2.718-7.818-.698-9.944-6.662-9.528-11.292.272-3.038 2.704-7.236 10.75-9.626-1.096-2.36-2.42-4.936-2.182-7.574.396-4.432 4.522-6.22 8.404-5.872 3.586.322 7.276 2.812 6.912 6.896-.166 1.842-1.31 4.548-8.208 6.44z"/><path d="m300.388 244.482c-.2 2.242-.018 5.27 2.72 5.514 3.636.326 4.116-2.24 4.392-5.328.222-2.49.092-5.51-2.896-5.778-2.488-.224-3.792.864-4.216 5.592m1.484 23.774c8.466.758 9.236-3.942 9.308-4.738.264-2.938-.502-4.462-6.826-5.028-5.874-.528-7.876 3.308-8.026 5.002-.286 3.188 2.956 4.532 5.544 4.764m.644-13.344c6.822.612 8.088 1.026 9.52 2.962.896 1.232 1.168 2.664 1.036 4.158-.55 6.124-6.122 7.83-10.852 7.408-7.17-.642-9.286-3.942-9.098-6.034.312-3.486 3.722-4.538 6.316-4.956l.016-.15c-2.508-.574-5.366-1.182-5.046-4.768.246-2.738 3.406-3.258 5.324-3.386l.008-.1c-2.142-1.296-3.484-3.122-3.23-5.96.282-3.138 2.858-6.67 7.786-6.23 2.888.258 4.844 1.388 5.966 3.446.6-1.1 1.792-2.65 3.436-2.504.894.08 1.904.574 1.79 1.868-.09.996-.72 1.844-1.764 1.75-.846-.074-1.212-1.616-1.558-1.644-.498-.046-1.158.596-1.204 1.094-.048.55.532 1.906.408 3.3-.42 4.682-4.534 5.768-5.586 5.772-4.988.208-9.572-.154-9.794 2.336-.05.55.452 1.094 1.198 1.162z"/><path d="m323.803 226.855c1.196.108 2.442 1.324 2.328 2.622-.14 1.54-1.332 2.538-2.778 2.408-1.444-.13-2.284-1.408-2.152-2.852.114-1.296 1.356-2.288 2.602-2.178m-8.172 32.394.104-1.146 3.336.298 1.56-17.424-3.336-.298.102-1.146 1.644.146c1.844.166 3.788.29 5.622.002l-1.71 19.068 2.938.264-.104 1.144z"/><path d="m330.294 241.843.104-1.146 8.962.802-.104 1.144-2.638-.234 3.55 14.722.1.008 6.306-13.838-3.036-.272.102-1.144 6.774.606-.104 1.144-2.39-.214-8.59 18.604-1.696-.152-4.95-19.816z"/><path d="m365.629 250.83.152-1.694c.32-3.584-1.668-4.916-4.156-5.138-2.988-.268-4.582 2.398-4.712 2.738-.38.872-.632 2.002-.792 3.24zm3.888 7.024c-1.41 4.54-4.992 6.428-9.374 6.034-5.078-.452-9.59-4.974-9.096-10.5.528-5.874 4.892-10.904 10.818-10.374 5.076.454 8.602 4.234 8.164 9.666l-14.09-1.262-.184 2.04c-.44 4.93-.148 8.97 5.28 9.456 2.838.254 6.394-1.934 7.388-5.16z"/><path d="m240.809 144.865c.218-2.44-.952-4.502-3.494-4.728-2.238-.2-4.358 1.064-4.584 3.554-.19 2.142 1.846 5.736 2.83 7.632 3.672-1.178 4.91-2.67 5.248-6.458m-9.16 8.668c-3.088.874-6.068 2.214-6.398 5.898-.368 4.084 2.398 11.862 6.98 12.272 2.738.244 4.832-.722 7.17-2.17zm11.398 12.866c3.322-3.47 4.95-7.086 5.486-11.406l-4.432-.396.104-1.146 9.81.878-.104 1.146-4.184-.374c-.762 4.598-2.482 9.214-6.132 12.45l2.63 5.354 4.332.388-.102 1.144-9.062-.81-1.438-2.992c-2.63 1.926-6.794 3.006-9.98 2.722-7.818-.7-9.944-6.662-9.528-11.294.272-3.038 2.704-7.236 10.75-9.626-1.094-2.358-2.42-4.934-2.182-7.572.396-4.432 4.522-6.222 8.404-5.876 3.586.324 7.276 2.812 6.912 6.896-.166 1.842-1.31 4.55-8.206 6.44z"/><path d="m261.788 156.734.102-1.144 9.56.852-.102 1.148-2.938-.264 2.846 13.604.1.01 5.768-13.988 1.644.148 3.392 14.806.098.01 5.072-12.894-3.434-.308.1-1.146 7.418.664-.102 1.146-2.736-.244-7.352 18.714-1.392-.126-3.66-15.184-.1-.01-5.85 14.334-1.594-.144-4.002-19.73z"/><path d="m294.865 168.529c-.376 4.182-.796 9.464 4.232 9.916 5.028.45 5.55-4.824 5.924-9.006.372-4.132.796-9.414-4.234-9.866-5.028-.45-5.55 4.824-5.922 8.956m14.688 1.314c-.542 6.026-5.318 10.064-10.546 9.598-5.228-.47-9.214-5.292-8.672-11.318.538-6.026 5.312-10.014 10.542-9.544 5.228.468 9.214 5.24 8.676 11.264"/><path d="m319.479 164.962.1.01c1.096-2.162 3.308-4.422 6.046-4.178 1.692.152 2.956 1.17 2.786 3.06-.11 1.244-1.46 1.726-2.504 1.632-.896-.08-1.852-1.17-1.762-2.166.034-.398.274-.828.29-1.026.026-.3-.27-.326-.42-.34-.052-.004-1.806.544-3.102 2.684-.826 1.384-1.548 3.276-1.726 5.268l-.848 9.456 3.834.344-.104 1.146-11.102-.994.102-1.146 3.386.302 1.564-17.424-3.388-.302.1-1.146 1.546.138c1.842.164 3.788.288 5.62 0z"/><path d="m341.265 163.853.1-1.146 8.166.73-.102 1.146-3.038-.27-7.406 5.358 8.434 12.298 2.09.186-.104 1.148-9.458-.848.104-1.146 2.488.222-7.41-10.85 9.06-6.418.014-.146zm-13.666 17.494.102-1.144 2.59.23 2.868-32.012-2.59-.232.104-1.144.896.08c1.844.164 3.794.24 5.616.052l-3.01 33.606 2.986.268-.102 1.144z"/><path d="m224.317 261.744c.218-2.44-.952-4.502-3.494-4.728-2.238-.2-4.358 1.064-4.584 3.554-.19 2.142 1.846 5.736 2.83 7.632 3.672-1.178 4.91-2.67 5.248-6.458m-9.16 8.668c-3.088.874-6.068 2.214-6.398 5.898-.366 4.084 2.398 11.862 6.98 12.272 2.738.244 4.832-.722 7.17-2.17zm11.398 12.866c3.322-3.47 4.95-7.086 5.486-11.406l-4.432-.396.104-1.146 9.81.878-.104 1.146-4.184-.374c-.762 4.598-2.482 9.214-6.132 12.45l2.63 5.354 4.332.388-.102 1.144-9.062-.81-1.438-2.992c-2.63 1.926-6.794 3.006-9.98 2.722-7.818-.7-9.942-6.662-9.528-11.294.272-3.038 2.704-7.236 10.75-9.626-1.096-2.358-2.42-4.934-2.182-7.572.396-4.432 4.522-6.222 8.404-5.876 3.586.324 7.276 2.812 6.912 6.896-.166 1.842-1.31 4.55-8.206 6.44z"/><path d="m245.348 272.462 2.938.262.55-6.124c1.294.118 2.538.23 3.8.14l-.566 6.324 4.38.392-.102 1.146-4.382-.394-1.364 15.234c-.08.896-.2 2.242 1.69 2.41 1.296.118 2.072-.716 2.954-1.592l.748.62c-1.114 1.806-3.658 2.734-5.648 2.556-3.586-.322-3.81-2.296-3.596-4.686l1.334-14.888-2.84-.254z"/><path d="m270.158 284.07c-3.24-.24-8.814-.19-9.224 4.392-.22 2.44 1.188 4.072 3.478 4.278 1.594.144 2.678-.162 3.964-1.102.434-.36 1.18-.848 1.366-2.94zm6.896 7.644c-.36 2.326-2.31 3.908-4.6 3.704-1.842-.166-2.78-1.456-2.962-3.326-1.88 1.936-4.456 2.66-6.994 2.434-3.138-.28-5.718-1.72-5.388-5.402.564-4.618 5.524-6.782 13.142-6.1l.424-4.73c.21-2.34-1.57-3.2-3.312-3.356-1.096-.1-4.664-.068-4.79 1.376-.038.398 1.434.78 1.288 2.424-.112 1.244-.984 2.018-2.23 1.906-1.344-.118-2.002-1.18-1.876-2.574.16-1.792 2.47-4.6 8.396-4.066 6.77.606 6.512 3.492 6.334 5.484l-1.062 11.85c-.136 1.494-.206 2.29.838 2.384.996.09 1.62-1.262 1.944-2.084z"/><path d="m291.853 277.785.104-1.146 8.166.73-.104 1.146-3.036-.272-7.404 5.358 8.434 12.298 2.09.186-.104 1.148-9.458-.848.102-1.146 2.488.222-7.408-10.85 9.058-6.418.012-.146zm-13.662 17.492.104-1.144 2.588.232 2.87-32.012-2.59-.234.104-1.144.896.08c1.842.164 3.79.24 5.616.052l-3.01 33.606 2.986.268-.104 1.144z"/><path d="m316.089 285.775.152-1.694c.32-3.586-1.668-4.916-4.156-5.138-2.988-.268-4.582 2.398-4.714 2.738-.38.872-.63 2.002-.79 3.24zm3.888 7.022c-1.41 4.542-4.992 6.432-9.376 6.038-5.076-.454-9.588-4.976-9.094-10.504.526-5.874 4.892-10.902 10.818-10.37 5.076.452 8.602 4.232 8.164 9.664l-14.09-1.262-.184 2.04c-.44 4.93-.148 8.97 5.278 9.458 2.84.254 6.396-1.938 7.39-5.162z"/><path d="m187.909 179.492c.22-2.44-.952-4.502-3.492-4.728-2.238-.202-4.358 1.064-4.582 3.552-.192 2.142 1.842 5.738 2.826 7.634 3.674-1.176 4.91-2.672 5.248-6.458m-9.158 8.668c-3.088.874-6.07 2.214-6.4 5.898-.366 4.084 2.4 11.86 6.982 12.27 2.736.244 4.832-.722 7.17-2.168zm11.398 12.864c3.322-3.468 4.948-7.084 5.486-11.404l-4.432-.398.104-1.144 9.81.878-.106 1.148-4.182-.378c-.764 4.6-2.48 9.216-6.132 12.452l2.628 5.354 4.334.388-.104 1.146-9.062-.814-1.436-2.988c-2.632 1.924-6.796 3.004-9.982 2.72-7.816-.7-9.94-6.662-9.528-11.294.276-3.036 2.706-7.236 10.752-9.628-1.098-2.356-2.418-4.934-2.184-7.572.398-4.432 4.524-6.22 8.406-5.872 3.584.322 7.274 2.812 6.912 6.894-.166 1.844-1.312 4.55-8.208 6.44z"/><path d="m208.269 210.023.106-1.144 3.832.344 2.868-32.014-3.832-.342.1-1.146 2.14.19c1.844.166 3.794.24 5.618.054l-3.012 33.604 3.836.344-.104 1.148z"/><path d="m237.949 199.785.152-1.694c.32-3.584-1.668-4.916-4.158-5.14-2.988-.266-4.582 2.4-4.71 2.74-.382.872-.632 2.004-.792 3.242zm3.886 7.024c-1.408 4.542-4.99 6.428-9.374 6.034-5.078-.452-9.59-4.974-9.096-10.5.528-5.874 4.892-10.904 10.818-10.374 5.076.456 8.602 4.234 8.166 9.668l-14.092-1.264-.182 2.04c-.44 4.93-.148 8.97 5.28 9.456 2.836.254 6.394-1.934 7.388-5.16z"/><path d="m257.954 203.986c-3.242-.24-8.816-.188-9.224 4.392-.22 2.44 1.186 4.074 3.478 4.278 1.592.142 2.676-.162 3.966-1.102.432-.36 1.18-.848 1.364-2.938zm6.894 7.644c-.358 2.326-2.308 3.908-4.6 3.704-1.84-.166-2.778-1.456-2.962-3.328-1.88 1.938-4.454 2.664-6.994 2.436-3.136-.282-5.718-1.72-5.388-5.402.564-4.618 5.524-6.782 13.142-6.1l.426-4.73c.21-2.34-1.57-3.2-3.312-3.356-1.098-.1-4.664-.068-4.79 1.376-.038.398 1.434.782 1.288 2.422-.112 1.246-.986 2.022-2.232 1.908-1.342-.118-2.002-1.182-1.874-2.576.16-1.79 2.47-4.596 8.396-4.064 6.768.608 6.512 3.494 6.334 5.486l-1.064 11.848c-.134 1.494-.206 2.292.84 2.384.996.088 1.618-1.26 1.944-2.084z"/><path d="m274.298 200.281.102.01c1.096-2.16 3.308-4.422 6.046-4.176 1.692.15 2.958 1.166 2.788 3.058-.114 1.244-1.462 1.728-2.508 1.634-.894-.08-1.85-1.17-1.762-2.166.036-.398.276-.828.29-1.028.028-.298-.268-.326-.42-.34-.05-.006-1.802.544-3.102 2.684-.824 1.382-1.548 3.276-1.726 5.268l-.848 9.458 3.836.342-.104 1.144-11.104-.994.104-1.144 3.386.304 1.562-17.426-3.384-.304.1-1.144 1.544.138c1.84.166 3.786.29 5.622.002z"/><path d="m286.976 198.355-2.74-.246.102-1.144 1.046.094c.946.084 1.89.168 2.796.15.95.032 1.912-.032 2.826-.15l-.476 5.276.1.01c1.678-3.012 3.81-4.976 7.444-4.652 1.794.16 5.89.93 5.478 5.508l-1.26 14.09 2.688.24-.106 1.146-9.158-.82.1-1.146 2.592.232 1.206-13.442c.324-3.634-.772-4.284-2.764-4.462-3.386-.306-6.39 4.094-6.724 7.828l-.83 9.26 2.688.24-.104 1.146-9.31-.834.104-1.146 2.74.246z"/><path d="m193.661 158.021c-9.952-.912-17.318-9.74-16.424-19.698l1.194.108c-.832 9.298 6.044 17.546 15.34 18.396.012.002.02.002.032.004l7.36.658-.106 1.196-7.358-.66c-.014 0-.026-.002-.038-.004"/><path d="m194.786 161.529 5.07-3.554-4.358-4.398 13.334 5.202z"/><path d="m196.828 160.55 10.498-1.906-6.75-.606z"/><path d="m226.452 240.177c-9.954-.912-17.318-9.74-16.426-19.698l1.194.106c-.832 9.3 6.048 17.546 15.342 18.396.012.002.02.004.032.004l7.36.658-.106 1.196-7.358-.658c-.014-.002-.026-.004-.038-.004"/><path d="m227.575 243.683 5.07-3.552-4.358-4.4 13.334 5.202z"/><path d="m229.617 242.705 10.498-1.906-6.75-.604z"/><path d="m321.578 209.373.106-1.196 3.772.338c9.312.834 17.566-6.062 18.402-15.37l1.194.104c-.892 9.972-9.73 17.356-19.7 16.462z"/><path d="m327.955 205.333-5.07 3.552 4.358 4.4-13.334-5.202z"/><path d="m325.913 206.312-10.498 1.906 6.75.606z"/><path d="m337.058 289.955.106-1.196 3.774.338c9.31.834 17.564-6.062 18.4-15.37l1.194.104c-.892 9.972-9.73 17.356-19.7 16.462z"/><path d="m343.437 285.917-5.07 3.552 4.358 4.4-13.336-5.204z"/><path d="m341.394 286.896-10.498 1.904 6.75.606z"/><path d="m177.439 289.712.248-2.766c.304-3.41 1.918-6.494 4.542-8.686s5.946-3.232 9.356-2.924l6.152.528-.102 1.196-6.154-.53c-3.094-.276-6.106.664-8.484 2.65-2.376 1.988-3.838 4.784-4.116 7.872l-.248 2.766z"/><path d="m174.596 283.439 3.554 5.07 4.398-4.358-5.202 13.334z"/><path d="m175.575 285.482 1.906 10.498.604-6.75z"/><path d="m355.112 331.033-6.204-.57.11-1.194 6.202.568c13.174 1.178 28.012-6.69 29.562-23.598l13.19-149.718c.922-10.282-7.22-19.446-18.152-20.448-.016-.002-.03-.004-.042-.004l-87.052-8.046.11-1.194 87.048 8.044c.016.002.032.004.048.004 11.59 1.062 20.214 10.808 19.234 21.75l-13.188 149.718c-1.424 15.522-14.694 26.138-30.866 24.688"/><path d="m298.38 131.953-4.344-4.41 5.078-3.54-14.054 2.71z"/><path d="m296.548 130.623-9.982-3.77 6.748.624z"/><path d="m150.559 343.814c1.558.144 3.146-1.174 3.32-3.054.142-1.542-.708-2.57-1.888-2.678l-1.626-.154-1.55 5.724zm-1.824-8.194 3.78.354c2.138.2 3.844 2.256 3.604 4.82-.286 3.08-3.092 5.406-6.034 5.134l-4.07-.382z"/><path d="m159.252 336.601 7.012.654-.566 2.018-4.79-.448-.526 1.938 4.448.412-.552 2.022-4.446-.416-.528 1.936 4.79.444-.55 2.022-7.012-.654z"/><path d="m165.734 344.023 2.222.208-.008.084c-.07.768.472 1.422 2.012 1.568 1.114.1 1.77-.44 1.816-.952.042-.428-.44-.816-1.272-1.154l-1.416-.562c-1.414-.566-2.11-1.406-2.008-2.518.186-1.984 1.97-3.356 4.262-3.14 2.564.238 3.728 1.642 3.57 3.35-.012.122-.042.428-.042.428l-2.222-.206c.004-.034.006-.068.008-.086.066-.686-.48-1.336-1.676-1.45-1.028-.096-1.588.37-1.646.97-.03.34.116.612.948.948l1.414.564c1.664.672 2.446 1.524 2.334 2.722-.182 1.966-1.864 3.36-4.43 3.122-2.822-.264-4.064-1.76-3.898-3.554z"/><path d="m177.808 338.331 2.222.208-2.72 9.926-2.222-.206z"/><path d="m185.68 343.812 4.62.43-.16.59c-.768 2.86-3.096 4.714-5.748 4.466-2.48-.23-4.186-2.286-3.94-4.94.312-3.35 3.116-5.662 6.026-5.39 2.308.216 3.704 1.898 3.788 4.148l-2.242-.208c-.178-1.054-.89-1.722-1.918-1.818-1.626-.152-3.216 1.168-3.416 3.306-.142 1.54.788 2.66 2.072 2.78 1.112.102 2.194-.4 2.692-1.474l-2.242-.208z"/><path d="m193.541 339.8 2.804.26 1.558 6.446.358.032 1.694-6.14 2.224.206-2.72 9.926-2.804-.262-1.574-6.444-.36-.034-1.678 6.142-2.222-.206z"/><path d="m207.667 341.117 2.258.21-.324 6.614.342.032 3.488-6.318 2.396.224-.068 6.636.344.032 3.23-6.342 2.362.218-5.114 9.706-2.826-.264.104-6.462-.344-.032-3.35 6.16-2.824-.264z"/><path d="m226.605 349.095-.254-3.736-.342-.032-2.242 3.504zm-1.34-6.338 3.08.288.786 10.254-2.258-.212-.134-1.91-4.208-.392-1.134 1.792-2.36-.22z"/><path d="m232.962 343.474 2.222.208-2.142 7.824 4.618.43-.574 2.104-6.844-.638z"/><path d="m238.232 352.042 6.416-5.322-4.756-.444.594-2.102 7.782.73-.57 2.048-6.416 5.322 4.928.46-.576 2.102-7.954-.742z"/></g></g></svg>