<svg clip-rule="evenodd" fill-rule="evenodd" stroke-linejoin="round" stroke-miterlimit="2" viewBox="0 0 742 948" xmlns="http://www.w3.org/2000/svg"><g fill-rule="nonzero"><path d="m451.22 476.108c5.85 75.596-89.778 144.644-213.588 154.224-123.81 9.578-228.92-43.936-234.77-119.53-5.848-75.596 89.778-144.646 213.588-154.226 123.812-9.58 228.922 43.938 234.77 119.532" fill="#fd0"/><g fill="#1e1c1a"><path d="m77.915 433.094 21.77-5.514.574 7.414-21.772 5.512 1.39 18.918-9.268 2.348-3.444-45.972 32.114-8.134.59 7.658-22.844 5.786z"/><path d="m138.03 415.596c-1.74-6.872-6.264-9.238-11.976-7.792-10.56 2.674-13.096 15.224-10.65 24.88 1.74 6.874 6.262 9.24 11.976 7.794 10.558-2.674 13.098-15.224 10.65-24.882m9.448-2.262c3.964 15.656-3.102 30.806-18.708 34.758-10.446 2.646-19.962-1.89-22.812-13.144-3.966-15.66 3.1-30.808 18.702-34.758 10.448-2.646 19.968 1.89 22.818 13.144"/><path d="m195.391 414.52c-.898 8.862-6.976 18.466-18.66 21.428-10.328 2.614-19.738-1.972-22.594-13.242-3.944-15.576 3.194-30.79 18.482-34.662 10.216-2.586 18.326 2.766 20.878 9.35l-8.864 3.438c-1.742-4.074-5.36-6.506-10.64-5.168-9.96 2.524-12.966 14.682-10.398 24.814 1.75 6.916 6.246 9.246 11.764 7.848 6.332-1.604 9.608-7.158 10.41-12.84z"/><path d="m238.473 402.182c.972 12.898-5.96 19.638-17.25 22.496-9.708 2.46-19.622-2.12-20.422-13.31l-2.128-28.872 9.25-2.342 2.136 28.296c.58 7.766 4.038 9.98 10.078 8.45 6.246-1.582 9.508-5.852 8.93-13.618l-2.054-27.964 9.25-2.342z"/><path d="m270.25 378.229c-1.802-4.634-5.352-6.148-10.37-4.878-4.34 1.098-7.848 4.788-6.912 8.486.658 2.698 3.022 2.942 6.464 2.942l7.348-.022c6.174.014 12.622.766 14.54 8.514 2.68 10.75-4.98 17.45-15.878 20.21-10.454 2.646-19.432-1.272-21.802-10.172l8.97-3.106c1.722 6.37 6.618 7.352 11.846 6.03 4.752-1.204 8.888-4.9 7.746-9.416-.792-3.118-3.334-3.252-7.652-3.298l-7.3-.086c-5.5-.06-11.426-1.162-13.168-8.044-2.442-9.64 5.052-16.722 14.994-19.24 9.524-2.412 17.138 1.496 20.072 9.282z"/><path d="m161.336 466.163c-1.74-6.872-6.264-9.238-11.976-7.792-10.56 2.674-13.096 15.222-10.65 24.878 1.74 6.874 6.262 9.242 11.976 7.792 10.558-2.67 13.098-15.222 10.65-24.878m9.448-2.266c3.964 15.66-3.102 30.808-18.708 34.762-10.446 2.644-19.962-1.894-22.812-13.144-3.966-15.66 3.1-30.81 18.702-34.762 10.448-2.644 19.968 1.89 22.818 13.144"/><path d="m208.219 483.389-22.454-27.882-.248.062 2.464 32.946-8.492 2.148-3.444-45.97 9.818-2.488 22.11 27.38.248-.064-2.408-32.366 8.496-2.152 3.442 45.972z"/><path d="m83.459 570.719-6.592 1.67-.364-5.14c-2.63 4.714-6.866 8.02-12.888 9.546-10.324 2.616-20.03-2.086-22.828-13.138-3.96-15.64 3.336-30.87 18.714-34.764 9.46-2.396 17.99 1.468 21.342 9.318l-9.114 3.13c-2.106-4.298-5.684-6.138-10.854-4.828-10.22 2.588-13.198 14.798-10.644 24.878 1.762 6.786 6.282 9.236 12.014 7.786 6.446-1.634 10.586-7.134 11.216-13.11l-10.68 2.702-.56-7.27 19.458-4.928z"/><path d="m118.041 534.133.512 7.43-21.77 5.512.914 11.99 22.848-5.788.584 7.902-32.114 8.134-3.442-45.972 32.112-8.132.59 7.658-22.844 5.784.838 10.994z"/><path d="m154.491 552.731-22.454-27.88-.248.062 2.466 32.944-8.494 2.152-3.442-45.974 9.816-2.484 22.11 27.376.25-.064-2.41-32.364 8.496-2.152 3.442 45.97z"/><path d="m198.991 513.633.514 7.428-21.77 5.514.916 11.988 22.844-5.786.584 7.902-32.114 8.134-3.44-45.972 32.112-8.134.59 7.658-22.844 5.786.838 10.994z"/><path d="m224.872 509.979c6.038-1.53 8.646-5.636 7.436-10.412-.84-3.322-3.588-4.67-8.428-3.446l-10.712 2.716.994 13.854zm8.168 5.026 12.022 14.79-10.166 2.574-11.132-14.302-9.054 2.292 1.248 16.806-9.246 2.342-3.442-45.97 21.344-5.404c7.926-2.008 15.006.75 16.802 7.844 2.098 8.278-.938 15.144-8.376 19.028"/><path d="m263.647 486.626-.248.062-4.768 21.038 13.146-3.33zm-6.808 29.016-2.686 11.852-10.218 2.588 12.626-50.042 12.168-3.082 20.31 41.7-9.62 2.436-4.58-10.01z"/><path d="m288.227 472.02 9.268-2.348 2.848 37.844 23.176-5.87.594 8.128-32.446 8.218z"/><path d="m324.227 462.903 9.25-2.342 3.442 45.97-9.248 2.342z"/><path d="m366.155 466.145c-1.8-4.636-5.348-6.148-10.368-4.878-4.342 1.098-7.848 4.786-6.914 8.486.66 2.696 3.024 2.94 6.466 2.938l7.346-.02c6.174.016 12.622.768 14.544 8.516 2.676 10.75-4.982 17.446-15.878 20.208-10.454 2.646-19.436-1.274-21.802-10.172l8.966-3.106c1.722 6.372 6.618 7.354 11.848 6.03 4.75-1.204 8.886-4.9 7.744-9.416-.79-3.116-3.334-3.252-7.652-3.296l-7.3-.09c-5.5-.058-11.426-1.158-13.168-8.04-2.442-9.64 5.052-16.724 14.994-19.242 9.524-2.412 17.14 1.498 20.072 9.282z"/><path d="m429.082 483.192-8.74 2.212-2.552-34.01-.246.062-8.12 36.714-6.89 1.744-13.304-31.286-.246.06 2.55 34.012-8.494 2.152-3.444-45.97 13.166-3.334 11.72 29.428.246-.064 6.92-34.15 13.99-3.542z"/><path d="m243.686 618.518c1.556-.152 2.87-1.746 2.686-3.628-.148-1.542-1.18-2.39-2.36-2.274l-1.624.158-.446 5.912zm-3.338-7.706 3.782-.366c2.136-.21 4.2 1.49 4.448 4.056.3 3.08-2.016 5.896-4.958 6.18l-4.07.394z"/><path d="m250.475 609.752 6.986-.866-.12 2.092-4.772.59-.1 2.002 4.432-.546-.104 2.086-4.43.55-.098 2 4.772-.59-.106 2.088-6.984.87z"/><path d="m258.28 615.606 2.208-.33.01.084c.116.762.8 1.27 2.324 1.04 1.104-.166 1.61-.846 1.532-1.354-.062-.428-.622-.69-1.506-.818l-1.508-.208c-1.508-.208-2.384-.862-2.548-1.96-.298-1.972 1.108-3.726 3.382-4.066 2.548-.38 4.01.702 4.266 2.398.016.12.06.424.06.424l-2.204.332c-.008-.034-.012-.068-.014-.084-.102-.68-.786-1.184-1.972-1.008-1.02.152-1.454.738-1.364 1.334.05.338.26.568 1.144.694l1.508.21c1.774.254 2.736.89 2.914 2.08.292 1.95-1.008 3.708-3.552 4.09-2.804.418-4.366-.736-4.628-2.518z"/><path d="m268.411 607.141 2.208-.374-.072 10.3-2.2.372z"/><path d="m277.229 610.338 4.554-.874.012.612c.062 2.96-1.66 5.386-4.274 5.888-2.442.466-4.654-1.03-5.154-3.644-.636-3.304 1.414-6.302 4.28-6.852 2.276-.436 4.082.79 4.792 2.928l-2.208.422c-.464-.958-1.338-1.404-2.35-1.21-1.602.308-2.758 2.016-2.354 4.122.29 1.518 1.496 2.336 2.762 2.094 1.094-.21 1.992-.996 2.17-2.166l-2.208.426z"/><path d="m283.2 604.292 2.748-.622 3.474 5.646.352-.08-.288-6.362 2.176-.488.486 10.278-2.748.618-3.49-5.64-.35.078.306 6.362-2.182.488z"/><path d="m296.405 601.194 2.186-.604 2.042 6.29.332-.09 1.014-7.14 2.314-.644 2.298 6.226.328-.094.766-7.07 2.284-.634-1.332 10.88-2.728.756-2.2-6.072-.33.092-.944 6.944-2.732.756z"/><path d="m316.678 601.676-1.688-3.338-.326.104-.704 4.096zm-3.7-5.314 2.948-.934 4.712 9.136-2.162.686-.864-1.708-4.028 1.274-.348 2.092-2.258.716z"/><path d="m319.959 594.044 2.11-.734 1.302 8.004 4.38-1.53.348 2.15-6.484 2.266z"/><path d="m328.186 599.667 3.412-7.602-4.462 1.7-.394-2.15 7.306-2.78.39 2.094-3.412 7.604 4.624-1.762.412 2.144-7.466 2.838z"/></g></g></svg>