<svg clip-rule="evenodd" fill-rule="evenodd" stroke-linejoin="round" stroke-miterlimit="2" viewBox="0 0 930 638" xmlns="http://www.w3.org/2000/svg"><path d="m402.967 413.211c-52.354-3.32-92.472-48.872-89.154-101.224l13.888-219.02c3.318-52.354 48.87-92.472 101.224-89.154 52.354 3.32 92.474 48.87 89.154 101.224l-13.888 219.02c-3.318 52.354-48.87 92.472-101.224 89.154" fill="#f4921f" fill-rule="nonzero"/><g fill="#1e1c1a"><path d="m357.94 370.748-2.928 6.804.378.344 6.51-3.536zm-3.478 11.38-3.58-3.266 7.088-17.228 2.732 2.492-1.53 3.682 5.542 5.056 3.528-1.86 2.732 2.492z" fill-rule="nonzero"/><path d="m345.611 359.488-4.34-6.608.94-.616c4.074-2.676 8.89-1.72 11.55 2.332 2.662 4.048 1.626 9.304-2.764 12.184-4.386 2.88-9.622 1.744-12.282-2.308-2.662-4.048-1.134-8.102.816-10.144l1.888 2.876c-.936 1.534-1.422 3.528-.092 5.554 1.68 2.556 4.82 3.242 7.85 1.252s3.652-5.144 1.972-7.7c-1.818-2.772-4.854-2.61-5.794-1.992l-.104.068 2.448 3.73z" fill-rule="nonzero"/><path d="m338.931 339.176-5.866 4.524.16.484 7.414.072zm-8.57 8.254-1.546-4.596 14.568-11.608 1.178 3.508-3.126 2.474 2.39 7.11 3.988.088 1.18 3.508z" fill-rule="nonzero"/><path d="m343.113 325.368.416 3.287-17.372 2.197-.416-3.288z"/><path d="m325.085 319.715.282-4.458 12.51-5.724.034-.51-12.1-.766.21-3.31 17.462 1.108-.284 4.454-12.508 5.728-.032.508 12.096.766-.21 3.312z" fill-rule="nonzero"/><path d="m338.529 297.285c1.498.096 2.838-1.354 2.992-3.774.162-2.544-.772-3.626-2.018-3.706-.998-.062-1.91.52-2.43 2.784l-.694 3.026c-.692 3.024-2.526 4.312-5.02 4.156-2.87-.184-5.086-2.752-4.82-6.952.29-4.584 2.932-6.718 6.172-6.51l-.21 3.308c-1.494-.094-2.822 1.1-2.968 3.39-.144 2.292.788 3.374 2.036 3.454.996.062 1.678-.406 2.148-2.294l.676-2.768c.85-3.526 2.452-5.086 5.32-4.904 2.992.19 5.094 2.624 4.802 7.208-.29 4.582-2.954 7.098-6.196 6.892z" fill-rule="nonzero"/><path d="m330.914 277.156-.338 5.346-3.12-.198.888-14.004 3.12.198-.34 5.346 14.342.91-.21 3.312z" fill-rule="nonzero"/><path d="m344.238 248.686c.074-1.144-.86-2.226-2.106-2.304-1.248-.08-2.31.874-2.382 2.02l-.306 4.838 4.488.284zm-7.374-.21c.082-1.272-.736-2.22-1.982-2.298-1.372-.088-2.302.748-2.382 2.022l-.292 4.582 4.364.278zm-7.734 7.432.524-8.272c.194-3.056 2.32-4.968 5.188-4.786 2.618.166 3.628 2.022 3.628 2.022l.126.008s1.252-1.968 3.996-1.794c2.866.182 4.734 2.346 4.54 5.4l-.54 8.53z" fill-rule="nonzero"/><path d="m339.811 225.703c-3.616-.228-6.006 1.92-6.202 4.976-.192 3.054 1.908 5.488 5.524 5.718 3.618.23 6.006-1.92 6.2-4.976s-1.904-5.488-5.522-5.718m.208-3.308c5.24.332 8.74 4.386 8.432 9.224-.306 4.838-4.29 8.42-9.528 8.088s-8.738-4.388-8.432-9.226c.308-4.838 4.292-8.418 9.528-8.086" fill-rule="nonzero"/><path d="m340.555 210.008c.082-1.274-.97-2.49-2.466-2.584-1.62-.104-2.816.97-2.896 2.244l-.3 4.71 5.364.34zm-8.99 7.482.518-8.148c.2-3.182 2.724-5.45 6.216-5.228 3.368.214 5.336 2.768 5.282 5.574l6.35-5.35-.266 4.204-6.35 5.348-.064 1.018 5.986.38-.21 3.31z" fill-rule="nonzero"/><path d="m350.423 196.566-.21 3.311-17.46-1.107.21-3.312z"/><path d="m333.316 189.881.284-4.456 12.508-5.726.034-.508-12.1-.768.21-3.31 17.462 1.108-.282 4.456-12.51 5.726-.032.51 12.096.764-.208 3.312z" fill-rule="nonzero"/><path d="m350.882 157.738-.008.126s2.14 1.798 1.914 5.364c-.306 4.838-4.29 8.418-9.528 8.086s-8.738-4.386-8.432-9.224 3.962-7.162 6.744-7.628l-.218 3.44c-1.668.66-3.254 1.964-3.406 4.384-.194 3.056 1.906 5.49 5.522 5.72 3.618.228 6.006-1.922 6.2-4.976.21-3.31-2.312-5.004-3.434-5.076l-.124-.008-.282 4.456-2.496-.158.492-7.766 9.23.586-.162 2.546z" fill-rule="nonzero"/><path d="m348.562 139.047c1.498.096 2.838-1.354 2.992-3.774.162-2.544-.772-3.628-2.018-3.706-.998-.064-1.91.518-2.43 2.784l-.694 3.026c-.692 3.022-2.526 4.312-5.02 4.154-2.87-.182-5.086-2.75-4.82-6.95.29-4.584 2.932-6.718 6.172-6.512l-.21 3.31c-1.494-.096-2.822 1.1-2.968 3.39-.144 2.292.788 3.374 2.036 3.454.996.062 1.676-.404 2.148-2.294l.676-2.768c.85-3.526 2.452-5.086 5.32-4.906 2.992.19 5.094 2.626 4.802 7.208-.29 4.584-2.954 7.1-6.196 6.894z" fill-rule="nonzero"/><path d="m340.949 118.896-.338 5.346-3.12-.198.888-14.006 3.118.2-.338 5.346 14.342.91-.21 3.31z" fill-rule="nonzero"/><path d="m347.634 98.353c.082-1.274-.968-2.49-2.466-2.584-1.62-.104-2.816.968-2.896 2.244l-.298 4.71 5.362.338zm-8.99 7.482.518-8.148c.202-3.182 2.724-5.45 6.216-5.228 3.368.212 5.336 2.768 5.284 5.574l6.348-5.35-.266 4.204-6.35 5.348-.064 1.018 5.986.38-.21 3.308z" fill-rule="nonzero"/><path d="m352.557 78.904-7.368.77-.116.498 6.268 3.944zm-11.628 2.528 1.098-4.722 18.494-2.236-.84 3.602-3.96.464-1.704 7.3 3.346 2.168-.84 3.6z" fill-rule="nonzero"/><path d="m363.303 69.442-1.368 3.02-15.938-7.22 1.368-3.019z"/><path d="m362.027 53.717 4.624-6.41.914.66c3.95 2.856 4.772 7.698 1.938 11.626-2.834 3.926-8.112 4.832-12.366 1.754-4.256-3.076-5.058-8.372-2.224-12.302 2.836-3.928 7.164-3.946 9.766-2.85l-2.014 2.794c-1.764-.334-3.802-.076-5.218 1.886-1.79 2.482-1.308 5.662 1.628 7.786 2.938 2.122 6.104 1.58 7.896-.9 1.94-2.686.706-5.466-.204-6.124l-.104-.074-2.608 3.618z" fill-rule="nonzero"/><path d="m365.073 37.35 2.592-2.07 4.37 5.466 6.28-5.016-4.37-5.464 2.592-2.07 10.928 13.664-2.594 2.07-4.524-5.662-6.282 5.016 4.528 5.66-2.594 2.07z" fill-rule="nonzero"/><path d="m387.523 25.801-4.85 2.268-1.322-2.83 12.704-5.94 1.322 2.832-4.852 2.268 6.084 13.026-3.002 1.406z" fill-rule="nonzero"/><path d="m405.631 15.324 3.692-.214 3.766 12.05.51-.03 2.476-12.41 3.822-.222 3.892 12.042.508-.028 2.348-12.402 3.696-.216-3.448 17.724-4.584.266-3.75-11.8-.512.03-2.362 12.154-4.586.264z" fill-rule="nonzero"/><path d="m442.887 28.002-.662-7.378-.496-.122-4.038 6.208zm-2.354-11.664 4.7 1.17 1.962 18.524-3.586-.894-.406-3.966-7.276-1.808-2.218 3.312-3.588-.892z" fill-rule="nonzero"/><path d="m453.51 32.867-.622-13.188 3.3 1.662.378 8.586.454.232 7.134-4.802 3.3 1.664-10.986 7.338-2.702 5.356-2.958-1.492z" fill-rule="nonzero"/><path d="m464.565 39.914c-.942 1.164-.542 3.098 1.34 4.626 1.982 1.604 3.404 1.47 4.19.498.628-.776.682-1.86-.864-3.596l-2.062-2.316c-2.062-2.314-2.05-4.558-.478-6.502 1.808-2.234 5.184-2.554 8.452.096 3.564 2.89 3.774 6.278 1.732 8.804l-2.576-2.088c.944-1.164.74-2.94-1.044-4.386-1.78-1.442-3.202-1.308-3.99-.338-.628.778-.642 1.604.626 3.08l1.862 2.156c2.382 2.732 2.724 4.942.916 7.176-1.888 2.332-5.086 2.636-8.65-.254-3.566-2.89-4.074-6.52-2.028-9.046z" fill-rule="nonzero"/><path d="m477.239 60.809-1.95-2.702 14.188-10.24 1.95 2.702z"/><path d="m496.057 57.422 1.818 4.074-8.416 10.886.208.468 11.064-4.95 1.354 3.028-15.974 7.142-1.818-4.074 8.418-10.888-.208-.466-11.066 4.95-1.35-3.028z" fill-rule="nonzero"/><path d="m494.352 89.969 10.886-7.494.324 3.682-7.102 4.854.046.508 7.842 3.528.326 3.684-12.03-5.46-5.98.532-.292-3.302z" fill-rule="nonzero"/><path d="m496.619 114.648c3.616.228 6.006-1.92 6.202-4.974.192-3.056-1.908-5.49-5.524-5.72-3.618-.23-6.006 1.92-6.2 4.976s1.904 5.488 5.522 5.718m-.208 3.308c-5.24-.332-8.74-4.386-8.432-9.224.306-4.838 4.29-8.42 9.528-8.088s8.738 4.388 8.432 9.226c-.308 4.838-4.292 8.418-9.528 8.086" fill-rule="nonzero"/><path d="m504.922 121.951-.21 3.31-10.352-.656c-2.494-.158-4.352 1.514-4.498 3.804-.146 2.294 1.486 4.184 3.982 4.342l10.352.658-.21 3.312-10.352-.656c-4.49-.286-7.172-3.398-6.89-7.852.282-4.456 3.338-7.204 7.826-6.918z" fill-rule="nonzero"/><path d="m494.725 148.463c-.08 1.274.97 2.49 2.466 2.586 1.62.102 2.816-.972 2.896-2.246l.3-4.71-5.364-.338zm8.99-7.48-.516 8.146c-.202 3.184-2.726 5.452-6.218 5.228-3.368-.212-5.336-2.764-5.282-5.574l-6.348 5.35.266-4.204 6.348-5.346.064-1.018-5.984-.382.21-3.308z" fill-rule="nonzero"/><path d="m502.167 165.4-.21 3.308-14.342-.908-.532 8.4-3.12-.196.744-11.712z" fill-rule="nonzero"/><path d="m483.562 182.352.21-3.311 17.46 1.107-.21 3.312z"/><path d="m500.743 187.852-.75 11.84-2.994-.19.54-8.528-4.24-.27-.5 7.892-2.994-.19.502-7.892-7.234-.458.21-3.31z" fill-rule="nonzero"/><path d="m499.798 202.766-.758 11.966-2.994-.188.548-8.656-4.24-.27-.516 8.148-2.994-.192.516-8.146-4.238-.27-.55 8.656-2.994-.188.76-11.968z" fill-rule="nonzero"/><path d="m429.128 399.127c-.084-.006-.17-.016-.254-.032l-44.83-8.412c-.93-.176-1.624-.954-1.692-1.898-.066-.944.508-1.812 1.404-2.118l61.316-20.906-87.884-23.112c-.968-.254-1.618-1.158-1.548-2.156s.836-1.808 1.83-1.924l100.73-12.03-104.394-28.852c-.948-.262-1.586-1.152-1.524-2.132.06-.982.798-1.788 1.77-1.934l122.714-18.336-117.83-17.796c-1.028-.156-1.782-1.044-1.772-2.08.01-1.04.784-1.91 1.814-2.044l118.684-15.446-117.182-18.468c-.994-.156-1.732-1.002-1.756-2.006s.672-1.884 1.656-2.09l103.122-21.464-102.778-22.574c-.992-.22-1.68-1.118-1.634-2.134.048-1.012.82-1.844 1.826-1.968l103.616-12.726-101.16-26.132c-.97-.252-1.624-1.16-1.556-2.162.068-1 .844-1.808 1.84-1.922l104.328-11.924-94.79-23.218c-.998-.244-1.666-1.18-1.578-2.206.09-1.022.914-1.828 1.938-1.894l84.798-5.53-71.154-19.924c-.986-.276-1.624-1.228-1.508-2.242.118-1.016.954-1.798 1.974-1.844l66.574-3.02c1.192-.052 2.122.836 2.176 1.984.052 1.15-.836 2.124-1.986 2.176l-53.618 2.434 70.412 19.712c.976.274 1.614 1.214 1.508 2.222-.104 1.008-.922 1.796-1.934 1.862l-83.468 5.446 92.952 22.768c.978.238 1.646 1.146 1.582 2.152s-.84 1.822-1.842 1.938l-104.732 11.97 100.912 26.066c.968.25 1.622 1.152 1.556 2.15s-.832 1.81-1.824 1.932l-102.412 12.58 100.382 22.048c.96.21 1.642 1.062 1.636 2.044s-.696 1.826-1.658 2.03l-101.5 21.126 120.228 18.948c1.024.162 1.772 1.048 1.76 2.084-.016 1.034-.788 1.904-1.816 2.036l-118.35 15.404 116.888 17.656c1.02.156 1.774 1.03 1.772 2.06 0 1.032-.754 1.904-1.774 2.058l-126.712 18.932 105.132 29.058c.96.264 1.598 1.172 1.522 2.162-.074.992-.842 1.794-1.828 1.91l-100.372 11.986 83.976 22.088c.89.234 1.52 1.02 1.554 1.938.03.918-.54 1.748-1.41 2.044l-60.354 20.576 37.046 6.95c1.128.214 1.874 1.304 1.662 2.432-.196 1.046-1.142 1.76-2.176 1.694" fill-rule="nonzero"/><path d="m458.035 382.025c1.238-.958 1.5-3.006.344-4.502-.946-1.224-2.274-1.396-3.212-.67l-1.292.998 2.774 5.244zm-6.928-4.748 3.004-2.322c1.7-1.316 4.354-.974 5.93 1.064 1.894 2.45 1.43 6.064-.91 7.874l-3.236 2.502z" fill-rule="nonzero"/><path d="m458.318 371.293 5.026-4.936 1.176 1.736-3.434 3.372 1.138 1.65 3.188-3.128 1.188 1.722-3.19 3.13 1.14 1.65 3.434-3.37 1.186 1.724-5.028 4.936z" fill-rule="nonzero"/><path d="m468.308 370.812 1.394-1.744.066.052c.604.484 1.45.39 2.414-.818.698-.87.606-1.716.204-2.036-.336-.27-.928-.082-1.664.426l-1.248.874c-1.248.872-2.332.992-3.206.294-1.556-1.242-1.72-3.486-.282-5.282 1.61-2.014 3.418-2.216 4.762-1.142.094.076.336.266.336.266l-1.396 1.746c-.028-.02-.054-.042-.066-.054-.538-.43-1.382-.336-2.134.604-.642.806-.564 1.528-.094 1.906.268.214.578.24 1.314-.27l1.248-.87c1.476-1.022 2.616-1.21 3.556-.46 1.542 1.236 1.784 3.408.174 5.422-1.768 2.21-3.7 2.428-5.11 1.3z" fill-rule="nonzero"/><path d="m469.528 357.867 1.23-1.862 7.466 7.076-1.232 1.862z" fill-rule="nonzero"/><path d="m477.672 353.17 2.142-4.11.484.37c2.358 1.79 3.192 4.644 1.96 7.004-1.15 2.204-3.698 3.006-6.054 1.776-2.982-1.556-4.06-5.02-2.71-7.606 1.072-2.058 3.154-2.712 5.268-1.938l-1.04 1.994c-1.04-.232-1.928.172-2.406 1.086-.754 1.446-.134 3.414 1.766 4.406 1.37.716 2.758.278 3.354-.864.518-.99.46-2.178-.348-3.046l-1.038 1.992z" fill-rule="nonzero"/><path d="m476.156 345.068.936-2.658 6.63.056.122-.342-5.548-3.136.742-2.108 8.972 5.054-.936 2.658-6.636-.04-.12.342 5.552 3.12-.742 2.106z" fill-rule="nonzero"/><path d="m480.129 331.668.242-2.252 6.602.408.036-.342-6.266-3.568.254-2.388 6.63.152.038-.34-6.296-3.312.25-2.356 9.628 5.236-.298 2.818-6.454-.186-.038.34 6.11 3.43-.3 2.818z" fill-rule="nonzero"/><path d="m487.849 312.199-3.726.366-.022.342 3.568 2.138zm-6.294 1.53.194-3.088 10.226-1.09-.142 2.264-1.906.186-.268 4.22 1.826 1.08-.15 2.366z" fill-rule="nonzero"/><path d="m482.086 305.35.14-2.228 7.884 1.91.294-4.63 2.12.512-.436 6.86z" fill-rule="nonzero"/><path d="m490.532 299.203-5.51-6.254-.302 4.768-2.116-.532.494-7.8 2.068.508 5.508 6.256.312-4.94 2.12.516-.504 7.97z" fill-rule="nonzero"/></g></svg>