<svg clip-rule="evenodd" fill-rule="evenodd" stroke-linejoin="round" stroke-miterlimit="2" viewBox="0 0 930 638" xmlns="http://www.w3.org/2000/svg"><g fill-rule="nonzero"><path d="m23.887 94.092-24.36 265.7 265.678 24.358 24.358-265.7-265.656-24.358h-.02z" fill="#2f3083"/><g fill="#fff"><path d="m50.138 125.353c-3.24-.24-8.814-.186-9.226 4.396-.218 2.44 1.19 4.07 3.48 4.276 1.594.142 2.676-.162 3.964-1.102.434-.362 1.182-.848 1.366-2.94zm6.896 7.644c-.362 2.328-2.31 3.908-4.6 3.706-1.842-.166-2.78-1.456-2.962-3.328-1.88 1.938-4.456 2.664-6.996 2.436-3.136-.282-5.716-1.718-5.388-5.402.564-4.616 5.526-6.782 13.144-6.102l.424-4.73c.21-2.34-1.57-3.2-3.312-3.356-1.096-.098-4.664-.068-4.79 1.376-.038.398 1.432.784 1.286 2.428-.11 1.242-.984 2.018-2.228 1.904-1.344-.12-2.002-1.182-1.876-2.576.16-1.792 2.47-4.596 8.394-4.064 6.772.606 6.514 3.492 6.336 5.484l-1.062 11.85c-.136 1.492-.206 2.29.838 2.384.996.09 1.62-1.26 1.944-2.086z"/><path d="m66.483 121.65.102.008c1.094-2.16 3.306-4.422 6.044-4.176 1.692.15 2.956 1.17 2.788 3.06-.112 1.244-1.462 1.726-2.506 1.632-.896-.08-1.852-1.168-1.762-2.164.034-.398.274-.83.292-1.028.026-.3-.272-.326-.422-.34-.05-.004-1.806.544-3.102 2.684-.824 1.382-1.548 3.276-1.726 5.266l-.848 9.458 3.834.344-.102 1.146-11.102-.994.1-1.146 3.388.302 1.562-17.424-3.388-.302.102-1.146 1.544.136c1.842.166 3.788.29 5.62.002z"/><path d="m82.869 123.118.1.008c1.096-2.16 3.308-4.422 6.046-4.176 1.692.15 2.956 1.168 2.788 3.058-.112 1.244-1.462 1.728-2.506 1.634-.896-.08-1.852-1.17-1.762-2.166.034-.398.274-.828.292-1.026.026-.3-.272-.328-.422-.342-.05-.004-1.806.544-3.102 2.684-.824 1.382-1.548 3.278-1.726 5.27l-.848 9.456 3.834.344-.102 1.146-11.102-.996.1-1.146 3.386.304 1.564-17.424-3.388-.304.102-1.146 1.544.138c1.842.166 3.788.29 5.62.002z"/><path d="m99.211 107.114c1.196.108 2.442 1.322 2.328 2.62-.14 1.542-1.332 2.538-2.778 2.41-1.442-.132-2.282-1.41-2.152-2.854.114-1.296 1.358-2.288 2.602-2.176m-8.17 32.394.102-1.146 3.336.298 1.562-17.424-3.336-.298.1-1.146 1.646.146c1.842.166 3.788.29 5.62.002l-1.71 19.068 2.938.264-.1 1.144z"/><path d="m103.71 121.923.1-1.144 8.964.8-.102 1.146-2.638-.236 3.548 14.722.098.008 6.31-13.838-3.036-.272.1-1.146 6.772.606-.1 1.146-2.392-.212-8.592 18.602-1.694-.152-4.948-19.816z"/><path d="m138.049 130.82.152-1.694c.32-3.586-1.668-4.916-4.156-5.138-2.988-.268-4.582 2.4-4.714 2.738-.38.87-.63 2.002-.79 3.24zm3.888 7.022c-1.41 4.542-4.992 6.432-9.376 6.038-5.076-.454-9.59-4.974-9.094-10.502.528-5.874 4.892-10.904 10.816-10.372 5.078.454 8.602 4.232 8.166 9.664l-14.09-1.26-.182 2.04c-.442 4.93-.152 8.97 5.276 9.456 2.84.254 6.396-1.938 7.388-5.16z"/><path d="m37.757 303.468c.216-2.44-.952-4.502-3.494-4.728-2.24-.202-4.36 1.062-4.584 3.552-.188 2.142 1.846 5.738 2.83 7.634 3.67-1.178 4.91-2.67 5.248-6.458m-9.162 8.668c-3.088.874-6.066 2.214-6.396 5.898-.366 4.084 2.398 11.86 6.978 12.27 2.74.244 4.832-.722 7.17-2.168zm11.398 12.864c3.322-3.468 4.952-7.084 5.49-11.406l-4.432-.396.1-1.144 9.81.878-.102 1.148-4.182-.378c-.764 4.6-2.484 9.216-6.136 12.452l2.632 5.354 4.33.388-.1 1.146-9.062-.814-1.44-2.988c-2.628 1.924-6.792 3.006-9.978 2.718-7.82-.698-9.944-6.66-9.528-11.292.27-3.036 2.702-7.236 10.748-9.628-1.094-2.356-2.42-4.934-2.18-7.572.394-4.432 4.52-6.22 8.402-5.874 3.588.324 7.278 2.814 6.912 6.896-.166 1.842-1.308 4.55-8.204 6.44z"/><path d="m91.028 335.794-.102 1.146-9.162-.82.104-1.146 2.786.25 1.27-14.138c.206-2.342-.882-3.594-2.478-3.738-3.084-.276-5.974 3.932-6.216 6.672l-.94 10.454 2.642.236-.106 1.146-9.158-.82.102-1.146 2.636.236 1.27-14.138c.206-2.34-.882-3.594-2.478-3.736-3.086-.278-5.974 3.93-6.312 7.714l-.844 9.41 2.79.25-.104 1.146-9.16-.82.102-1.146 2.488.222 1.564-17.424-2.49-.222.1-1.146.798.072c1.844.164 3.79.286 5.622 0l-.422 4.73.096.008c1.996-2.63 3.512-4.454 7.15-4.128 2.836.254 4.874 2.144 4.904 5.16l.102.008c1.838-2.596 4.054-4.354 7.288-4.066 1.844.164 5.314 1.178 4.856 6.306l-1.188 13.244z"/><path d="m98.433 327.726c-.376 4.182-.796 9.464 4.234 9.914 5.026.452 5.55-4.822 5.924-9.004.368-4.132.794-9.416-4.234-9.866-5.03-.45-5.552 4.824-5.924 8.956m14.688 1.314c-.542 6.026-5.316 10.064-10.546 9.596-5.228-.468-9.212-5.29-8.67-11.316.536-6.026 5.31-10.014 10.54-9.548 5.23.472 9.216 5.246 8.676 11.268"/><path d="m114.807 320.359.1-1.144 8.966.8-.106 1.146-2.638-.236 3.55 14.724.1.006 6.306-13.838-3.034-.27.1-1.146 6.774.604-.104 1.146-2.39-.212-8.588 18.602-1.698-.152-4.95-19.816z"/><path d="m148.846 329.23.152-1.694c.32-3.586-1.668-4.916-4.154-5.138-2.988-.268-4.582 2.398-4.714 2.736-.38.874-.632 2.004-.792 3.242zm3.89 7.022c-1.412 4.542-4.994 6.432-9.374 6.036-5.078-.452-9.59-4.974-9.096-10.5.524-5.876 4.892-10.904 10.816-10.372 5.078.452 8.604 4.232 8.164 9.664l-14.088-1.262-.184 2.04c-.44 4.93-.15 8.97 5.276 9.458 2.842.252 6.396-1.938 7.39-5.162z"/><path d="m172.235 334.335c-.376 4.182-.798 9.464 4.234 9.916 5.026.452 5.548-4.824 5.924-9.006.368-4.132.792-9.412-4.234-9.864-5.03-.45-5.552 4.822-5.924 8.954m14.686 1.316c-.54 6.026-5.314 10.062-10.544 9.596-5.228-.468-9.212-5.292-8.672-11.318.538-6.024 5.312-10.012 10.542-9.544 5.228.468 9.216 5.242 8.674 11.266"/><path d="m192.842 327.349-2.74-.244.102-1.146 1.046.094c.946.084 1.892.17 2.8.15.95.034 1.908-.032 2.822-.148l-.472 5.276.096.01c1.678-3.014 3.81-4.98 7.444-4.654 1.794.16 5.89.93 5.482 5.51l-1.264 14.09 2.688.24-.102 1.146-9.162-.82.106-1.146 2.586.23 1.206-13.442c.324-3.634-.772-4.284-2.764-4.462-3.386-.306-6.39 4.094-6.724 7.83l-.83 9.26 2.688.24-.1 1.146-9.31-.834.1-1.146 2.74.244z"/><path d="m144.285 234.232c.218-2.44-.952-4.5-3.494-4.726-2.238-.202-4.358 1.062-4.584 3.552-.19 2.142 1.846 5.738 2.83 7.632 3.672-1.176 4.91-2.672 5.248-6.458m-9.16 8.668c-3.09.876-6.07 2.216-6.398 5.9-.368 4.084 2.398 11.86 6.98 12.27 2.738.244 4.832-.722 7.17-2.168zm11.396 12.866c3.324-3.468 4.952-7.086 5.488-11.406l-4.432-.396.104-1.146 9.81.878-.104 1.146-4.184-.374c-.762 4.598-2.482 9.216-6.132 12.45l2.63 5.354 4.332.388-.104 1.144-9.06-.81-1.438-2.99c-2.63 1.926-6.794 3.006-9.98 2.72-7.818-.7-9.944-6.662-9.528-11.294.272-3.038 2.704-7.236 10.75-9.626-1.096-2.358-2.42-4.936-2.182-7.572.396-4.432 4.522-6.22 8.404-5.874 3.586.324 7.276 2.812 6.912 6.896-.166 1.842-1.31 4.55-8.208 6.44z"/><path d="m171.511 251.98c-.2 2.24-.018 5.268 2.718 5.514 3.638.324 4.118-2.242 4.394-5.328.222-2.49.092-5.512-2.896-5.78-2.488-.224-3.792.866-4.216 5.594m1.484 23.772c8.464.758 9.236-3.942 9.308-4.738.264-2.938-.502-4.462-6.826-5.028-5.874-.526-7.876 3.308-8.026 5.004-.286 3.186 2.956 4.532 5.544 4.762m.644-13.342c6.822.612 8.088 1.026 9.52 2.96.896 1.234 1.168 2.664 1.036 4.158-.55 6.126-6.122 7.832-10.852 7.41-7.17-.644-9.286-3.944-9.098-6.034.312-3.486 3.722-4.538 6.316-4.958l.014-.148c-2.506-.576-5.364-1.184-5.044-4.768.246-2.74 3.406-3.258 5.324-3.388l.008-.098c-2.142-1.296-3.484-3.122-3.23-5.96.282-3.14 2.858-6.672 7.784-6.23 2.89.258 4.844 1.388 5.968 3.446.6-1.102 1.792-2.65 3.436-2.504.894.08 1.904.572 1.79 1.868-.09.996-.72 1.844-1.764 1.75-.846-.076-1.212-1.616-1.558-1.644-.498-.048-1.158.596-1.204 1.094-.048.55.532 1.906.408 3.3-.42 4.68-4.534 5.766-5.586 5.772-4.988.206-9.572-.156-9.794 2.336-.05.548.452 1.094 1.198 1.162z"/><path d="m194.925 234.353c1.196.108 2.442 1.324 2.328 2.62-.14 1.542-1.332 2.538-2.778 2.41-1.442-.13-2.282-1.408-2.152-2.852.114-1.298 1.356-2.29 2.602-2.178m-8.17 32.392.102-1.146 3.336.298 1.562-17.422-3.338-.3.104-1.146 1.644.148c1.842.164 3.788.288 5.62 0l-1.708 19.068 2.936.264-.102 1.146z"/><path d="m201.416 249.339.104-1.144 8.962.8-.104 1.146-2.638-.236 3.55 14.722.098.008 6.308-13.838-3.036-.27.102-1.146 6.772.606-.102 1.146-2.39-.214-8.59 18.604-1.696-.154-4.95-19.816z"/><path d="m236.751 258.325.152-1.692c.32-3.586-1.668-4.918-4.156-5.14-2.988-.268-4.582 2.398-4.714 2.738-.38.872-.63 2.004-.79 3.242zm3.888 7.024c-1.41 4.542-4.992 6.428-9.374 6.036-5.078-.454-9.59-4.974-9.096-10.502.528-5.874 4.892-10.904 10.818-10.372 5.076.454 8.6 4.234 8.164 9.666l-14.09-1.262-.184 2.038c-.44 4.93-.148 8.972 5.28 9.456 2.838.254 6.394-1.934 7.386-5.158z"/><path d="m111.932 152.363c.218-2.44-.952-4.502-3.494-4.73-2.238-.2-4.358 1.066-4.584 3.556-.19 2.14 1.846 5.734 2.83 7.63 3.672-1.178 4.91-2.67 5.248-6.456m-9.16 8.666c-3.09.876-6.07 2.214-6.398 5.9-.368 4.082 2.398 11.86 6.98 12.27 2.738.246 4.832-.72 7.17-2.168zm11.396 12.866c3.324-3.47 4.952-7.084 5.488-11.404l-4.432-.396.104-1.146 9.81.876-.104 1.148-4.184-.374c-.762 4.598-2.482 9.212-6.132 12.45l2.63 5.354 4.332.386-.104 1.146-9.06-.81-1.438-2.992c-2.63 1.924-6.794 3.006-9.98 2.72-7.818-.7-9.944-6.662-9.528-11.292.272-3.038 2.704-7.236 10.75-9.626-1.094-2.36-2.42-4.936-2.182-7.574.396-4.432 4.522-6.222 8.404-5.874 3.586.322 7.276 2.812 6.912 6.896-.166 1.842-1.31 4.548-8.208 6.44z"/><path d="m132.91 164.232.102-1.146 9.56.854-.102 1.148-2.938-.264 2.846 13.604.1.008 5.768-13.988 1.644.148 3.392 14.808.098.008 5.072-12.892-3.436-.31.102-1.144 7.418.664-.102 1.146-2.736-.246-7.352 18.716-1.392-.128-3.66-15.182-.1-.01-5.85 14.332-1.594-.144-4.002-19.73z"/><path d="m165.987 176.025c-.376 4.184-.796 9.464 4.232 9.916 5.028.45 5.55-4.824 5.924-9.006.372-4.13.796-9.414-4.234-9.864-5.028-.45-5.55 4.824-5.922 8.954m14.688 1.316c-.542 6.024-5.318 10.064-10.546 9.596s-9.214-5.292-8.674-11.316c.54-6.026 5.314-10.014 10.544-9.546 5.226.468 9.214 5.242 8.676 11.266"/><path d="m190.602 172.458.1.01c1.096-2.16 3.308-4.422 6.046-4.176 1.692.15 2.956 1.168 2.786 3.058-.112 1.246-1.46 1.728-2.504 1.634-.896-.08-1.852-1.17-1.762-2.166.034-.398.274-.828.29-1.028.026-.298-.272-.324-.42-.338-.052-.006-1.806.544-3.102 2.684-.826 1.382-1.548 3.274-1.726 5.266l-.848 9.458 3.834.344-.104 1.144-11.104-.994.104-1.144 3.386.302 1.564-17.426-3.388-.302.1-1.144 1.546.136c1.842.166 3.788.29 5.62.002z"/><path d="m212.387 171.349.102-1.144 8.164.73-.1 1.146-3.038-.272-7.406 5.358 8.434 12.3 2.088.186-.102 1.146-9.458-.846.102-1.146 2.488.222-7.408-10.852 9.058-6.416.014-.148zm-13.666 17.496.104-1.146 2.588.232 2.87-32.014-2.59-.23.104-1.146.896.08c1.842.166 3.792.24 5.616.052l-3.01 33.606 2.986.268-.104 1.146z"/><path d="m95.439 269.241c.218-2.44-.952-4.502-3.494-4.73-2.238-.2-4.358 1.066-4.584 3.556-.19 2.14 1.846 5.734 2.83 7.63 3.672-1.178 4.91-2.67 5.248-6.456m-9.16 8.666c-3.088.876-6.068 2.214-6.398 5.9-.368 4.082 2.398 11.86 6.98 12.27 2.738.246 4.832-.72 7.17-2.168zm11.398 12.866c3.322-3.47 4.95-7.084 5.486-11.404l-4.432-.396.104-1.146 9.81.876-.104 1.148-4.184-.374c-.762 4.598-2.482 9.212-6.132 12.45l2.63 5.354 4.332.386-.102 1.146-9.062-.81-1.438-2.992c-2.63 1.924-6.794 3.006-9.98 2.72-7.818-.7-9.944-6.662-9.528-11.292.272-3.038 2.704-7.236 10.75-9.626-1.096-2.36-2.42-4.936-2.182-7.574.396-4.432 4.522-6.222 8.404-5.874 3.586.322 7.276 2.812 6.912 6.896-.166 1.842-1.31 4.548-8.208 6.44z"/><path d="m116.471 279.96 2.938.262.55-6.126c1.294.118 2.538.23 3.8.14l-.568 6.324 4.382.394-.102 1.146-4.382-.394-1.364 15.234c-.08.896-.202 2.24 1.69 2.41 1.296.118 2.072-.718 2.954-1.592l.748.62c-1.114 1.806-3.658 2.734-5.65 2.554-3.584-.32-3.808-2.296-3.594-4.686l1.334-14.886-2.84-.256z"/><path d="m141.28 291.566c-3.24-.24-8.814-.188-9.224 4.394-.22 2.44 1.188 4.072 3.478 4.276 1.594.144 2.676-.162 3.964-1.102.434-.36 1.18-.846 1.366-2.938zm6.896 7.644c-.36 2.326-2.31 3.91-4.6 3.704-1.842-.164-2.78-1.454-2.962-3.326-1.88 1.938-4.456 2.662-6.994 2.436-3.138-.282-5.718-1.72-5.388-5.404.564-4.616 5.524-6.782 13.142-6.098l.424-4.732c.21-2.34-1.57-3.2-3.312-3.356-1.096-.098-4.664-.068-4.79 1.376-.038.398 1.434.782 1.286 2.426-.11 1.242-.984 2.018-2.228 1.906-1.344-.12-2.002-1.182-1.876-2.576.16-1.792 2.47-4.598 8.394-4.066 6.772.608 6.514 3.494 6.336 5.486l-1.062 11.85c-.136 1.492-.206 2.29.838 2.384.996.09 1.62-1.262 1.944-2.086z"/><path d="m162.976 285.281.104-1.144 8.166.73-.104 1.144-3.036-.272-7.404 5.358 8.434 12.3 2.088.186-.102 1.146-9.458-.846.102-1.146 2.488.222-7.408-10.852 9.058-6.416.012-.148zm-13.662 17.494.104-1.146 2.588.234 2.868-32.014-2.588-.232.104-1.146.896.08c1.842.166 3.79.24 5.616.052l-3.01 33.606 2.986.268-.104 1.146z"/><path d="m187.211 293.271.152-1.692c.32-3.586-1.668-4.918-4.156-5.14-2.988-.268-4.582 2.398-4.714 2.74-.38.87-.63 2.002-.79 3.24zm3.888 7.024c-1.41 4.542-4.992 6.43-9.376 6.038-5.076-.456-9.588-4.976-9.094-10.504.526-5.874 4.892-10.904 10.816-10.372 5.078.454 8.602 4.234 8.166 9.666l-14.09-1.264-.184 2.04c-.44 4.93-.148 8.97 5.278 9.458 2.84.254 6.396-1.936 7.388-5.16z"/><path d="m59.031 186.989c.22-2.44-.952-4.502-3.492-4.728-2.238-.202-4.358 1.062-4.582 3.552-.192 2.142 1.842 5.736 2.826 7.632 3.674-1.174 4.91-2.672 5.248-6.456m-9.158 8.666c-3.088.876-6.07 2.214-6.4 5.9-.366 4.082 2.4 11.858 6.982 12.268 2.736.246 4.832-.72 7.17-2.166zm11.398 12.866c3.322-3.468 4.948-7.084 5.484-11.404l-4.43-.398.104-1.146 9.81.88-.106 1.146-4.182-.376c-.764 4.6-2.48 9.214-6.132 12.452l2.628 5.352 4.334.388-.104 1.146-9.062-.812-1.436-2.99c-2.632 1.924-6.796 3.006-9.982 2.72-7.816-.698-9.94-6.662-9.528-11.292.274-3.038 2.706-7.236 10.752-9.628-1.098-2.358-2.42-4.936-2.184-7.572.398-4.432 4.524-6.22 8.406-5.874 3.584.322 7.274 2.812 6.912 6.896-.166 1.842-1.312 4.548-8.208 6.44z"/><path d="m79.392 217.521.104-1.146 3.834.344 2.868-32.012-3.832-.344.1-1.146 2.14.192c1.844.164 3.794.24 5.618.052l-3.012 33.606 3.836.344-.104 1.146z"/><path d="m109.071 207.282.152-1.694c.32-3.586-1.668-4.918-4.158-5.14-2.988-.268-4.582 2.4-4.71 2.738-.382.872-.632 2.004-.792 3.242zm3.886 7.022c-1.408 4.542-4.99 6.43-9.374 6.036-5.078-.452-9.59-4.974-9.096-10.502.528-5.874 4.892-10.902 10.818-10.372 5.076.454 8.602 4.234 8.166 9.666l-14.092-1.262-.182 2.038c-.442 4.93-.148 8.972 5.28 9.458 2.836.254 6.394-1.936 7.388-5.16z"/><path d="m129.076 211.484c-3.242-.24-8.816-.19-9.224 4.392-.22 2.44 1.186 4.072 3.478 4.278 1.592.14 2.674-.164 3.966-1.102.432-.36 1.18-.848 1.364-2.94zm6.894 7.642c-.358 2.326-2.31 3.91-4.6 3.704-1.84-.164-2.778-1.456-2.962-3.326-1.88 1.938-4.454 2.662-6.994 2.436-3.136-.282-5.718-1.72-5.388-5.404.564-4.616 5.524-6.782 13.142-6.098l.426-4.732c.21-2.34-1.57-3.2-3.312-3.356-1.098-.098-4.664-.068-4.79 1.376-.038.4 1.434.782 1.288 2.424-.112 1.244-.986 2.02-2.232 1.908-1.342-.118-2.002-1.182-1.874-2.576.16-1.792 2.47-4.598 8.396-4.066 6.768.608 6.512 3.494 6.334 5.486l-1.064 11.85c-.134 1.494-.206 2.29.84 2.382.996.09 1.618-1.26 1.944-2.082z"/><path d="m145.42 207.779.102.008c1.096-2.16 3.308-4.42 6.046-4.176 1.692.152 2.958 1.168 2.788 3.058-.114 1.244-1.462 1.728-2.508 1.634-.894-.08-1.85-1.17-1.762-2.166.036-.398.276-.828.29-1.026.028-.3-.268-.328-.42-.342-.05-.004-1.804.544-3.102 2.684-.824 1.382-1.548 3.278-1.726 5.27l-.848 9.456 3.836.342-.104 1.146-11.104-.994.104-1.146 3.386.304 1.562-17.424-3.384-.304.1-1.146 1.544.14c1.84.164 3.786.288 5.622 0z"/><path d="m158.099 205.851-2.74-.244.102-1.146 1.046.094c.946.084 1.89.17 2.796.15.95.034 1.912-.032 2.826-.148l-.478 5.276.102.01c1.678-3.012 3.81-4.978 7.444-4.652 1.794.16 5.89.928 5.478 5.508l-1.26 14.09 2.688.24-.106 1.144-9.158-.818.1-1.146 2.592.23 1.204-13.442c.326-3.634-.77-4.282-2.762-4.462-3.386-.306-6.39 4.094-6.724 7.83l-.83 9.26 2.688.24-.104 1.144-9.312-.834.106-1.144 2.74.246z"/><path d="m64.783 165.519c-9.952-.912-17.318-9.74-16.424-19.698l1.194.106c-.832 9.3 6.044 17.546 15.34 18.396.012.002.02.002.032.004l7.36.658-.106 1.196-7.358-.658c-.014-.002-.026-.004-.038-.004"/><path d="m65.908 169.025 5.07-3.552-4.358-4.4 13.334 5.202z"/><path d="m67.95 168.046 10.498-1.906-6.75-.604z"/><path d="m97.574 247.673c-9.954-.912-17.318-9.74-16.426-19.698l1.194.106c-.832 9.3 6.048 17.548 15.342 18.398.012.002.02.002.032.004l7.358.658-.104 1.196-7.36-.66c-.014-.002-.024-.002-.036-.004"/><path d="m98.697 251.181 5.07-3.554-4.358-4.4 13.334 5.204z"/><path d="m100.739 250.2 10.498-1.904-6.75-.606z"/><path d="m192.699 216.868.106-1.194 3.774.338c9.31.834 17.564-6.062 18.4-15.372l1.194.104c-.892 9.974-9.73 17.356-19.7 16.462z"/><path d="m199.077 212.831-5.07 3.552 4.358 4.4-13.334-5.202z"/><path d="m197.034 213.81-10.498 1.904 6.75.606z"/><path d="m208.181 297.45.106-1.194 3.772.338c9.312.834 17.566-6.062 18.402-15.372l1.194.104c-.892 9.974-9.73 17.356-19.7 16.462z"/><path d="m214.559 293.413-5.068 3.552 4.356 4.4-13.336-5.202z"/><path d="m212.517 294.392-10.498 1.906 6.75.606z"/><path d="m48.562 297.208.248-2.764c.304-3.41 1.918-6.494 4.542-8.686s5.944-3.232 9.354-2.924l6.154.526-.102 1.196-6.154-.53c-3.094-.276-6.106.664-8.484 2.652-2.376 1.988-3.838 4.782-4.116 7.872l-.248 2.764z"/><path d="m45.718 290.937 3.554 5.068 4.398-4.356-5.202 13.334z"/><path d="m46.697 292.978 1.906 10.5.604-6.75z"/><path d="m226.234 338.529-6.204-.568.11-1.194 6.202.568c13.174 1.178 28.012-6.69 29.562-23.6l13.19-149.718c.922-10.28-7.22-19.446-18.152-20.448-.016-.002-.03-.002-.042-.004l-87.052-8.044.11-1.196 87.048 8.046c.016 0 .032.002.048.004 11.59 1.062 20.214 10.808 19.234 21.75l-13.188 149.716c-1.424 15.524-14.694 26.138-30.866 24.688"/><path d="m169.502 139.448-4.344-4.408 5.078-3.54-14.054 2.71z"/><path d="m167.67 138.118-9.982-3.77 6.748.624z"/><path d="m21.682 351.31c1.558.144 3.146-1.172 3.32-3.054.142-1.542-.708-2.57-1.888-2.678l-1.626-.152-1.552 5.722zm-1.824-8.192 3.78.352c2.138.2 3.844 2.256 3.604 4.822-.286 3.078-3.092 5.406-6.034 5.134l-4.07-.382z"/><path d="m30.374 344.097 7.012.654-.566 2.018-4.79-.448-.526 1.938 4.448.414-.552 2.02-4.446-.414-.528 1.934 4.79.446-.55 2.022-7.012-.656z"/><path d="m36.856 351.519 2.222.208-.008.084c-.07.77.472 1.422 2.012 1.57 1.112.1 1.77-.442 1.816-.952.042-.428-.442-.818-1.274-1.154l-1.414-.564c-1.414-.566-2.112-1.404-2.008-2.518.186-1.984 1.97-3.354 4.262-3.14 2.564.24 3.728 1.642 3.57 3.352-.012.12-.042.428-.042.428l-2.222-.208c.002-.034.006-.068.008-.086.066-.684-.48-1.336-1.676-1.448-1.028-.096-1.588.368-1.646.968-.03.34.116.614.948.948l1.414.566c1.664.672 2.446 1.522 2.334 2.722-.182 1.964-1.864 3.36-4.43 3.12-2.822-.262-4.064-1.76-3.898-3.554z"/><path d="m48.931 345.827 2.222.208-2.72 9.928-2.222-.208z"/><path d="m56.803 351.308 4.62.432-.16.59c-.768 2.858-3.096 4.712-5.748 4.466-2.48-.232-4.186-2.288-3.94-4.94.312-3.352 3.116-5.664 6.024-5.392 2.31.216 3.706 1.898 3.79 4.148l-2.242-.206c-.178-1.056-.89-1.724-1.918-1.82-1.626-.152-3.216 1.168-3.416 3.308-.142 1.538.788 2.658 2.072 2.778 1.112.104 2.194-.4 2.692-1.474l-2.242-.206z"/><path d="m64.663 347.296 2.804.262 1.558 6.444.358.032 1.694-6.14 2.224.208-2.72 9.926-2.804-.262-1.574-6.444-.36-.034-1.678 6.14-2.222-.206z"/><path d="m78.789 348.613 2.258.21-.324 6.614.342.032 3.488-6.316 2.396.222-.068 6.636.344.032 3.23-6.34 2.362.218-5.114 9.704-2.826-.262.104-6.462-.344-.032-3.35 6.158-2.824-.262z"/><path d="m97.728 356.593-.254-3.736-.342-.032-2.242 3.502zm-1.34-6.34 3.08.29.786 10.254-2.258-.212-.134-1.912-4.208-.39-1.134 1.792-2.36-.22z"/><path d="m104.084 350.972 2.222.208-2.142 7.824 4.618.428-.574 2.106-6.844-.638z"/><path d="m109.354 359.538 6.416-5.32-4.758-.444.594-2.102 7.784.728-.57 2.05-6.416 5.32 4.928.462-.576 2.1-7.954-.74z"/></g></g></svg>