<svg clip-rule="evenodd" fill-rule="evenodd" stroke-linejoin="round" stroke-miterlimit="2" viewBox="0 0 930 638" xmlns="http://www.w3.org/2000/svg" xmlns:xlink="http://www.w3.org/1999/xlink"><clipPath id="a"><path clip-rule="nonzero" d="m759.775 210.532 119.184 18.922 4.7-29.594-119.18-18.922z"/></clipPath><path d="m634.046 177.12 266.044-21.496 21.52 266.346-266.044 21.496z" fill="#c8e7f9"/><path d="m683.931 195.137 127.258 87.104-1.93 2.82-127.258-87.104z" fill="#1e1c1a"/><path d="m696.857 190.137c-.068.006-.138.014-.21.026-2.146.312-3.724 2.64-3.518 5.19.17 2.102 2.994 6.876 4.686 9.028 1.202-2.51 3.05-8.084 2.868-10.344-.106-1.31-.684-2.474-1.584-3.192-.472-.374-1.232-.79-2.242-.708m1.354 18.472c-.818.068-1.416-.41-1.618-.572-1.922-1.532-6.58-8.8-6.872-12.408-.348-4.314 2.54-8.284 6.436-8.852 1.824-.244 3.616.234 5.074 1.396 1.636 1.302 2.678 3.34 2.86 5.588.232 2.878-2.816 14.404-5.758 14.834-.04.006-.082.012-.122.014" fill="#1e1c1a" fill-rule="nonzero"/><path d="m700.741 206.948c2.486 1.252 8.022 3.216 10.288 3.08 1.352-.076 2.488-.63 3.226-1.52.41-.494.87-1.32.732-2.434-.262-2.116-2.606-3.776-5.12-3.626l-.058.006c-2.138.172-6.902 2.862-9.068 4.494m10.67 6.48c-.058.004-.116.01-.176.012-2.886.174-14.354-3.11-14.716-6.064-.112-.878.418-1.514.59-1.722 1.57-1.888 8.926-6.372 12.554-6.618 4.322-.262 8.232 2.706 8.718 6.618.226 1.814-.306 3.604-1.494 5.04-1.304 1.566-3.292 2.558-5.476 2.734" fill="#1e1c1a" fill-rule="nonzero"/><path d="m769.757 286.864c-6.042-17.012-8.754-38.904-5.682-55.624 2.664-14.502 9.974-25.286 19.588-23.472 19.544 3.69 19.794 24.218 19.794 24.218l-11.668-1.854s2.224-20.168-17.32-23.858c-24.262-4.58-29.248 58.78-8.862 88.334" fill="#c8e7f9" fill-rule="nonzero"/><path d="m793.666 228.592 7.792 1.234c-.606-4.656-3.224-15.374-14.514-19.312 6.058 6.014 6.736 14.468 6.722 18.078m-29.556 67.048c-16.182-23.46-16.456-66.046-5.322-83.16 4.172-6.42 9.712-9.184 16.018-7.992 1.808.34 3.442.814 4.922 1.394 1.396-.212 2.816-.174 4.274.1 20.764 3.92 21.27 25.758 21.272 25.982l.026 2.152-15.502-2.46.184-1.718c.07-.672 1.412-14.786-10.634-20.264-1.092.284-2.154.78-3.182 1.484-4.766 3.268-8.52 10.708-10.304 20.408-2.862 15.576-.66 37.044 5.606 54.69l-3.424 1.216c-6.466-18.204-8.726-40.404-5.758-56.562 1.958-10.646 6.266-18.938 11.824-22.75l.122-.082c-.034-.006-.066-.014-.102-.02-4.8-.9-8.944 1.246-12.298 6.406-12.324 18.944-7.478 60.63 5.27 79.112z" fill="#1e1c1a" fill-rule="nonzero"/><path d="m779.004 213.824 80.545 12.789-12.789 80.549-80.545-12.788z" fill="#c8e7f9"/><path d="m768.287 292.862 76.962 12.22 12.228-76.958-76.964-12.22zm79.984 16.38-84.146-13.36 13.368-84.14 84.144 13.36z" fill="#1e1c1a" fill-rule="nonzero"/><path d="m764.252 180.062 120.208 19.085-4.878 30.719-120.207-19.086z" fill="#c8e7f9"/><path d="m761.453 209.27 116.618 18.516 4.31-27.13-116.616-18.512zm119.638 22.676-123.8-19.656 5.454-34.31 123.796 19.658z" fill="#1e1c1a" fill-rule="nonzero"/><path d="m856.607 251.051c-13.542 3.814-28.1 4.854-42.906 2.502-13.884-2.204-26.64-7.164-37.818-14.218" fill="#c8e7f9" fill-rule="nonzero"/><path d="m837.653 256.303c-8.036.648-16.136.332-24.238-.956-13.802-2.19-26.756-7.062-38.5-14.478l1.938-3.072c11.328 7.15 23.822 11.85 37.132 13.962 14.174 2.25 28.344 1.422 42.13-2.458l.986 3.498c-6.414 1.806-12.908 2.974-19.448 3.504" fill="#1e1c1a" fill-rule="nonzero"/><path d="m802.649 181.701-6.38 39.184" fill="none"/><path d="m800.854 181.408 3.587.584-6.381 39.184-3.588-.584z" fill="#1e1c1a"/><path d="m845.722 188.539-6.25 39.15" fill="none"/><path d="m843.928 188.253 3.579.57-6.241 39.152-3.58-.571z" fill="#1e1c1a"/><path d="m791.953 242.439 7.757 1.232-2.431 15.312-7.758-1.232z" fill="#c8e7f9"/><path d="m791.601 256.241 4.166.662 1.864-11.722-4.168-.664zm7.188 4.822-11.348-1.802 3-18.9 11.35 1.798z" fill="#1e1c1a" fill-rule="nonzero"/><path d="m829.526 248.404 7.754 1.229-2.428 15.315-7.754-1.23z" fill="#c8e7f9"/><path d="m829.174 262.205 4.166.664 1.864-11.724-4.166-.662zm7.188 4.82-11.348-1.798 3.002-18.9 11.348 1.798z" fill="#1e1c1a" fill-rule="nonzero"/><path d="m760.839 292.991 84.787-7.556 7.557 84.792-84.788 7.556z" fill="#c8e7f9"/><g fill-rule="nonzero"><path d="m762.792 294.623 7.238 81.208 81.202-7.238-7.24-81.208zm3.97 85.114-7.874-88.38 88.37-7.876 7.878 88.378z" fill="#1e1c1a"/><path d="m839.155 299.721-83.286 2.96-.608-17.198 90.48-3.218.328 4.584z" fill="#c8e7f9"/><path d="m757.471 300.963 80.672-2.868 6.234-11.606-.18-2.506-87.218 3.104zm82.694.382-85.896 3.056-.728-20.518 93.742-3.332.476 6.66z" fill="#1e1c1a"/><path d="m820.519 317.807-27.386 2.44c-3.096.276-5.856-2.032-6.132-5.128-.274-3.098 2.032-5.854 5.128-6.132l27.386-2.44c3.096-.278 5.856 2.032 6.13 5.128.278 3.096-2.03 5.854-5.126 6.132" fill="#c8e7f9"/><path d="m819.706 308.336c-.012.002-.022.002-.032.004l-27.384 2.442c-1.018.09-1.946.576-2.608 1.368-.664.792-.978 1.79-.888 2.808.092 1.018.578 1.944 1.37 2.608.784.656 1.77.972 2.778.89.012-.002.02-.002.03-.002l27.386-2.442c2.116-.188 3.682-2.062 3.494-4.178-.188-2.104-2.044-3.668-4.146-3.498m-26.474 13.708c-4.068.33-7.662-2.694-8.024-6.764-.176-1.98.432-3.908 1.712-5.438 1.28-1.532 3.074-2.47 5.05-2.648l27.384-2.442c.02-.002.04-.004.062-.006 4.068-.328 7.662 2.696 8.024 6.768.364 4.096-2.67 7.72-6.762 8.086l-27.384 2.44c-.022.002-.044.004-.062.004" fill="#1e1c1a"/><path d="m676.529 431.082c1.562-.124 2.9-1.694 2.748-3.578-.122-1.544-1.136-2.408-2.32-2.314l-1.628.126-.546 5.904zm-3.198-7.76 3.784-.298c2.138-.17 4.172 1.564 4.374 4.132.246 3.082-2.12 5.856-5.064 6.09l-4.076.322z" fill="#1e1c1a"/><path d="m683.86 422.489 7.022-.556-.216 2.086-4.794.378-.186 1.998 4.454-.354-.2 2.084-4.452.352-.186 1.996 4.792-.378-.194 2.086-7.022.554z" fill="#1e1c1a"/><path d="m691.517 428.69 2.224-.176.006.086c.062.77.71 1.32 2.254 1.2 1.112-.09 1.664-.736 1.622-1.248-.03-.428-.572-.73-1.45-.92l-1.49-.314c-1.492-.314-2.32-1.022-2.412-2.136-.156-1.986 1.37-3.64 3.662-3.822 2.57-.204 3.956.978 4.094 2.692.01.118.03.428.03.428l-2.224.174c-.002-.032-.004-.068-.006-.086-.056-.684-.704-1.234-1.902-1.138-1.03.08-1.502.634-1.452 1.234.026.342.218.586 1.096.774l1.488.314c1.754.378 2.668 1.082 2.766 2.282.156 1.966-1.262 3.63-3.832 3.834-2.824.224-4.306-1.038-4.446-2.834z" fill="#1e1c1a"/><path d="m702.439 421.016 2.224-.176-.98 10.248-2.226.176z" fill="#1e1c1a"/><path d="m711.133 425.067 4.622-.366-.052.608c-.268 2.95-2.248 5.176-4.9 5.384-2.484.198-4.516-1.536-4.728-4.19-.266-3.356 2.1-6.114 5.014-6.344 2.308-.184 3.976 1.236 4.444 3.438l-2.248.178c-.356-1.006-1.17-1.544-2.198-1.462-1.628.13-2.97 1.702-2.802 3.844.126 1.54 1.232 2.484 2.516 2.382 1.114-.088 2.094-.768 2.402-1.912l-2.242.178z" fill="#1e1c1a"/><path d="m718.19 419.77 2.808-.224 2.636 6.084.36-.03.618-6.34 2.228-.176-.984 10.244-2.808.224-2.654-6.08-.358.028-.6 6.338-2.228.176z" fill="#1e1c1a"/><path d="m732.333 418.649 2.258-.18.814 6.57.342-.026 2.356-6.822 2.4-.188 1.07 6.548.342-.026 2.096-6.802 2.364-.188-3.378 10.436-2.828.224-1.004-6.384-.342.028-2.246 6.642-2.828.224z" fill="#1e1c1a"/><path d="m752.356 423.268-.89-3.638-.342.026-1.61 3.836zm-2.406-6.016 3.084-.244 2.53 9.968-2.258.178-.46-1.858-4.214.334-.81 1.96-2.364.188z" fill="#1e1c1a"/><path d="m757.657 416.641 2.226-.176-.772 8.074 4.626-.364-.21 2.172-6.85.54z" fill="#1e1c1a"/><path d="m764.316 424.18 5.41-6.342-4.762.378.226-2.172 7.794-.616-.214 2.118-5.41 6.342 4.936-.392-.21 2.17-7.964.632z" fill="#1e1c1a"/><path d="m778.097 397.93c-2.33.504-4.65-.988-5.156-3.32l-2.16-9.968c-.506-2.33.988-4.65 3.318-5.156 2.332-.504 4.652.988 5.156 3.32l2.162 9.968c.504 2.33-.988 4.65-3.32 5.156" fill="#1e1c1a"/><path d="m711.046 412.465c-2.332.506-4.652-.988-5.156-3.318l-2.162-9.968c-.504-2.33.988-4.65 3.32-5.156 2.33-.506 4.65.988 5.156 3.318l2.16 9.968c.506 2.332-.988 4.65-3.318 5.156" fill="#1e1c1a"/><path d="m772.156 322.942c-.084.008-.166.02-.25.038-.496.106-.922.404-1.204.838-.278.434-.372.946-.264 1.44l3.93 18.134c.11.496.408.924.838 1.202.434.278.948.368 1.444.266 1.032-.224 1.688-1.248 1.466-2.282l-3.93-18.13c-.108-.496-.406-.924-.84-1.204-.358-.232-.774-.336-1.19-.302m4.588 26.352c-1.374.11-2.74-.228-3.924-.992-1.424-.916-2.406-2.328-2.76-3.978l-3.934-18.13c-.358-1.648-.05-3.34.868-4.764.916-1.424 2.33-2.404 3.976-2.762 3.41-.772 6.786 1.434 7.526 4.844l3.93 18.132c.74 3.41-1.434 6.784-4.842 7.524-.278.064-.558.102-.84.126" fill="#1e1c1a"/><path d="m718.38 256.518c-.462.038-.924.106-1.388.206l-10.248 2.222c-2.736.594-5.082 2.226-6.612 4.6-1.526 2.372-2.04 5.184-1.448 7.92l8.888 41.002c1.232 5.674 6.848 9.282 12.52 8.06l10.25-2.22c2.736-.594 5.082-2.23 6.61-4.6 1.528-2.374 2.042-5.188 1.45-7.922l-8.89-41.002c-1.13-5.21-5.956-8.684-11.132-8.266m.584 67.442c-6.766.546-13.078-3.994-14.554-10.808l-8.888-41c-.778-3.58-.106-7.26 1.89-10.358 1.996-3.1 5.066-5.234 8.646-6.01l10.246-2.224c7.416-1.636 14.764 3.12 16.37 10.536l8.89 41.002c.778 3.582.108 7.262-1.89 10.36-1.996 3.102-5.066 5.236-8.646 6.012l-10.248 2.22c-.608.132-1.216.22-1.816.27" fill="#1e1c1a"/><path d="m774.512 391.022-64.508 13.984c-5.22 1.132-10.416-2.212-11.546-7.432l-18.796-86.692c-1.132-5.22 2.214-10.416 7.434-11.548l64.506-13.984c5.22-1.132 10.416 2.214 11.548 7.432l18.794 86.694c1.132 5.218-2.214 10.414-7.432 11.546" fill="#c8e7f9"/><path d="m753.024 286.903c-.348.03-.7.08-1.05.156l-64.508 13.986c-2.068.448-3.842 1.682-4.998 3.478-1.154 1.792-1.546 3.922-1.096 5.988l18.794 86.69c.45 2.07 1.684 3.844 3.48 5 1.794 1.156 3.922 1.544 5.988 1.094l64.506-13.984c2.068-.448 3.842-1.682 4.998-3.476 1.154-1.796 1.546-3.922 1.096-5.988l-18.794-86.694c-.854-3.94-4.502-6.566-8.416-6.25m-44.168 120.038c-2.486.2-4.962-.418-7.106-1.798-2.58-1.66-4.356-4.216-5.004-7.198l-18.794-86.692c-1.338-6.176 2.596-12.29 8.77-13.628l64.51-13.986c6.208-1.344 12.29 2.598 13.626 8.77l18.796 86.696c1.338 6.174-2.596 12.288-8.77 13.626l-64.508 13.984c-.504.11-1.012.184-1.52.226" fill="#1e1c1a"/><path d="m712.273 393.407c-.938.076-1.808-.554-2.014-1.498l-17.69-81.594c-.22-1.03.432-2.042 1.46-2.266 1.034-.214 2.042.434 2.266 1.46l17.688 81.594c.222 1.028-.43 2.042-1.458 2.264-.086.02-.168.032-.252.04" fill="#1e1c1a"/><path d="m725.951 390.44c-.938.076-1.808-.554-2.014-1.498l-17.69-81.592c-.22-1.03.432-2.042 1.46-2.266 1.038-.222 2.042.434 2.266 1.46l17.688 81.592c.222 1.028-.43 2.044-1.458 2.264-.086.02-.168.032-.252.04" fill="#1e1c1a"/><path d="m753.309 384.51c-.938.076-1.808-.552-2.014-1.498l-17.69-81.594c-.22-1.028.432-2.042 1.46-2.266 1.046-.232 2.042.432 2.266 1.46l17.688 81.596c.222 1.026-.43 2.042-1.458 2.262-.086.02-.168.032-.252.04" fill="#1e1c1a"/><path d="m766.99 381.543c-.938.076-1.808-.554-2.014-1.498l-17.692-81.594c-.222-1.028.432-2.042 1.46-2.266 1.032-.214 2.042.434 2.266 1.46l17.69 81.594c.222 1.028-.43 2.044-1.46 2.264-.084.02-.166.032-.25.04" fill="#1e1c1a"/><path d="m739.63 387.475c-.938.076-1.808-.554-2.014-1.498l-17.69-81.594c-.22-1.03.432-2.042 1.46-2.266 1.042-.226 2.042.432 2.266 1.46l17.688 81.594c.222 1.028-.43 2.044-1.458 2.264-.086.02-.168.032-.252.04" fill="#1e1c1a"/><path d="m659.282 236.789c-3.722 15.686 5.974 31.42 21.66 35.142 15.684 3.724 31.418-5.974 35.14-21.66 3.724-15.684-7.368-39.364-19.442-42.232-12.074-2.866-33.636 13.066-37.358 28.75" fill="#c8e7f9"/><path d="m660.945 237.184c-3.498 14.742 5.65 29.584 20.39 33.084 14.734 3.504 29.584-5.648 33.084-20.388 3.462-14.596-6.898-37.498-18.174-40.176-10.508-2.502-31.642 12.072-35.3 27.48m29.26 37.16c-3.196.258-6.448.012-9.658-.748-16.576-3.936-26.864-20.624-22.93-37.202 3.89-16.37 25.98-33.204 39.418-30.018 12.982 3.084 24.596 27.92 20.712 44.292-1.906 8.032-6.826 14.838-13.852 19.168-4.218 2.6-8.892 4.12-13.69 4.508" fill="#1e1c1a"/><g clip-path="url(#a)" fill="#1e1c1a"><path d="m882.173 189.19c.07.806-.544 1.512-1.374 1.572-.828.062-1.558-.54-1.628-1.35-.07-.806.544-1.512 1.374-1.572.828-.062 1.558.544 1.628 1.35"/><path d="m884.494 183.532c.07.808-.544 1.512-1.374 1.574-.828.06-1.556-.542-1.628-1.352-.07-.806.544-1.51 1.374-1.572.828-.06 1.558.544 1.628 1.35"/><path d="m878.898 183.948c.07.806-.544 1.512-1.374 1.574-.828.06-1.556-.542-1.628-1.352-.07-.806.544-1.512 1.374-1.572.828-.062 1.558.544 1.628 1.35"/><path d="m883.127 200.09c.07.806-.544 1.512-1.374 1.572-.828.062-1.558-.542-1.628-1.35-.072-.806.544-1.512 1.374-1.572.828-.062 1.556.544 1.628 1.35"/><path d="m885.449 194.432c.07.806-.544 1.512-1.374 1.572-.828.062-1.558-.54-1.628-1.35-.07-.806.544-1.512 1.374-1.572.828-.062 1.556.544 1.628 1.35"/><path d="m879.852 194.848c.07.806-.544 1.512-1.374 1.572-.828.062-1.558-.542-1.628-1.35-.07-.806.544-1.512 1.374-1.572.828-.062 1.556.544 1.628 1.35"/><path d="m882.173 189.19c.07.806-.544 1.512-1.374 1.572-.828.062-1.558-.54-1.628-1.35-.07-.806.544-1.512 1.374-1.572.828-.062 1.558.544 1.628 1.35"/><path d="m884.08 210.991c.072.806-.544 1.51-1.374 1.572-.828.062-1.556-.542-1.628-1.35-.07-.808.544-1.512 1.374-1.574.828-.06 1.558.544 1.628 1.352"/><path d="m886.402 205.332c.072.806-.544 1.512-1.374 1.572-.828.062-1.556-.542-1.626-1.35-.072-.806.542-1.512 1.372-1.572.828-.062 1.558.544 1.628 1.35"/><path d="m880.805 205.748c.072.806-.544 1.51-1.374 1.572-.828.062-1.556-.542-1.626-1.35-.072-.808.542-1.512 1.372-1.574.828-.06 1.558.544 1.628 1.352"/><path d="m883.127 200.09c.07.806-.544 1.512-1.374 1.572-.828.062-1.558-.542-1.628-1.35-.072-.806.544-1.512 1.374-1.572.828-.062 1.556.544 1.628 1.35"/><path d="m885.034 221.889c.07.808-.544 1.512-1.374 1.574-.828.06-1.558-.542-1.628-1.35s.544-1.512 1.374-1.574c.828-.06 1.558.544 1.628 1.35"/><path d="m881.759 216.647c.07.808-.544 1.512-1.374 1.574-.828.06-1.556-.542-1.628-1.35-.07-.808.544-1.512 1.374-1.574.828-.06 1.558.544 1.628 1.35"/><path d="m884.08 210.991c.072.806-.544 1.51-1.374 1.572-.828.062-1.556-.542-1.628-1.35-.07-.808.544-1.512 1.374-1.574.828-.06 1.558.544 1.628 1.352"/><path d="m882.713 227.547c.07.806-.544 1.512-1.374 1.574-.828.06-1.558-.542-1.628-1.352-.07-.806.544-1.512 1.374-1.572.828-.062 1.556.544 1.628 1.35"/><path d="m885.034 221.889c.07.808-.544 1.512-1.374 1.574-.828.06-1.558-.542-1.628-1.35s.544-1.512 1.374-1.574c.828-.06 1.558.544 1.628 1.35"/><path d="m876.576 189.606c.07.806-.544 1.512-1.374 1.572-.828.062-1.558-.542-1.628-1.35-.07-.806.544-1.512 1.374-1.572.828-.062 1.558.544 1.628 1.35"/><path d="m870.98 190.022c.07.806-.544 1.512-1.374 1.572-.828.062-1.558-.542-1.628-1.35-.07-.806.544-1.512 1.374-1.574.828-.06 1.558.544 1.628 1.352"/><path d="m878.898 183.948c.07.806-.544 1.512-1.374 1.574-.828.06-1.556-.542-1.628-1.352-.07-.806.544-1.512 1.374-1.572.828-.062 1.558.544 1.628 1.35"/><path d="m873.301 184.364c.07.806-.544 1.512-1.374 1.572-.828.062-1.556-.542-1.628-1.35-.07-.806.544-1.512 1.374-1.572.828-.062 1.558.544 1.628 1.35"/><path d="m867.704 184.78c.07.806-.544 1.512-1.374 1.572-.828.062-1.558-.542-1.628-1.35-.07-.806.544-1.512 1.374-1.574.828-.06 1.558.544 1.628 1.352"/><path d="m877.531 200.506c.07.806-.544 1.512-1.374 1.572-.828.062-1.558-.542-1.628-1.35-.072-.806.544-1.512 1.374-1.574.828-.06 1.556.544 1.628 1.352"/><path d="m871.934 200.92c.07.808-.544 1.512-1.374 1.574-.828.06-1.558-.542-1.628-1.35-.072-.808.544-1.512 1.374-1.574.828-.06 1.556.544 1.628 1.35"/><path d="m879.852 194.848c.07.806-.544 1.512-1.374 1.572-.828.062-1.558-.542-1.628-1.35-.07-.806.544-1.512 1.374-1.572.828-.062 1.556.544 1.628 1.35"/><path d="m874.255 195.264c.07.806-.544 1.512-1.374 1.572-.828.062-1.558-.542-1.628-1.35-.07-.806.544-1.512 1.374-1.574.828-.06 1.556.544 1.628 1.352"/><path d="m868.658 195.678c.07.808-.544 1.512-1.374 1.574-.828.06-1.558-.542-1.628-1.35s.544-1.512 1.374-1.574c.828-.06 1.556.544 1.628 1.35"/><path d="m876.576 189.606c.07.806-.544 1.512-1.374 1.572-.828.062-1.558-.542-1.628-1.35-.07-.806.544-1.512 1.374-1.572.828-.062 1.558.544 1.628 1.35"/><path d="m870.98 190.022c.07.806-.544 1.512-1.374 1.572-.828.062-1.558-.542-1.628-1.35-.07-.806.544-1.512 1.374-1.574.828-.06 1.558.544 1.628 1.352"/><path d="m878.484 211.405c.072.808-.544 1.512-1.374 1.574-.828.06-1.556-.542-1.628-1.35-.07-.808.544-1.512 1.374-1.574.828-.06 1.558.544 1.628 1.35"/><path d="m872.887 211.821c.072.806-.544 1.512-1.374 1.574-.828.06-1.556-.542-1.628-1.352-.07-.806.544-1.512 1.374-1.572.828-.062 1.558.544 1.628 1.35"/><path d="m880.805 205.748c.072.806-.544 1.51-1.374 1.572-.828.062-1.556-.542-1.626-1.35-.072-.808.542-1.512 1.372-1.574.828-.06 1.558.544 1.628 1.352"/><path d="m875.208 206.162c.072.808-.544 1.512-1.374 1.574-.828.06-1.556-.542-1.626-1.35-.072-.808.542-1.512 1.372-1.574.828-.06 1.558.544 1.628 1.35"/><path d="m869.612 206.578c.072.808-.544 1.512-1.374 1.574-.828.06-1.556-.542-1.626-1.352-.072-.806.542-1.51 1.372-1.572.828-.062 1.558.544 1.628 1.35"/><path d="m877.531 200.506c.07.806-.544 1.512-1.374 1.572-.828.062-1.558-.542-1.628-1.35-.072-.806.544-1.512 1.374-1.574.828-.06 1.556.544 1.628 1.352"/><path d="m871.934 200.92c.07.808-.544 1.512-1.374 1.574-.828.06-1.558-.542-1.628-1.35-.072-.808.544-1.512 1.374-1.574.828-.06 1.556.544 1.628 1.35"/><path d="m879.438 222.305c.07.806-.544 1.512-1.374 1.574-.828.06-1.558-.542-1.628-1.352-.07-.806.544-1.512 1.374-1.572.828-.062 1.558.544 1.628 1.35"/><path d="m873.841 222.721c.07.806-.544 1.512-1.374 1.572-.828.062-1.558-.542-1.628-1.35-.07-.806.544-1.512 1.374-1.572.828-.062 1.558.544 1.628 1.35"/><path d="m881.759 216.647c.07.808-.544 1.512-1.374 1.574-.828.06-1.556-.542-1.628-1.35-.07-.808.544-1.512 1.374-1.574.828-.06 1.558.544 1.628 1.35"/><path d="m876.162 217.063c.07.806-.544 1.512-1.374 1.574-.828.06-1.556-.542-1.628-1.352-.07-.806.544-1.512 1.374-1.572.828-.062 1.558.544 1.628 1.35"/><path d="m870.566 217.479c.07.806-.544 1.512-1.374 1.572-.828.062-1.556-.542-1.628-1.35-.07-.806.544-1.512 1.374-1.572.828-.062 1.558.544 1.628 1.35"/><path d="m878.484 211.405c.072.808-.544 1.512-1.374 1.574-.828.06-1.556-.542-1.628-1.35-.07-.808.544-1.512 1.374-1.574.828-.06 1.558.544 1.628 1.35"/><path d="m872.887 211.821c.072.806-.544 1.512-1.374 1.574-.828.06-1.556-.542-1.628-1.352-.07-.806.544-1.512 1.374-1.572.828-.062 1.558.544 1.628 1.35"/><path d="m882.713 227.547c.07.806-.544 1.512-1.374 1.574-.828.06-1.558-.542-1.628-1.352-.07-.806.544-1.512 1.374-1.572.828-.062 1.556.544 1.628 1.35"/><path d="m877.116 227.963c.07.806-.544 1.512-1.374 1.572-.828.062-1.558-.542-1.628-1.35-.07-.806.544-1.512 1.374-1.572.828-.062 1.556.544 1.628 1.35"/><path d="m871.52 228.379c.07.806-.544 1.512-1.374 1.572-.828.062-1.558-.542-1.628-1.35-.07-.806.544-1.512 1.374-1.572.828-.062 1.556.542 1.628 1.35"/><path d="m879.438 222.305c.07.806-.544 1.512-1.374 1.574-.828.06-1.558-.542-1.628-1.352-.07-.806.544-1.512 1.374-1.572.828-.062 1.558.544 1.628 1.35"/><path d="m873.841 222.721c.07.806-.544 1.512-1.374 1.572-.828.062-1.558-.542-1.628-1.35-.07-.806.544-1.512 1.374-1.572.828-.062 1.558.544 1.628 1.35"/><path d="m864.429 179.537c.07.806-.544 1.512-1.374 1.572-.828.062-1.556-.542-1.628-1.35-.07-.806.544-1.512 1.374-1.572.828-.062 1.558.542 1.628 1.35"/><path d="m858.832 179.953c.07.806-.544 1.51-1.374 1.572-.828.06-1.556-.542-1.628-1.35-.07-.808.544-1.512 1.374-1.574.828-.06 1.558.544 1.628 1.352"/><path d="m865.383 190.438c.07.806-.544 1.51-1.374 1.572-.828.06-1.558-.542-1.628-1.35s.544-1.512 1.374-1.574c.828-.06 1.556.544 1.628 1.352"/><path d="m859.786 190.852c.07.808-.544 1.512-1.374 1.574-.828.06-1.558-.542-1.628-1.352-.07-.806.544-1.51 1.374-1.572.828-.06 1.556.544 1.628 1.35"/><path d="m867.704 184.78c.07.806-.544 1.512-1.374 1.572-.828.062-1.558-.542-1.628-1.35-.07-.806.544-1.512 1.374-1.574.828-.06 1.558.544 1.628 1.352"/><path d="m862.108 185.196c.07.806-.544 1.51-1.374 1.572-.828.06-1.558-.542-1.628-1.35s.544-1.512 1.374-1.574c.828-.06 1.558.544 1.628 1.352"/><path d="m856.511 185.61c.07.808-.544 1.512-1.374 1.574-.828.06-1.558-.542-1.628-1.352-.07-.806.544-1.51 1.374-1.572.828-.06 1.558.544 1.628 1.35"/><path d="m864.429 179.537c.07.806-.544 1.512-1.374 1.572-.828.062-1.556-.542-1.628-1.35-.07-.806.544-1.512 1.374-1.572.828-.062 1.558.542 1.628 1.35"/><path d="m858.832 179.953c.07.806-.544 1.51-1.374 1.572-.828.06-1.556-.542-1.628-1.35-.07-.808.544-1.512 1.374-1.574.828-.06 1.558.544 1.628 1.352"/><path d="m866.336 201.336c.072.808-.544 1.512-1.372 1.574-.83.06-1.558-.542-1.628-1.352-.072-.806.542-1.51 1.372-1.572.828-.06 1.558.544 1.628 1.35"/><path d="m860.74 201.752c.072.806-.544 1.512-1.372 1.572-.83.062-1.558-.542-1.628-1.35-.072-.806.542-1.512 1.372-1.572.828-.062 1.558.544 1.628 1.35"/><path d="m868.658 195.678c.07.808-.544 1.512-1.374 1.574-.828.06-1.558-.542-1.628-1.35s.544-1.512 1.374-1.574c.828-.06 1.556.544 1.628 1.35"/><path d="m863.062 196.094c.07.808-.544 1.512-1.374 1.574-.828.06-1.558-.542-1.628-1.352-.072-.806.544-1.51 1.374-1.572.828-.06 1.556.544 1.628 1.35"/><path d="m857.465 196.51c.07.806-.544 1.512-1.374 1.572-.828.062-1.558-.542-1.628-1.35-.072-.806.544-1.512 1.374-1.572.828-.062 1.556.544 1.628 1.35"/><path d="m865.383 190.438c.07.806-.544 1.51-1.374 1.572-.828.06-1.558-.542-1.628-1.35s.544-1.512 1.374-1.574c.828-.06 1.556.544 1.628 1.352"/><path d="m859.786 190.852c.07.808-.544 1.512-1.374 1.574-.828.06-1.558-.542-1.628-1.352-.07-.806.544-1.51 1.374-1.572.828-.06 1.556.544 1.628 1.35"/><path d="m867.29 212.237c.07.806-.544 1.512-1.374 1.572-.828.062-1.556-.542-1.628-1.35-.07-.806.544-1.512 1.374-1.572.828-.062 1.558.544 1.628 1.35"/><path d="m861.694 212.653c.07.806-.544 1.512-1.374 1.572-.828.062-1.556-.542-1.628-1.35-.07-.806.544-1.512 1.374-1.572.828-.062 1.558.544 1.628 1.35"/><path d="m869.612 206.578c.072.808-.544 1.512-1.374 1.574-.828.06-1.556-.542-1.626-1.352-.072-.806.542-1.51 1.372-1.572.828-.062 1.558.544 1.628 1.35"/><path d="m864.015 206.994c.072.806-.544 1.512-1.374 1.572-.828.062-1.556-.542-1.628-1.35-.07-.806.544-1.512 1.374-1.572.828-.062 1.558.544 1.628 1.35"/><path d="m858.418 207.41c.072.806-.544 1.512-1.374 1.572-.828.062-1.556-.542-1.628-1.35-.07-.806.544-1.512 1.374-1.572.828-.062 1.558.544 1.628 1.35"/><path d="m866.336 201.336c.072.808-.544 1.512-1.372 1.574-.83.06-1.558-.542-1.628-1.352-.072-.806.542-1.51 1.372-1.572.828-.06 1.558.544 1.628 1.35"/><path d="m860.74 201.752c.072.806-.544 1.512-1.372 1.572-.83.062-1.558-.542-1.628-1.35-.072-.806.542-1.512 1.372-1.572.828-.062 1.558.544 1.628 1.35"/><path d="m868.244 223.137c.07.806-.544 1.512-1.374 1.572-.828.062-1.558-.542-1.628-1.35-.07-.806.544-1.512 1.374-1.572.828-.062 1.558.542 1.628 1.35"/><path d="m862.648 223.553c.07.806-.544 1.51-1.374 1.572-.828.06-1.558-.542-1.628-1.35s.544-1.512 1.374-1.574c.828-.06 1.556.544 1.628 1.352"/><path d="m870.566 217.479c.07.806-.544 1.512-1.374 1.572-.828.062-1.556-.542-1.628-1.35-.07-.806.544-1.512 1.374-1.572.828-.062 1.558.544 1.628 1.35"/><path d="m864.969 217.895c.07.806-.544 1.512-1.374 1.572-.828.062-1.558-.542-1.628-1.35-.07-.806.544-1.512 1.374-1.572.828-.062 1.558.544 1.628 1.35"/><path d="m859.372 218.311c.07.806-.544 1.51-1.374 1.572-.828.06-1.558-.542-1.628-1.35s.544-1.512 1.374-1.574c.828-.06 1.558.544 1.628 1.352"/><path d="m867.29 212.237c.07.806-.544 1.512-1.374 1.572-.828.062-1.556-.542-1.628-1.35-.07-.806.544-1.512 1.374-1.572.828-.062 1.558.544 1.628 1.35"/><path d="m861.694 212.653c.07.806-.544 1.512-1.374 1.572-.828.062-1.556-.542-1.628-1.35-.07-.806.544-1.512 1.374-1.572.828-.062 1.558.544 1.628 1.35"/><path d="m871.52 228.379c.07.806-.544 1.512-1.374 1.572-.828.062-1.558-.542-1.628-1.35-.07-.806.544-1.512 1.374-1.572.828-.062 1.556.542 1.628 1.35"/><path d="m865.923 228.795c.07.806-.544 1.51-1.374 1.572-.828.06-1.558-.542-1.628-1.35s.544-1.512 1.374-1.574c.828-.06 1.556.544 1.628 1.352"/><path d="m860.326 229.209c.07.808-.544 1.512-1.374 1.574-.828.06-1.558-.542-1.628-1.352-.072-.806.544-1.51 1.374-1.572.828-.06 1.556.544 1.628 1.35"/><path d="m868.244 223.137c.07.806-.544 1.512-1.374 1.572-.828.062-1.558-.542-1.628-1.35-.07-.806.544-1.512 1.374-1.572.828-.062 1.558.542 1.628 1.35"/><path d="m862.648 223.553c.07.806-.544 1.51-1.374 1.572-.828.06-1.558-.542-1.628-1.35s.544-1.512 1.374-1.574c.828-.06 1.556.544 1.628 1.352"/><path d="m853.236 180.367c.07.808-.544 1.512-1.374 1.574-.828.06-1.556-.542-1.628-1.352-.07-.806.544-1.51 1.374-1.572.828-.06 1.558.544 1.628 1.35"/><path d="m847.639 180.783c.07.806-.544 1.512-1.374 1.574-.828.06-1.556-.542-1.628-1.352-.07-.806.544-1.512 1.374-1.572.828-.062 1.558.544 1.628 1.35"/><path d="m854.19 191.268c.07.806-.544 1.512-1.374 1.572-.828.062-1.558-.54-1.628-1.35-.07-.806.544-1.512 1.374-1.572.828-.062 1.556.544 1.628 1.35"/><path d="m848.593 191.684c.07.806-.544 1.512-1.374 1.572-.828.062-1.558-.542-1.628-1.35-.07-.806.544-1.512 1.374-1.572.828-.062 1.556.544 1.628 1.35"/><path d="m856.511 185.61c.07.808-.544 1.512-1.374 1.574-.828.06-1.558-.542-1.628-1.352-.07-.806.544-1.51 1.374-1.572.828-.06 1.558.544 1.628 1.35"/><path d="m850.914 186.026c.07.806-.544 1.512-1.374 1.574-.828.06-1.558-.542-1.628-1.352-.07-.806.544-1.512 1.374-1.572.828-.062 1.558.544 1.628 1.35"/><path d="m845.318 186.442c.07.806-.544 1.512-1.374 1.572-.828.062-1.558-.542-1.628-1.35-.07-.806.544-1.512 1.374-1.572.828-.062 1.558.544 1.628 1.35"/><path d="m853.236 180.367c.07.808-.544 1.512-1.374 1.574-.828.06-1.556-.542-1.628-1.352-.07-.806.544-1.51 1.374-1.572.828-.06 1.558.544 1.628 1.35"/><path d="m847.639 180.783c.07.806-.544 1.512-1.374 1.574-.828.06-1.556-.542-1.628-1.352-.07-.806.544-1.512 1.374-1.572.828-.062 1.558.544 1.628 1.35"/><path d="m855.143 202.168c.072.806-.544 1.512-1.374 1.572-.828.062-1.556-.542-1.626-1.35-.072-.806.542-1.512 1.372-1.572.828-.062 1.558.544 1.628 1.35"/><path d="m849.546 202.584c.072.806-.544 1.512-1.374 1.572-.828.062-1.556-.542-1.626-1.35-.072-.806.542-1.512 1.372-1.574.828-.06 1.558.544 1.628 1.352"/><path d="m857.465 196.51c.07.806-.544 1.512-1.374 1.572-.828.062-1.558-.542-1.628-1.35-.072-.806.544-1.512 1.374-1.572.828-.062 1.556.544 1.628 1.35"/><path d="m851.868 196.926c.07.806-.544 1.512-1.374 1.572-.828.062-1.558-.542-1.628-1.35-.072-.806.544-1.512 1.374-1.572.828-.062 1.556.544 1.628 1.35"/><path d="m846.272 197.342c.07.806-.544 1.512-1.374 1.572-.828.062-1.558-.542-1.628-1.35-.072-.806.544-1.512 1.374-1.574.828-.06 1.556.544 1.628 1.352"/><path d="m854.19 191.268c.07.806-.544 1.512-1.374 1.572-.828.062-1.558-.54-1.628-1.35-.07-.806.544-1.512 1.374-1.572.828-.062 1.556.544 1.628 1.35"/><path d="m848.593 191.684c.07.806-.544 1.512-1.374 1.572-.828.062-1.558-.542-1.628-1.35-.07-.806.544-1.512 1.374-1.572.828-.062 1.556.544 1.628 1.35"/><path d="m856.097 213.069c.07.806-.544 1.51-1.374 1.572-.828.062-1.556-.542-1.628-1.35-.07-.808.544-1.512 1.374-1.574.828-.06 1.558.544 1.628 1.352"/><path d="m850.5 213.483c.07.808-.544 1.512-1.374 1.574-.828.06-1.556-.542-1.628-1.35-.07-.808.544-1.512 1.374-1.574.828-.06 1.558.544 1.628 1.35"/><path d="m858.418 207.41c.072.806-.544 1.512-1.374 1.572-.828.062-1.556-.542-1.628-1.35-.07-.806.544-1.512 1.374-1.572.828-.062 1.558.544 1.628 1.35"/><path d="m852.822 207.826c.072.806-.544 1.51-1.374 1.572-.828.062-1.556-.542-1.628-1.35-.07-.808.544-1.512 1.374-1.574.828-.06 1.558.544 1.628 1.352"/><path d="m847.225 208.241c.072.808-.544 1.512-1.374 1.574-.828.06-1.556-.542-1.628-1.35-.07-.808.544-1.512 1.374-1.574.828-.06 1.558.544 1.628 1.35"/><path d="m855.143 202.168c.072.806-.544 1.512-1.374 1.572-.828.062-1.556-.542-1.626-1.35-.072-.806.542-1.512 1.372-1.572.828-.062 1.558.544 1.628 1.35"/><path d="m849.546 202.584c.072.806-.544 1.512-1.374 1.572-.828.062-1.556-.542-1.626-1.35-.072-.806.542-1.512 1.372-1.574.828-.06 1.558.544 1.628 1.352"/><path d="m857.051 223.967c.07.808-.544 1.512-1.374 1.574-.828.06-1.558-.542-1.628-1.352-.07-.806.544-1.51 1.374-1.572.828-.06 1.556.544 1.628 1.35"/><path d="m851.454 224.383c.07.806-.544 1.512-1.374 1.574-.828.06-1.558-.542-1.628-1.352-.07-.806.544-1.512 1.374-1.572.828-.062 1.556.544 1.628 1.35"/><path d="m859.372 218.311c.07.806-.544 1.51-1.374 1.572-.828.06-1.558-.542-1.628-1.35s.544-1.512 1.374-1.574c.828-.06 1.558.544 1.628 1.352"/><path d="m853.776 218.725c.07.808-.544 1.512-1.374 1.574-.828.06-1.558-.542-1.628-1.35s.544-1.512 1.374-1.574c.828-.06 1.558.544 1.628 1.35"/><path d="m848.179 219.141c.07.806-.544 1.512-1.374 1.574-.828.06-1.558-.542-1.628-1.352-.07-.806.544-1.512 1.374-1.572.828-.062 1.558.544 1.628 1.35"/><path d="m856.097 213.069c.07.806-.544 1.51-1.374 1.572-.828.062-1.556-.542-1.628-1.35-.07-.808.544-1.512 1.374-1.574.828-.06 1.558.544 1.628 1.352"/><path d="m850.5 213.483c.07.808-.544 1.512-1.374 1.574-.828.06-1.556-.542-1.628-1.35-.07-.808.544-1.512 1.374-1.574.828-.06 1.558.544 1.628 1.35"/><path d="m860.326 229.209c.07.808-.544 1.512-1.374 1.574-.828.06-1.558-.542-1.628-1.352-.072-.806.544-1.51 1.374-1.572.828-.06 1.556.544 1.628 1.35"/><path d="m854.73 229.625c.07.806-.544 1.512-1.374 1.574-.828.06-1.558-.542-1.628-1.352-.072-.806.544-1.512 1.374-1.572.828-.062 1.556.544 1.628 1.35"/><path d="m849.133 230.041c.07.806-.544 1.512-1.374 1.572-.828.062-1.558-.542-1.628-1.35-.072-.806.544-1.512 1.374-1.572.828-.062 1.556.544 1.628 1.35"/><path d="m857.051 223.967c.07.808-.544 1.512-1.374 1.574-.828.06-1.558-.542-1.628-1.352-.07-.806.544-1.51 1.374-1.572.828-.06 1.556.544 1.628 1.35"/><path d="m851.454 224.383c.07.806-.544 1.512-1.374 1.574-.828.06-1.558-.542-1.628-1.352-.07-.806.544-1.512 1.374-1.572.828-.062 1.556.544 1.628 1.35"/><path d="m842.042 181.199c.07.806-.544 1.512-1.374 1.572-.828.062-1.556-.542-1.628-1.35-.07-.806.544-1.512 1.374-1.572.828-.062 1.558.544 1.628 1.35"/><path d="m836.446 181.616c.07.806-.544 1.512-1.374 1.572-.828.062-1.556-.542-1.628-1.35-.07-.806.544-1.512 1.374-1.572.828-.062 1.558.542 1.628 1.35"/><path d="m842.996 192.1c.07.806-.544 1.512-1.374 1.572-.828.062-1.558-.542-1.628-1.35-.07-.806.544-1.512 1.374-1.574.828-.06 1.556.544 1.628 1.352"/><path d="m837.4 192.514c.07.808-.544 1.512-1.374 1.574-.828.06-1.558-.542-1.628-1.35s.544-1.512 1.374-1.574c.828-.06 1.556.544 1.628 1.35"/><path d="m845.318 186.442c.07.806-.544 1.512-1.374 1.572-.828.062-1.558-.542-1.628-1.35-.07-.806.544-1.512 1.374-1.572.828-.062 1.558.544 1.628 1.35"/><path d="m839.721 186.858c.07.806-.544 1.512-1.374 1.572-.828.062-1.558-.542-1.628-1.35-.07-.806.544-1.512 1.374-1.574.828-.06 1.558.544 1.628 1.352"/><path d="m834.124 187.274c.07.806-.544 1.51-1.374 1.572-.828.06-1.558-.542-1.628-1.35s.544-1.512 1.374-1.574c.828-.06 1.558.544 1.628 1.352"/><path d="m842.042 181.199c.07.806-.544 1.512-1.374 1.572-.828.062-1.556-.542-1.628-1.35-.07-.806.544-1.512 1.374-1.572.828-.062 1.558.544 1.628 1.35"/><path d="m836.446 181.616c.07.806-.544 1.512-1.374 1.572-.828.062-1.556-.542-1.628-1.35-.07-.806.544-1.512 1.374-1.572.828-.062 1.558.542 1.628 1.35"/><path d="m843.949 202.998c.072.808-.544 1.512-1.374 1.574-.828.06-1.556-.542-1.626-1.35-.072-.808.542-1.512 1.372-1.574.828-.06 1.558.544 1.628 1.35"/><path d="m838.353 203.414c.072.808-.544 1.512-1.374 1.574-.828.06-1.556-.542-1.626-1.352-.072-.806.542-1.51 1.372-1.572.828-.062 1.558.544 1.628 1.35"/><path d="m846.272 197.342c.07.806-.544 1.512-1.374 1.572-.828.062-1.558-.542-1.628-1.35-.072-.806.544-1.512 1.374-1.574.828-.06 1.556.544 1.628 1.352"/><path d="m840.675 197.756c.07.808-.544 1.512-1.374 1.574-.828.06-1.558-.542-1.628-1.35-.072-.808.544-1.512 1.374-1.574.828-.06 1.556.544 1.628 1.35"/><path d="m835.078 198.172c.07.808-.544 1.512-1.374 1.574-.828.06-1.558-.542-1.628-1.352-.072-.806.544-1.51 1.374-1.572.828-.06 1.556.544 1.628 1.35"/><path d="m842.996 192.1c.07.806-.544 1.512-1.374 1.572-.828.062-1.558-.542-1.628-1.35-.07-.806.544-1.512 1.374-1.574.828-.06 1.556.544 1.628 1.352"/><path d="m837.4 192.514c.07.808-.544 1.512-1.374 1.574-.828.06-1.558-.542-1.628-1.35s.544-1.512 1.374-1.574c.828-.06 1.556.544 1.628 1.35"/><path d="m844.904 213.899c.07.806-.544 1.512-1.374 1.574-.828.06-1.556-.542-1.628-1.352-.07-.806.544-1.512 1.374-1.572.828-.062 1.558.544 1.628 1.35"/><path d="m839.307 214.315c.07.806-.544 1.512-1.374 1.572-.828.062-1.556-.542-1.628-1.35-.07-.806.544-1.512 1.374-1.572.828-.062 1.558.544 1.628 1.35"/><path d="m847.225 208.241c.072.808-.544 1.512-1.374 1.574-.828.06-1.556-.542-1.628-1.35-.07-.808.544-1.512 1.374-1.574.828-.06 1.558.544 1.628 1.35"/><path d="m841.628 208.657c.072.808-.544 1.512-1.374 1.574-.828.06-1.556-.542-1.628-1.352-.07-.806.544-1.51 1.374-1.572.828-.062 1.558.544 1.628 1.35"/><path d="m836.032 209.073c.072.806-.544 1.512-1.374 1.572-.828.062-1.556-.542-1.628-1.35-.07-.806.544-1.512 1.374-1.572.828-.062 1.558.544 1.628 1.35"/><path d="m843.949 202.998c.072.808-.544 1.512-1.374 1.574-.828.06-1.556-.542-1.626-1.35-.072-.808.542-1.512 1.372-1.574.828-.06 1.558.544 1.628 1.35"/><path d="m838.353 203.414c.072.808-.544 1.512-1.374 1.574-.828.06-1.556-.542-1.626-1.352-.072-.806.542-1.51 1.372-1.572.828-.062 1.558.544 1.628 1.35"/><path d="m845.858 224.799c.07.806-.544 1.512-1.374 1.572-.828.062-1.558-.542-1.628-1.35-.07-.806.544-1.512 1.374-1.572.828-.062 1.556.544 1.628 1.35"/><path d="m840.261 225.215c.07.806-.544 1.512-1.374 1.572-.828.062-1.558-.542-1.628-1.35-.07-.806.544-1.512 1.374-1.572.828-.062 1.556.542 1.628 1.35"/><path d="m848.179 219.141c.07.806-.544 1.512-1.374 1.574-.828.06-1.558-.542-1.628-1.352-.07-.806.544-1.512 1.374-1.572.828-.062 1.558.544 1.628 1.35"/><path d="m842.582 219.557c.07.806-.544 1.512-1.374 1.572-.828.062-1.558-.542-1.628-1.35-.07-.806.544-1.512 1.374-1.572.828-.062 1.558.544 1.628 1.35"/><path d="m836.986 219.973c.07.806-.544 1.512-1.374 1.572-.828.062-1.558-.542-1.628-1.35-.07-.806.544-1.512 1.374-1.572.828-.062 1.558.542 1.628 1.35"/><path d="m844.904 213.899c.07.806-.544 1.512-1.374 1.574-.828.06-1.556-.542-1.628-1.352-.07-.806.544-1.512 1.374-1.572.828-.062 1.558.544 1.628 1.35"/><path d="m839.307 214.315c.07.806-.544 1.512-1.374 1.572-.828.062-1.556-.542-1.628-1.35-.07-.806.544-1.512 1.374-1.572.828-.062 1.558.544 1.628 1.35"/><path d="m849.133 230.041c.07.806-.544 1.512-1.374 1.572-.828.062-1.558-.542-1.628-1.35-.072-.806.544-1.512 1.374-1.572.828-.062 1.556.544 1.628 1.35"/><path d="m843.536 230.457c.07.806-.544 1.512-1.374 1.572-.828.062-1.558-.542-1.628-1.35-.072-.806.544-1.512 1.374-1.574.828-.06 1.556.544 1.628 1.352"/><path d="m837.94 230.873c.07.806-.544 1.51-1.374 1.572-.828.06-1.558-.542-1.628-1.35-.072-.808.544-1.512 1.374-1.574.828-.06 1.556.544 1.628 1.352"/><path d="m845.858 224.799c.07.806-.544 1.512-1.374 1.572-.828.062-1.558-.542-1.628-1.35-.07-.806.544-1.512 1.374-1.572.828-.062 1.556.544 1.628 1.35"/><path d="m840.261 225.215c.07.806-.544 1.512-1.374 1.572-.828.062-1.558-.542-1.628-1.35-.07-.806.544-1.512 1.374-1.572.828-.062 1.556.542 1.628 1.35"/><path d="m830.849 182.032c.07.806-.544 1.51-1.374 1.572-.828.06-1.556-.542-1.628-1.35-.07-.808.544-1.512 1.374-1.574.828-.06 1.558.544 1.628 1.352"/><path d="m825.252 182.446c.07.808-.544 1.512-1.374 1.574-.828.06-1.556-.542-1.628-1.352-.07-.806.544-1.51 1.374-1.572.828-.06 1.558.544 1.628 1.35"/><path d="m831.803 192.93c.07.808-.544 1.512-1.374 1.574-.828.06-1.558-.542-1.628-1.352-.07-.806.544-1.51 1.374-1.572.828-.06 1.556.544 1.628 1.35"/><path d="m826.206 193.346c.07.806-.544 1.512-1.374 1.572-.828.062-1.558-.54-1.628-1.35-.07-.806.544-1.512 1.374-1.572.828-.062 1.556.544 1.628 1.35"/><path d="m834.124 187.274c.07.806-.544 1.51-1.374 1.572-.828.06-1.558-.542-1.628-1.35s.544-1.512 1.374-1.574c.828-.06 1.558.544 1.628 1.352"/><path d="m828.528 187.688c.07.808-.544 1.512-1.374 1.574-.828.06-1.558-.542-1.628-1.352-.07-.806.544-1.51 1.374-1.572.828-.06 1.558.544 1.628 1.35"/><path d="m822.931 188.104c.07.806-.544 1.512-1.374 1.572-.828.062-1.558-.54-1.628-1.35-.07-.806.544-1.512 1.374-1.572.828-.062 1.558.544 1.628 1.35"/><path d="m830.849 182.032c.07.806-.544 1.51-1.374 1.572-.828.06-1.556-.542-1.628-1.35-.07-.808.544-1.512 1.374-1.574.828-.06 1.558.544 1.628 1.352"/><path d="m825.252 182.446c.07.808-.544 1.512-1.374 1.574-.828.06-1.556-.542-1.628-1.352-.07-.806.544-1.51 1.374-1.572.828-.06 1.558.544 1.628 1.35"/><path d="m832.756 203.83c.072.806-.544 1.512-1.374 1.572-.828.062-1.556-.542-1.626-1.35-.072-.806.542-1.512 1.372-1.572.828-.062 1.558.544 1.628 1.35"/><path d="m827.159 204.246c.072.806-.544 1.512-1.374 1.572-.828.062-1.556-.542-1.626-1.35-.072-.806.542-1.512 1.372-1.572.828-.062 1.558.544 1.628 1.35"/><path d="m835.078 198.172c.07.808-.544 1.512-1.374 1.574-.828.06-1.558-.542-1.628-1.352-.072-.806.544-1.51 1.374-1.572.828-.06 1.556.544 1.628 1.35"/><path d="m829.482 198.588c.07.806-.544 1.512-1.374 1.572-.828.062-1.558-.542-1.628-1.35-.072-.806.544-1.512 1.374-1.572.828-.062 1.556.544 1.628 1.35"/><path d="m823.885 199.004c.07.806-.544 1.512-1.374 1.572-.828.062-1.558-.542-1.628-1.35-.072-.806.544-1.512 1.374-1.572.828-.062 1.556.544 1.628 1.35"/><path d="m831.803 192.93c.07.808-.544 1.512-1.374 1.574-.828.06-1.558-.542-1.628-1.352-.07-.806.544-1.51 1.374-1.572.828-.06 1.556.544 1.628 1.35"/><path d="m826.206 193.346c.07.806-.544 1.512-1.374 1.572-.828.062-1.558-.54-1.628-1.35-.07-.806.544-1.512 1.374-1.572.828-.062 1.556.544 1.628 1.35"/><path d="m833.71 214.731c.07.806-.544 1.512-1.374 1.572-.828.062-1.556-.542-1.628-1.35-.07-.806.544-1.512 1.374-1.572.828-.062 1.558.544 1.628 1.35"/><path d="m828.114 215.147c.07.806-.544 1.51-1.374 1.572-.828.06-1.556-.542-1.628-1.35-.07-.808.544-1.512 1.374-1.574.828-.06 1.558.544 1.628 1.352"/><path d="m836.032 209.073c.072.806-.544 1.512-1.374 1.572-.828.062-1.556-.542-1.628-1.35-.07-.806.544-1.512 1.374-1.572.828-.062 1.558.544 1.628 1.35"/><path d="m830.435 209.489c.072.806-.544 1.512-1.374 1.572-.828.062-1.556-.542-1.628-1.35-.07-.806.544-1.512 1.374-1.572.828-.062 1.558.544 1.628 1.35"/><path d="m824.838 209.905c.072.806-.544 1.51-1.374 1.572-.828.062-1.556-.542-1.628-1.35-.07-.808.544-1.512 1.374-1.574.828-.06 1.558.544 1.628 1.352"/><path d="m832.756 203.83c.072.806-.544 1.512-1.374 1.572-.828.062-1.556-.542-1.626-1.35-.072-.806.542-1.512 1.372-1.572.828-.062 1.558.544 1.628 1.35"/><path d="m827.159 204.246c.072.806-.544 1.512-1.374 1.572-.828.062-1.556-.542-1.626-1.35-.072-.806.542-1.512 1.372-1.572.828-.062 1.558.544 1.628 1.35"/><path d="m834.664 225.631c.07.806-.544 1.51-1.374 1.572-.828.06-1.558-.542-1.628-1.35s.544-1.512 1.374-1.574c.828-.06 1.556.544 1.628 1.352"/><path d="m829.068 226.045c.07.808-.544 1.512-1.374 1.574-.828.06-1.558-.542-1.628-1.352-.07-.806.544-1.51 1.374-1.572.828-.06 1.556.544 1.628 1.35"/><path d="m836.986 219.973c.07.806-.544 1.512-1.374 1.572-.828.062-1.558-.542-1.628-1.35-.07-.806.544-1.512 1.374-1.572.828-.062 1.558.542 1.628 1.35"/><path d="m831.389 220.389c.07.806-.544 1.51-1.374 1.572-.828.06-1.558-.542-1.628-1.35s.544-1.512 1.374-1.574c.828-.06 1.558.544 1.628 1.352"/><path d="m825.792 220.803c.07.808-.544 1.512-1.374 1.574-.828.06-1.558-.542-1.628-1.35s.544-1.512 1.374-1.574c.828-.06 1.558.544 1.628 1.35"/><path d="m833.71 214.731c.07.806-.544 1.512-1.374 1.572-.828.062-1.556-.542-1.628-1.35-.07-.806.544-1.512 1.374-1.572.828-.062 1.558.544 1.628 1.35"/><path d="m828.114 215.147c.07.806-.544 1.51-1.374 1.572-.828.06-1.556-.542-1.628-1.35-.07-.808.544-1.512 1.374-1.574.828-.06 1.558.544 1.628 1.352"/><path d="m837.94 230.873c.07.806-.544 1.51-1.374 1.572-.828.06-1.558-.542-1.628-1.35-.072-.808.544-1.512 1.374-1.574.828-.06 1.556.544 1.628 1.352"/><path d="m834.664 225.631c.07.806-.544 1.51-1.374 1.572-.828.06-1.558-.542-1.628-1.35s.544-1.512 1.374-1.574c.828-.06 1.556.544 1.628 1.352"/><path d="m829.068 226.045c.07.808-.544 1.512-1.374 1.574-.828.06-1.558-.542-1.628-1.352-.07-.806.544-1.51 1.374-1.572.828-.06 1.556.544 1.628 1.35"/><path d="m819.656 182.862c.07.806-.544 1.512-1.374 1.574-.828.06-1.556-.542-1.628-1.352-.07-.806.544-1.512 1.374-1.572.828-.062 1.558.544 1.628 1.35"/><path d="m814.059 183.278c.07.806-.544 1.512-1.374 1.572-.828.062-1.558-.542-1.628-1.35-.07-.806.544-1.512 1.374-1.572.828-.062 1.558.544 1.628 1.35"/><path d="m820.61 193.762c.07.806-.544 1.512-1.374 1.572-.828.062-1.558-.542-1.628-1.35-.07-.806.544-1.512 1.374-1.572.828-.062 1.556.544 1.628 1.35"/><path d="m815.013 194.178c.07.806-.544 1.512-1.374 1.572-.828.062-1.558-.542-1.628-1.35-.07-.806.544-1.512 1.374-1.574.828-.06 1.556.544 1.628 1.352"/><path d="m822.931 188.104c.07.806-.544 1.512-1.374 1.572-.828.062-1.558-.54-1.628-1.35-.07-.806.544-1.512 1.374-1.572.828-.062 1.558.544 1.628 1.35"/><path d="m817.334 188.52c.07.806-.544 1.512-1.374 1.572-.828.062-1.558-.542-1.628-1.35-.07-.806.544-1.512 1.374-1.572.828-.062 1.558.544 1.628 1.35"/><path d="m811.738 188.936c.07.806-.544 1.512-1.374 1.572-.828.062-1.558-.542-1.628-1.35-.07-.806.544-1.512 1.374-1.574.828-.06 1.556.544 1.628 1.352"/><path d="m819.656 182.862c.07.806-.544 1.512-1.374 1.574-.828.06-1.556-.542-1.628-1.352-.07-.806.544-1.512 1.374-1.572.828-.062 1.558.544 1.628 1.35"/><path d="m814.059 183.278c.07.806-.544 1.512-1.374 1.572-.828.062-1.558-.542-1.628-1.35-.07-.806.544-1.512 1.374-1.572.828-.062 1.558.544 1.628 1.35"/><path d="m821.563 204.662c.072.806-.544 1.512-1.374 1.572-.828.062-1.556-.542-1.626-1.35-.072-.808.542-1.512 1.372-1.574.828-.06 1.558.544 1.628 1.352"/><path d="m815.966 205.076c.072.808-.544 1.512-1.374 1.574-.828.06-1.556-.542-1.626-1.35-.072-.808.542-1.512 1.372-1.574.828-.06 1.558.544 1.628 1.35"/><path d="m823.885 199.004c.07.806-.544 1.512-1.374 1.572-.828.062-1.558-.542-1.628-1.35-.072-.806.544-1.512 1.374-1.572.828-.062 1.556.544 1.628 1.35"/><path d="m818.288 199.42c.07.806-.544 1.512-1.374 1.572-.828.062-1.558-.542-1.628-1.35-.072-.806.544-1.512 1.374-1.574.828-.06 1.556.544 1.628 1.352"/><path d="m812.691 199.834c.072.808-.544 1.512-1.372 1.574-.83.06-1.558-.542-1.628-1.35-.072-.808.542-1.512 1.372-1.574.828-.06 1.558.544 1.628 1.35"/><path d="m820.61 193.762c.07.806-.544 1.512-1.374 1.572-.828.062-1.558-.542-1.628-1.35-.07-.806.544-1.512 1.374-1.572.828-.062 1.556.544 1.628 1.35"/><path d="m815.013 194.178c.07.806-.544 1.512-1.374 1.572-.828.062-1.558-.542-1.628-1.35-.07-.806.544-1.512 1.374-1.574.828-.06 1.556.544 1.628 1.352"/><path d="m822.517 215.561c.07.808-.544 1.512-1.374 1.574-.828.06-1.556-.542-1.628-1.35-.07-.808.544-1.512 1.374-1.574.828-.06 1.558.544 1.628 1.35"/><path d="m816.92 215.977c.07.806-.544 1.512-1.374 1.574-.828.06-1.556-.542-1.628-1.352-.07-.806.544-1.512 1.374-1.572.828-.062 1.558.544 1.628 1.35"/><path d="m824.838 209.905c.072.806-.544 1.51-1.374 1.572-.828.062-1.556-.542-1.628-1.35-.07-.808.544-1.512 1.374-1.574.828-.06 1.558.544 1.628 1.352"/><path d="m819.241 210.319c.072.808-.544 1.512-1.374 1.574-.828.06-1.556-.542-1.628-1.35-.07-.808.544-1.512 1.374-1.574.828-.06 1.558.544 1.628 1.35"/><path d="m813.645 210.735c.07.806-.544 1.512-1.374 1.574-.828.06-1.556-.542-1.628-1.352-.07-.806.544-1.512 1.374-1.572.828-.062 1.558.544 1.628 1.35"/><path d="m821.563 204.662c.072.806-.544 1.512-1.374 1.572-.828.062-1.556-.542-1.626-1.35-.072-.808.542-1.512 1.372-1.574.828-.06 1.558.544 1.628 1.352"/><path d="m815.966 205.076c.072.808-.544 1.512-1.374 1.574-.828.06-1.556-.542-1.626-1.35-.072-.808.542-1.512 1.372-1.574.828-.06 1.558.544 1.628 1.35"/><path d="m823.471 226.461c.07.806-.544 1.512-1.374 1.574-.828.06-1.558-.542-1.628-1.352-.07-.806.544-1.512 1.374-1.572.828-.062 1.556.544 1.628 1.35"/><path d="m817.874 226.877c.07.806-.544 1.512-1.374 1.572-.828.062-1.558-.542-1.628-1.35-.07-.806.544-1.512 1.374-1.572.828-.062 1.556.544 1.628 1.35"/><path d="m825.792 220.803c.07.808-.544 1.512-1.374 1.574-.828.06-1.558-.542-1.628-1.35s.544-1.512 1.374-1.574c.828-.06 1.558.544 1.628 1.35"/><path d="m820.196 221.219c.07.806-.544 1.512-1.374 1.574-.828.06-1.558-.542-1.628-1.352-.07-.806.544-1.512 1.374-1.572.828-.062 1.558.544 1.628 1.35"/><path d="m814.599 221.635c.07.806-.544 1.512-1.374 1.572-.828.062-1.558-.542-1.628-1.35-.07-.806.544-1.512 1.374-1.572.828-.062 1.558.544 1.628 1.35"/><path d="m822.517 215.561c.07.808-.544 1.512-1.374 1.574-.828.06-1.556-.542-1.628-1.35-.07-.808.544-1.512 1.374-1.574.828-.06 1.558.544 1.628 1.35"/><path d="m816.92 215.977c.07.806-.544 1.512-1.374 1.574-.828.06-1.556-.542-1.628-1.352-.07-.806.544-1.512 1.374-1.572.828-.062 1.558.544 1.628 1.35"/><path d="m823.471 226.461c.07.806-.544 1.512-1.374 1.574-.828.06-1.558-.542-1.628-1.352-.07-.806.544-1.512 1.374-1.572.828-.062 1.556.544 1.628 1.35"/><path d="m817.874 226.877c.07.806-.544 1.512-1.374 1.572-.828.062-1.558-.542-1.628-1.35-.07-.806.544-1.512 1.374-1.572.828-.062 1.556.544 1.628 1.35"/><path d="m808.462 183.694c.07.806-.544 1.512-1.374 1.572-.828.062-1.558-.542-1.628-1.35-.07-.806.544-1.512 1.374-1.574.828-.06 1.558.544 1.628 1.352"/><path d="m802.866 184.11c.07.806-.544 1.51-1.374 1.572-.828.06-1.558-.542-1.628-1.35s.544-1.512 1.374-1.574c.828-.06 1.558.544 1.628 1.352"/><path d="m809.416 194.592c.07.808-.544 1.512-1.374 1.574-.828.06-1.558-.542-1.628-1.35-.072-.808.544-1.512 1.374-1.574.828-.06 1.556.544 1.628 1.35"/><path d="m803.82 195.008c.07.808-.544 1.512-1.374 1.574-.828.06-1.558-.542-1.628-1.352-.072-.806.544-1.51 1.374-1.572.828-.06 1.556.544 1.628 1.35"/><path d="m811.738 188.936c.07.806-.544 1.512-1.374 1.572-.828.062-1.558-.542-1.628-1.35-.07-.806.544-1.512 1.374-1.574.828-.06 1.556.544 1.628 1.352"/><path d="m806.141 189.352c.07.806-.544 1.51-1.374 1.572-.828.06-1.558-.542-1.628-1.35s.544-1.512 1.374-1.574c.828-.06 1.556.544 1.628 1.352"/><path d="m800.544 189.766c.07.808-.544 1.512-1.374 1.574-.828.06-1.558-.542-1.628-1.352-.07-.806.544-1.51 1.374-1.572.828-.06 1.556.544 1.628 1.35"/><path d="m808.462 183.694c.07.806-.544 1.512-1.374 1.572-.828.062-1.558-.542-1.628-1.35-.07-.806.544-1.512 1.374-1.574.828-.06 1.558.544 1.628 1.352"/><path d="m802.866 184.11c.07.806-.544 1.51-1.374 1.572-.828.06-1.558-.542-1.628-1.35s.544-1.512 1.374-1.574c.828-.06 1.558.544 1.628 1.352"/><path d="m810.369 205.492c.072.808-.544 1.512-1.374 1.574-.828.06-1.556-.542-1.628-1.352-.07-.806.544-1.51 1.374-1.572.828-.062 1.558.544 1.628 1.35"/><path d="m804.773 205.908c.072.806-.544 1.512-1.374 1.572-.828.062-1.556-.542-1.628-1.35-.07-.806.544-1.512 1.374-1.572.828-.062 1.558.544 1.628 1.35"/><path d="m812.691 199.834c.072.808-.544 1.512-1.372 1.574-.83.06-1.558-.542-1.628-1.35-.072-.808.542-1.512 1.372-1.574.828-.06 1.558.544 1.628 1.35"/><path d="m807.094 200.25c.072.808-.544 1.512-1.372 1.574-.83.06-1.558-.542-1.628-1.352-.072-.806.542-1.51 1.372-1.572.828-.06 1.558.544 1.628 1.35"/><path d="m801.497 200.666c.072.806-.544 1.512-1.374 1.572-.828.062-1.556-.542-1.626-1.35-.072-.806.542-1.512 1.372-1.572.828-.062 1.558.544 1.628 1.35"/><path d="m809.416 194.592c.07.808-.544 1.512-1.374 1.574-.828.06-1.558-.542-1.628-1.35-.072-.808.544-1.512 1.374-1.574.828-.06 1.556.544 1.628 1.35"/><path d="m803.82 195.008c.07.808-.544 1.512-1.374 1.574-.828.06-1.558-.542-1.628-1.352-.072-.806.544-1.51 1.374-1.572.828-.06 1.556.544 1.628 1.35"/><path d="m811.324 216.393c.07.806-.544 1.512-1.374 1.572-.828.062-1.558-.542-1.628-1.35-.07-.806.544-1.512 1.374-1.572.828-.062 1.558.544 1.628 1.35"/><path d="m805.727 216.809c.07.806-.544 1.512-1.374 1.572-.828.062-1.558-.542-1.628-1.35-.07-.806.544-1.512 1.374-1.572.828-.062 1.558.544 1.628 1.35"/><path d="m813.645 210.735c.07.806-.544 1.512-1.374 1.574-.828.06-1.556-.542-1.628-1.352-.07-.806.544-1.512 1.374-1.572.828-.062 1.558.544 1.628 1.35"/><path d="m808.048 211.151c.07.806-.544 1.512-1.374 1.572-.828.062-1.556-.542-1.628-1.35-.07-.806.544-1.512 1.374-1.572.828-.062 1.558.544 1.628 1.35"/><path d="m802.451 211.567c.07.806-.544 1.512-1.374 1.572-.828.062-1.556-.542-1.628-1.35-.07-.806.544-1.512 1.374-1.572.828-.062 1.558.544 1.628 1.35"/><path d="m810.369 205.492c.072.808-.544 1.512-1.374 1.574-.828.06-1.556-.542-1.628-1.352-.07-.806.544-1.51 1.374-1.572.828-.062 1.558.544 1.628 1.35"/><path d="m804.773 205.908c.072.806-.544 1.512-1.374 1.572-.828.062-1.556-.542-1.628-1.35-.07-.806.544-1.512 1.374-1.572.828-.062 1.558.544 1.628 1.35"/><path d="m812.278 227.293c.07.806-.544 1.512-1.374 1.572-.828.062-1.558-.542-1.628-1.35-.07-.806.544-1.512 1.374-1.572.828-.062 1.556.542 1.628 1.35"/><path d="m806.681 227.709c.07.806-.544 1.51-1.374 1.572-.828.06-1.558-.542-1.628-1.35-.072-.808.544-1.512 1.374-1.574.828-.06 1.556.544 1.628 1.352"/><path d="m814.599 221.635c.07.806-.544 1.512-1.374 1.572-.828.062-1.558-.542-1.628-1.35-.07-.806.544-1.512 1.374-1.572.828-.062 1.558.544 1.628 1.35"/><path d="m809.002 222.051c.07.806-.544 1.512-1.374 1.572-.828.062-1.558-.542-1.628-1.35-.07-.806.544-1.512 1.374-1.572.828-.062 1.556.542 1.628 1.35"/><path d="m803.406 222.467c.07.806-.544 1.51-1.374 1.572-.828.06-1.558-.542-1.628-1.35s.544-1.512 1.374-1.574c.828-.06 1.556.544 1.628 1.352"/><path d="m811.324 216.393c.07.806-.544 1.512-1.374 1.572-.828.062-1.558-.542-1.628-1.35-.07-.806.544-1.512 1.374-1.572.828-.062 1.558.544 1.628 1.35"/><path d="m805.727 216.809c.07.806-.544 1.512-1.374 1.572-.828.062-1.558-.542-1.628-1.35-.07-.806.544-1.512 1.374-1.572.828-.062 1.558.544 1.628 1.35"/><path d="m812.278 227.293c.07.806-.544 1.512-1.374 1.572-.828.062-1.558-.542-1.628-1.35-.07-.806.544-1.512 1.374-1.572.828-.062 1.556.542 1.628 1.35"/><path d="m806.681 227.709c.07.806-.544 1.51-1.374 1.572-.828.06-1.558-.542-1.628-1.35-.072-.808.544-1.512 1.374-1.574.828-.06 1.556.544 1.628 1.352"/><path d="m797.269 184.524c.07.808-.544 1.512-1.374 1.574-.828.06-1.558-.542-1.628-1.352-.07-.806.544-1.51 1.374-1.572.828-.06 1.558.544 1.628 1.35"/><path d="m791.672 184.94c.07.806-.544 1.512-1.374 1.574-.828.06-1.558-.542-1.628-1.352-.07-.806.544-1.512 1.374-1.572.828-.062 1.558.544 1.628 1.35"/><path d="m793.993 179.282c.07.808-.544 1.512-1.374 1.574-.828.06-1.556-.542-1.628-1.352-.07-.806.544-1.51 1.374-1.572.828-.06 1.558.544 1.628 1.35"/><path d="m788.397 179.698c.07.806-.544 1.512-1.374 1.574-.828.06-1.556-.542-1.628-1.352-.07-.806.544-1.512 1.374-1.572.828-.062 1.558.544 1.628 1.35"/><path d="m798.223 195.424c.07.806-.544 1.512-1.374 1.572-.828.062-1.558-.542-1.628-1.35-.072-.806.544-1.512 1.374-1.572.828-.062 1.556.544 1.628 1.35"/><path d="m792.626 195.84c.07.806-.544 1.512-1.374 1.572-.828.062-1.558-.542-1.628-1.35-.072-.806.544-1.512 1.374-1.572.828-.062 1.556.544 1.628 1.35"/><path d="m800.544 189.766c.07.808-.544 1.512-1.374 1.574-.828.06-1.558-.542-1.628-1.352-.07-.806.544-1.51 1.374-1.572.828-.06 1.556.544 1.628 1.35"/><path d="m794.948 190.182c.07.806-.544 1.512-1.374 1.572-.828.062-1.558-.54-1.628-1.35-.07-.806.544-1.512 1.374-1.572.828-.062 1.556.544 1.628 1.35"/><path d="m789.351 190.598c.07.806-.544 1.512-1.374 1.572-.828.062-1.558-.542-1.628-1.35-.07-.806.544-1.512 1.374-1.572.828-.062 1.556.544 1.628 1.35"/><path d="m797.269 184.524c.07.808-.544 1.512-1.374 1.574-.828.06-1.558-.542-1.628-1.352-.07-.806.544-1.51 1.374-1.572.828-.06 1.558.544 1.628 1.35"/><path d="m791.672 184.94c.07.806-.544 1.512-1.374 1.574-.828.06-1.558-.542-1.628-1.352-.07-.806.544-1.512 1.374-1.572.828-.062 1.558.544 1.628 1.35"/><path d="m799.176 206.324c.072.806-.544 1.512-1.374 1.572-.828.062-1.556-.542-1.628-1.35-.07-.806.544-1.512 1.374-1.572.828-.062 1.558.544 1.628 1.35"/><path d="m793.579 206.741c.072.806-.544 1.51-1.374 1.572-.828.062-1.556-.542-1.628-1.35-.07-.808.544-1.512 1.374-1.574.828-.06 1.558.544 1.628 1.352"/><path d="m801.497 200.666c.072.806-.544 1.512-1.374 1.572-.828.062-1.556-.542-1.626-1.35-.072-.806.542-1.512 1.372-1.572.828-.062 1.558.544 1.628 1.35"/><path d="m795.901 201.082c.072.806-.544 1.512-1.374 1.572-.828.062-1.556-.542-1.626-1.35-.072-.806.542-1.512 1.372-1.572.828-.062 1.558.544 1.628 1.35"/><path d="m790.304 201.498c.072.806-.544 1.512-1.374 1.572-.828.062-1.556-.542-1.626-1.35-.072-.806.542-1.512 1.372-1.574.828-.06 1.558.544 1.628 1.352"/><path d="m798.223 195.424c.07.806-.544 1.512-1.374 1.572-.828.062-1.558-.542-1.628-1.35-.072-.806.544-1.512 1.374-1.572.828-.062 1.556.544 1.628 1.35"/><path d="m792.626 195.84c.07.806-.544 1.512-1.374 1.572-.828.062-1.558-.542-1.628-1.35-.072-.806.544-1.512 1.374-1.572.828-.062 1.556.544 1.628 1.35"/><path d="m800.13 217.225c.07.806-.544 1.51-1.374 1.572-.828.06-1.558-.542-1.628-1.35s.544-1.512 1.374-1.574c.828-.06 1.558.544 1.628 1.352"/><path d="m794.533 217.639c.07.808-.544 1.512-1.374 1.574-.828.06-1.558-.542-1.628-1.35s.544-1.512 1.374-1.574c.828-.06 1.558.544 1.628 1.35"/><path d="m802.451 211.567c.07.806-.544 1.512-1.374 1.572-.828.062-1.556-.542-1.628-1.35-.07-.806.544-1.512 1.374-1.572.828-.062 1.558.544 1.628 1.35"/><path d="m796.855 211.983c.07.806-.544 1.51-1.374 1.572-.828.062-1.556-.542-1.628-1.35-.07-.808.544-1.512 1.374-1.574.828-.06 1.558.544 1.628 1.352"/><path d="m791.258 212.397c.07.808-.544 1.512-1.374 1.574-.828.06-1.556-.542-1.628-1.35-.07-.808.544-1.512 1.374-1.574.828-.06 1.558.544 1.628 1.35"/><path d="m799.176 206.324c.072.806-.544 1.512-1.374 1.572-.828.062-1.556-.542-1.628-1.35-.07-.806.544-1.512 1.374-1.572.828-.062 1.558.544 1.628 1.35"/><path d="m793.579 206.741c.072.806-.544 1.51-1.374 1.572-.828.062-1.556-.542-1.628-1.35-.07-.808.544-1.512 1.374-1.574.828-.06 1.558.544 1.628 1.352"/><path d="m801.084 228.123c.07.808-.544 1.512-1.374 1.574-.828.06-1.558-.542-1.628-1.352-.072-.806.544-1.51 1.374-1.572.828-.06 1.556.544 1.628 1.35"/><path d="m795.488 228.539c.07.806-.544 1.512-1.374 1.574-.828.06-1.558-.542-1.628-1.352-.072-.806.544-1.512 1.374-1.572.828-.062 1.556.544 1.628 1.35"/><path d="m803.406 222.467c.07.806-.544 1.51-1.374 1.572-.828.06-1.558-.542-1.628-1.35s.544-1.512 1.374-1.574c.828-.06 1.556.544 1.628 1.352"/><path d="m797.809 222.881c.07.808-.544 1.512-1.374 1.574-.828.06-1.558-.542-1.628-1.352-.07-.806.544-1.51 1.374-1.572.828-.06 1.556.544 1.628 1.35"/><path d="m792.212 223.297c.07.806-.544 1.512-1.374 1.574-.828.06-1.558-.542-1.628-1.352-.07-.806.544-1.512 1.374-1.572.828-.062 1.556.544 1.628 1.35"/><path d="m800.13 217.225c.07.806-.544 1.51-1.374 1.572-.828.06-1.558-.542-1.628-1.35s.544-1.512 1.374-1.574c.828-.06 1.558.544 1.628 1.352"/><path d="m794.533 217.639c.07.808-.544 1.512-1.374 1.574-.828.06-1.558-.542-1.628-1.35s.544-1.512 1.374-1.574c.828-.06 1.558.544 1.628 1.35"/><path d="m801.084 228.123c.07.808-.544 1.512-1.374 1.574-.828.06-1.558-.542-1.628-1.352-.072-.806.544-1.51 1.374-1.572.828-.06 1.556.544 1.628 1.35"/><path d="m795.488 228.539c.07.806-.544 1.512-1.374 1.574-.828.06-1.558-.542-1.628-1.352-.072-.806.544-1.512 1.374-1.572.828-.062 1.556.544 1.628 1.35"/><path d="m786.075 185.356c.07.806-.544 1.512-1.374 1.572-.828.062-1.558-.542-1.628-1.35-.07-.806.544-1.512 1.374-1.572.828-.062 1.558.544 1.628 1.35"/><path d="m780.479 185.772c.07.806-.544 1.512-1.374 1.572-.828.062-1.558-.542-1.628-1.35-.07-.806.544-1.512 1.374-1.574.828-.06 1.558.544 1.628 1.352"/><path d="m788.397 179.698c.07.806-.544 1.512-1.374 1.574-.828.06-1.556-.542-1.628-1.352-.07-.806.544-1.512 1.374-1.572.828-.062 1.558.544 1.628 1.35"/><path d="m782.8 180.114c.07.806-.544 1.512-1.374 1.572-.828.062-1.556-.542-1.628-1.35-.07-.806.544-1.512 1.374-1.572.828-.062 1.558.544 1.628 1.35"/><path d="m777.203 180.53c.07.806-.544 1.512-1.374 1.572-.828.062-1.556-.542-1.628-1.35-.07-.806.544-1.512 1.374-1.572.828-.062 1.558.542 1.628 1.35"/><path d="m787.03 196.256c.07.806-.544 1.512-1.374 1.572-.828.062-1.558-.542-1.628-1.35-.072-.806.544-1.512 1.374-1.574.828-.06 1.556.544 1.628 1.352"/><path d="m781.433 196.67c.07.808-.544 1.512-1.374 1.574-.828.06-1.558-.542-1.628-1.35-.072-.808.544-1.512 1.374-1.574.828-.06 1.556.544 1.628 1.35"/><path d="m789.351 190.598c.07.806-.544 1.512-1.374 1.572-.828.062-1.558-.542-1.628-1.35-.07-.806.544-1.512 1.374-1.572.828-.062 1.556.544 1.628 1.35"/><path d="m783.754 191.014c.07.806-.544 1.512-1.374 1.572-.828.062-1.558-.542-1.628-1.35-.07-.806.544-1.512 1.374-1.574.828-.06 1.556.544 1.628 1.352"/><path d="m778.158 191.43c.07.806-.544 1.51-1.374 1.572-.828.06-1.558-.542-1.628-1.35s.544-1.512 1.374-1.574c.828-.06 1.556.544 1.628 1.352"/><path d="m786.075 185.356c.07.806-.544 1.512-1.374 1.572-.828.062-1.558-.542-1.628-1.35-.07-.806.544-1.512 1.374-1.572.828-.062 1.558.544 1.628 1.35"/><path d="m780.479 185.772c.07.806-.544 1.512-1.374 1.572-.828.062-1.558-.542-1.628-1.35-.07-.806.544-1.512 1.374-1.574.828-.06 1.558.544 1.628 1.352"/><path d="m787.983 207.155c.072.808-.544 1.512-1.374 1.574-.828.06-1.556-.542-1.628-1.35-.07-.808.544-1.512 1.374-1.574.828-.06 1.558.544 1.628 1.35"/><path d="m782.386 207.571c.072.808-.544 1.512-1.374 1.574-.828.06-1.556-.542-1.628-1.352-.07-.806.544-1.51 1.374-1.572.828-.062 1.558.544 1.628 1.35"/><path d="m790.304 201.498c.072.806-.544 1.512-1.374 1.572-.828.062-1.556-.542-1.626-1.35-.072-.806.542-1.512 1.372-1.574.828-.06 1.558.544 1.628 1.352"/><path d="m784.707 201.912c.072.808-.544 1.512-1.374 1.574-.828.06-1.556-.542-1.626-1.35-.072-.808.542-1.512 1.372-1.574.828-.06 1.558.544 1.628 1.35"/><path d="m779.111 202.328c.072.808-.544 1.512-1.374 1.574-.828.06-1.556-.542-1.626-1.352-.072-.806.542-1.51 1.372-1.572.828-.062 1.558.544 1.628 1.35"/><path d="m787.03 196.256c.07.806-.544 1.512-1.374 1.572-.828.062-1.558-.542-1.628-1.35-.072-.806.544-1.512 1.374-1.574.828-.06 1.556.544 1.628 1.352"/><path d="m781.433 196.67c.07.808-.544 1.512-1.374 1.574-.828.06-1.558-.542-1.628-1.35-.072-.808.544-1.512 1.374-1.574.828-.06 1.556.544 1.628 1.35"/><path d="m788.937 218.055c.07.806-.544 1.512-1.374 1.574-.828.06-1.558-.542-1.628-1.352-.07-.806.544-1.512 1.374-1.572.828-.062 1.558.544 1.628 1.35"/><path d="m783.34 218.471c.07.806-.544 1.512-1.374 1.572-.828.062-1.558-.542-1.628-1.35-.07-.806.544-1.512 1.374-1.572.828-.062 1.558.544 1.628 1.35"/><path d="m791.258 212.397c.07.808-.544 1.512-1.374 1.574-.828.06-1.556-.542-1.628-1.35-.07-.808.544-1.512 1.374-1.574.828-.06 1.558.544 1.628 1.35"/><path d="m785.661 212.813c.07.806-.544 1.512-1.374 1.574-.828.06-1.556-.542-1.628-1.352-.07-.806.544-1.512 1.374-1.572.828-.062 1.558.544 1.628 1.35"/><path d="m780.065 213.229c.07.806-.544 1.512-1.374 1.572-.828.062-1.556-.542-1.628-1.35-.07-.806.544-1.512 1.374-1.572.828-.062 1.558.544 1.628 1.35"/><path d="m787.983 207.155c.072.808-.544 1.512-1.374 1.574-.828.06-1.556-.542-1.628-1.35-.07-.808.544-1.512 1.374-1.574.828-.06 1.558.544 1.628 1.35"/><path d="m782.386 207.571c.072.808-.544 1.512-1.374 1.574-.828.06-1.556-.542-1.628-1.352-.07-.806.544-1.51 1.374-1.572.828-.062 1.558.544 1.628 1.35"/><path d="m789.891 228.955c.07.806-.544 1.512-1.374 1.572-.828.062-1.558-.542-1.628-1.35-.072-.806.544-1.512 1.374-1.572.828-.062 1.556.544 1.628 1.35"/><path d="m784.294 229.371c.07.806-.544 1.512-1.374 1.572-.828.062-1.558-.542-1.628-1.35-.072-.806.544-1.512 1.374-1.574.828-.06 1.556.544 1.628 1.352"/><path d="m792.212 223.297c.07.806-.544 1.512-1.374 1.574-.828.06-1.558-.542-1.628-1.352-.07-.806.544-1.512 1.374-1.572.828-.062 1.556.544 1.628 1.35"/><path d="m786.616 223.713c.07.806-.544 1.512-1.374 1.572-.828.062-1.558-.542-1.628-1.35-.07-.806.544-1.512 1.374-1.572.828-.062 1.556.544 1.628 1.35"/><path d="m781.019 224.129c.07.806-.544 1.512-1.374 1.572-.828.062-1.558-.542-1.628-1.35-.07-.806.544-1.512 1.374-1.572.828-.062 1.556.542 1.628 1.35"/><path d="m788.937 218.055c.07.806-.544 1.512-1.374 1.574-.828.06-1.558-.542-1.628-1.352-.07-.806.544-1.512 1.374-1.572.828-.062 1.558.544 1.628 1.35"/><path d="m783.34 218.471c.07.806-.544 1.512-1.374 1.572-.828.062-1.558-.542-1.628-1.35-.07-.806.544-1.512 1.374-1.572.828-.062 1.558.544 1.628 1.35"/><path d="m789.891 228.955c.07.806-.544 1.512-1.374 1.572-.828.062-1.558-.542-1.628-1.35-.072-.806.544-1.512 1.374-1.572.828-.062 1.556.544 1.628 1.35"/><path d="m784.294 229.371c.07.806-.544 1.512-1.374 1.572-.828.062-1.558-.542-1.628-1.35-.072-.806.544-1.512 1.374-1.574.828-.06 1.556.544 1.628 1.352"/><path d="m774.882 186.188c.07.806-.544 1.51-1.374 1.572-.828.06-1.558-.542-1.628-1.35s.544-1.512 1.374-1.574c.828-.06 1.558.544 1.628 1.352"/><path d="m769.285 186.602c.07.808-.544 1.512-1.374 1.574-.828.06-1.558-.542-1.628-1.352-.07-.806.544-1.51 1.374-1.572.828-.06 1.558.544 1.628 1.35"/><path d="m777.203 180.53c.07.806-.544 1.512-1.374 1.572-.828.062-1.556-.542-1.628-1.35-.07-.806.544-1.512 1.374-1.572.828-.062 1.558.542 1.628 1.35"/><path d="m771.607 180.946c.07.806-.544 1.51-1.374 1.572-.828.06-1.556-.542-1.628-1.35-.07-.808.544-1.512 1.374-1.574.828-.06 1.558.544 1.628 1.352"/><path d="m766.01 181.36c.07.808-.544 1.512-1.374 1.574-.828.06-1.556-.542-1.628-1.352-.07-.806.544-1.51 1.374-1.572.828-.06 1.558.544 1.628 1.35"/><path d="m775.836 197.086c.07.808-.544 1.512-1.374 1.574-.828.06-1.558-.542-1.628-1.352-.072-.806.544-1.51 1.374-1.572.828-.06 1.556.544 1.628 1.35"/><path d="m770.24 197.502c.07.806-.544 1.512-1.374 1.572-.828.062-1.558-.542-1.628-1.35-.072-.806.544-1.512 1.374-1.572.828-.062 1.556.544 1.628 1.35"/><path d="m778.158 191.43c.07.806-.544 1.51-1.374 1.572-.828.06-1.558-.542-1.628-1.35s.544-1.512 1.374-1.574c.828-.06 1.556.544 1.628 1.352"/><path d="m772.561 191.844c.07.808-.544 1.512-1.374 1.574-.828.06-1.558-.542-1.628-1.352-.07-.806.544-1.51 1.374-1.572.828-.06 1.556.544 1.628 1.35"/><path d="m766.964 192.26c.07.806-.544 1.512-1.374 1.572-.828.062-1.558-.54-1.628-1.35-.07-.806.544-1.512 1.374-1.572.828-.062 1.556.544 1.628 1.35"/><path d="m774.882 186.188c.07.806-.544 1.51-1.374 1.572-.828.06-1.558-.542-1.628-1.35s.544-1.512 1.374-1.574c.828-.06 1.558.544 1.628 1.352"/><path d="m769.285 186.602c.07.808-.544 1.512-1.374 1.574-.828.06-1.558-.542-1.628-1.352-.07-.806.544-1.51 1.374-1.572.828-.06 1.558.544 1.628 1.35"/><path d="m776.789 207.987c.072.806-.544 1.512-1.374 1.572-.828.062-1.556-.542-1.628-1.35-.07-.806.544-1.512 1.374-1.572.828-.062 1.558.544 1.628 1.35"/><path d="m771.193 208.403c.072.806-.544 1.512-1.374 1.572-.828.062-1.556-.542-1.628-1.35-.07-.806.544-1.512 1.374-1.572.828-.062 1.558.544 1.628 1.35"/><path d="m779.111 202.328c.072.808-.544 1.512-1.374 1.574-.828.06-1.556-.542-1.626-1.352-.072-.806.542-1.51 1.372-1.572.828-.062 1.558.544 1.628 1.35"/><path d="m773.514 202.744c.072.806-.544 1.512-1.374 1.572-.828.062-1.556-.542-1.626-1.35-.072-.806.542-1.512 1.372-1.572.828-.062 1.558.544 1.628 1.35"/><path d="m767.917 203.16c.072.806-.544 1.512-1.374 1.572-.828.062-1.556-.542-1.626-1.35-.072-.806.542-1.512 1.372-1.572.828-.062 1.558.544 1.628 1.35"/><path d="m775.836 197.086c.07.808-.544 1.512-1.374 1.574-.828.06-1.558-.542-1.628-1.352-.072-.806.544-1.51 1.374-1.572.828-.06 1.556.544 1.628 1.35"/><path d="m770.24 197.502c.07.806-.544 1.512-1.374 1.572-.828.062-1.558-.542-1.628-1.35-.072-.806.544-1.512 1.374-1.572.828-.062 1.556.544 1.628 1.35"/><path d="m777.743 218.887c.07.806-.544 1.512-1.374 1.572-.828.062-1.558-.542-1.628-1.35-.07-.806.544-1.512 1.374-1.572.828-.062 1.558.544 1.628 1.35"/><path d="m772.147 219.303c.07.806-.544 1.51-1.374 1.572-.828.06-1.558-.542-1.628-1.35s.544-1.512 1.374-1.574c.828-.06 1.558.544 1.628 1.352"/><path d="m780.065 213.229c.07.806-.544 1.512-1.374 1.572-.828.062-1.556-.542-1.628-1.35-.07-.806.544-1.512 1.374-1.572.828-.062 1.558.544 1.628 1.35"/><path d="m774.468 213.645c.07.806-.544 1.512-1.374 1.572-.828.062-1.556-.542-1.628-1.35-.07-.806.544-1.512 1.374-1.572.828-.062 1.558.544 1.628 1.35"/><path d="m768.871 214.061c.07.806-.544 1.51-1.374 1.572-.828.06-1.556-.542-1.628-1.35-.07-.808.544-1.512 1.374-1.574.828-.06 1.558.544 1.628 1.352"/><path d="m776.789 207.987c.072.806-.544 1.512-1.374 1.572-.828.062-1.556-.542-1.628-1.35-.07-.806.544-1.512 1.374-1.572.828-.062 1.558.544 1.628 1.35"/><path d="m771.193 208.403c.072.806-.544 1.512-1.374 1.572-.828.062-1.556-.542-1.628-1.35-.07-.806.544-1.512 1.374-1.572.828-.062 1.558.544 1.628 1.35"/><path d="m778.698 229.787c.07.806-.544 1.51-1.374 1.572-.828.06-1.558-.542-1.628-1.35-.072-.808.544-1.512 1.374-1.574.828-.06 1.556.544 1.628 1.352"/><path d="m773.101 230.201c.07.808-.544 1.512-1.374 1.574-.828.06-1.558-.542-1.628-1.352-.072-.806.544-1.51 1.374-1.572.828-.06 1.556.544 1.628 1.35"/><path d="m781.019 224.129c.07.806-.544 1.512-1.374 1.572-.828.062-1.558-.542-1.628-1.35-.07-.806.544-1.512 1.374-1.572.828-.062 1.556.542 1.628 1.35"/><path d="m775.422 224.545c.07.806-.544 1.51-1.374 1.572-.828.06-1.558-.542-1.628-1.35s.544-1.512 1.374-1.574c.828-.06 1.556.544 1.628 1.352"/><path d="m769.825 224.959c.07.808-.544 1.512-1.374 1.574-.828.06-1.558-.542-1.628-1.352-.07-.806.544-1.51 1.374-1.572.828-.06 1.556.544 1.628 1.35"/><path d="m777.743 218.887c.07.806-.544 1.512-1.374 1.572-.828.062-1.558-.542-1.628-1.35-.07-.806.544-1.512 1.374-1.572.828-.062 1.558.544 1.628 1.35"/><path d="m772.147 219.303c.07.806-.544 1.51-1.374 1.572-.828.06-1.558-.542-1.628-1.35s.544-1.512 1.374-1.574c.828-.06 1.558.544 1.628 1.352"/><path d="m778.698 229.787c.07.806-.544 1.51-1.374 1.572-.828.06-1.558-.542-1.628-1.35-.072-.808.544-1.512 1.374-1.574.828-.06 1.556.544 1.628 1.352"/><path d="m773.101 230.201c.07.808-.544 1.512-1.374 1.574-.828.06-1.558-.542-1.628-1.352-.072-.806.544-1.51 1.374-1.572.828-.06 1.556.544 1.628 1.35"/><path d="m763.689 187.018c.07.806-.544 1.512-1.374 1.572-.828.062-1.558-.54-1.628-1.35-.07-.806.544-1.512 1.374-1.572.828-.062 1.558.544 1.628 1.35"/><path d="m766.01 181.36c.07.808-.544 1.512-1.374 1.574-.828.06-1.556-.542-1.628-1.352-.07-.806.544-1.51 1.374-1.572.828-.06 1.558.544 1.628 1.35"/><path d="m760.413 181.776c.07.806-.544 1.512-1.374 1.574-.828.06-1.558-.542-1.628-1.352-.07-.806.544-1.512 1.374-1.572.828-.062 1.558.544 1.628 1.35"/><path d="m764.643 197.918c.07.806-.544 1.512-1.374 1.572-.828.062-1.558-.542-1.628-1.35-.072-.806.544-1.512 1.374-1.572.828-.062 1.556.544 1.628 1.35"/><path d="m766.964 192.26c.07.806-.544 1.512-1.374 1.572-.828.062-1.558-.54-1.628-1.35-.07-.806.544-1.512 1.374-1.572.828-.062 1.556.544 1.628 1.35"/><path d="m761.367 192.676c.07.806-.544 1.512-1.374 1.572-.828.062-1.558-.542-1.628-1.35-.07-.806.544-1.512 1.374-1.572.828-.062 1.556.544 1.628 1.35"/><path d="m763.689 187.018c.07.806-.544 1.512-1.374 1.572-.828.062-1.558-.54-1.628-1.35-.07-.806.544-1.512 1.374-1.572.828-.062 1.558.544 1.628 1.35"/><path d="m765.596 208.819c.07.806-.544 1.51-1.374 1.572-.828.062-1.556-.542-1.628-1.35-.07-.808.544-1.512 1.374-1.574.828-.06 1.558.544 1.628 1.352"/><path d="m759.999 209.233c.07.808-.544 1.512-1.374 1.574-.828.06-1.556-.542-1.628-1.35-.07-.808.544-1.512 1.374-1.574.828-.06 1.558.544 1.628 1.35"/><path d="m767.917 203.16c.072.806-.544 1.512-1.374 1.572-.828.062-1.556-.542-1.626-1.35-.072-.806.542-1.512 1.372-1.572.828-.062 1.558.544 1.628 1.35"/><path d="m762.321 203.576c.072.806-.544 1.512-1.374 1.572-.828.062-1.556-.542-1.626-1.35-.072-.806.542-1.512 1.372-1.574.828-.06 1.558.544 1.628 1.352"/><path d="m764.643 197.918c.07.806-.544 1.512-1.374 1.572-.828.062-1.558-.542-1.628-1.35-.072-.806.544-1.512 1.374-1.572.828-.062 1.556.544 1.628 1.35"/><path d="m766.55 219.717c.07.808-.544 1.512-1.374 1.574-.828.06-1.558-.542-1.628-1.35s.544-1.512 1.374-1.574c.828-.06 1.558.544 1.628 1.35"/><path d="m760.953 220.133c.07.806-.544 1.512-1.374 1.574-.828.06-1.558-.542-1.628-1.352-.07-.806.544-1.512 1.374-1.572.828-.062 1.558.544 1.628 1.35"/><path d="m768.871 214.061c.07.806-.544 1.51-1.374 1.572-.828.06-1.556-.542-1.628-1.35-.07-.808.544-1.512 1.374-1.574.828-.06 1.558.544 1.628 1.352"/><path d="m763.275 214.475c.07.808-.544 1.512-1.374 1.574-.828.06-1.556-.542-1.628-1.35-.07-.808.544-1.512 1.374-1.574.828-.06 1.558.544 1.628 1.35"/><path d="m765.596 208.819c.07.806-.544 1.51-1.374 1.572-.828.062-1.556-.542-1.628-1.35-.07-.808.544-1.512 1.374-1.574.828-.06 1.558.544 1.628 1.352"/><path d="m759.999 209.233c.07.808-.544 1.512-1.374 1.574-.828.06-1.556-.542-1.628-1.35-.07-.808.544-1.512 1.374-1.574.828-.06 1.558.544 1.628 1.35"/><path d="m767.504 230.617c.07.806-.544 1.512-1.374 1.574-.828.06-1.558-.542-1.628-1.352-.072-.806.544-1.512 1.374-1.572.828-.062 1.556.544 1.628 1.35"/><path d="m769.825 224.959c.07.808-.544 1.512-1.374 1.574-.828.06-1.558-.542-1.628-1.352-.07-.806.544-1.51 1.374-1.572.828-.06 1.556.544 1.628 1.35"/><path d="m764.229 225.375c.07.806-.544 1.512-1.374 1.574-.828.06-1.558-.542-1.628-1.352-.07-.806.544-1.512 1.374-1.572.828-.062 1.556.544 1.628 1.35"/><path d="m766.55 219.717c.07.808-.544 1.512-1.374 1.574-.828.06-1.558-.542-1.628-1.35s.544-1.512 1.374-1.574c.828-.06 1.558.544 1.628 1.35"/><path d="m760.953 220.133c.07.806-.544 1.512-1.374 1.574-.828.06-1.558-.542-1.628-1.352-.07-.806.544-1.512 1.374-1.572.828-.062 1.558.544 1.628 1.35"/><path d="m767.504 230.617c.07.806-.544 1.512-1.374 1.574-.828.06-1.558-.542-1.628-1.352-.072-.806.544-1.512 1.374-1.572.828-.062 1.556.544 1.628 1.35"/></g></g></svg>