<?xml version="1.0" encoding="utf-8"?>
<!-- Generator: Adobe Illustrator 26.0.2, SVG Export Plug-In . SVG Version: 6.00 Build 0)  -->
<svg version="1.1" id="Ebene_1" xmlns="http://www.w3.org/2000/svg" xmlns:xlink="http://www.w3.org/1999/xlink" x="0px" y="0px"
	 viewBox="0 0 36 36" style="enable-background:new 0 0 36 36;" xml:space="preserve">
<style type="text/css">
	.st0{fill-rule:evenodd;clip-rule:evenodd;fill:#FFFFFF;}
</style>
<path class="st0" d="M34,0H2C0.8,0,0,0.8,0,2v32c0,1,0.8,2,2,2h17.2V22h-4.6v-5.4h4.6v-4c0-4.6,2.8-7.2,7-7.2c2,0,3.6,0.2,4.2,0.2
	v4.8h-2.8c-2.2,0-2.6,1-2.6,2.6v3.4h5.4L29.6,22H25v14h9c1,0,2-0.8,2-2V2C36,0.8,35.2,0,34,0z"/>
</svg>
