<?xml version="1.0" encoding="UTF-8"?>
<svg width="214px" height="242px" viewBox="0 0 214 242" version="1.1" xmlns="http://www.w3.org/2000/svg" xmlns:xlink="http://www.w3.org/1999/xlink">
    <title>Group 30</title>
    <g id="2_Join" stroke="none" stroke-width="1" fill="none" fill-rule="evenodd">
        <g id="Joining/HOST-WALZER-Copy" transform="translate(-146.000000, -1175.000000)">
            <g id="Group-30" transform="translate(253.065996, 1296.201376) rotate(5.000000) translate(-253.065996, -1296.201376) translate(155.565996, 1183.701376)">
                <polygon id="Fill-1" fill="#82368B" points="97.1126199 -0.000308219178 0.000462328767 56.0678425 0.000462328767 168.205685 97.1126199 224.272295 194.224777 168.205685 194.224777 56.0678425"></polygon>
                <polygon id="Fill-2" fill="#FEFEFE" points="18.6927226 171.918185 97.1129281 217.194041 175.533134 171.918185"></polygon>
                <g id="Group-29" transform="translate(7.705479, 16.224658)" fill="#FEFEFE">
                    <path d="M10.2076027,108.498082 L10.2076027,58.3770205 C9.71291096,58.7715411 9.21821918,59.1676027 8.62643836,59.5636644 C7.34116438,60.3542466 4.37455479,61.7381507 0.321472603,62.4301027 L0.42010274,53.3345548 C0.914794521,53.1372945 1.70537671,53.0386644 2.79184932,52.5439726 C3.88140411,52.1494521 7.93294521,50.0735959 10.7007534,47.2071575 C11.8873973,45.9218836 12.382089,45.2283904 14.0634247,42.7580137 L21.7735274,42.7580137 L21.7735274,108.498082 L10.2076027,108.498082 Z" id="Fill-3"></path>
                    <path d="M51.629024,39.3877911 C51.629024,39.1905308 51.726113,36.5213527 51.2329623,35.0388185 C50.5410103,32.764161 48.6624144,31.9720377 46.4879281,31.9720377 C40.55625,32.0722089 41.1495719,37.5091952 41.1495719,38.8946404 L41.1495719,94.3617637 C41.1495719,95.7456678 40.9507705,100.490702 46.1920377,100.490702 C47.8718322,100.490702 48.9598459,99.9960103 49.5516267,99.6014897 C51.629024,98.1189555 51.629024,95.7456678 51.629024,93.5696404 L51.629024,39.3877911 Z M62.4043664,98.7107363 C61.8095034,101.182654 59.7351884,106.719812 52.8156678,108.695497 C51.629024,108.991387 49.6517979,109.387449 46.6851884,109.387449 C42.0387842,109.387449 37.1951199,108.695497 33.6351884,105.235736 C32.8461473,104.445154 31.5608733,102.96262 30.6701199,100.392072 C30.078339,98.513476 29.6822774,97.0309418 29.6822774,93.1751199 L29.6822774,40.6730651 C29.6822774,39.7838527 29.7809075,38.8946404 29.7809075,37.9052568 C29.9781678,34.5425856 30.4713185,31.8749486 32.5487158,29.1055993 C36.8976884,23.3727226 44.3134418,23.3727226 46.1920377,23.3727226 C56.1752568,23.3727226 60.4271404,27.9204966 62.0083048,32.170839 C62.7017979,34.0494349 62.9976884,35.7307705 62.9976884,39.6836815 L62.9976884,93.4725514 C62.9976884,95.4482363 62.8975171,96.8336815 62.4043664,98.7107363 L62.4043664,98.7107363 Z" id="Fill-5"></path>
                    <path d="M90.7765582,16.2690411 C90.7765582,16.0717808 90.8736473,13.4026027 90.3804966,11.9200685 C89.6885445,9.64541096 87.8099486,8.85328767 85.6354623,8.85328767 C79.7037842,8.9534589 80.2971062,14.3904452 80.2971062,15.7758904 L80.2971062,94.3625342 C80.2971062,95.7448973 80.0983048,100.489932 85.3395719,100.489932 C87.0193664,100.489932 88.1073801,99.9967808 88.699161,99.6007192 C90.7765582,98.1181849 90.7765582,95.7448973 90.7765582,93.570411 L90.7765582,16.2690411 Z M101.551901,98.7115068 C100.957038,101.181884 98.8827226,106.719041 91.9632021,108.694726 C90.7765582,108.992158 88.7993322,109.388219 85.8327226,109.388219 C81.1863185,109.388219 76.3426541,108.694726 72.7827226,105.234966 C71.9936815,104.445925 70.7084075,102.96339 69.8176541,100.392842 C69.2258733,98.5142466 68.8298116,97.0301712 68.8298116,93.1743493 L68.8298116,17.5543151 C68.8298116,16.6651027 68.9284418,15.7758904 68.9284418,14.7865068 C69.1257021,11.4238356 69.6188527,8.75619863 71.69625,5.98684932 C76.0452226,0.253972603 83.460976,0.253972603 85.3395719,0.253972603 C95.3227911,0.253972603 99.5746747,4.80174658 101.155839,9.05208904 C101.849332,10.9306849 102.145223,12.6120205 102.145223,16.5649315 L102.145223,93.4717808 C102.145223,95.4490068 102.045051,96.832911 101.551901,98.7115068 L101.551901,98.7115068 Z" id="Fill-7"></path>
                    <path d="M164.52339,75.0846575 C164.52339,73.6005822 164.919452,70.4367123 160.667568,70.4367123 C156.417226,70.4367123 156.714658,73.7993836 156.714658,75.1817466 L156.714658,99.007089 C156.714658,100.688425 157.010548,101.875068 158.691884,102.46839 C159.482466,102.764281 160.570479,102.764281 160.667568,102.764281 C161.16226,102.764281 162.051473,102.764281 163.040856,102.27113 C164.2275,101.577637 164.52339,100.885685 164.52339,98.5139384 L164.52339,75.0846575 Z M170.356438,105.433459 C167.291199,109.190651 162.248733,109.090479 160.963459,109.090479 C159.679726,109.090479 153.846678,109.387911 150.684349,105.137568 C150.386918,104.841678 149.793596,103.949384 149.399075,102.862911 C149.003014,101.774897 148.805753,100.489623 148.805753,98.2165068 L148.805753,75.8752397 C148.805753,73.9966438 148.904384,72.5141096 149.497705,70.7341438 C150.487089,67.7690753 153.649418,64.3092115 160.667568,64.3092115 C161.855753,64.3092115 169.564315,64.2091438 171.838973,70.2394521 C172.333664,71.4260959 172.631096,72.7113699 172.631096,75.1817466 L172.631096,98.4153082 C172.631096,101.082945 172.134863,103.258973 170.356438,105.433459 L170.356438,105.433459 Z M130.220137,112.946301 L123.893938,110.771815 L150.189658,37.8132534 L156.417226,40.087911 L130.220137,112.946301 Z M123.397705,46.774726 C123.397705,45.2921918 123.793767,42.1283219 119.543425,42.1283219 C115.293082,42.1283219 115.588973,45.4894521 115.588973,46.8733562 L115.588973,76.8630822 C115.588973,78.5444178 115.884863,79.7310616 117.566199,80.3228425 C118.356781,80.620274 119.444795,80.620274 119.543425,80.620274 C120.038116,80.620274 120.927329,80.620274 121.916712,80.1255822 C123.101815,79.4336301 123.397705,78.7416781 123.397705,76.3699315 L123.397705,46.774726 Z M129.033493,83.4867123 C125.869623,87.0466438 121.223219,86.9464726 119.740685,86.9464726 C118.455411,86.9464726 110.250616,87.2439041 108.17476,80.4230137 C107.581438,78.6430479 107.680068,76.5671918 107.680068,76.0725 L107.680068,47.5653082 C107.680068,45.6867123 107.680068,44.3028082 108.27339,42.5243836 C109.954726,37.582089 114.796849,35.9993836 119.444795,35.9993836 C120.531267,35.9993836 128.242911,35.9993836 130.614658,41.8308904 C131.209521,43.4135959 131.406781,45.2921918 131.406781,46.8733562 L131.406781,76.2713014 C131.406781,77.4564041 131.406781,80.7189041 129.033493,83.4867123 L129.033493,83.4867123 Z" id="Fill-9"></path>
                    <polygon id="Fill-11" points="15.5471918 149.895154 9.16859589 133.944812 9.16859589 149.895154 3.06431507 149.895154 3.06431507 117.256284 9.16859589 117.256284 9.16859589 129.968784 15.6858904 117.256284 21.8795548 117.256284 14.4391438 131.357312 22.0660274 149.895154"></polygon>
                    <path d="M35.9818151,125.160873 C35.9818151,124.977483 36.1235959,123.498031 35.6150342,122.52714 C35.3345548,121.924572 34.6426027,121.09238 33.1169178,121.09238 C32.7948288,121.09238 31.914863,121.140154 31.175137,121.694949 C29.8359247,122.619606 30.0193151,124.051284 30.0193151,125.392038 L30.0193151,141.897175 C30.0193151,142.868065 29.9746233,144.07012 30.5725685,144.902312 C31.2676027,145.871661 32.7455137,145.871661 33.022911,145.871661 C33.3033904,145.871661 34.1787329,145.826969 34.92,145.318408 C36.029589,144.532449 35.9818151,143.237928 35.9818151,142.035873 L35.9818151,125.160873 Z M40.1443151,148.41601 C38.2025342,150.219092 35.5657192,150.588955 33.0706849,150.588955 C30.6665753,150.588955 28.2162329,150.265325 26.2744521,148.693408 C25.3020205,147.907449 24.8412329,147.12149 24.6547603,146.659161 C24.1015068,145.503339 23.9628082,144.116353 23.9628082,142.914298 L23.9628082,124.60762 C23.9628082,123.912586 23.8241096,120.631592 25.9970548,118.689812 C27.1991096,117.624914 29.4645205,116.563099 33.1169178,116.563099 C37.8326712,116.563099 40.3277055,118.50488 41.300137,120.398887 C41.8086986,121.463784 42.0414041,122.480908 42.0414041,124.744777 L42.0414041,142.914298 C42.0414041,144.994777 41.7162329,146.890325 40.1443151,148.41601 L40.1443151,148.41601 Z" id="Fill-13"></path>
                    <path d="M63.3542979,145.595497 C62.6145719,148.230771 60.4400856,150.588647 54.8936815,150.588647 C52.5820377,150.588647 50.1316952,150.265017 48.1899144,148.739332 C47.1250171,147.90714 46.7089212,147.028716 46.4777568,146.521695 C46.110976,145.595497 45.8304966,144.994469 45.8304966,143.145154 L45.8304966,138.383168 L51.7960788,138.383168 L51.7960788,142.174264 C51.7960788,143.37786 51.7020719,144.763305 52.8578938,145.503031 C53.2292979,145.734195 53.7825514,145.96536 54.7072089,145.96536 C55.7721062,145.96536 56.3715925,145.734195 56.7892295,145.365873 C57.666113,144.670839 57.666113,143.239161 57.666113,141.018442 C57.666113,140.603887 57.7585788,139.124435 57.0188527,138.013305 C56.5580651,137.321353 55.8630308,136.903716 55.6334075,136.718784 L49.9452226,132.881455 C48.698476,132.050805 48.0512158,131.542243 47.2174829,130.20149 C46.5255308,129.045668 46.061661,127.795839 46.061661,125.021866 C46.061661,124.561079 46.0169692,122.249435 46.8476199,120.538818 C48.698476,116.562791 54.291113,116.562791 54.9383733,116.562791 C55.9108048,116.562791 61.1335788,116.562791 62.8457363,120.862449 C63.1678253,121.69464 63.3542979,122.018271 63.3542979,123.590188 L63.3542979,126.824949 L57.344024,126.824949 L57.344024,123.497723 C57.344024,122.526832 56.9726199,121.139846 54.660976,121.139846 C53.2739897,121.139846 51.9794692,121.648408 51.9794692,124.374606 C51.9794692,124.513305 51.8870034,126.456627 52.6267295,127.519983 C52.8132021,127.795839 53.2292979,128.119469 53.8765582,128.583339 L59.7003596,132.604058 C60.1149144,132.881455 61.4125171,133.853887 62.3818664,135.148408 C63.8150856,137.042414 63.676387,138.475634 63.676387,140.787277 C63.676387,143.283853 63.676387,144.347209 63.3542979,145.595497" id="Fill-15"></path>
                    <path d="M74.5875,150.126935 C71.4005137,150.126935 69.7361301,149.433442 69.0395548,147.907757 C68.625,147.075565 68.5803082,146.104675 68.5803082,145.180017 L68.5803082,129.876935 L65.572089,129.876935 L65.572089,126.224538 L68.5309932,126.224538 L68.5309932,117.625223 L73.9880137,117.625223 L73.9880137,126.224538 L77.2690068,126.224538 L77.2690068,129.876935 L73.9880137,129.876935 L73.9880137,143.376935 C73.9880137,144.116661 73.9880137,144.301592 74.1267123,144.671455 C74.4488014,145.781045 75.5152397,145.965976 76.4830479,145.965976 C76.8082192,145.965976 77.0856164,145.919743 77.4077055,145.871969 L77.4077055,149.847997 C76.8082192,149.986695 76.0207192,150.126935 74.5875,150.126935" id="Fill-17"></path>
                    <polygon id="Fill-19" points="80.0896747 149.895154 80.0896747 117.256284 95.9013185 117.256284 95.9013185 122.201661 86.0999486 122.201661 86.0999486 129.87786 95.346524 129.87786 95.346524 134.824777 86.0999486 134.824777 86.0999486 144.855771 96.3651884 144.855771 96.3651884 149.895154"></polygon>
                    <polygon id="Fill-21" points="110.279435 149.895154 104.500325 125.439503 105.008887 149.895154 99.368476 149.895154 99.368476 117.256284 107.089366 117.256284 112.960942 141.203373 112.359914 117.256284 117.861627 117.256284 117.861627 149.895154"></polygon>
                    <polygon id="Fill-23" points="122.48476 149.895154 122.48476 117.256284 128.495034 117.256284 128.495034 144.948236 137.327055 144.948236 137.327055 149.895154"></polygon>
                    <path d="M151.564007,125.160873 C151.564007,124.977483 151.705788,123.498031 151.197226,122.52714 C150.916747,121.924572 150.224795,121.09238 148.69911,121.09238 C148.377021,121.09238 147.497055,121.140154 146.757329,121.694949 C145.418116,122.619606 145.601507,124.051284 145.601507,125.392038 L145.601507,141.897175 C145.601507,142.868065 145.556815,144.07012 146.15476,144.902312 C146.849795,145.871661 148.327705,145.871661 148.605103,145.871661 C148.885582,145.871661 149.760925,145.826969 150.502192,145.318408 C151.611781,144.532449 151.564007,143.237928 151.564007,142.035873 L151.564007,125.160873 Z M155.726507,148.41601 C153.784726,150.219092 151.147911,150.588955 148.652877,150.588955 C146.248767,150.588955 143.798425,150.265325 141.856644,148.693408 C140.884212,147.907449 140.423425,147.12149 140.236952,146.659161 C139.683699,145.503339 139.545,144.116353 139.545,142.914298 L139.545,124.60762 C139.545,123.912586 139.406301,120.631592 141.579247,118.689812 C142.781301,117.624914 145.046712,116.563099 148.69911,116.563099 C153.414863,116.563099 155.909897,118.50488 156.882329,120.398887 C157.39089,121.463784 157.623596,122.480908 157.623596,124.744777 L157.623596,142.914298 C157.623596,144.994777 157.298425,146.890325 155.726507,148.41601 L155.726507,148.41601 Z" id="Fill-25"></path>
                    <path d="M178.93649,145.595497 C178.196764,148.230771 176.022277,150.588647 170.475873,150.588647 C168.164229,150.588647 165.713887,150.265017 163.772106,148.739332 C162.707209,147.90714 162.291113,147.028716 162.059949,146.521695 C161.693168,145.595497 161.412688,144.994469 161.412688,143.145154 L161.412688,138.383168 L167.378271,138.383168 L167.378271,142.174264 C167.378271,143.37786 167.284264,144.763305 168.440086,145.503031 C168.81149,145.734195 169.364743,145.96536 170.289401,145.96536 C171.354298,145.96536 171.953784,145.734195 172.371421,145.365873 C173.248305,144.670839 173.248305,143.239161 173.248305,141.018442 C173.248305,140.603887 173.340771,139.124435 172.601045,138.013305 C172.140257,137.321353 171.445223,136.903716 171.215599,136.718784 L165.527414,132.881455 C164.280668,132.050805 163.633408,131.542243 162.799675,130.20149 C162.107723,129.045668 161.643853,127.795839 161.643853,125.021866 C161.643853,124.561079 161.599161,122.249435 162.429812,120.538818 C164.280668,116.562791 169.873305,116.562791 170.520565,116.562791 C171.492997,116.562791 176.715771,116.562791 178.427928,120.862449 C178.750017,121.69464 178.93649,122.018271 178.93649,123.590188 L178.93649,126.824949 L172.926216,126.824949 L172.926216,123.497723 C172.926216,122.526832 172.554812,121.139846 170.243168,121.139846 C168.856182,121.139846 167.561661,121.648408 167.561661,124.374606 C167.561661,124.513305 167.469195,126.456627 168.208921,127.519983 C168.395394,127.795839 168.81149,128.119469 169.45875,128.583339 L175.282551,132.604058 C175.697106,132.881455 176.994709,133.853887 177.964058,135.148408 C179.397277,137.042414 179.258579,138.475634 179.258579,140.787277 C179.258579,143.283853 179.258579,144.347209 178.93649,145.595497" id="Fill-27"></path>
                </g>
            </g>
        </g>
    </g>
</svg>