<svg height="51" viewBox="0 0 66 51" width="66" xmlns="http://www.w3.org/2000/svg"><g fill="none" fill-rule="evenodd" stroke="#1d1d1b" transform="translate(1.5 2.540604)"><path d="m39.5567275 8.704165h-22.6493v29.9489875c0 4.5877875-3.718875 8.3066625-8.3066625 8.3066625s-8.30725-3.718875-8.30725-8.3066625h16.6139125" stroke-width="3"/><path d="m8.49143125 46.9598738h36.49315005c4.5877875 0 8.30725-3.718875 8.30725-8.30725l.0135124-16.75315" stroke-width="3"/><path d="m49.960765.06832625 1.523975 2.16435 2.08445-1.632075.7807875 2.5291875 2.4863-.908275-.038775 2.6466875 2.644925-.0957625-.8548125 2.5056875 2.5456375.72615-1.587425 2.11852505 2.196075 1.4775625-2.16435 1.5245625 1.6326625 2.0838625-2.529775.7807875.9088625 2.4863-2.647275-.038775.0957625 2.6455125-2.5051-.8554-.7267375 2.5456375-2.118525-1.587425-1.4775625 2.1966625-1.523975-2.16435-2.08445 1.632075-.7807875-2.5291875-2.4863.908275.0393625-2.6466875-2.6455125.0951749.8548125-2.5050999-2.5456375-.7267375 1.587425-2.1179375-2.196075-1.47815 2.16435-1.523975-1.6326625-2.08386255 2.529775-.7807875-.9088625-2.4868875 2.647275.0393625-.0957625-2.6455125 2.5051.8548125.7267375-2.54505 2.118525 1.587425z" stroke-width="2.4"/></g></svg>