<?xml version="1.0" encoding="UTF-8"?>
<svg width="55px" height="41px" viewBox="0 0 55 41" version="1.1" xmlns="http://www.w3.org/2000/svg" xmlns:xlink="http://www.w3.org/1999/xlink">
    <title>Group 15</title>
    <g id="3_how-it-works" stroke="none" stroke-width="1" fill="none" fill-rule="evenodd">
        <g id="how_it_works/HOST-WALZER" transform="translate(-100.000000, -698.000000)">
            <g id="Group-15" transform="translate(101.658323, 700.000000)">
                <path d="M7.94579118,37 L43.3188841,37 C47.765862,37 51.3711658,33.4026199 51.3711658,28.9654156 L51.3842636,-1.13686838e-13 L16.103994,-1.13686838e-13 L16.103994,28.9654156 C16.103994,33.4026199 12.4986902,37 8.05171229,37 C3.60473434,37 1.3500312e-13,33.4026199 1.3500312e-13,28.9654156 L16.103994,28.9654156" id="Stroke-1" stroke="#1D1D1B" stroke-width="3"></path>
                <path d="M21.8249295,6.07821426 C21.8249295,6.86689907 21.1842777,7.50557467 20.3944252,7.50557467 C19.6051421,7.50557467 18.9644903,6.86689907 18.9644903,6.07821426 C18.9644903,5.29009767 19.6051421,4.65085386 20.3944252,4.65085386 C21.1842777,4.65085386 21.8249295,5.29009767 21.8249295,6.07821426" id="Fill-15" fill="#1D1D1B"></path>
                <path d="M21.8249295,13.8218149 C21.8249295,14.6104997 21.1842777,15.2491753 20.3944252,15.2491753 C19.6051421,15.2491753 18.9644903,14.6104997 18.9644903,13.8218149 C18.9644903,13.0336983 19.6051421,12.3944545 20.3944252,12.3944545 C21.1842777,12.3944545 21.8249295,13.0336983 21.8249295,13.8218149" id="Fill-17" fill="#1D1D1B"></path>
                <path d="M21.8249295,21.8034984 C21.8249295,22.591615 21.1842777,23.2308588 20.3944252,23.2308588 C19.6051421,23.2308588 18.9644903,22.591615 18.9644903,21.8034984 C18.9644903,21.0148136 19.6051421,20.376138 20.3944252,20.376138 C21.1842777,20.376138 21.8249295,21.0148136 21.8249295,21.8034984" id="Fill-19" fill="#1D1D1B"></path>
                <line x1="23.7321358" y1="6.02548375" x2="45.9806928" y2="6.02548375" id="Stroke-3" stroke="#1D1D1B" stroke-width="2"></line>
                <line x1="23.7321358" y1="9.19675809" x2="40.5775776" y2="9.19675809" id="Stroke-5" stroke="#1D1D1B" stroke-width="2"></line>
                <line x1="23.7321358" y1="13.9539253" x2="43.1202535" y2="13.9539253" id="Stroke-7" stroke="#1D1D1B" stroke-width="2"></line>
                <line x1="23.7321358" y1="17.125711" x2="38.1937833" y2="17.125711" id="Stroke-9" stroke="#1D1D1B" stroke-width="2"></line>
                <line x1="23.7321358" y1="21.7241753" x2="46.4579072" y2="21.7241753" id="Stroke-11" stroke="#1D1D1B" stroke-width="2"></line>
                <line x1="23.7321358" y1="24.8953928" x2="40.5775776" y2="24.8953928" id="Stroke-13" stroke="#1D1D1B" stroke-width="2"></line>
            </g>
        </g>
    </g>
</svg>