<?xml version="1.0" encoding="UTF-8"?>
<svg width="33px" height="63px" viewBox="0 0 33 63" version="1.1" xmlns="http://www.w3.org/2000/svg" xmlns:xlink="http://www.w3.org/1999/xlink">
    <title>Group 5</title>
    <g id="3_how-it-works" stroke="none" stroke-width="1" fill="none" fill-rule="evenodd">
        <g id="how_it_works/HOST-WALZER" transform="translate(-112.000000, -249.000000)" stroke-width="3">
            <g id="Group-5" transform="translate(113.583700, 250.406785)">
                <path d="M29.7788698,23.9638786 L29.7788698,53.3238786 L0.35386978,53.3238786 L0.35386978,23.9638786 L5.68086978,23.9618786 C8.13586978,26.2568786 11.4368698,27.6618786 15.0668698,27.6618786 C18.6958698,27.6618786 21.9968698,26.2568786 24.4528698,23.9618786 L29.7788698,23.9638786 Z" id="Stroke-1" stroke="#1D1D1C"></path>
                <polyline id="Stroke-8" stroke="#1D1D1B" points="24.7434094 29.7911737 11.501004 43.0044749 5.3893302 36.9062334"></polyline>
                <line x1="9.7044467" y1="52.8238786" x2="9.7044467" y2="60.2985057" id="Stroke-6" stroke="#1D1D1B"></line>
                <line x1="20.9583526" y1="52.8238786" x2="20.9583526" y2="60.2985057" id="Stroke-7" stroke="#1D1D1B"></line>
                <path d="M28.8014624,13.7978536 C28.8014624,21.3669071 22.6518279,27.5024924 15.0666371,27.5024924 C7.48091167,27.5024924 1.33127719,21.3669071 1.33127719,13.7978536 C1.33127719,6.22880007 7.48091167,0.0932147563 15.0666371,0.0932147563 C22.6518279,0.0932147563 28.8014624,6.22880007 28.8014624,13.7978536 Z" id="Stroke-5" stroke="#1D1D1B"></path>
            </g>
        </g>
    </g>
</svg>