<?xml version="1.0" encoding="UTF-8"?>
<svg width="63px" height="63px" viewBox="0 0 63 63" version="1.1" xmlns="http://www.w3.org/2000/svg" xmlns:xlink="http://www.w3.org/1999/xlink">
    <title>Bild 2</title>
    <g id="3_how-it-works" stroke="none" stroke-width="1" fill="none" fill-rule="evenodd">
        <g id="how_it_works/HOST-WALZER" transform="translate(-97.000000, -432.000000)" stroke-width="3">
            <g id="Bild-2" transform="translate(99.066263, 434.000000)">
                <path d="M57.9678169,13.8111753 C57.9678169,21.3802289 51.8187171,27.5158142 44.2329917,27.5158142 C36.6472662,27.5158142 30.4981664,21.3802289 30.4981664,13.8111753 C30.4981664,6.24212183 36.6472662,0.107069992 44.2329917,0.107069992 C51.8187171,0.107069992 57.9678169,6.24212183 57.9678169,13.8111753 Z" id="Stroke-5" stroke="#1D1D1B"></path>
                <line x1="38.8710686" y1="52.8372003" x2="38.8710686" y2="60.3118274" id="Stroke-6" stroke="#1D1D1B"></line>
                <line x1="50.1249745" y1="52.8372003" x2="50.1249745" y2="60.3118274" id="Stroke-7" stroke="#1D1D1B"></line>
                <path d="M29.5838074,23.8706638 L29.5838074,53.2306638 L0.158807372,53.2306638 L0.158807372,23.8706638 L5.48580737,23.8686638 C7.94080737,26.1636638 11.2418074,27.5686638 14.8718074,27.5686638 C18.5008074,27.5686638 21.8018074,26.1636638 24.2578074,23.8686638 L29.5838074,23.8706638 Z" id="Stroke-1-Copy" stroke="#1D1D1C"></path>
                <path d="M59.0838074,23.8706638 L59.0838074,53.2306638 L29.6588074,53.2306638 L29.6588074,23.8706638 L34.9858074,23.8686638 C37.4408074,26.1636638 40.7418074,27.5686638 44.3718074,27.5686638 C48.0008074,27.5686638 51.3018074,26.1636638 53.7578074,23.8686638 L59.0838074,23.8706638 Z" id="Stroke-1-Copy" stroke="#1D1D1C"></path>
                <path d="M28.5546317,13.8111753 C28.5546317,21.3802289 22.4049972,27.5158142 14.8198064,27.5158142 C7.23408098,27.5158142 1.0844465,21.3802289 1.0844465,13.8111753 C1.0844465,6.24212183 7.23408098,0.106536509 14.8198064,0.106536509 C22.4049972,0.106536509 28.5546317,6.24212183 28.5546317,13.8111753 Z" id="Stroke-11" stroke="#1D1D1B"></path>
                <line x1="9.45756254" y1="52.8372003" x2="9.45756254" y2="60.3118274" id="Stroke-12" stroke="#1D1D1B"></line>
                <line x1="20.7114685" y1="52.8372003" x2="20.7114685" y2="60.3118274" id="Stroke-13" stroke="#1D1D1B"></line>
            </g>
        </g>
    </g>
</svg>