<?xml version="1.0" encoding="UTF-8"?>
<svg width="397px" height="169px" viewBox="0 0 397 169" version="1.1" xmlns="http://www.w3.org/2000/svg" xmlns:xlink="http://www.w3.org/1999/xlink">
    <title>Group 34</title>
    <defs>
        <polygon id="path-1" points="0 0.79328169 384.64893 0.79328169 384.64893 126.183099 0 126.183099"></polygon>
    </defs>
    <g id="2_Join" stroke="none" stroke-width="1" fill="none" fill-rule="evenodd">
        <g id="Joining/HOST-WALZER-Copy" transform="translate(-545.000000, -2431.000000)">
            <g id="Group-34" transform="translate(743.500000, 2515.727713) rotate(6.000000) translate(-743.500000, -2515.727713) translate(551.000000, 2451.727713)">
                <g id="Group-3" transform="translate(0.000000, 0.024165)">
                    <mask id="mask-2" fill="white">
                        <use xlink:href="#path-1"></use>
                    </mask>
                    <g id="Clip-2"></g>
                    <path d="M0,63.4880085 L0,63.4880085 C0,28.8615014 28.0693099,0.792191549 62.6958169,0.792191549 L321.953113,0.792191549 C356.57962,0.792191549 384.64893,28.8615014 384.64893,63.4880085 L384.64893,63.4880085 C384.64893,98.1126986 356.57962,126.183825 321.953113,126.183825 L62.6958169,126.183825 C28.0693099,126.183825 0,98.1126986 0,63.4880085" id="Fill-1" fill="#28348A" mask="url(#mask-2)"></path>
                </g>
                <path d="M48.5912113,58.2298958 C46.9232958,71.1426141 40.9384225,81.0120225 35.2260845,80.2743606 C29.5137465,79.5366986 26.2360563,68.4699521 27.9039718,55.5572338 C29.5718873,42.6445155 35.5549437,32.775107 41.2690986,33.512769 C46.9814366,34.250431 50.2591268,45.3171775 48.5912113,58.2298958 Z" id="Stroke-4" stroke="#FEFEFE" stroke-width="1.961"></path>
                <path d="M41.2683718,33.5124056 L87.2795831,46.4378423 C91.3149211,46.959293 93.6296535,54.7756028 92.4523014,63.8964479 C91.2731324,73.017293 87.0470197,79.9887437 83.0116817,79.4691099 L35.2271746,80.2739972" id="Stroke-6" stroke="#FEFEFE" stroke-width="1.961"></path>
                <path d="M291.412454,48.2033254 C292.57527,39.1442549 296.85589,32.2291282 300.974806,32.7578465 C305.093721,33.2865648 307.490214,41.0574521 306.327397,50.1165225 C305.16458,59.175593 300.882144,66.0907197 296.763228,65.5620014 C292.64613,65.0332831 290.249637,57.2623958 291.412454,48.2033254 Z" id="Stroke-8" stroke="#FEFEFE" stroke-width="1.904"></path>
                <path d="M342.749185,78.6071718 L296.747058,65.7144394 C292.713537,65.1966225 290.39517,57.3675944 291.567072,48.2285803 C292.74079,39.0895662 296.961452,32.0999465 300.99679,32.6177634 L348.763128,31.7529183 C354.475466,32.4851296 357.758607,43.5682282 356.097959,56.5063831 C354.435494,69.444538 348.459706,79.3393831 342.749185,78.6071718 Z" id="Stroke-10" stroke="#FEFEFE" stroke-width="1.961"></path>
                <path d="M93.7310366,64.4714972 C154.212051,73.7231592 214.729403,48.9660606 298.86829,49.160469" id="Stroke-12" stroke="#FEFEFE" stroke-width="1.961" stroke-linecap="round"></path>
            </g>
        </g>
    </g>
</svg>