<?xml version="1.0" encoding="UTF-8"?>
<svg width="104px" height="114px" viewBox="0 0 104 114" version="1.1" xmlns="http://www.w3.org/2000/svg" xmlns:xlink="http://www.w3.org/1999/xlink">
    <title>Group 456</title>
    <defs>
        <path d="M0.464,3.809 L2.957,3.809 L2.957,0.229 C2.111,0.229 1.281,0.169 0.464,0.057 L0.464,0.057" id="path-1"></path>
        <path d="M0.464,3.809 L2.957,3.809 L2.957,0.229 C2.111,0.229 1.281,0.169 0.464,0.057 L0.464,0.057" id="path-3"></path>
        <path d="M0.464,3.809 L2.957,3.809 L2.957,0.229 C2.111,0.229 1.281,0.169 0.464,0.057 L0.464,0.057" id="path-5"></path>
        <path d="M0.464,3.809 L2.957,3.809 L2.957,0.229 C2.111,0.229 1.281,0.169 0.464,0.057 L0.464,0.057" id="path-7"></path>
        <polygon id="path-9" points="0.4418 0.7328 1.957 0.7328 1.957 1.738 0.4418 1.738"></polygon>
        <polygon id="path-11" points="0.464 0.7682 1.4685 0.7682 1.4685 2.7782 0.464 2.7782"></polygon>
        <polygon id="path-13" points="0.4418 0.809 1.957 0.809 1.957 1.8136 0.4418 1.8136"></polygon>
        <polygon id="path-15" points="0.4418 0.662 1.957 0.662 1.957 1.667 0.4418 1.667"></polygon>
        <polygon id="path-17" points="0.464 0.6974 1.4685 0.6974 1.4685 2.7074 0.464 2.7074"></polygon>
        <polygon id="path-19" points="0.4418 0.738 1.957 0.738 1.957 1.7428 0.4418 1.7428"></polygon>
        <path d="M0.464,0.667 L0.464,3.59 C1.258,3.683 2.087,3.738 2.957,3.752 L2.957,3.752 L2.957,0.667" id="path-21"></path>
        <path d="M0.464,0.667 L0.464,3.59 C1.258,3.683 2.087,3.738 2.957,3.752 L2.957,3.752 L2.957,0.667" id="path-23"></path>
        <path d="M0.464,0.667 L0.464,3.59 C1.258,3.683 2.087,3.738 2.957,3.752 L2.957,3.752 L2.957,0.667" id="path-25"></path>
        <path d="M0.464,0.667 L0.464,3.59 C1.258,3.683 2.087,3.738 2.957,3.752 L2.957,3.752 L2.957,0.667" id="path-27"></path>
        <path d="M0.535,6.809 L8.464,6.809 L8.464,3.057 C5.7,2.679 3.087,1.71 0.535,0.495 L0.535,0.495" id="path-29"></path>
        <path d="M0.535,6.809 L8.464,6.809 L8.464,3.057 C5.7,2.679 3.087,1.71 0.535,0.495 L0.535,0.495" id="path-31"></path>
        <path d="M0.535,6.809 L8.464,6.809 L8.464,3.057 C5.7,2.679 3.087,1.71 0.535,0.495 L0.535,0.495" id="path-33"></path>
        <path d="M0.535,6.809 L8.464,6.809 L8.464,3.057 C5.7,2.679 3.087,1.71 0.535,0.495 L0.535,0.495" id="path-35"></path>
        <path d="M0.535,6.809 L8.464,6.809 L8.464,3.057 C5.7,2.679 3.087,1.71 0.535,0.495 L0.535,0.495" id="path-37"></path>
        <path d="M0.535,6.809 L8.464,6.809 L8.464,3.057 C5.7,2.679 3.087,1.71 0.535,0.495 L0.535,0.495" id="path-39"></path>
        <path d="M0.535,6.809 L8.464,6.809 L8.464,3.057 C5.7,2.679 3.087,1.71 0.535,0.495 L0.535,0.495" id="path-41"></path>
        <polygon id="path-43" points="0.4772 0.7328 2.4862 0.7328 2.4862 1.738 0.4772 1.738"></polygon>
        <polygon id="path-45" points="0.5126 0.7328 2.5216 0.7328 2.5216 1.738 0.5126 1.738"></polygon>
        <polygon id="path-47" points="0.4595 0.7682 1.464 0.7682 1.464 2.7782 0.4595 2.7782"></polygon>
        <polygon id="path-49" points="0.535 0.7682 1.5393 0.7682 1.5393 2.7782 0.535 2.7782"></polygon>
        <polygon id="path-51" points="0.4772 0.809 2.4862 0.809 2.4862 1.8136 0.4772 1.8136"></polygon>
        <polygon id="path-53" points="0.5126 0.809 2.5216 0.809 2.5216 1.8136 0.5126 1.8136"></polygon>
        <polygon id="path-55" points="0.4772 0.662 2.4862 0.662 2.4862 1.667 0.4772 1.667"></polygon>
        <polygon id="path-57" points="0.5126 0.662 2.5216 0.662 2.5216 1.667 0.5126 1.667"></polygon>
        <polygon id="path-59" points="0.4595 0.6974 1.464 0.6974 1.464 2.7074 0.4595 2.7074"></polygon>
        <polygon id="path-61" points="0.535 0.6974 1.5393 0.6974 1.5393 2.7074 0.535 2.7074"></polygon>
        <polygon id="path-63" points="0.4772 0.738 2.4862 0.738 2.4862 1.7428 0.4772 1.7428"></polygon>
        <polygon id="path-65" points="0.5126 0.738 2.5216 0.738 2.5216 1.7428 0.5126 1.7428"></polygon>
        <path d="M0.535,0.667 L0.535,1.195 C2.877,2.336 5.414,3.235 8.464,3.59 L8.464,3.59 L8.464,0.667" id="path-67"></path>
        <path d="M0.535,0.667 L0.535,1.195 C2.877,2.336 5.414,3.235 8.464,3.59 L8.464,3.59 L8.464,0.667" id="path-69"></path>
        <path d="M0.535,0.667 L0.535,1.195 C2.877,2.336 5.414,3.235 8.464,3.59 L8.464,3.59 L8.464,0.667" id="path-71"></path>
        <path d="M0.535,0.667 L0.535,1.195 C2.877,2.336 5.414,3.235 8.464,3.59 L8.464,3.59 L8.464,0.667" id="path-73"></path>
        <path d="M0.535,0.667 L0.535,1.195 C2.877,2.336 5.414,3.235 8.464,3.59 L8.464,3.59 L8.464,0.667" id="path-75"></path>
        <path d="M0.535,0.667 L0.535,1.195 C2.877,2.336 5.414,3.235 8.464,3.59 L8.464,3.59 L8.464,0.667" id="path-77"></path>
        <path d="M0.535,0.667 L0.535,1.195 C2.877,2.336 5.414,3.235 8.464,3.59 L8.464,3.59 L8.464,0.667" id="path-79"></path>
        <path d="M0.606,2.879 L5.384,2.879 C3.79,2.017 2.205,1.112 0.606,0.252 L0.606,0.252" id="path-81"></path>
        <path d="M0.606,2.879 L5.384,2.879 C3.79,2.017 2.205,1.112 0.606,0.252 L0.606,0.252" id="path-83"></path>
        <path d="M0.606,2.879 L5.384,2.879 C3.79,2.017 2.205,1.112 0.606,0.252 L0.606,0.252" id="path-85"></path>
        <path d="M0.606,2.879 L5.384,2.879 C3.79,2.017 2.205,1.112 0.606,0.252 L0.606,0.252" id="path-87"></path>
        <path d="M0.606,2.879 L5.384,2.879 C3.79,2.017 2.205,1.112 0.606,0.252 L0.606,0.252" id="path-89"></path>
        <path d="M0.606,2.879 L5.384,2.879 C3.79,2.017 2.205,1.112 0.606,0.252 L0.606,0.252" id="path-91"></path>
        <path d="M0.606,2.879 L5.384,2.879 C3.79,2.017 2.205,1.112 0.606,0.252 L0.606,0.252" id="path-93"></path>
        <path d="M0.606,0.879 L0.606,8.809 L8.535,8.809 L8.535,2.495 C7.476,1.99 6.428,1.444 5.384,0.879 L5.384,0.879" id="path-95"></path>
        <path d="M0.606,0.879 L0.606,8.809 L8.535,8.809 L8.535,2.495 C7.476,1.99 6.428,1.444 5.384,0.879 L5.384,0.879" id="path-97"></path>
        <path d="M0.606,0.879 L0.606,8.809 L8.535,8.809 L8.535,2.495 C7.476,1.99 6.428,1.444 5.384,0.879 L5.384,0.879" id="path-99"></path>
        <path d="M0.606,0.879 L0.606,8.809 L8.535,8.809 L8.535,2.495 C7.476,1.99 6.428,1.444 5.384,0.879 L5.384,0.879" id="path-101"></path>
        <path d="M0.606,0.879 L0.606,8.809 L8.535,8.809 L8.535,2.495 C7.476,1.99 6.428,1.444 5.384,0.879 L5.384,0.879" id="path-103"></path>
        <path d="M0.606,0.879 L0.606,8.809 L8.535,8.809 L8.535,2.495 C7.476,1.99 6.428,1.444 5.384,0.879 L5.384,0.879" id="path-105"></path>
        <path d="M0.606,0.879 L0.606,8.809 L8.535,8.809 L8.535,2.495 C7.476,1.99 6.428,1.444 5.384,0.879 L5.384,0.879" id="path-107"></path>
        <polygon id="path-109" points="0.548 0.7328 2.557 0.7328 2.557 1.738 0.548 1.738"></polygon>
        <polygon id="path-111" points="0.5834 0.7328 2.5924 0.7328 2.5924 1.738 0.5834 1.738"></polygon>
        <polygon id="path-113" points="0.5303 0.7682 1.535 0.7682 1.535 2.7782 0.5303 2.7782"></polygon>
        <polygon id="path-115" points="0.606 0.7682 1.6101 0.7682 1.6101 2.7782 0.606 2.7782"></polygon>
        <polygon id="path-117" points="0.548 0.809 2.557 0.809 2.557 1.8136 0.548 1.8136"></polygon>
        <polygon id="path-119" points="0.5834 0.809 2.5924 0.809 2.5924 1.8136 0.5834 1.8136"></polygon>
        <path d="M0.606,0.738 L0.606,4.672 C2.972,5.996 5.156,7.434 7.494,8.667 L7.494,8.667 L8.535,8.667 L8.535,0.738" id="path-121"></path>
        <path d="M0.606,0.738 L0.606,4.672 C2.972,5.996 5.156,7.434 7.494,8.667 L7.494,8.667 L8.535,8.667 L8.535,0.738" id="path-123"></path>
        <path d="M0.606,0.738 L0.606,4.672 C2.972,5.996 5.156,7.434 7.494,8.667 L7.494,8.667 L8.535,8.667 L8.535,0.738" id="path-125"></path>
        <path d="M0.606,0.738 L0.606,4.672 C2.972,5.996 5.156,7.434 7.494,8.667 L7.494,8.667 L8.535,8.667 L8.535,0.738" id="path-127"></path>
        <path d="M0.606,0.738 L0.606,4.672 C2.972,5.996 5.156,7.434 7.494,8.667 L7.494,8.667 L8.535,8.667 L8.535,0.738" id="path-129"></path>
        <path d="M0.606,0.738 L0.606,4.672 C2.972,5.996 5.156,7.434 7.494,8.667 L7.494,8.667 L8.535,8.667 L8.535,0.738" id="path-131"></path>
        <path d="M0.606,0.738 L0.606,4.672 C2.972,5.996 5.156,7.434 7.494,8.667 L7.494,8.667 L8.535,8.667 L8.535,0.738" id="path-133"></path>
        <path d="M0.494,0.667 C0.837,0.848 1.184,1.024 1.535,1.195 L1.535,1.195 L1.535,0.667" id="path-135"></path>
        <path d="M0.494,0.667 C0.837,0.848 1.184,1.024 1.535,1.195 L1.535,1.195 L1.535,0.667" id="path-137"></path>
        <path d="M0.494,0.667 C0.837,0.848 1.184,1.024 1.535,1.195 L1.535,1.195 L1.535,0.667" id="path-139"></path>
        <path d="M0.494,0.667 C0.837,0.848 1.184,1.024 1.535,1.195 L1.535,1.195 L1.535,0.667" id="path-141"></path>
        <path d="M0.494,0.667 C0.837,0.848 1.184,1.024 1.535,1.195 L1.535,1.195 L1.535,0.667" id="path-143"></path>
        <path d="M0.494,0.667 C0.837,0.848 1.184,1.024 1.535,1.195 L1.535,1.195 L1.535,0.667" id="path-145"></path>
        <path d="M0.494,0.667 C0.837,0.848 1.184,1.024 1.535,1.195 L1.535,1.195 L1.535,0.667" id="path-147"></path>
        <path d="M0.676,6.879 L8.606,6.879 L8.606,4.252 C6.032,2.867 3.421,1.596 0.676,0.799 L0.676,0.799" id="path-149"></path>
        <path d="M0.676,6.879 L8.606,6.879 L8.606,4.252 C6.032,2.867 3.421,1.596 0.676,0.799 L0.676,0.799" id="path-151"></path>
        <path d="M0.676,6.879 L8.606,6.879 L8.606,4.252 C6.032,2.867 3.421,1.596 0.676,0.799 L0.676,0.799" id="path-153"></path>
        <path d="M0.676,6.879 L8.606,6.879 L8.606,4.252 C6.032,2.867 3.421,1.596 0.676,0.799 L0.676,0.799" id="path-155"></path>
        <path d="M0.676,6.879 L8.606,6.879 L8.606,4.252 C6.032,2.867 3.421,1.596 0.676,0.799 L0.676,0.799" id="path-157"></path>
        <path d="M0.676,6.879 L8.606,6.879 L8.606,4.252 C6.032,2.867 3.421,1.596 0.676,0.799 L0.676,0.799" id="path-159"></path>
        <path d="M0.676,6.879 L8.606,6.879 L8.606,4.252 C6.032,2.867 3.421,1.596 0.676,0.799 L0.676,0.799" id="path-161"></path>
        <polygon id="path-163" points="0.6188 0.8036 2.6278 0.8036 2.6278 1.809 0.6188 1.809"></polygon>
        <polygon id="path-165" points="0.6542 0.8036 2.6632 0.8036 2.6632 1.809 0.6542 1.809"></polygon>
        <polygon id="path-167" points="0.6011 0.839 1.606 0.839 1.606 2.849 0.6011 2.849"></polygon>
        <polygon id="path-169" points="0.676 0.839 1.6809 0.839 1.6809 2.849 0.676 2.849"></polygon>
        <polygon id="path-171" points="0.6188 0.879 2.6278 0.879 2.6278 1.8844 0.6188 1.8844"></polygon>
        <polygon id="path-173" points="0.6542 0.879 2.6632 0.879 2.6632 1.8844 0.6542 1.8844"></polygon>
        <polygon id="path-175" points="0.6188 0.7328 2.6278 0.7328 2.6278 1.738 0.6188 1.738"></polygon>
        <polygon id="path-177" points="0.6542 0.7328 2.6632 0.7328 2.6632 1.738 0.6542 1.738"></polygon>
        <polygon id="path-179" points="0.6011 0.7682 1.606 0.7682 1.606 2.7782 0.6011 2.7782"></polygon>
        <polygon id="path-181" points="0.676 0.7682 1.6809 0.7682 1.6809 2.7782 0.676 2.7782"></polygon>
        <polygon id="path-183" points="0.6188 0.809 2.6278 0.809 2.6278 1.8136 0.6188 1.8136"></polygon>
        <polygon id="path-185" points="0.6542 0.809 2.6632 0.809 2.6632 1.8136 0.6542 1.8136"></polygon>
        <path d="M0.676,0.738 L0.676,1.376 C3.719,2.152 6.253,3.356 8.606,4.672 L8.606,4.672 L8.606,0.738" id="path-187"></path>
        <path d="M0.676,0.738 L0.676,1.376 C3.719,2.152 6.253,3.356 8.606,4.672 L8.606,4.672 L8.606,0.738" id="path-189"></path>
        <path d="M0.676,0.738 L0.676,1.376 C3.719,2.152 6.253,3.356 8.606,4.672 L8.606,4.672 L8.606,0.738" id="path-191"></path>
        <path d="M0.676,0.738 L0.676,1.376 C3.719,2.152 6.253,3.356 8.606,4.672 L8.606,4.672 L8.606,0.738" id="path-193"></path>
        <path d="M0.676,0.738 L0.676,1.376 C3.719,2.152 6.253,3.356 8.606,4.672 L8.606,4.672 L8.606,0.738" id="path-195"></path>
        <path d="M0.676,0.738 L0.676,1.376 C3.719,2.152 6.253,3.356 8.606,4.672 L8.606,4.672 L8.606,0.738" id="path-197"></path>
        <path d="M0.676,0.738 L0.676,1.376 C3.719,2.152 6.253,3.356 8.606,4.672 L8.606,4.672 L8.606,0.738" id="path-199"></path>
        <path d="M1.936,0.942 C1.611,0.942 1.282,0.95 0.953,0.968 L0.953,0.968 L0.953,7.879 L7.676,7.879 L7.676,1.799 C5.833,1.264 3.93,0.942 1.937,0.942 L1.937,0.942 C1.936,0.942 1.936,0.942 1.936,0.942" id="path-201"></path>
        <path d="M1.936,0.942 C1.611,0.942 1.282,0.95 0.953,0.968 L0.953,0.968 L0.953,7.879 L7.676,7.879 L7.676,1.799 C5.833,1.264 3.93,0.942 1.937,0.942 L1.937,0.942 C1.936,0.942 1.936,0.942 1.936,0.942" id="path-203"></path>
        <path d="M1.936,0.942 C1.611,0.942 1.282,0.95 0.953,0.968 L0.953,0.968 L0.953,7.879 L7.676,7.879 L7.676,1.799 C5.833,1.264 3.93,0.942 1.937,0.942 L1.937,0.942 C1.936,0.942 1.936,0.942 1.936,0.942" id="path-205"></path>
        <path d="M1.936,0.942 C1.611,0.942 1.282,0.95 0.953,0.968 L0.953,0.968 L0.953,7.879 L7.676,7.879 L7.676,1.799 C5.833,1.264 3.93,0.942 1.937,0.942 L1.937,0.942 C1.936,0.942 1.936,0.942 1.936,0.942" id="path-207"></path>
        <path d="M1.936,0.942 C1.611,0.942 1.282,0.95 0.953,0.968 L0.953,0.968 L0.953,7.879 L7.676,7.879 L7.676,1.799 C5.833,1.264 3.93,0.942 1.937,0.942 L1.937,0.942 C1.936,0.942 1.936,0.942 1.936,0.942" id="path-209"></path>
        <path d="M1.936,0.942 C1.611,0.942 1.282,0.95 0.953,0.968 L0.953,0.968 L0.953,7.879 L7.676,7.879 L7.676,1.799 C5.833,1.264 3.93,0.942 1.937,0.942 L1.937,0.942 C1.936,0.942 1.936,0.942 1.936,0.942" id="path-211"></path>
        <path d="M1.936,0.942 C1.611,0.942 1.282,0.95 0.953,0.968 L0.953,0.968 L0.953,7.879 L7.676,7.879 L7.676,1.799 C5.833,1.264 3.93,0.942 1.937,0.942 L1.937,0.942 C1.936,0.942 1.936,0.942 1.936,0.942" id="path-213"></path>
        <polygon id="path-215" points="0.6896 0.8036 2.6986 0.8036 2.6986 1.809 0.6896 1.809"></polygon>
        <polygon id="path-217" points="0.953 0.8036 2.734 0.8036 2.734 1.809 0.953 1.809"></polygon>
        <polygon id="path-219" points="0.6719 0.839 1.676 0.839 1.676 2.849 0.6719 2.849"></polygon>
        <polygon id="path-221" points="0.6896 0.879 2.6986 0.879 2.6986 1.8844 0.6896 1.8844"></polygon>
        <polygon id="path-223" points="0.953 0.879 2.734 0.879 2.734 1.8844 0.953 1.8844"></polygon>
        <path d="M0.953,0.809 L0.953,8.49 C2.143,8.515 3.264,8.601 4.325,8.738 L4.325,8.738 L7.676,8.738 L7.676,0.809" id="path-225"></path>
        <path d="M0.953,0.809 L0.953,8.49 C2.143,8.515 3.264,8.601 4.325,8.738 L4.325,8.738 L7.676,8.738 L7.676,0.809" id="path-227"></path>
        <path d="M0.953,0.809 L0.953,8.49 C2.143,8.515 3.264,8.601 4.325,8.738 L4.325,8.738 L7.676,8.738 L7.676,0.809" id="path-229"></path>
        <path d="M0.953,0.809 L0.953,8.49 C2.143,8.515 3.264,8.601 4.325,8.738 L4.325,8.738 L7.676,8.738 L7.676,0.809" id="path-231"></path>
        <path d="M0.953,0.809 L0.953,8.49 C2.143,8.515 3.264,8.601 4.325,8.738 L4.325,8.738 L7.676,8.738 L7.676,0.809" id="path-233"></path>
        <path d="M0.953,0.809 L0.953,8.49 C2.143,8.515 3.264,8.601 4.325,8.738 L4.325,8.738 L7.676,8.738 L7.676,0.809" id="path-235"></path>
        <path d="M0.953,0.809 L0.953,8.49 C2.143,8.515 3.264,8.601 4.325,8.738 L4.325,8.738 L7.676,8.738 L7.676,0.809" id="path-237"></path>
        <path d="M0.325,0.738 C1.512,0.891 2.624,1.108 3.676,1.376 L3.676,1.376 L3.676,0.738" id="path-239"></path>
        <path d="M0.325,0.738 C1.512,0.891 2.624,1.108 3.676,1.376 L3.676,1.376 L3.676,0.738" id="path-241"></path>
        <path d="M0.325,0.738 C1.512,0.891 2.624,1.108 3.676,1.376 L3.676,1.376 L3.676,0.738" id="path-243"></path>
        <path d="M0.325,0.738 C1.512,0.891 2.624,1.108 3.676,1.376 L3.676,1.376 L3.676,0.738" id="path-245"></path>
        <path d="M0.325,0.738 C1.512,0.891 2.624,1.108 3.676,1.376 L3.676,1.376 L3.676,0.738" id="path-247"></path>
        <path d="M0.325,0.738 C1.512,0.891 2.624,1.108 3.676,1.376 L3.676,1.376 L3.676,0.738" id="path-249"></path>
        <path d="M0.325,0.738 C1.512,0.891 2.624,1.108 3.676,1.376 L3.676,1.376 L3.676,0.738" id="path-251"></path>
    </defs>
    <g id="2_Join" stroke="none" stroke-width="1" fill="none" fill-rule="evenodd">
        <g id="Joining/HOST-WALZER-Copy" transform="translate(-673.000000, -195.000000)">
            <g id="Group-456" transform="translate(674.070289, 195.200793)">
                <g id="Group-5" transform="translate(0.000000, 23.054000)" stroke="#1D1D1B" stroke-width="3">
                    <polyline id="Stroke-1" points="85.3641 35.9188 85.3641 87.4998 14.7271 87.4998 14.7271 35.9188"></polyline>
                    <polyline id="Stroke-3" points="0.0607 50.0456 50.0087 0.0976 99.9567 50.0456"></polyline>
                </g>
                <path d="M66.9527,40.0954 L66.9527,10.2214 L66.9527,40.0954 Z" id="Fill-6" fill="#FEFEFE"></path>
                <line x1="66.9528" y1="40.0957" x2="66.9528" y2="10.2217" id="Stroke-7" stroke="#1D1D1B" stroke-width="3"></line>
                <g id="Group-25" transform="translate(97.000000, 13.054000)">
                    <g id="Group-15">
                        <mask id="mask-2" fill="white">
                            <use xlink:href="#path-1"></use>
                        </mask>
                        <g id="Clip-14"></g>
                        <path d="M3.4508,3.8086 C3.4508,4.3636 3.0008,4.8136 2.4458,4.8136 C1.8918,4.8136 1.4418,4.3636 1.4418,3.8086 C1.4418,3.2536 1.8918,2.8036 2.4458,2.8036 C3.0008,2.8036 3.4508,3.2536 3.4508,3.8086" id="Fill-13" fill="#1D1D1B" mask="url(#mask-2)"></path>
                    </g>
                    <g id="Group-18">
                        <mask id="mask-4" fill="white">
                            <use xlink:href="#path-3"></use>
                        </mask>
                        <g id="Clip-17"></g>
                        <path d="M5.4331,-0.156 C5.4331,0.399 4.9831,0.849 4.4281,0.849 C3.8741,0.849 3.4241,0.399 3.4241,-0.156 C3.4241,-0.711 3.8741,-1.161 4.4281,-1.161 C4.9831,-1.161 5.4331,-0.711 5.4331,-0.156" id="Fill-16" fill="#1D1D1B" mask="url(#mask-4)"></path>
                    </g>
                    <g id="Group-21">
                        <mask id="mask-6" fill="white">
                            <use xlink:href="#path-5"></use>
                        </mask>
                        <g id="Clip-20"></g>
                        <path d="M1.4685,-0.156 C1.4685,0.399 1.0185,0.849 0.4635,0.849 C-0.0905,0.849 -0.5405,0.399 -0.5405,-0.156 C-0.5405,-0.711 -0.0905,-1.161 0.4635,-1.161 C1.0185,-1.161 1.4685,-0.711 1.4685,-0.156" id="Fill-19" fill="#1D1D1B" mask="url(#mask-6)"></path>
                    </g>
                    <g id="Group-24">
                        <mask id="mask-8" fill="white">
                            <use xlink:href="#path-7"></use>
                        </mask>
                        <g id="Clip-23"></g>
                        <path d="M3.4508,-4.1206 C3.4508,-3.5656 3.0008,-3.1156 2.4458,-3.1156 C1.8918,-3.1156 1.4418,-3.5656 1.4418,-4.1206 C1.4418,-4.6756 1.8918,-5.1256 2.4458,-5.1256 C3.0008,-5.1256 3.4508,-4.6756 3.4508,-4.1206" id="Fill-22" fill="#1D1D1B" mask="url(#mask-8)"></path>
                    </g>
                </g>
                <g id="Group-37" transform="translate(97.000000, 16.054000)">
                    <g id="Group-28" transform="translate(1.000000, 7.000000)">
                        <mask id="mask-10" fill="white">
                            <use xlink:href="#path-9"></use>
                        </mask>
                        <g id="Clip-27"></g>
                        <path d="M2.4508,1.7378 C2.4508,2.2928 2.0008,2.7428 1.4458,2.7428 C0.8918,2.7428 0.4418,2.2928 0.4418,1.7378 C0.4418,1.1828 0.8918,0.7328 1.4458,0.7328 C2.0008,0.7328 2.4508,1.1828 2.4508,1.7378" id="Fill-26" fill="#1D1D1B" mask="url(#mask-10)"></path>
                    </g>
                    <g id="Group-33" transform="translate(0.000000, 3.000000)">
                        <mask id="mask-12" fill="white">
                            <use xlink:href="#path-11"></use>
                        </mask>
                        <g id="Clip-32"></g>
                        <path d="M1.4685,1.7732 C1.4685,2.3282 1.0185,2.7782 0.4635,2.7782 C-0.0905,2.7782 -0.5405,2.3282 -0.5405,1.7732 C-0.5405,1.2182 -0.0905,0.7682 0.4635,0.7682 C1.0185,0.7682 1.4685,1.2182 1.4685,1.7732" id="Fill-31" fill="#1D1D1B" mask="url(#mask-12)"></path>
                    </g>
                    <g id="Group-36" transform="translate(1.000000, 0.000000)">
                        <mask id="mask-14" fill="white">
                            <use xlink:href="#path-13"></use>
                        </mask>
                        <g id="Clip-35"></g>
                        <path d="M2.4508,0.8086 C2.4508,1.3636 2.0008,1.8136 1.4458,1.8136 C0.8918,1.8136 0.4418,1.3636 0.4418,0.8086 C0.4418,0.2536 0.8918,-0.1964 1.4458,-0.1964 C2.0008,-0.1964 2.4508,0.2536 2.4508,0.8086" id="Fill-34" fill="#1D1D1B" mask="url(#mask-14)"></path>
                    </g>
                </g>
                <g id="Group-49" transform="translate(97.000000, 24.054000)">
                    <g id="Group-40" transform="translate(1.000000, 7.000000)">
                        <mask id="mask-16" fill="white">
                            <use xlink:href="#path-15"></use>
                        </mask>
                        <g id="Clip-39"></g>
                        <path d="M2.4508,1.667 C2.4508,2.222 2.0008,2.672 1.4458,2.672 C0.8918,2.672 0.4418,2.222 0.4418,1.667 C0.4418,1.112 0.8918,0.662 1.4458,0.662 C2.0008,0.662 2.4508,1.112 2.4508,1.667" id="Fill-38" fill="#1D1D1B" mask="url(#mask-16)"></path>
                    </g>
                    <g id="Group-45" transform="translate(0.000000, 3.000000)">
                        <mask id="mask-18" fill="white">
                            <use xlink:href="#path-17"></use>
                        </mask>
                        <g id="Clip-44"></g>
                        <path d="M1.4685,1.7024 C1.4685,2.2574 1.0185,2.7074 0.4635,2.7074 C-0.0905,2.7074 -0.5405,2.2574 -0.5405,1.7024 C-0.5405,1.1474 -0.0905,0.6974 0.4635,0.6974 C1.0185,0.6974 1.4685,1.1474 1.4685,1.7024" id="Fill-43" fill="#1D1D1B" mask="url(#mask-18)"></path>
                    </g>
                    <g id="Group-48" transform="translate(1.000000, 0.000000)">
                        <mask id="mask-20" fill="white">
                            <use xlink:href="#path-19"></use>
                        </mask>
                        <g id="Clip-47"></g>
                        <path d="M2.4508,0.7378 C2.4508,1.2928 2.0008,1.7428 1.4458,1.7428 C0.8918,1.7428 0.4418,1.2928 0.4418,0.7378 C0.4418,0.1828 0.8918,-0.2672 1.4458,-0.2672 C2.0008,-0.2672 2.4508,0.1828 2.4508,0.7378" id="Fill-46" fill="#1D1D1B" mask="url(#mask-20)"></path>
                    </g>
                </g>
                <g id="Group-62" transform="translate(97.000000, 32.054000)">
                    <g id="Group-52">
                        <mask id="mask-22" fill="white">
                            <use xlink:href="#path-21"></use>
                        </mask>
                        <g id="Clip-51"></g>
                        <path d="M3.4508,8.5962 C3.4508,9.1512 3.0008,9.6012 2.4458,9.6012 C1.8918,9.6012 1.4418,9.1512 1.4418,8.5962 C1.4418,8.0412 1.8918,7.5912 2.4458,7.5912 C3.0008,7.5912 3.4508,8.0412 3.4508,8.5962" id="Fill-50" fill="#1D1D1B" mask="url(#mask-22)"></path>
                    </g>
                    <g id="Group-55">
                        <mask id="mask-24" fill="white">
                            <use xlink:href="#path-23"></use>
                        </mask>
                        <g id="Clip-54"></g>
                        <path d="M5.4331,4.6316 C5.4331,5.1866 4.9831,5.6366 4.4281,5.6366 C3.8741,5.6366 3.4241,5.1866 3.4241,4.6316 C3.4241,4.0766 3.8741,3.6266 4.4281,3.6266 C4.9831,3.6266 5.4331,4.0766 5.4331,4.6316" id="Fill-53" fill="#1D1D1B" mask="url(#mask-24)"></path>
                    </g>
                    <g id="Group-58">
                        <mask id="mask-26" fill="white">
                            <use xlink:href="#path-25"></use>
                        </mask>
                        <g id="Clip-57"></g>
                        <path d="M1.4685,4.6316 C1.4685,5.1866 1.0185,5.6366 0.4635,5.6366 C-0.0905,5.6366 -0.5405,5.1866 -0.5405,4.6316 C-0.5405,4.0766 -0.0905,3.6266 0.4635,3.6266 C1.0185,3.6266 1.4685,4.0766 1.4685,4.6316" id="Fill-56" fill="#1D1D1B" mask="url(#mask-26)"></path>
                    </g>
                    <g id="Group-61">
                        <mask id="mask-28" fill="white">
                            <use xlink:href="#path-27"></use>
                        </mask>
                        <g id="Clip-60"></g>
                        <path d="M3.4508,0.667 C3.4508,1.222 3.0008,1.672 2.4458,1.672 C1.8918,1.672 1.4418,1.222 1.4418,0.667 C1.4418,0.112 1.8918,-0.338 2.4458,-0.338 C3.0008,-0.338 3.4508,0.112 3.4508,0.667" id="Fill-59" fill="#1D1D1B" mask="url(#mask-28)"></path>
                    </g>
                </g>
                <g id="Group-92" transform="translate(89.000000, 10.054000)">
                    <g id="Group-73">
                        <mask id="mask-30" fill="white">
                            <use xlink:href="#path-29"></use>
                        </mask>
                        <g id="Clip-72"></g>
                        <path d="M7.4862,6.8086 C7.4862,7.3636 7.0362,7.8136 6.4812,7.8136 C5.9272,7.8136 5.4772,7.3636 5.4772,6.8086 C5.4772,6.2536 5.9272,5.8036 6.4812,5.8036 C7.0362,5.8036 7.4862,6.2536 7.4862,6.8086" id="Fill-71" fill="#1D1D1B" mask="url(#mask-30)"></path>
                    </g>
                    <g id="Group-76">
                        <mask id="mask-32" fill="white">
                            <use xlink:href="#path-31"></use>
                        </mask>
                        <g id="Clip-75"></g>
                        <path d="M3.5216,6.8086 C3.5216,7.3636 3.0716,7.8136 2.5166,7.8136 C1.9626,7.8136 1.5126,7.3636 1.5126,6.8086 C1.5126,6.2536 1.9626,5.8036 2.5166,5.8036 C3.0716,5.8036 3.5216,6.2536 3.5216,6.8086" id="Fill-74" fill="#1D1D1B" mask="url(#mask-32)"></path>
                    </g>
                    <g id="Group-79">
                        <mask id="mask-34" fill="white">
                            <use xlink:href="#path-33"></use>
                        </mask>
                        <g id="Clip-78"></g>
                        <path d="M9.4685,2.844 C9.4685,3.399 9.0185,3.849 8.4635,3.849 C7.9095,3.849 7.4595,3.399 7.4595,2.844 C7.4595,2.289 7.9095,1.839 8.4635,1.839 C9.0185,1.839 9.4685,2.289 9.4685,2.844" id="Fill-77" fill="#1D1D1B" mask="url(#mask-34)"></path>
                    </g>
                    <g id="Group-82">
                        <mask id="mask-36" fill="white">
                            <use xlink:href="#path-35"></use>
                        </mask>
                        <g id="Clip-81"></g>
                        <path d="M5.5039,2.844 C5.5039,3.399 5.0539,3.849 4.4989,3.849 C3.9449,3.849 3.4949,3.399 3.4949,2.844 C3.4949,2.289 3.9449,1.839 4.4989,1.839 C5.0539,1.839 5.5039,2.289 5.5039,2.844" id="Fill-80" fill="#1D1D1B" mask="url(#mask-36)"></path>
                    </g>
                    <g id="Group-85">
                        <mask id="mask-38" fill="white">
                            <use xlink:href="#path-37"></use>
                        </mask>
                        <g id="Clip-84"></g>
                        <path d="M1.5393,2.844 C1.5393,3.399 1.0893,3.849 0.5343,3.849 C-0.0197,3.849 -0.4697,3.399 -0.4697,2.844 C-0.4697,2.289 -0.0197,1.839 0.5343,1.839 C1.0893,1.839 1.5393,2.289 1.5393,2.844" id="Fill-83" fill="#1D1D1B" mask="url(#mask-38)"></path>
                    </g>
                    <g id="Group-88">
                        <mask id="mask-40" fill="white">
                            <use xlink:href="#path-39"></use>
                        </mask>
                        <g id="Clip-87"></g>
                        <path d="M7.4862,-1.1206 C7.4862,-0.5656 7.0362,-0.1156 6.4812,-0.1156 C5.9272,-0.1156 5.4772,-0.5656 5.4772,-1.1206 C5.4772,-1.6756 5.9272,-2.1256 6.4812,-2.1256 C7.0362,-2.1256 7.4862,-1.6756 7.4862,-1.1206" id="Fill-86" fill="#1D1D1B" mask="url(#mask-40)"></path>
                    </g>
                    <g id="Group-91">
                        <mask id="mask-42" fill="white">
                            <use xlink:href="#path-41"></use>
                        </mask>
                        <g id="Clip-90"></g>
                        <path d="M3.5216,-1.1206 C3.5216,-0.5656 3.0716,-0.1156 2.5166,-0.1156 C1.9626,-0.1156 1.5126,-0.5656 1.5126,-1.1206 C1.5126,-1.6756 1.9626,-2.1256 2.5166,-2.1256 C3.0716,-2.1256 3.5216,-1.6756 3.5216,-1.1206" id="Fill-89" fill="#1D1D1B" mask="url(#mask-42)"></path>
                    </g>
                </g>
                <g id="Group-113" transform="translate(89.000000, 16.054000)">
                    <g id="Group-95" transform="translate(5.000000, 7.000000)">
                        <mask id="mask-44" fill="white">
                            <use xlink:href="#path-43"></use>
                        </mask>
                        <g id="Clip-94"></g>
                        <path d="M2.4862,1.7378 C2.4862,2.2928 2.0362,2.7428 1.4812,2.7428 C0.9272,2.7428 0.4772,2.2928 0.4772,1.7378 C0.4772,1.1828 0.9272,0.7328 1.4812,0.7328 C2.0362,0.7328 2.4862,1.1828 2.4862,1.7378" id="Fill-93" fill="#1D1D1B" mask="url(#mask-44)"></path>
                    </g>
                    <g id="Group-98" transform="translate(1.000000, 7.000000)">
                        <mask id="mask-46" fill="white">
                            <use xlink:href="#path-45"></use>
                        </mask>
                        <g id="Clip-97"></g>
                        <path d="M2.5216,1.7378 C2.5216,2.2928 2.0716,2.7428 1.5166,2.7428 C0.9626,2.7428 0.5126,2.2928 0.5126,1.7378 C0.5126,1.1828 0.9626,0.7328 1.5166,0.7328 C2.0716,0.7328 2.5216,1.1828 2.5216,1.7378" id="Fill-96" fill="#1D1D1B" mask="url(#mask-46)"></path>
                    </g>
                    <g id="Group-101" transform="translate(7.000000, 3.000000)">
                        <mask id="mask-48" fill="white">
                            <use xlink:href="#path-47"></use>
                        </mask>
                        <g id="Clip-100"></g>
                        <path d="M2.4685,1.7732 C2.4685,2.3282 2.0185,2.7782 1.4635,2.7782 C0.9095,2.7782 0.4595,2.3282 0.4595,1.7732 C0.4595,1.2182 0.9095,0.7682 1.4635,0.7682 C2.0185,0.7682 2.4685,1.2182 2.4685,1.7732" id="Fill-99" fill="#1D1D1B" mask="url(#mask-48)"></path>
                    </g>
                    <path d="M5.5039,4.7732 C5.5039,5.3282 5.0539,5.7782 4.4989,5.7782 C3.9449,5.7782 3.4949,5.3282 3.4949,4.7732 C3.4949,4.2182 3.9449,3.7682 4.4989,3.7682 C5.0539,3.7682 5.5039,4.2182 5.5039,4.7732" id="Fill-102" fill="#1D1D1B"></path>
                    <g id="Group-106" transform="translate(0.000000, 3.000000)">
                        <mask id="mask-50" fill="white">
                            <use xlink:href="#path-49"></use>
                        </mask>
                        <g id="Clip-105"></g>
                        <path d="M1.5393,1.7732 C1.5393,2.3282 1.0893,2.7782 0.5343,2.7782 C-0.0197,2.7782 -0.4697,2.3282 -0.4697,1.7732 C-0.4697,1.2182 -0.0197,0.7682 0.5343,0.7682 C1.0893,0.7682 1.5393,1.2182 1.5393,1.7732" id="Fill-104" fill="#1D1D1B" mask="url(#mask-50)"></path>
                    </g>
                    <g id="Group-109" transform="translate(5.000000, 0.000000)">
                        <mask id="mask-52" fill="white">
                            <use xlink:href="#path-51"></use>
                        </mask>
                        <g id="Clip-108"></g>
                        <path d="M2.4862,0.8086 C2.4862,1.3636 2.0362,1.8136 1.4812,1.8136 C0.9272,1.8136 0.4772,1.3636 0.4772,0.8086 C0.4772,0.2536 0.9272,-0.1964 1.4812,-0.1964 C2.0362,-0.1964 2.4862,0.2536 2.4862,0.8086" id="Fill-107" fill="#1D1D1B" mask="url(#mask-52)"></path>
                    </g>
                    <g id="Group-112" transform="translate(1.000000, 0.000000)">
                        <mask id="mask-54" fill="white">
                            <use xlink:href="#path-53"></use>
                        </mask>
                        <g id="Clip-111"></g>
                        <path d="M2.5216,0.8086 C2.5216,1.3636 2.0716,1.8136 1.5166,1.8136 C0.9626,1.8136 0.5126,1.3636 0.5126,0.8086 C0.5126,0.2536 0.9626,-0.1964 1.5166,-0.1964 C2.0716,-0.1964 2.5216,0.2536 2.5216,0.8086" id="Fill-110" fill="#1D1D1B" mask="url(#mask-54)"></path>
                    </g>
                </g>
                <g id="Group-134" transform="translate(89.000000, 24.054000)">
                    <g id="Group-116" transform="translate(5.000000, 7.000000)">
                        <mask id="mask-56" fill="white">
                            <use xlink:href="#path-55"></use>
                        </mask>
                        <g id="Clip-115"></g>
                        <path d="M2.4862,1.667 C2.4862,2.222 2.0362,2.672 1.4812,2.672 C0.9272,2.672 0.4772,2.222 0.4772,1.667 C0.4772,1.112 0.9272,0.662 1.4812,0.662 C2.0362,0.662 2.4862,1.112 2.4862,1.667" id="Fill-114" fill="#1D1D1B" mask="url(#mask-56)"></path>
                    </g>
                    <g id="Group-119" transform="translate(1.000000, 7.000000)">
                        <mask id="mask-58" fill="white">
                            <use xlink:href="#path-57"></use>
                        </mask>
                        <g id="Clip-118"></g>
                        <path d="M2.5216,1.667 C2.5216,2.222 2.0716,2.672 1.5166,2.672 C0.9626,2.672 0.5126,2.222 0.5126,1.667 C0.5126,1.112 0.9626,0.662 1.5166,0.662 C2.0716,0.662 2.5216,1.112 2.5216,1.667" id="Fill-117" fill="#1D1D1B" mask="url(#mask-58)"></path>
                    </g>
                    <g id="Group-122" transform="translate(7.000000, 3.000000)">
                        <mask id="mask-60" fill="white">
                            <use xlink:href="#path-59"></use>
                        </mask>
                        <g id="Clip-121"></g>
                        <path d="M2.4685,1.7024 C2.4685,2.2574 2.0185,2.7074 1.4635,2.7074 C0.9095,2.7074 0.4595,2.2574 0.4595,1.7024 C0.4595,1.1474 0.9095,0.6974 1.4635,0.6974 C2.0185,0.6974 2.4685,1.1474 2.4685,1.7024" id="Fill-120" fill="#1D1D1B" mask="url(#mask-60)"></path>
                    </g>
                    <path d="M5.5039,4.7024 C5.5039,5.2574 5.0539,5.7074 4.4989,5.7074 C3.9449,5.7074 3.4949,5.2574 3.4949,4.7024 C3.4949,4.1474 3.9449,3.6974 4.4989,3.6974 C5.0539,3.6974 5.5039,4.1474 5.5039,4.7024" id="Fill-123" fill="#1D1D1B"></path>
                    <g id="Group-127" transform="translate(0.000000, 3.000000)">
                        <mask id="mask-62" fill="white">
                            <use xlink:href="#path-61"></use>
                        </mask>
                        <g id="Clip-126"></g>
                        <path d="M1.5393,1.7024 C1.5393,2.2574 1.0893,2.7074 0.5343,2.7074 C-0.0197,2.7074 -0.4697,2.2574 -0.4697,1.7024 C-0.4697,1.1474 -0.0197,0.6974 0.5343,0.6974 C1.0893,0.6974 1.5393,1.1474 1.5393,1.7024" id="Fill-125" fill="#1D1D1B" mask="url(#mask-62)"></path>
                    </g>
                    <g id="Group-130" transform="translate(5.000000, 0.000000)">
                        <mask id="mask-64" fill="white">
                            <use xlink:href="#path-63"></use>
                        </mask>
                        <g id="Clip-129"></g>
                        <path d="M2.4862,0.7378 C2.4862,1.2928 2.0362,1.7428 1.4812,1.7428 C0.9272,1.7428 0.4772,1.2928 0.4772,0.7378 C0.4772,0.1828 0.9272,-0.2672 1.4812,-0.2672 C2.0362,-0.2672 2.4862,0.1828 2.4862,0.7378" id="Fill-128" fill="#1D1D1B" mask="url(#mask-64)"></path>
                    </g>
                    <g id="Group-133" transform="translate(1.000000, 0.000000)">
                        <mask id="mask-66" fill="white">
                            <use xlink:href="#path-65"></use>
                        </mask>
                        <g id="Clip-132"></g>
                        <path d="M2.5216,0.7378 C2.5216,1.2928 2.0716,1.7428 1.5166,1.7428 C0.9626,1.7428 0.5126,1.2928 0.5126,0.7378 C0.5126,0.1828 0.9626,-0.2672 1.5166,-0.2672 C2.0716,-0.2672 2.5216,0.1828 2.5216,0.7378" id="Fill-131" fill="#1D1D1B" mask="url(#mask-66)"></path>
                    </g>
                </g>
                <g id="Group-156" transform="translate(89.000000, 32.054000)">
                    <g id="Group-137">
                        <mask id="mask-68" fill="white">
                            <use xlink:href="#path-67"></use>
                        </mask>
                        <g id="Clip-136"></g>
                        <path d="M7.4862,8.5962 C7.4862,9.1512 7.0362,9.6012 6.4812,9.6012 C5.9272,9.6012 5.4772,9.1512 5.4772,8.5962 C5.4772,8.0412 5.9272,7.5912 6.4812,7.5912 C7.0362,7.5912 7.4862,8.0412 7.4862,8.5962" id="Fill-135" fill="#1D1D1B" mask="url(#mask-68)"></path>
                    </g>
                    <g id="Group-140">
                        <mask id="mask-70" fill="white">
                            <use xlink:href="#path-69"></use>
                        </mask>
                        <g id="Clip-139"></g>
                        <path d="M3.5216,8.5962 C3.5216,9.1512 3.0716,9.6012 2.5166,9.6012 C1.9626,9.6012 1.5126,9.1512 1.5126,8.5962 C1.5126,8.0412 1.9626,7.5912 2.5166,7.5912 C3.0716,7.5912 3.5216,8.0412 3.5216,8.5962" id="Fill-138" fill="#1D1D1B" mask="url(#mask-70)"></path>
                    </g>
                    <g id="Group-143">
                        <mask id="mask-72" fill="white">
                            <use xlink:href="#path-71"></use>
                        </mask>
                        <g id="Clip-142"></g>
                        <path d="M9.4685,4.6316 C9.4685,5.1866 9.0185,5.6366 8.4635,5.6366 C7.9095,5.6366 7.4595,5.1866 7.4595,4.6316 C7.4595,4.0766 7.9095,3.6266 8.4635,3.6266 C9.0185,3.6266 9.4685,4.0766 9.4685,4.6316" id="Fill-141" fill="#1D1D1B" mask="url(#mask-72)"></path>
                    </g>
                    <g id="Group-146">
                        <mask id="mask-74" fill="white">
                            <use xlink:href="#path-73"></use>
                        </mask>
                        <g id="Clip-145"></g>
                        <path d="M5.5039,4.6316 C5.5039,5.1866 5.0539,5.6366 4.4989,5.6366 C3.9449,5.6366 3.4949,5.1866 3.4949,4.6316 C3.4949,4.0766 3.9449,3.6266 4.4989,3.6266 C5.0539,3.6266 5.5039,4.0766 5.5039,4.6316" id="Fill-144" fill="#1D1D1B" mask="url(#mask-74)"></path>
                    </g>
                    <g id="Group-149">
                        <mask id="mask-76" fill="white">
                            <use xlink:href="#path-75"></use>
                        </mask>
                        <g id="Clip-148"></g>
                        <path d="M1.5393,4.6316 C1.5393,5.1866 1.0893,5.6366 0.5343,5.6366 C-0.0197,5.6366 -0.4697,5.1866 -0.4697,4.6316 C-0.4697,4.0766 -0.0197,3.6266 0.5343,3.6266 C1.0893,3.6266 1.5393,4.0766 1.5393,4.6316" id="Fill-147" fill="#1D1D1B" mask="url(#mask-76)"></path>
                    </g>
                    <g id="Group-152">
                        <mask id="mask-78" fill="white">
                            <use xlink:href="#path-77"></use>
                        </mask>
                        <g id="Clip-151"></g>
                        <path d="M7.4862,0.667 C7.4862,1.222 7.0362,1.672 6.4812,1.672 C5.9272,1.672 5.4772,1.222 5.4772,0.667 C5.4772,0.112 5.9272,-0.338 6.4812,-0.338 C7.0362,-0.338 7.4862,0.112 7.4862,0.667" id="Fill-150" fill="#1D1D1B" mask="url(#mask-78)"></path>
                    </g>
                    <g id="Group-155">
                        <mask id="mask-80" fill="white">
                            <use xlink:href="#path-79"></use>
                        </mask>
                        <g id="Clip-154"></g>
                        <path d="M3.5216,0.667 C3.5216,1.222 3.0716,1.672 2.5166,1.672 C1.9626,1.672 1.5126,1.222 1.5126,0.667 C1.5126,0.112 1.9626,-0.338 2.5166,-0.338 C3.0716,-0.338 3.5216,0.112 3.5216,0.667" id="Fill-153" fill="#1D1D1B" mask="url(#mask-80)"></path>
                    </g>
                </g>
                <g id="Group-178" transform="translate(81.000000, 6.054000)">
                    <g id="Group-159">
                        <mask id="mask-82" fill="white">
                            <use xlink:href="#path-81"></use>
                        </mask>
                        <g id="Clip-158"></g>
                        <path d="M7.557,2.8794 C7.557,3.4344 7.107,3.8844 6.552,3.8844 C5.998,3.8844 5.548,3.4344 5.548,2.8794 C5.548,2.3244 5.998,1.8744 6.552,1.8744 C7.107,1.8744 7.557,2.3244 7.557,2.8794" id="Fill-157" fill="#1D1D1B" mask="url(#mask-82)"></path>
                    </g>
                    <g id="Group-162">
                        <mask id="mask-84" fill="white">
                            <use xlink:href="#path-83"></use>
                        </mask>
                        <g id="Clip-161"></g>
                        <path d="M3.5924,2.8794 C3.5924,3.4344 3.1424,3.8844 2.5874,3.8844 C2.0334,3.8844 1.5834,3.4344 1.5834,2.8794 C1.5834,2.3244 2.0334,1.8744 2.5874,1.8744 C3.1424,1.8744 3.5924,2.3244 3.5924,2.8794" id="Fill-160" fill="#1D1D1B" mask="url(#mask-84)"></path>
                    </g>
                    <g id="Group-165">
                        <mask id="mask-86" fill="white">
                            <use xlink:href="#path-85"></use>
                        </mask>
                        <g id="Clip-164"></g>
                        <path d="M9.5393,-1.0852 C9.5393,-0.5302 9.0893,-0.0802 8.5343,-0.0802 C7.9803,-0.0802 7.5303,-0.5302 7.5303,-1.0852 C7.5303,-1.6402 7.9803,-2.0902 8.5343,-2.0902 C9.0893,-2.0902 9.5393,-1.6402 9.5393,-1.0852" id="Fill-163" fill="#1D1D1B" mask="url(#mask-86)"></path>
                    </g>
                    <g id="Group-168">
                        <mask id="mask-88" fill="white">
                            <use xlink:href="#path-87"></use>
                        </mask>
                        <g id="Clip-167"></g>
                        <path d="M5.5747,-1.0852 C5.5747,-0.5302 5.1247,-0.0802 4.5697,-0.0802 C4.0157,-0.0802 3.5657,-0.5302 3.5657,-1.0852 C3.5657,-1.6402 4.0157,-2.0902 4.5697,-2.0902 C5.1247,-2.0902 5.5747,-1.6402 5.5747,-1.0852" id="Fill-166" fill="#1D1D1B" mask="url(#mask-88)"></path>
                    </g>
                    <g id="Group-171">
                        <mask id="mask-90" fill="white">
                            <use xlink:href="#path-89"></use>
                        </mask>
                        <g id="Clip-170"></g>
                        <path d="M1.6101,-1.0852 C1.6101,-0.5302 1.1601,-0.0802 0.6051,-0.0802 C0.0511,-0.0802 -0.3989,-0.5302 -0.3989,-1.0852 C-0.3989,-1.6402 0.0511,-2.0902 0.6051,-2.0902 C1.1601,-2.0902 1.6101,-1.6402 1.6101,-1.0852" id="Fill-169" fill="#1D1D1B" mask="url(#mask-90)"></path>
                    </g>
                    <g id="Group-174">
                        <mask id="mask-92" fill="white">
                            <use xlink:href="#path-91"></use>
                        </mask>
                        <g id="Clip-173"></g>
                        <path d="M7.557,-5.0498 C7.557,-4.4948 7.107,-4.0448 6.552,-4.0448 C5.998,-4.0448 5.548,-4.4948 5.548,-5.0498 C5.548,-5.6048 5.998,-6.0548 6.552,-6.0548 C7.107,-6.0548 7.557,-5.6048 7.557,-5.0498" id="Fill-172" fill="#1D1D1B" mask="url(#mask-92)"></path>
                    </g>
                    <g id="Group-177">
                        <mask id="mask-94" fill="white">
                            <use xlink:href="#path-93"></use>
                        </mask>
                        <g id="Clip-176"></g>
                        <path d="M3.5924,-5.0498 C3.5924,-4.4948 3.1424,-4.0448 2.5874,-4.0448 C2.0334,-4.0448 1.5834,-4.4948 1.5834,-5.0498 C1.5834,-5.6048 2.0334,-6.0548 2.5874,-6.0548 C3.1424,-6.0548 3.5924,-5.6048 3.5924,-5.0498" id="Fill-175" fill="#1D1D1B" mask="url(#mask-94)"></path>
                    </g>
                </g>
                <g id="Group-200" transform="translate(81.000000, 8.054000)">
                    <g id="Group-181">
                        <mask id="mask-96" fill="white">
                            <use xlink:href="#path-95"></use>
                        </mask>
                        <g id="Clip-180"></g>
                        <path d="M7.557,8.8086 C7.557,9.3636 7.107,9.8136 6.552,9.8136 C5.998,9.8136 5.548,9.3636 5.548,8.8086 C5.548,8.2536 5.998,7.8036 6.552,7.8036 C7.107,7.8036 7.557,8.2536 7.557,8.8086" id="Fill-179" fill="#1D1D1B" mask="url(#mask-96)"></path>
                    </g>
                    <g id="Group-184">
                        <mask id="mask-98" fill="white">
                            <use xlink:href="#path-97"></use>
                        </mask>
                        <g id="Clip-183"></g>
                        <path d="M3.5924,8.8086 C3.5924,9.3636 3.1424,9.8136 2.5874,9.8136 C2.0334,9.8136 1.5834,9.3636 1.5834,8.8086 C1.5834,8.2536 2.0334,7.8036 2.5874,7.8036 C3.1424,7.8036 3.5924,8.2536 3.5924,8.8086" id="Fill-182" fill="#1D1D1B" mask="url(#mask-98)"></path>
                    </g>
                    <g id="Group-187">
                        <mask id="mask-100" fill="white">
                            <use xlink:href="#path-99"></use>
                        </mask>
                        <g id="Clip-186"></g>
                        <path d="M9.5393,4.844 C9.5393,5.399 9.0893,5.849 8.5343,5.849 C7.9803,5.849 7.5303,5.399 7.5303,4.844 C7.5303,4.289 7.9803,3.839 8.5343,3.839 C9.0893,3.839 9.5393,4.289 9.5393,4.844" id="Fill-185" fill="#1D1D1B" mask="url(#mask-100)"></path>
                    </g>
                    <g id="Group-190">
                        <mask id="mask-102" fill="white">
                            <use xlink:href="#path-101"></use>
                        </mask>
                        <g id="Clip-189"></g>
                        <path d="M5.5747,4.844 C5.5747,5.399 5.1247,5.849 4.5697,5.849 C4.0157,5.849 3.5657,5.399 3.5657,4.844 C3.5657,4.289 4.0157,3.839 4.5697,3.839 C5.1247,3.839 5.5747,4.289 5.5747,4.844" id="Fill-188" fill="#1D1D1B" mask="url(#mask-102)"></path>
                    </g>
                    <g id="Group-193">
                        <mask id="mask-104" fill="white">
                            <use xlink:href="#path-103"></use>
                        </mask>
                        <g id="Clip-192"></g>
                        <path d="M1.6101,4.844 C1.6101,5.399 1.1601,5.849 0.6051,5.849 C0.0511,5.849 -0.3989,5.399 -0.3989,4.844 C-0.3989,4.289 0.0511,3.839 0.6051,3.839 C1.1601,3.839 1.6101,4.289 1.6101,4.844" id="Fill-191" fill="#1D1D1B" mask="url(#mask-104)"></path>
                    </g>
                    <g id="Group-196">
                        <mask id="mask-106" fill="white">
                            <use xlink:href="#path-105"></use>
                        </mask>
                        <g id="Clip-195"></g>
                        <path d="M7.557,0.8794 C7.557,1.4344 7.107,1.8844 6.552,1.8844 C5.998,1.8844 5.548,1.4344 5.548,0.8794 C5.548,0.3244 5.998,-0.1256 6.552,-0.1256 C7.107,-0.1256 7.557,0.3244 7.557,0.8794" id="Fill-194" fill="#1D1D1B" mask="url(#mask-106)"></path>
                    </g>
                    <g id="Group-199">
                        <mask id="mask-108" fill="white">
                            <use xlink:href="#path-107"></use>
                        </mask>
                        <g id="Clip-198"></g>
                        <path d="M3.5924,0.8794 C3.5924,1.4344 3.1424,1.8844 2.5874,1.8844 C2.0334,1.8844 1.5834,1.4344 1.5834,0.8794 C1.5834,0.3244 2.0334,-0.1256 2.5874,-0.1256 C3.1424,-0.1256 3.5924,0.3244 3.5924,0.8794" id="Fill-197" fill="#1D1D1B" mask="url(#mask-108)"></path>
                    </g>
                </g>
                <g id="Group-221" transform="translate(81.000000, 16.054000)">
                    <g id="Group-203" transform="translate(5.000000, 7.000000)">
                        <mask id="mask-110" fill="white">
                            <use xlink:href="#path-109"></use>
                        </mask>
                        <g id="Clip-202"></g>
                        <path d="M2.557,1.7378 C2.557,2.2928 2.107,2.7428 1.552,2.7428 C0.998,2.7428 0.548,2.2928 0.548,1.7378 C0.548,1.1828 0.998,0.7328 1.552,0.7328 C2.107,0.7328 2.557,1.1828 2.557,1.7378" id="Fill-201" fill="#1D1D1B" mask="url(#mask-110)"></path>
                    </g>
                    <g id="Group-206" transform="translate(1.000000, 7.000000)">
                        <mask id="mask-112" fill="white">
                            <use xlink:href="#path-111"></use>
                        </mask>
                        <g id="Clip-205"></g>
                        <path d="M2.5924,1.7378 C2.5924,2.2928 2.1424,2.7428 1.5874,2.7428 C1.0334,2.7428 0.5834,2.2928 0.5834,1.7378 C0.5834,1.1828 1.0334,0.7328 1.5874,0.7328 C2.1424,0.7328 2.5924,1.1828 2.5924,1.7378" id="Fill-204" fill="#1D1D1B" mask="url(#mask-112)"></path>
                    </g>
                    <g id="Group-209" transform="translate(7.000000, 3.000000)">
                        <mask id="mask-114" fill="white">
                            <use xlink:href="#path-113"></use>
                        </mask>
                        <g id="Clip-208"></g>
                        <path d="M2.5393,1.7732 C2.5393,2.3282 2.0893,2.7782 1.5343,2.7782 C0.9803,2.7782 0.5303,2.3282 0.5303,1.7732 C0.5303,1.2182 0.9803,0.7682 1.5343,0.7682 C2.0893,0.7682 2.5393,1.2182 2.5393,1.7732" id="Fill-207" fill="#1D1D1B" mask="url(#mask-114)"></path>
                    </g>
                    <path d="M5.5747,4.7732 C5.5747,5.3282 5.1247,5.7782 4.5697,5.7782 C4.0157,5.7782 3.5657,5.3282 3.5657,4.7732 C3.5657,4.2182 4.0157,3.7682 4.5697,3.7682 C5.1247,3.7682 5.5747,4.2182 5.5747,4.7732" id="Fill-210" fill="#1D1D1B"></path>
                    <g id="Group-214" transform="translate(0.000000, 3.000000)">
                        <mask id="mask-116" fill="white">
                            <use xlink:href="#path-115"></use>
                        </mask>
                        <g id="Clip-213"></g>
                        <path d="M1.6101,1.7732 C1.6101,2.3282 1.1601,2.7782 0.6051,2.7782 C0.0511,2.7782 -0.3989,2.3282 -0.3989,1.7732 C-0.3989,1.2182 0.0511,0.7682 0.6051,0.7682 C1.1601,0.7682 1.6101,1.2182 1.6101,1.7732" id="Fill-212" fill="#1D1D1B" mask="url(#mask-116)"></path>
                    </g>
                    <g id="Group-217" transform="translate(5.000000, 0.000000)">
                        <mask id="mask-118" fill="white">
                            <use xlink:href="#path-117"></use>
                        </mask>
                        <g id="Clip-216"></g>
                        <path d="M2.557,0.8086 C2.557,1.3636 2.107,1.8136 1.552,1.8136 C0.998,1.8136 0.548,1.3636 0.548,0.8086 C0.548,0.2536 0.998,-0.1964 1.552,-0.1964 C2.107,-0.1964 2.557,0.2536 2.557,0.8086" id="Fill-215" fill="#1D1D1B" mask="url(#mask-118)"></path>
                    </g>
                    <g id="Group-220" transform="translate(1.000000, 0.000000)">
                        <mask id="mask-120" fill="white">
                            <use xlink:href="#path-119"></use>
                        </mask>
                        <g id="Clip-219"></g>
                        <path d="M2.5924,0.8086 C2.5924,1.3636 2.1424,1.8136 1.5874,1.8136 C1.0334,1.8136 0.5834,1.3636 0.5834,0.8086 C0.5834,0.2536 1.0334,-0.1964 1.5874,-0.1964 C2.1424,-0.1964 2.5924,0.2536 2.5924,0.8086" id="Fill-218" fill="#1D1D1B" mask="url(#mask-120)"></path>
                    </g>
                </g>
                <g id="Group-243" transform="translate(81.000000, 24.054000)">
                    <g id="Group-224">
                        <mask id="mask-122" fill="white">
                            <use xlink:href="#path-121"></use>
                        </mask>
                        <g id="Clip-223"></g>
                        <path d="M7.557,8.667 C7.557,9.222 7.107,9.672 6.552,9.672 C5.998,9.672 5.548,9.222 5.548,8.667 C5.548,8.112 5.998,7.662 6.552,7.662 C7.107,7.662 7.557,8.112 7.557,8.667" id="Fill-222" fill="#1D1D1B" mask="url(#mask-122)"></path>
                    </g>
                    <g id="Group-227">
                        <mask id="mask-124" fill="white">
                            <use xlink:href="#path-123"></use>
                        </mask>
                        <g id="Clip-226"></g>
                        <path d="M3.5924,8.667 C3.5924,9.222 3.1424,9.672 2.5874,9.672 C2.0334,9.672 1.5834,9.222 1.5834,8.667 C1.5834,8.112 2.0334,7.662 2.5874,7.662 C3.1424,7.662 3.5924,8.112 3.5924,8.667" id="Fill-225" fill="#1D1D1B" mask="url(#mask-124)"></path>
                    </g>
                    <g id="Group-230">
                        <mask id="mask-126" fill="white">
                            <use xlink:href="#path-125"></use>
                        </mask>
                        <g id="Clip-229"></g>
                        <path d="M9.5393,4.7024 C9.5393,5.2574 9.0893,5.7074 8.5343,5.7074 C7.9803,5.7074 7.5303,5.2574 7.5303,4.7024 C7.5303,4.1474 7.9803,3.6974 8.5343,3.6974 C9.0893,3.6974 9.5393,4.1474 9.5393,4.7024" id="Fill-228" fill="#1D1D1B" mask="url(#mask-126)"></path>
                    </g>
                    <g id="Group-233">
                        <mask id="mask-128" fill="white">
                            <use xlink:href="#path-127"></use>
                        </mask>
                        <g id="Clip-232"></g>
                        <path d="M5.5747,4.7024 C5.5747,5.2574 5.1247,5.7074 4.5697,5.7074 C4.0157,5.7074 3.5657,5.2574 3.5657,4.7024 C3.5657,4.1474 4.0157,3.6974 4.5697,3.6974 C5.1247,3.6974 5.5747,4.1474 5.5747,4.7024" id="Fill-231" fill="#1D1D1B" mask="url(#mask-128)"></path>
                    </g>
                    <g id="Group-236">
                        <mask id="mask-130" fill="white">
                            <use xlink:href="#path-129"></use>
                        </mask>
                        <g id="Clip-235"></g>
                        <path d="M1.6101,4.7024 C1.6101,5.2574 1.1601,5.7074 0.6051,5.7074 C0.0511,5.7074 -0.3989,5.2574 -0.3989,4.7024 C-0.3989,4.1474 0.0511,3.6974 0.6051,3.6974 C1.1601,3.6974 1.6101,4.1474 1.6101,4.7024" id="Fill-234" fill="#1D1D1B" mask="url(#mask-130)"></path>
                    </g>
                    <g id="Group-239">
                        <mask id="mask-132" fill="white">
                            <use xlink:href="#path-131"></use>
                        </mask>
                        <g id="Clip-238"></g>
                        <path d="M7.557,0.7378 C7.557,1.2928 7.107,1.7428 6.552,1.7428 C5.998,1.7428 5.548,1.2928 5.548,0.7378 C5.548,0.1828 5.998,-0.2672 6.552,-0.2672 C7.107,-0.2672 7.557,0.1828 7.557,0.7378" id="Fill-237" fill="#1D1D1B" mask="url(#mask-132)"></path>
                    </g>
                    <g id="Group-242">
                        <mask id="mask-134" fill="white">
                            <use xlink:href="#path-133"></use>
                        </mask>
                        <g id="Clip-241"></g>
                        <path d="M3.5924,0.7378 C3.5924,1.2928 3.1424,1.7428 2.5874,1.7428 C2.0334,1.7428 1.5834,1.2928 1.5834,0.7378 C1.5834,0.1828 2.0334,-0.2672 2.5874,-0.2672 C3.1424,-0.2672 3.5924,0.1828 3.5924,0.7378" id="Fill-240" fill="#1D1D1B" mask="url(#mask-134)"></path>
                    </g>
                </g>
                <g id="Group-265" transform="translate(88.000000, 32.054000)">
                    <g id="Group-246">
                        <mask id="mask-136" fill="white">
                            <use xlink:href="#path-135"></use>
                        </mask>
                        <g id="Clip-245"></g>
                        <path d="M0.557,8.5962 C0.557,9.1512 0.107,9.6012 -0.448,9.6012 C-1.002,9.6012 -1.452,9.1512 -1.452,8.5962 C-1.452,8.0412 -1.002,7.5912 -0.448,7.5912 C0.107,7.5912 0.557,8.0412 0.557,8.5962" id="Fill-244" fill="#1D1D1B" mask="url(#mask-136)"></path>
                    </g>
                    <g id="Group-249">
                        <mask id="mask-138" fill="white">
                            <use xlink:href="#path-137"></use>
                        </mask>
                        <g id="Clip-248"></g>
                        <path d="M-3.4076,8.5962 C-3.4076,9.1512 -3.8576,9.6012 -4.4126,9.6012 C-4.9666,9.6012 -5.4166,9.1512 -5.4166,8.5962 C-5.4166,8.0412 -4.9666,7.5912 -4.4126,7.5912 C-3.8576,7.5912 -3.4076,8.0412 -3.4076,8.5962" id="Fill-247" fill="#1D1D1B" mask="url(#mask-138)"></path>
                    </g>
                    <g id="Group-252">
                        <mask id="mask-140" fill="white">
                            <use xlink:href="#path-139"></use>
                        </mask>
                        <g id="Clip-251"></g>
                        <path d="M2.5393,4.6316 C2.5393,5.1866 2.0893,5.6366 1.5343,5.6366 C0.9803,5.6366 0.5303,5.1866 0.5303,4.6316 C0.5303,4.0766 0.9803,3.6266 1.5343,3.6266 C2.0893,3.6266 2.5393,4.0766 2.5393,4.6316" id="Fill-250" fill="#1D1D1B" mask="url(#mask-140)"></path>
                    </g>
                    <g id="Group-255">
                        <mask id="mask-142" fill="white">
                            <use xlink:href="#path-141"></use>
                        </mask>
                        <g id="Clip-254"></g>
                        <path d="M-1.4253,4.6316 C-1.4253,5.1866 -1.8753,5.6366 -2.4303,5.6366 C-2.9843,5.6366 -3.4343,5.1866 -3.4343,4.6316 C-3.4343,4.0766 -2.9843,3.6266 -2.4303,3.6266 C-1.8753,3.6266 -1.4253,4.0766 -1.4253,4.6316" id="Fill-253" fill="#1D1D1B" mask="url(#mask-142)"></path>
                    </g>
                    <g id="Group-258">
                        <mask id="mask-144" fill="white">
                            <use xlink:href="#path-143"></use>
                        </mask>
                        <g id="Clip-257"></g>
                        <path d="M-5.3899,4.6316 C-5.3899,5.1866 -5.8399,5.6366 -6.3949,5.6366 C-6.9489,5.6366 -7.3989,5.1866 -7.3989,4.6316 C-7.3989,4.0766 -6.9489,3.6266 -6.3949,3.6266 C-5.8399,3.6266 -5.3899,4.0766 -5.3899,4.6316" id="Fill-256" fill="#1D1D1B" mask="url(#mask-144)"></path>
                    </g>
                    <g id="Group-261">
                        <mask id="mask-146" fill="white">
                            <use xlink:href="#path-145"></use>
                        </mask>
                        <g id="Clip-260"></g>
                        <path d="M0.557,0.667 C0.557,1.222 0.107,1.672 -0.448,1.672 C-1.002,1.672 -1.452,1.222 -1.452,0.667 C-1.452,0.112 -1.002,-0.338 -0.448,-0.338 C0.107,-0.338 0.557,0.112 0.557,0.667" id="Fill-259" fill="#1D1D1B" mask="url(#mask-146)"></path>
                    </g>
                    <g id="Group-264">
                        <mask id="mask-148" fill="white">
                            <use xlink:href="#path-147"></use>
                        </mask>
                        <g id="Clip-263"></g>
                        <path d="M-3.4076,0.667 C-3.4076,1.222 -3.8576,1.672 -4.4126,1.672 C-4.9666,1.672 -5.4166,1.222 -5.4166,0.667 C-5.4166,0.112 -4.9666,-0.338 -4.4126,-0.338 C-3.8576,-0.338 -3.4076,0.112 -3.4076,0.667" id="Fill-262" fill="#1D1D1B" mask="url(#mask-148)"></path>
                    </g>
                </g>
                <g id="Group-287" transform="translate(73.000000, 2.054000)">
                    <g id="Group-268">
                        <mask id="mask-150" fill="white">
                            <use xlink:href="#path-149"></use>
                        </mask>
                        <g id="Clip-267"></g>
                        <path d="M7.6278,6.8794 C7.6278,7.4344 7.1778,7.8844 6.6228,7.8844 C6.0688,7.8844 5.6188,7.4344 5.6188,6.8794 C5.6188,6.3244 6.0688,5.8744 6.6228,5.8744 C7.1778,5.8744 7.6278,6.3244 7.6278,6.8794" id="Fill-266" fill="#1D1D1B" mask="url(#mask-150)"></path>
                    </g>
                    <g id="Group-271">
                        <mask id="mask-152" fill="white">
                            <use xlink:href="#path-151"></use>
                        </mask>
                        <g id="Clip-270"></g>
                        <path d="M3.6632,6.8794 C3.6632,7.4344 3.2132,7.8844 2.6582,7.8844 C2.1042,7.8844 1.6542,7.4344 1.6542,6.8794 C1.6542,6.3244 2.1042,5.8744 2.6582,5.8744 C3.2132,5.8744 3.6632,6.3244 3.6632,6.8794" id="Fill-269" fill="#1D1D1B" mask="url(#mask-152)"></path>
                    </g>
                    <g id="Group-274">
                        <mask id="mask-154" fill="white">
                            <use xlink:href="#path-153"></use>
                        </mask>
                        <g id="Clip-273"></g>
                        <path d="M9.6101,2.9148 C9.6101,3.4698 9.1601,3.9198 8.6051,3.9198 C8.0511,3.9198 7.6011,3.4698 7.6011,2.9148 C7.6011,2.3598 8.0511,1.9098 8.6051,1.9098 C9.1601,1.9098 9.6101,2.3598 9.6101,2.9148" id="Fill-272" fill="#1D1D1B" mask="url(#mask-154)"></path>
                    </g>
                    <g id="Group-277">
                        <mask id="mask-156" fill="white">
                            <use xlink:href="#path-155"></use>
                        </mask>
                        <g id="Clip-276"></g>
                        <path d="M5.6455,2.9148 C5.6455,3.4698 5.1955,3.9198 4.6405,3.9198 C4.0865,3.9198 3.6365,3.4698 3.6365,2.9148 C3.6365,2.3598 4.0865,1.9098 4.6405,1.9098 C5.1955,1.9098 5.6455,2.3598 5.6455,2.9148" id="Fill-275" fill="#1D1D1B" mask="url(#mask-156)"></path>
                    </g>
                    <g id="Group-280">
                        <mask id="mask-158" fill="white">
                            <use xlink:href="#path-157"></use>
                        </mask>
                        <g id="Clip-279"></g>
                        <path d="M1.6809,2.9148 C1.6809,3.4698 1.2309,3.9198 0.6759,3.9198 C0.1219,3.9198 -0.3281,3.4698 -0.3281,2.9148 C-0.3281,2.3598 0.1219,1.9098 0.6759,1.9098 C1.2309,1.9098 1.6809,2.3598 1.6809,2.9148" id="Fill-278" fill="#1D1D1B" mask="url(#mask-158)"></path>
                    </g>
                    <g id="Group-283">
                        <mask id="mask-160" fill="white">
                            <use xlink:href="#path-159"></use>
                        </mask>
                        <g id="Clip-282"></g>
                        <path d="M7.6278,-1.0498 C7.6278,-0.4948 7.1778,-0.0448 6.6228,-0.0448 C6.0688,-0.0448 5.6188,-0.4948 5.6188,-1.0498 C5.6188,-1.6048 6.0688,-2.0548 6.6228,-2.0548 C7.1778,-2.0548 7.6278,-1.6048 7.6278,-1.0498" id="Fill-281" fill="#1D1D1B" mask="url(#mask-160)"></path>
                    </g>
                    <g id="Group-286">
                        <mask id="mask-162" fill="white">
                            <use xlink:href="#path-161"></use>
                        </mask>
                        <g id="Clip-285"></g>
                        <path d="M3.6632,-1.0498 C3.6632,-0.4948 3.2132,-0.0448 2.6582,-0.0448 C2.1042,-0.0448 1.6542,-0.4948 1.6542,-1.0498 C1.6542,-1.6048 2.1042,-2.0548 2.6582,-2.0548 C3.2132,-2.0548 3.6632,-1.6048 3.6632,-1.0498" id="Fill-284" fill="#1D1D1B" mask="url(#mask-162)"></path>
                    </g>
                </g>
                <g id="Group-308" transform="translate(73.000000, 8.054000)">
                    <g id="Group-290" transform="translate(5.000000, 7.000000)">
                        <mask id="mask-164" fill="white">
                            <use xlink:href="#path-163"></use>
                        </mask>
                        <g id="Clip-289"></g>
                        <path d="M2.6278,1.8086 C2.6278,2.3636 2.1778,2.8136 1.6228,2.8136 C1.0688,2.8136 0.6188,2.3636 0.6188,1.8086 C0.6188,1.2536 1.0688,0.8036 1.6228,0.8036 C2.1778,0.8036 2.6278,1.2536 2.6278,1.8086" id="Fill-288" fill="#1D1D1B" mask="url(#mask-164)"></path>
                    </g>
                    <g id="Group-293" transform="translate(1.000000, 7.000000)">
                        <mask id="mask-166" fill="white">
                            <use xlink:href="#path-165"></use>
                        </mask>
                        <g id="Clip-292"></g>
                        <path d="M2.6632,1.8086 C2.6632,2.3636 2.2132,2.8136 1.6582,2.8136 C1.1042,2.8136 0.6542,2.3636 0.6542,1.8086 C0.6542,1.2536 1.1042,0.8036 1.6582,0.8036 C2.2132,0.8036 2.6632,1.2536 2.6632,1.8086" id="Fill-291" fill="#1D1D1B" mask="url(#mask-166)"></path>
                    </g>
                    <g id="Group-296" transform="translate(7.000000, 3.000000)">
                        <mask id="mask-168" fill="white">
                            <use xlink:href="#path-167"></use>
                        </mask>
                        <g id="Clip-295"></g>
                        <path d="M2.6101,1.844 C2.6101,2.399 2.1601,2.849 1.6051,2.849 C1.0511,2.849 0.6011,2.399 0.6011,1.844 C0.6011,1.289 1.0511,0.839 1.6051,0.839 C2.1601,0.839 2.6101,1.289 2.6101,1.844" id="Fill-294" fill="#1D1D1B" mask="url(#mask-168)"></path>
                    </g>
                    <path d="M5.6455,4.844 C5.6455,5.399 5.1955,5.849 4.6405,5.849 C4.0865,5.849 3.6365,5.399 3.6365,4.844 C3.6365,4.289 4.0865,3.839 4.6405,3.839 C5.1955,3.839 5.6455,4.289 5.6455,4.844" id="Fill-297" fill="#1D1D1B"></path>
                    <g id="Group-301" transform="translate(0.000000, 3.000000)">
                        <mask id="mask-170" fill="white">
                            <use xlink:href="#path-169"></use>
                        </mask>
                        <g id="Clip-300"></g>
                        <path d="M1.6809,1.844 C1.6809,2.399 1.2309,2.849 0.6759,2.849 C0.1219,2.849 -0.3281,2.399 -0.3281,1.844 C-0.3281,1.289 0.1219,0.839 0.6759,0.839 C1.2309,0.839 1.6809,1.289 1.6809,1.844" id="Fill-299" fill="#1D1D1B" mask="url(#mask-170)"></path>
                    </g>
                    <g id="Group-304" transform="translate(5.000000, 0.000000)">
                        <mask id="mask-172" fill="white">
                            <use xlink:href="#path-171"></use>
                        </mask>
                        <g id="Clip-303"></g>
                        <path d="M2.6278,0.8794 C2.6278,1.4344 2.1778,1.8844 1.6228,1.8844 C1.0688,1.8844 0.6188,1.4344 0.6188,0.8794 C0.6188,0.3244 1.0688,-0.1256 1.6228,-0.1256 C2.1778,-0.1256 2.6278,0.3244 2.6278,0.8794" id="Fill-302" fill="#1D1D1B" mask="url(#mask-172)"></path>
                    </g>
                    <g id="Group-307" transform="translate(1.000000, 0.000000)">
                        <mask id="mask-174" fill="white">
                            <use xlink:href="#path-173"></use>
                        </mask>
                        <g id="Clip-306"></g>
                        <path d="M2.6632,0.8794 C2.6632,1.4344 2.2132,1.8844 1.6582,1.8844 C1.1042,1.8844 0.6542,1.4344 0.6542,0.8794 C0.6542,0.3244 1.1042,-0.1256 1.6582,-0.1256 C2.2132,-0.1256 2.6632,0.3244 2.6632,0.8794" id="Fill-305" fill="#1D1D1B" mask="url(#mask-174)"></path>
                    </g>
                </g>
                <g id="Group-329" transform="translate(73.000000, 16.054000)">
                    <g id="Group-311" transform="translate(5.000000, 7.000000)">
                        <mask id="mask-176" fill="white">
                            <use xlink:href="#path-175"></use>
                        </mask>
                        <g id="Clip-310"></g>
                        <path d="M2.6278,1.7378 C2.6278,2.2928 2.1778,2.7428 1.6228,2.7428 C1.0688,2.7428 0.6188,2.2928 0.6188,1.7378 C0.6188,1.1828 1.0688,0.7328 1.6228,0.7328 C2.1778,0.7328 2.6278,1.1828 2.6278,1.7378" id="Fill-309" fill="#1D1D1B" mask="url(#mask-176)"></path>
                    </g>
                    <g id="Group-314" transform="translate(1.000000, 7.000000)">
                        <mask id="mask-178" fill="white">
                            <use xlink:href="#path-177"></use>
                        </mask>
                        <g id="Clip-313"></g>
                        <path d="M2.6632,1.7378 C2.6632,2.2928 2.2132,2.7428 1.6582,2.7428 C1.1042,2.7428 0.6542,2.2928 0.6542,1.7378 C0.6542,1.1828 1.1042,0.7328 1.6582,0.7328 C2.2132,0.7328 2.6632,1.1828 2.6632,1.7378" id="Fill-312" fill="#1D1D1B" mask="url(#mask-178)"></path>
                    </g>
                    <g id="Group-317" transform="translate(7.000000, 3.000000)">
                        <mask id="mask-180" fill="white">
                            <use xlink:href="#path-179"></use>
                        </mask>
                        <g id="Clip-316"></g>
                        <path d="M2.6101,1.7732 C2.6101,2.3282 2.1601,2.7782 1.6051,2.7782 C1.0511,2.7782 0.6011,2.3282 0.6011,1.7732 C0.6011,1.2182 1.0511,0.7682 1.6051,0.7682 C2.1601,0.7682 2.6101,1.2182 2.6101,1.7732" id="Fill-315" fill="#1D1D1B" mask="url(#mask-180)"></path>
                    </g>
                    <path d="M5.6455,4.7732 C5.6455,5.3282 5.1955,5.7782 4.6405,5.7782 C4.0865,5.7782 3.6365,5.3282 3.6365,4.7732 C3.6365,4.2182 4.0865,3.7682 4.6405,3.7682 C5.1955,3.7682 5.6455,4.2182 5.6455,4.7732" id="Fill-318" fill="#1D1D1B"></path>
                    <g id="Group-322" transform="translate(0.000000, 3.000000)">
                        <mask id="mask-182" fill="white">
                            <use xlink:href="#path-181"></use>
                        </mask>
                        <g id="Clip-321"></g>
                        <path d="M1.6809,1.7732 C1.6809,2.3282 1.2309,2.7782 0.6759,2.7782 C0.1219,2.7782 -0.3281,2.3282 -0.3281,1.7732 C-0.3281,1.2182 0.1219,0.7682 0.6759,0.7682 C1.2309,0.7682 1.6809,1.2182 1.6809,1.7732" id="Fill-320" fill="#1D1D1B" mask="url(#mask-182)"></path>
                    </g>
                    <g id="Group-325" transform="translate(5.000000, 0.000000)">
                        <mask id="mask-184" fill="white">
                            <use xlink:href="#path-183"></use>
                        </mask>
                        <g id="Clip-324"></g>
                        <path d="M2.6278,0.8086 C2.6278,1.3636 2.1778,1.8136 1.6228,1.8136 C1.0688,1.8136 0.6188,1.3636 0.6188,0.8086 C0.6188,0.2536 1.0688,-0.1964 1.6228,-0.1964 C2.1778,-0.1964 2.6278,0.2536 2.6278,0.8086" id="Fill-323" fill="#1D1D1B" mask="url(#mask-184)"></path>
                    </g>
                    <g id="Group-328" transform="translate(1.000000, 0.000000)">
                        <mask id="mask-186" fill="white">
                            <use xlink:href="#path-185"></use>
                        </mask>
                        <g id="Clip-327"></g>
                        <path d="M2.6632,0.8086 C2.6632,1.3636 2.2132,1.8136 1.6582,1.8136 C1.1042,1.8136 0.6542,1.3636 0.6542,0.8086 C0.6542,0.2536 1.1042,-0.1964 1.6582,-0.1964 C2.2132,-0.1964 2.6632,0.2536 2.6632,0.8086" id="Fill-326" fill="#1D1D1B" mask="url(#mask-186)"></path>
                    </g>
                </g>
                <g id="Group-351" transform="translate(73.000000, 24.054000)">
                    <g id="Group-332">
                        <mask id="mask-188" fill="white">
                            <use xlink:href="#path-187"></use>
                        </mask>
                        <g id="Clip-331"></g>
                        <path d="M7.6278,8.667 C7.6278,9.222 7.1778,9.672 6.6228,9.672 C6.0688,9.672 5.6188,9.222 5.6188,8.667 C5.6188,8.112 6.0688,7.662 6.6228,7.662 C7.1778,7.662 7.6278,8.112 7.6278,8.667" id="Fill-330" fill="#1D1D1B" mask="url(#mask-188)"></path>
                    </g>
                    <g id="Group-335">
                        <mask id="mask-190" fill="white">
                            <use xlink:href="#path-189"></use>
                        </mask>
                        <g id="Clip-334"></g>
                        <path d="M3.6632,8.667 C3.6632,9.222 3.2132,9.672 2.6582,9.672 C2.1042,9.672 1.6542,9.222 1.6542,8.667 C1.6542,8.112 2.1042,7.662 2.6582,7.662 C3.2132,7.662 3.6632,8.112 3.6632,8.667" id="Fill-333" fill="#1D1D1B" mask="url(#mask-190)"></path>
                    </g>
                    <g id="Group-338">
                        <mask id="mask-192" fill="white">
                            <use xlink:href="#path-191"></use>
                        </mask>
                        <g id="Clip-337"></g>
                        <path d="M9.6101,4.7024 C9.6101,5.2574 9.1601,5.7074 8.6051,5.7074 C8.0511,5.7074 7.6011,5.2574 7.6011,4.7024 C7.6011,4.1474 8.0511,3.6974 8.6051,3.6974 C9.1601,3.6974 9.6101,4.1474 9.6101,4.7024" id="Fill-336" fill="#1D1D1B" mask="url(#mask-192)"></path>
                    </g>
                    <g id="Group-341">
                        <mask id="mask-194" fill="white">
                            <use xlink:href="#path-193"></use>
                        </mask>
                        <g id="Clip-340"></g>
                        <path d="M5.6455,4.7024 C5.6455,5.2574 5.1955,5.7074 4.6405,5.7074 C4.0865,5.7074 3.6365,5.2574 3.6365,4.7024 C3.6365,4.1474 4.0865,3.6974 4.6405,3.6974 C5.1955,3.6974 5.6455,4.1474 5.6455,4.7024" id="Fill-339" fill="#1D1D1B" mask="url(#mask-194)"></path>
                    </g>
                    <g id="Group-344">
                        <mask id="mask-196" fill="white">
                            <use xlink:href="#path-195"></use>
                        </mask>
                        <g id="Clip-343"></g>
                        <path d="M1.6809,4.7024 C1.6809,5.2574 1.2309,5.7074 0.6759,5.7074 C0.1219,5.7074 -0.3281,5.2574 -0.3281,4.7024 C-0.3281,4.1474 0.1219,3.6974 0.6759,3.6974 C1.2309,3.6974 1.6809,4.1474 1.6809,4.7024" id="Fill-342" fill="#1D1D1B" mask="url(#mask-196)"></path>
                    </g>
                    <g id="Group-347">
                        <mask id="mask-198" fill="white">
                            <use xlink:href="#path-197"></use>
                        </mask>
                        <g id="Clip-346"></g>
                        <path d="M7.6278,0.7378 C7.6278,1.2928 7.1778,1.7428 6.6228,1.7428 C6.0688,1.7428 5.6188,1.2928 5.6188,0.7378 C5.6188,0.1828 6.0688,-0.2672 6.6228,-0.2672 C7.1778,-0.2672 7.6278,0.1828 7.6278,0.7378" id="Fill-345" fill="#1D1D1B" mask="url(#mask-198)"></path>
                    </g>
                    <g id="Group-350">
                        <mask id="mask-200" fill="white">
                            <use xlink:href="#path-199"></use>
                        </mask>
                        <g id="Clip-349"></g>
                        <path d="M3.6632,0.7378 C3.6632,1.2928 3.2132,1.7428 2.6582,1.7428 C2.1042,1.7428 1.6542,1.2928 1.6542,0.7378 C1.6542,0.1828 2.1042,-0.2672 2.6582,-0.2672 C3.2132,-0.2672 3.6632,0.1828 3.6632,0.7378" id="Fill-348" fill="#1D1D1B" mask="url(#mask-200)"></path>
                    </g>
                </g>
                <g id="Group-381" transform="translate(66.000000, 1.054000)">
                    <g id="Group-362">
                        <mask id="mask-202" fill="white">
                            <use xlink:href="#path-201"></use>
                        </mask>
                        <g id="Clip-361"></g>
                        <path d="M6.6986,7.8794 C6.6986,8.4344 6.2486,8.8844 5.6936,8.8844 C5.1396,8.8844 4.6896,8.4344 4.6896,7.8794 C4.6896,7.3244 5.1396,6.8744 5.6936,6.8744 C6.2486,6.8744 6.6986,7.3244 6.6986,7.8794" id="Fill-360" fill="#1D1D1B" mask="url(#mask-202)"></path>
                    </g>
                    <g id="Group-365">
                        <mask id="mask-204" fill="white">
                            <use xlink:href="#path-203"></use>
                        </mask>
                        <g id="Clip-364"></g>
                        <path d="M2.734,7.8794 C2.734,8.4344 2.284,8.8844 1.729,8.8844 C1.175,8.8844 0.725,8.4344 0.725,7.8794 C0.725,7.3244 1.175,6.8744 1.729,6.8744 C2.284,6.8744 2.734,7.3244 2.734,7.8794" id="Fill-363" fill="#1D1D1B" mask="url(#mask-204)"></path>
                    </g>
                    <g id="Group-368">
                        <mask id="mask-206" fill="white">
                            <use xlink:href="#path-205"></use>
                        </mask>
                        <g id="Clip-367"></g>
                        <path d="M8.6809,3.9148 C8.6809,4.4698 8.2309,4.9198 7.6759,4.9198 C7.1219,4.9198 6.6719,4.4698 6.6719,3.9148 C6.6719,3.3598 7.1219,2.9098 7.6759,2.9098 C8.2309,2.9098 8.6809,3.3598 8.6809,3.9148" id="Fill-366" fill="#1D1D1B" mask="url(#mask-206)"></path>
                    </g>
                    <g id="Group-371">
                        <mask id="mask-208" fill="white">
                            <use xlink:href="#path-207"></use>
                        </mask>
                        <g id="Clip-370"></g>
                        <path d="M4.7163,3.9148 C4.7163,4.4698 4.2663,4.9198 3.7113,4.9198 C3.1573,4.9198 2.7073,4.4698 2.7073,3.9148 C2.7073,3.3598 3.1573,2.9098 3.7113,2.9098 C4.2663,2.9098 4.7163,3.3598 4.7163,3.9148" id="Fill-369" fill="#1D1D1B" mask="url(#mask-208)"></path>
                    </g>
                    <g id="Group-374">
                        <mask id="mask-210" fill="white">
                            <use xlink:href="#path-209"></use>
                        </mask>
                        <g id="Clip-373"></g>
                        <path d="M0.7517,3.9148 C0.7517,4.4698 0.3017,4.9198 -0.2533,4.9198 C-0.8073,4.9198 -1.2573,4.4698 -1.2573,3.9148 C-1.2573,3.3598 -0.8073,2.9098 -0.2533,2.9098 C0.3017,2.9098 0.7517,3.3598 0.7517,3.9148" id="Fill-372" fill="#1D1D1B" mask="url(#mask-210)"></path>
                    </g>
                    <g id="Group-377">
                        <mask id="mask-212" fill="white">
                            <use xlink:href="#path-211"></use>
                        </mask>
                        <g id="Clip-376"></g>
                        <path d="M6.6986,-0.0498 C6.6986,0.5052 6.2486,0.9552 5.6936,0.9552 C5.1396,0.9552 4.6896,0.5052 4.6896,-0.0498 C4.6896,-0.6048 5.1396,-1.0548 5.6936,-1.0548 C6.2486,-1.0548 6.6986,-0.6048 6.6986,-0.0498" id="Fill-375" fill="#1D1D1B" mask="url(#mask-212)"></path>
                    </g>
                    <g id="Group-380">
                        <mask id="mask-214" fill="white">
                            <use xlink:href="#path-213"></use>
                        </mask>
                        <g id="Clip-379"></g>
                        <path d="M2.734,-0.0498 C2.734,0.5052 2.284,0.9552 1.729,0.9552 C1.175,0.9552 0.725,0.5052 0.725,-0.0498 C0.725,-0.6048 1.175,-1.0548 1.729,-1.0548 C2.284,-1.0548 2.734,-0.6048 2.734,-0.0498" id="Fill-378" fill="#1D1D1B" mask="url(#mask-214)"></path>
                    </g>
                </g>
                <g id="Group-401" transform="translate(66.000000, 8.054000)">
                    <g id="Group-384" transform="translate(4.000000, 7.000000)">
                        <mask id="mask-216" fill="white">
                            <use xlink:href="#path-215"></use>
                        </mask>
                        <g id="Clip-383"></g>
                        <path d="M2.6986,1.8086 C2.6986,2.3636 2.2486,2.8136 1.6936,2.8136 C1.1396,2.8136 0.6896,2.3636 0.6896,1.8086 C0.6896,1.2536 1.1396,0.8036 1.6936,0.8036 C2.2486,0.8036 2.6986,1.2536 2.6986,1.8086" id="Fill-382" fill="#1D1D1B" mask="url(#mask-216)"></path>
                    </g>
                    <g id="Group-387" transform="translate(0.000000, 7.000000)">
                        <mask id="mask-218" fill="white">
                            <use xlink:href="#path-217"></use>
                        </mask>
                        <g id="Clip-386"></g>
                        <path d="M2.734,1.8086 C2.734,2.3636 2.284,2.8136 1.729,2.8136 C1.175,2.8136 0.725,2.3636 0.725,1.8086 C0.725,1.2536 1.175,0.8036 1.729,0.8036 C2.284,0.8036 2.734,1.2536 2.734,1.8086" id="Fill-385" fill="#1D1D1B" mask="url(#mask-218)"></path>
                    </g>
                    <g id="Group-390" transform="translate(6.000000, 3.000000)">
                        <mask id="mask-220" fill="white">
                            <use xlink:href="#path-219"></use>
                        </mask>
                        <g id="Clip-389"></g>
                        <path d="M2.6809,1.844 C2.6809,2.399 2.2309,2.849 1.6759,2.849 C1.1219,2.849 0.6719,2.399 0.6719,1.844 C0.6719,1.289 1.1219,0.839 1.6759,0.839 C2.2309,0.839 2.6809,1.289 2.6809,1.844" id="Fill-388" fill="#1D1D1B" mask="url(#mask-220)"></path>
                    </g>
                    <path d="M4.7163,4.844 C4.7163,5.399 4.2663,5.849 3.7113,5.849 C3.1573,5.849 2.7073,5.399 2.7073,4.844 C2.7073,4.289 3.1573,3.839 3.7113,3.839 C4.2663,3.839 4.7163,4.289 4.7163,4.844" id="Fill-391" fill="#1D1D1B"></path>
                    <g id="Group-397" transform="translate(4.000000, 0.000000)">
                        <mask id="mask-222" fill="white">
                            <use xlink:href="#path-221"></use>
                        </mask>
                        <g id="Clip-396"></g>
                        <path d="M2.6986,0.8794 C2.6986,1.4344 2.2486,1.8844 1.6936,1.8844 C1.1396,1.8844 0.6896,1.4344 0.6896,0.8794 C0.6896,0.3244 1.1396,-0.1256 1.6936,-0.1256 C2.2486,-0.1256 2.6986,0.3244 2.6986,0.8794" id="Fill-395" fill="#1D1D1B" mask="url(#mask-222)"></path>
                    </g>
                    <g id="Group-400">
                        <mask id="mask-224" fill="white">
                            <use xlink:href="#path-223"></use>
                        </mask>
                        <g id="Clip-399"></g>
                        <path d="M2.734,0.8794 C2.734,1.4344 2.284,1.8844 1.729,1.8844 C1.175,1.8844 0.725,1.4344 0.725,0.8794 C0.725,0.3244 1.175,-0.1256 1.729,-0.1256 C2.284,-0.1256 2.734,0.3244 2.734,0.8794" id="Fill-398" fill="#1D1D1B" mask="url(#mask-224)"></path>
                    </g>
                </g>
                <g id="Group-423" transform="translate(66.000000, 16.054000)">
                    <g id="Group-404">
                        <mask id="mask-226" fill="white">
                            <use xlink:href="#path-225"></use>
                        </mask>
                        <g id="Clip-403"></g>
                        <path d="M6.6986,8.7378 C6.6986,9.2928 6.2486,9.7428 5.6936,9.7428 C5.1396,9.7428 4.6896,9.2928 4.6896,8.7378 C4.6896,8.1828 5.1396,7.7328 5.6936,7.7328 C6.2486,7.7328 6.6986,8.1828 6.6986,8.7378" id="Fill-402" fill="#1D1D1B" mask="url(#mask-226)"></path>
                    </g>
                    <g id="Group-407">
                        <mask id="mask-228" fill="white">
                            <use xlink:href="#path-227"></use>
                        </mask>
                        <g id="Clip-406"></g>
                        <path d="M2.734,8.7378 C2.734,9.2928 2.284,9.7428 1.729,9.7428 C1.175,9.7428 0.725,9.2928 0.725,8.7378 C0.725,8.1828 1.175,7.7328 1.729,7.7328 C2.284,7.7328 2.734,8.1828 2.734,8.7378" id="Fill-405" fill="#1D1D1B" mask="url(#mask-228)"></path>
                    </g>
                    <g id="Group-410">
                        <mask id="mask-230" fill="white">
                            <use xlink:href="#path-229"></use>
                        </mask>
                        <g id="Clip-409"></g>
                        <path d="M8.6809,4.7732 C8.6809,5.3282 8.2309,5.7782 7.6759,5.7782 C7.1219,5.7782 6.6719,5.3282 6.6719,4.7732 C6.6719,4.2182 7.1219,3.7682 7.6759,3.7682 C8.2309,3.7682 8.6809,4.2182 8.6809,4.7732" id="Fill-408" fill="#1D1D1B" mask="url(#mask-230)"></path>
                    </g>
                    <g id="Group-413">
                        <mask id="mask-232" fill="white">
                            <use xlink:href="#path-231"></use>
                        </mask>
                        <g id="Clip-412"></g>
                        <path d="M4.7163,4.7732 C4.7163,5.3282 4.2663,5.7782 3.7113,5.7782 C3.1573,5.7782 2.7073,5.3282 2.7073,4.7732 C2.7073,4.2182 3.1573,3.7682 3.7113,3.7682 C4.2663,3.7682 4.7163,4.2182 4.7163,4.7732" id="Fill-411" fill="#1D1D1B" mask="url(#mask-232)"></path>
                    </g>
                    <g id="Group-416">
                        <mask id="mask-234" fill="white">
                            <use xlink:href="#path-233"></use>
                        </mask>
                        <g id="Clip-415"></g>
                        <path d="M0.7517,4.7732 C0.7517,5.3282 0.3017,5.7782 -0.2533,5.7782 C-0.8073,5.7782 -1.2573,5.3282 -1.2573,4.7732 C-1.2573,4.2182 -0.8073,3.7682 -0.2533,3.7682 C0.3017,3.7682 0.7517,4.2182 0.7517,4.7732" id="Fill-414" fill="#1D1D1B" mask="url(#mask-234)"></path>
                    </g>
                    <g id="Group-419">
                        <mask id="mask-236" fill="white">
                            <use xlink:href="#path-235"></use>
                        </mask>
                        <g id="Clip-418"></g>
                        <path d="M6.6986,0.8086 C6.6986,1.3636 6.2486,1.8136 5.6936,1.8136 C5.1396,1.8136 4.6896,1.3636 4.6896,0.8086 C4.6896,0.2536 5.1396,-0.1964 5.6936,-0.1964 C6.2486,-0.1964 6.6986,0.2536 6.6986,0.8086" id="Fill-417" fill="#1D1D1B" mask="url(#mask-236)"></path>
                    </g>
                    <g id="Group-422">
                        <mask id="mask-238" fill="white">
                            <use xlink:href="#path-237"></use>
                        </mask>
                        <g id="Clip-421"></g>
                        <path d="M2.734,0.8086 C2.734,1.3636 2.284,1.8136 1.729,1.8136 C1.175,1.8136 0.725,1.3636 0.725,0.8086 C0.725,0.2536 1.175,-0.1964 1.729,-0.1964 C2.284,-0.1964 2.734,0.2536 2.734,0.8086" id="Fill-420" fill="#1D1D1B" mask="url(#mask-238)"></path>
                    </g>
                </g>
                <g id="Group-445" transform="translate(70.000000, 24.054000)">
                    <g id="Group-426">
                        <mask id="mask-240" fill="white">
                            <use xlink:href="#path-239"></use>
                        </mask>
                        <g id="Clip-425"></g>
                        <path d="M2.6986,8.667 C2.6986,9.222 2.2486,9.672 1.6936,9.672 C1.1396,9.672 0.6896,9.222 0.6896,8.667 C0.6896,8.112 1.1396,7.662 1.6936,7.662 C2.2486,7.662 2.6986,8.112 2.6986,8.667" id="Fill-424" fill="#1D1D1B" mask="url(#mask-240)"></path>
                    </g>
                    <g id="Group-429">
                        <mask id="mask-242" fill="white">
                            <use xlink:href="#path-241"></use>
                        </mask>
                        <g id="Clip-428"></g>
                        <path d="M-1.266,8.667 C-1.266,9.222 -1.716,9.672 -2.271,9.672 C-2.825,9.672 -3.275,9.222 -3.275,8.667 C-3.275,8.112 -2.825,7.662 -2.271,7.662 C-1.716,7.662 -1.266,8.112 -1.266,8.667" id="Fill-427" fill="#1D1D1B" mask="url(#mask-242)"></path>
                    </g>
                    <g id="Group-432">
                        <mask id="mask-244" fill="white">
                            <use xlink:href="#path-243"></use>
                        </mask>
                        <g id="Clip-431"></g>
                        <path d="M4.6809,4.7024 C4.6809,5.2574 4.2309,5.7074 3.6759,5.7074 C3.1219,5.7074 2.6719,5.2574 2.6719,4.7024 C2.6719,4.1474 3.1219,3.6974 3.6759,3.6974 C4.2309,3.6974 4.6809,4.1474 4.6809,4.7024" id="Fill-430" fill="#1D1D1B" mask="url(#mask-244)"></path>
                    </g>
                    <g id="Group-435">
                        <mask id="mask-246" fill="white">
                            <use xlink:href="#path-245"></use>
                        </mask>
                        <g id="Clip-434"></g>
                        <path d="M0.7163,4.7024 C0.7163,5.2574 0.2663,5.7074 -0.2887,5.7074 C-0.8427,5.7074 -1.2927,5.2574 -1.2927,4.7024 C-1.2927,4.1474 -0.8427,3.6974 -0.2887,3.6974 C0.2663,3.6974 0.7163,4.1474 0.7163,4.7024" id="Fill-433" fill="#1D1D1B" mask="url(#mask-246)"></path>
                    </g>
                    <g id="Group-438">
                        <mask id="mask-248" fill="white">
                            <use xlink:href="#path-247"></use>
                        </mask>
                        <g id="Clip-437"></g>
                        <path d="M-3.2483,4.7024 C-3.2483,5.2574 -3.6983,5.7074 -4.2533,5.7074 C-4.8073,5.7074 -5.2573,5.2574 -5.2573,4.7024 C-5.2573,4.1474 -4.8073,3.6974 -4.2533,3.6974 C-3.6983,3.6974 -3.2483,4.1474 -3.2483,4.7024" id="Fill-436" fill="#1D1D1B" mask="url(#mask-248)"></path>
                    </g>
                    <g id="Group-441">
                        <mask id="mask-250" fill="white">
                            <use xlink:href="#path-249"></use>
                        </mask>
                        <g id="Clip-440"></g>
                        <path d="M2.6986,0.7378 C2.6986,1.2928 2.2486,1.7428 1.6936,1.7428 C1.1396,1.7428 0.6896,1.2928 0.6896,0.7378 C0.6896,0.1828 1.1396,-0.2672 1.6936,-0.2672 C2.2486,-0.2672 2.6986,0.1828 2.6986,0.7378" id="Fill-439" fill="#1D1D1B" mask="url(#mask-250)"></path>
                    </g>
                    <g id="Group-444">
                        <mask id="mask-252" fill="white">
                            <use xlink:href="#path-251"></use>
                        </mask>
                        <g id="Clip-443"></g>
                        <path d="M-1.266,0.7378 C-1.266,1.2928 -1.716,1.7428 -2.271,1.7428 C-2.825,1.7428 -3.275,1.2928 -3.275,0.7378 C-3.275,0.1828 -2.825,-0.2672 -2.271,-0.2672 C-1.716,-0.2672 -1.266,0.1828 -1.266,0.7378" id="Fill-442" fill="#1D1D1B" mask="url(#mask-252)"></path>
                    </g>
                </g>
                <path d="M68.4527,23.1059 C76.0157,23.5819 80.7527,26.4239 85.3427,29.1779 C89.2937,31.5489 93.0447,33.7999 98.4567,34.2339 L98.4567,14.7249 C92.9417,14.2989 88.0887,11.6059 83.3827,8.9929 C78.4527,6.2569 73.7727,3.6599 68.4527,3.5019 L68.4527,23.1059 Z M101.4567,37.3299 L99.9327,37.3059 C92.8747,37.1959 88.2607,34.4279 83.7987,31.7509 C79.2547,29.0239 74.5567,26.2049 66.9207,26.0439 L65.4527,26.0129 L65.4527,0.5999 L66.8727,0.5229 C73.6457,0.1609 79.3397,3.3179 84.8387,6.3699 C89.8537,9.1539 94.5907,11.7829 99.9567,11.7829 L101.4567,11.7829 L101.4567,37.3299 Z" id="Fill-454" fill="#1D1D1B"></path>
            </g>
        </g>
    </g>
</svg>