<?xml version="1.0" encoding="UTF-8"?>
<svg width="223px" height="226px" viewBox="0 0 223 226" version="1.1" xmlns="http://www.w3.org/2000/svg" xmlns:xlink="http://www.w3.org/1999/xlink">
    <title>Group 32</title>
    <defs>
        <polygon id="path-1" points="0.000474909644 0.547920635 222.658429 0.547920635 222.658429 223.206349 0.000474909644 223.206349"></polygon>
    </defs>
    <g id="2_Join" stroke="none" stroke-width="1" fill="none" fill-rule="evenodd">
        <g id="Joining/HOST-WALZER-Copy" transform="translate(-137.000000, -2358.000000)">
            <g id="Group-32" transform="translate(137.000000, 2358.736474)">
                <g id="Group-3" transform="translate(0.000000, 0.245730)">
                    <mask id="mask-2" fill="white">
                        <use xlink:href="#path-1"></use>
                    </mask>
                    <g id="Clip-2"></g>
                    <path d="M220.774737,91.5896889 C231.979673,152.033927 192.061975,210.117721 131.615943,221.322657 C71.1717048,232.5258 13.0879111,192.609895 1.88476825,132.163863 C-9.32016825,71.7196254 30.5975302,13.6358317 91.0417683,2.43089524 C151.4878,-8.77224762 209.5698,31.1454508 220.774737,91.5896889" id="Fill-1" fill="#C5ECFF" mask="url(#mask-2)"></path>
                </g>
                <path d="M29.4745254,176.413946 C30.3390651,177.520629 32.1757635,177.743041 33.5102397,176.70093 C34.602573,175.847152 34.7460651,174.657962 34.0913825,173.822121 L33.1909698,172.668803 L28.5077476,175.178121 L29.4745254,176.413946 Z M33.6931921,170.184597 L35.7881762,172.864311 C36.975573,174.379946 36.6850016,176.760121 34.8626524,178.180692 C32.6797794,179.890041 29.4386524,179.495438 27.8028429,177.405835 L25.5482238,174.519851 L33.6931921,170.184597 Z" id="Fill-4" fill="#1D1D1B"></path>
                <polygon id="Fill-6" fill="#1D1D1B" points="39.374581 177.053383 43.6793429 181.675621 42.0937556 182.689033 39.1539619 179.532208 37.6472952 180.513335 40.380819 183.44416 38.8042 184.466541 36.0742635 181.53751 34.5675968 182.516843 37.5073905 185.673668 35.9343587 186.697843 31.6331841 182.075605"></polygon>
                <path d="M39.5638111,186.065402 L41.0453667,187.41064 L40.9969381,187.468037 C40.5305889,187.979227 40.5700492,188.743322 41.5924302,189.677814 C42.3350016,190.34864 43.0990968,190.310973 43.4111921,189.971973 C43.6658905,189.684989 43.5331603,189.1451 43.118827,188.454544 L42.404954,187.292259 C41.6928746,186.124592 41.6480333,185.145259 42.3206524,184.402687 C43.5188111,183.078973 45.5366683,183.059243 47.068446,184.445735 C48.7813825,186.00083 48.8585095,187.631259 47.823573,188.773814 C47.7500333,188.854529 47.5652873,189.059005 47.5652873,189.059005 L46.0837317,187.711973 C46.1016683,187.688656 46.1213984,187.667132 46.1321603,187.65637 C46.5464937,187.198989 46.5106206,186.436687 45.712446,185.713846 C45.0254778,185.091449 44.3743825,185.123735 44.0102714,185.521925 C43.8022079,185.749719 43.760954,186.024148 44.177081,186.71291 L44.8891603,187.878783 C45.7196206,189.256306 45.8236524,190.287656 45.0990175,191.08583 C43.9080333,192.398783 41.9493667,192.493846 40.2364302,190.940544 C38.3548905,189.232989 38.2705889,187.491354 39.3575413,186.293195 L39.5638111,186.065402 Z" id="Fill-8" fill="#1D1D1B"></path>
                <polygon id="Fill-10" fill="#1D1D1B" points="51.0928603 188.02371 52.6551302 189.277471 45.7047333 195.356154 44.1424635 194.102392"></polygon>
                <path d="M54.497927,195.788603 L57.9130381,198.161603 L57.5345778,198.550825 C55.6745619,200.450302 53.0343079,200.866429 51.0756413,199.505048 C49.2389429,198.231556 48.8156413,195.872905 50.1788159,193.912444 C51.898927,191.430032 55.1077683,190.865032 57.2583556,192.359143 C58.9677048,193.544746 59.315673,195.474714 58.3865619,197.268365 L56.7292286,196.118635 C57.055673,195.220016 56.7920063,194.380587 56.0314984,193.853254 C54.831546,193.015619 53.0091968,193.345651 51.9096889,194.925857 C51.1204825,196.064825 51.3518635,197.350873 52.2971175,198.010937 C53.1204032,198.583111 54.189419,198.665619 55.0521651,198.04681 L53.3948317,196.895286 L54.497927,195.788603 Z" id="Fill-12" fill="#1D1D1B"></path>
                <polygon id="Fill-14" fill="#1D1D1B" points="62.0474032 195.580181 64.2535937 196.816006 63.1899587 202.663308 63.4697683 202.822943 67.0929429 198.401594 68.8399587 199.382721 62.9998317 206.532213 60.7972286 205.298181 61.8483079 199.440117 61.5631175 199.282276 57.959673 203.7108 56.2072762 202.731467"></polygon>
                <polygon id="Fill-16" fill="#1D1D1B" points="73.0475048 201.279865 74.9505683 201.990151 73.1138698 207.63477 73.4044413 207.744183 77.9029175 203.098627 79.9243619 203.855548 78.3064889 209.577294 78.593473 209.686706 82.8802984 204.96223 84.8676635 205.706595 78.1665841 212.897341 75.7864095 212.004103 77.3953143 206.441992 77.1047429 206.334373 72.7605206 210.87231 70.3821397 209.982659"></polygon>
                <path d="M87.7891619,211.875319 L88.0940825,208.537335 L87.7927492,208.460208 L85.3193048,211.240367 L87.7891619,211.875319 Z M87.5021778,206.080033 L90.1854794,206.768795 L89.4285587,215.950494 L87.4627175,215.446478 L87.6133841,213.737129 L83.9453683,212.793668 L82.6916063,214.219621 L80.6324952,213.692287 L87.5021778,206.080033 Z" id="Fill-18" fill="#1D1D1B"></path>
                <polygon id="Fill-20" fill="#1D1D1B" points="93.7200476 207.436751 95.6966508 207.779338 93.2232063 214.627497 97.3216984 215.337783 96.6598413 217.178068 90.584746 216.123402"></polygon>
                <polygon id="Fill-22" fill="#1D1D1B" points="98.1971794 215.481992 103.949417 210.721643 99.6894968 210.318071 100.222211 208.436532 107.197719 209.094802 106.681148 210.9315 100.92891 215.693643 105.343084 216.10977 104.824719 217.993103 97.7003381 217.322278"></polygon>
                <path d="M109.714032,145.555798 C109.714032,136.194735 106.489048,130.609306 102.162762,130.609306 C100.275841,130.609306 97.4436667,132.655862 97.0508571,137.767767 C97.6804286,137.846687 98.31,137.925608 98.9377778,137.925608 C102.636286,138.160576 104.444286,140.599941 104.444286,144.845513 C104.444286,148.701862 102.241683,150.432735 97.5225873,151.060513 C98.6238889,155.307878 100.354762,158.062925 103.027302,158.062925 C107.434302,158.062925 109.714032,151.926846 109.714032,145.555798 M91.9389524,148.780783 C99.4113016,148.622941 101.377143,147.60056 101.377143,144.217735 C101.377143,142.960386 101.063254,141.780163 100.275841,140.83491 C86.3535238,140.286052 76.2839683,130.846068 66.6897302,130.846068 C59.217381,130.846068 35.9322063,137.925608 36.4846508,140.363179 C36.7985397,141.701243 37.8998413,142.329021 45.6089524,140.04929 C48.9917778,139.025116 56.541254,136.903227 60.7114921,136.273656 C64.0925238,135.723005 65.8233968,135.723005 68.1838413,136.115814 L69.048381,138.713021 C66.6108095,138.476259 62.3634444,138.555179 57.8003968,139.656481 C55.1260635,140.286052 54.6543333,141.387354 54.8910952,142.723624 C55.0471429,143.430322 55.4399524,144.217735 56.3852063,144.691259 C57.8003968,143.903846 60.6325714,143.118227 62.3634444,142.881465 C64.7220952,142.486862 67.3964286,142.565783 69.048381,142.723624 L69.756873,145.319037 C66.6897302,145.240116 65.7444762,145.397957 64.0136032,145.555798 C58.1142857,146.18537 57.4865079,147.52164 58.1142857,149.32964 C58.3510476,150.117052 59.0595397,150.746624 60.003,151.060513 C63.0701429,150.038132 64.3292857,150.038132 66.295127,149.88029 C69.3640635,149.724243 70.3057302,149.803163 71.2509841,149.959211 L72.1155238,152.712465 L68.5748571,152.712465 C65.9812381,152.712465 64.1714444,152.791386 63.1490635,153.107068 C62.2845238,153.420957 61.8127937,154.443338 62.2845238,155.62356 C62.6773333,156.568814 64.0136032,157.589402 68.7326984,157.589402 C79.9035556,157.589402 83.9141587,154.759021 91.9389524,148.780783 M113.01973,145.869687 C113.01973,154.837941 109.00554,161.208989 103.264063,161.208989 C98.4660476,161.208989 95.7917143,156.410973 94.6904127,151.218354 C94.2186825,151.297275 93.7469524,151.297275 93.2752222,151.297275 C84.4666032,158.532862 78.9600952,160.500497 70.3057302,160.421576 C65.9023175,160.342656 60.003,160.263735 58.8227778,156.174211 C58.5070952,155.307878 58.6649365,154.127656 59.2963016,153.342037 C56.6201746,152.870306 55.4399524,151.139433 55.0471429,149.724243 C54.8121746,148.780783 54.8910952,147.835529 55.2821111,146.970989 C53.3180635,146.655306 51.9010794,144.770179 51.7450317,143.588163 C51.6661111,142.644703 51.5871905,141.936211 51.7450317,141.229513 C50.6419365,141.543402 49.1478254,141.936211 47.0241429,142.565783 C37.5070317,145.397957 33.9681587,144.612338 32.9439841,141.936211 C32.0794444,139.49864 33.2596667,137.531005 39.1589841,135.014513 C47.0241429,131.710608 59.6873175,128.015687 66.5318889,128.015687 C76.049,128.015687 85.2522222,134.935592 94.4554444,137.21891 C95.0850159,131.08283 98.4660476,127.463243 102.241683,127.463243 C107.827111,127.463243 113.01973,132.105211 113.01973,145.869687" id="Fill-24" fill="#1D1D1B"></path>
                <path d="M159.438875,162.18043 C159.438875,152.584398 150.000684,142.516637 149.450033,128.592525 C148.504779,127.806906 147.326351,127.493017 146.067208,127.493017 C142.684383,127.493017 141.663795,129.458859 141.505954,136.931208 C135.527716,144.954208 132.695541,148.966605 132.695541,160.135668 C132.695541,164.854763 133.717922,166.192827 134.663176,166.585637 C135.843398,167.057367 136.942906,166.585637 137.179668,165.721097 C137.495351,164.696922 137.572478,162.888922 137.572478,160.29351 L137.572478,156.754637 L140.325732,157.619176 C140.483573,158.562637 140.641414,159.50789 140.404652,162.575033 C140.246811,164.540875 140.246811,165.800017 139.22443,168.86716 C139.538319,169.810621 140.16789,170.517319 140.95351,170.754081 C142.763303,171.383652 144.180287,170.754081 144.730938,164.854763 C144.888779,163.12389 145.046621,162.18043 144.9677,159.113287 L147.563113,159.821779 C147.71916,161.471938 147.71916,164.148065 147.405271,166.506716 C147.16851,168.237589 146.38289,171.069763 145.595478,172.484954 C146.067208,173.428414 146.852827,173.821224 147.563113,173.979065 C148.899383,174.215827 150.000684,173.744097 150.630256,171.069763 C151.731557,166.506716 151.810478,162.259351 151.573716,159.821779 L154.169129,160.686319 C154.561938,163.04497 154.561938,164.775843 154.013081,168.158668 C153.304589,172.327113 151.258033,179.878383 150.235652,183.261208 C147.877002,190.970319 148.5837,192.071621 149.921763,192.38551 C152.361129,192.93616 159.438875,169.652779 159.438875,162.18043 M139.22443,131.347573 C139.854002,126.628478 141.584875,124.424081 145.437637,124.424081 C149.686795,124.424081 152.124367,126.233875 152.361129,129.932383 C152.440049,130.56016 152.440049,131.189732 152.59789,131.81751 C157.630875,131.426494 159.675637,128.592525 159.675637,126.707398 C159.675637,122.381113 154.092002,119.156129 144.730938,119.156129 C138.35989,119.156129 132.223811,121.435859 132.223811,125.841065 C132.223811,128.513605 134.977065,130.244478 139.22443,131.347573 M153.067827,134.414716 C155.428271,143.616144 162.271049,152.819367 162.271049,162.338271 C162.271049,169.181049 158.653256,181.846017 155.27043,189.71297 C152.752144,195.610494 150.788097,196.869637 148.348732,195.924383 C145.674398,194.902002 144.888779,191.364922 147.71916,181.846017 C148.348732,179.720541 148.741541,178.22643 149.057224,177.125129 C148.348732,177.28297 147.64024,177.204049 146.696779,177.125129 C145.516557,176.969081 143.629637,175.552097 143.315748,173.586256 C142.449414,173.979065 141.505954,174.057986 140.562494,173.821224 C139.147303,173.428414 137.41643,172.248192 136.942906,169.575652 C136.157287,170.205224 134.977065,170.363065 134.112525,170.047383 C130.023002,168.78824 129.86516,162.966049 129.86516,158.562637 C129.86516,149.910065 131.750287,144.405351 138.989462,135.594938 C138.989462,135.123208 138.989462,134.649684 139.068383,134.179748 C133.875763,133.076652 129.077748,130.402319 129.077748,125.604303 C129.077748,119.862827 135.448795,115.852224 144.415256,115.852224 C158.181525,115.852224 162.8217,121.041256 162.8217,126.628478 C162.8217,130.402319 159.203906,133.785144 153.067827,134.414716" id="Fill-26" fill="#1D1D1B"></path>
                <path d="M60.8160619,62.0896937 C60.8160619,71.6857254 70.2542524,81.7534873 70.8049032,95.6758048 C71.7501571,96.4632175 72.9285857,96.7771063 74.1877286,96.7771063 C77.570554,96.7771063 78.5911413,94.8094714 78.7489825,87.3371222 C84.7272206,79.3159159 87.5593952,75.303519 87.5593952,64.1344556 C87.5593952,59.4153603 86.5370143,58.0772968 85.5917603,57.6844873 C84.4115381,57.2109635 83.3120302,57.6844873 83.0752683,58.549027 C82.7595857,59.5714079 82.6824587,61.3794079 82.6824587,63.9766143 L82.6824587,67.5154873 L79.9292048,66.6509476 C79.7713635,65.7074873 79.6135222,64.7622333 79.8502841,61.6950905 C80.0081254,59.7292492 80.0081254,58.4701063 81.0305063,55.4011698 C80.7166175,54.4595032 80.087046,53.7510111 79.301427,53.5160429 C77.4916333,52.8846778 76.0746492,53.5160429 75.5239984,59.4153603 C75.3661571,61.1462333 75.2083159,62.0896937 75.2872365,65.1568365 L72.6918238,64.4483444 C72.5357762,62.7981857 72.5357762,60.1220587 72.8496651,57.7634079 C73.086427,56.0325349 73.872046,53.2003603 74.6594587,51.7851698 C74.1877286,50.8417095 73.4021095,50.4471063 72.6918238,50.2910587 C71.355554,50.0542968 70.2542524,50.526027 69.624681,53.2003603 C68.5233794,57.7634079 68.4444587,62.010773 68.6812206,64.4483444 L66.0858079,63.5838048 C65.6929984,61.225154 65.6929984,59.494281 66.2418556,56.1114556 C66.9503476,51.9430111 68.9969032,44.3917413 70.0192841,41.0089159 C72.3779349,33.2998048 71.6712365,32.1985032 70.333173,31.8846143 C67.8938079,31.3339635 60.8160619,54.6155508 60.8160619,62.0896937 M88.0311254,98.4290587 C88.0311254,95.7547254 85.2778714,94.0238524 81.0305063,92.9225508 C80.4009349,97.641646 78.6700619,99.8442492 74.8173,99.8442492 C70.5681413,99.8442492 68.1305698,98.0362492 67.8938079,94.3377413 C67.8148873,93.7099635 67.8148873,93.0803921 67.657046,92.4508206 C62.6240619,92.8436302 60.5793,95.6758048 60.5793,97.5627254 C60.5793,101.889011 66.1629349,105.113995 75.5239984,105.113995 C81.895046,105.113995 88.0311254,102.834265 88.0311254,98.4290587 M91.1771889,98.6658206 C91.1771889,104.407297 84.8061413,108.4179 75.839681,108.4179 C62.0734111,108.4179 57.4332365,103.227075 57.4332365,97.641646 C57.4332365,93.8678048 61.0510302,90.4849794 67.1871095,89.8536143 C64.8266651,80.6521857 57.9838873,71.4489635 57.9838873,61.9318524 C57.9838873,55.0890746 61.601681,42.4241063 64.9845063,34.557154 C67.5027921,28.6578365 69.4668397,27.4004873 71.9062048,28.3457413 C74.5805381,29.3663286 75.3661571,32.9052016 72.5357762,42.4241063 C71.9062048,44.5477889 71.5133952,46.0436937 71.1977127,47.1432016 C71.9062048,46.987154 72.6146968,47.064281 73.5581571,47.1432016 C74.7383794,47.3010429 76.6253,48.7162333 76.9391889,50.6838683 C77.8055222,50.2910587 78.7489825,50.2121381 79.6924429,50.4471063 C81.1076333,50.8417095 82.8385063,52.0219317 83.3120302,54.6944714 C84.0976492,54.0649 85.2778714,53.9070587 86.1424111,54.2227413 C90.2319349,55.4800905 90.3897762,61.302281 90.3897762,65.7074873 C90.3897762,74.3600587 88.5046492,79.864773 81.2654746,88.6751857 C81.2654746,89.1469159 81.2654746,89.6204397 81.186554,90.0903762 C86.379173,91.1934714 91.1771889,93.8678048 91.1771889,98.6658206" id="Fill-28" fill="#1D1D1B"></path>
                <path d="M153.560363,64.4754286 C143.962538,64.4754286 133.894776,73.9154127 119.972459,74.4642698 C119.18684,75.4095238 118.871157,76.589746 118.871157,77.8470952 C118.871157,81.2299206 120.838792,82.2523016 128.311141,82.4101429 C136.334141,88.388381 140.346538,91.2187619 151.513808,91.2187619 C156.234697,91.2187619 157.570967,90.196381 157.96557,89.2529206 C158.4373,88.0726984 157.96557,86.9713968 157.10103,86.7364286 C156.076856,86.420746 154.268856,86.3418254 151.671649,86.3418254 L148.13457,86.3418254 L148.997316,83.5885714 C149.940776,83.4325238 150.88603,83.2746825 153.954967,83.5096508 C155.919014,83.6674921 157.179951,83.6674921 160.247094,84.6916667 C161.190554,84.3759841 161.897252,83.7464127 162.134014,82.9607937 C162.763586,81.151 162.134014,79.7358095 156.234697,79.1851587 C154.503824,79.0273175 153.560363,78.8694762 150.493221,78.9483968 L151.201713,76.3529841 C152.851871,76.1951429 155.527998,76.1951429 157.886649,76.5108254 C159.617522,76.7475873 162.447903,77.5332063 163.864887,78.320619 C164.808348,77.8470952 165.201157,77.0614762 165.358998,76.3529841 C165.59576,75.0167143 165.122237,73.9154127 162.447903,73.2858413 C157.886649,72.1845397 153.639284,72.105619 151.201713,72.342381 L152.066252,69.7451746 C154.424903,69.3523651 156.155776,69.3523651 159.538602,69.9030159 C163.707046,70.6115079 171.258316,72.6562698 174.641141,73.6786508 C182.350252,76.0373016 183.44976,75.3306032 183.765443,73.9943333 C184.3143,71.5549683 161.032713,64.4754286 153.560363,64.4754286 M122.727506,84.6916667 C118.006617,84.0620952 115.804014,82.3312222 115.804014,78.4766667 C115.804014,74.2293016 117.613808,71.7899365 121.310522,71.5549683 C121.940094,71.4760476 122.569665,71.4760476 123.197443,71.3182063 C122.806427,66.2852222 119.972459,64.2386667 118.085538,64.2386667 C113.759252,64.2386667 110.534268,69.8240952 110.534268,79.1851587 C110.534268,85.5562063 112.815792,91.6922857 117.219205,91.6922857 C119.893538,91.6922857 121.624411,88.9390317 122.727506,84.6916667 M187.304316,75.5673651 C186.281935,78.2416984 182.743062,79.0273175 173.225951,76.1951429 C171.100475,75.5673651 169.606363,75.1727619 168.505062,74.858873 C168.662903,75.5673651 168.583983,76.2740635 168.505062,77.2175238 C168.347221,78.3995397 166.93203,80.2846667 164.964395,80.6003492 C165.358998,81.4666825 165.437919,82.4101429 165.201157,83.3536032 C164.808348,84.7687937 163.628125,86.4996667 160.953792,86.9713968 C161.583363,87.7570159 161.741205,88.9390317 161.427316,89.8035714 C160.168173,93.8930952 154.345983,94.0509365 149.940776,94.0509365 C141.289998,94.0509365 135.78349,92.1640159 126.974871,84.9266349 C126.501348,84.9266349 126.029617,84.9266349 125.557887,84.8477143 C124.456586,90.0403333 121.782252,94.8383492 116.984237,94.8383492 C111.240967,94.8383492 107.230363,88.4673016 107.230363,79.4990476 C107.230363,65.7345714 112.421189,61.0926032 118.006617,61.0926032 C121.782252,61.0926032 125.165078,64.7121905 125.794649,70.8482698 C134.996078,68.4860317 144.1993,61.6450476 153.718205,61.6450476 C160.560983,61.6450476 173.225951,65.2610476 181.09111,68.643873 C186.990427,71.1621587 188.24957,73.128 187.304316,75.5673651" id="Fill-30" fill="#1D1D1B"></path>
            </g>
        </g>
    </g>
</svg>