<?xml version="1.0" encoding="UTF-8"?>
<svg width="77px" height="106px" viewBox="0 0 77 106" version="1.1" xmlns="http://www.w3.org/2000/svg" xmlns:xlink="http://www.w3.org/1999/xlink">
    <title>Group 29</title>
    <g id="2_Join" stroke="none" stroke-width="1" fill="none" fill-rule="evenodd">
        <g id="Joining/HOST-WALZER-Copy" transform="translate(-208.000000, -213.000000)">
            <g id="Group-29" transform="translate(209.482651, 215.272554)">
                <polygon id="Fill-1" fill="#FFFFFF" points="0.446083146 39.7888323 73.7179164 39.7888323 73.7179164 21.0640462 0.446083146 21.0640462"></polygon>
                <polygon id="Stroke-2" stroke="#1D1D1B" stroke-width="3" points="0.446083146 39.7888323 73.7179164 39.7888323 73.7179164 21.0640462 0.446083146 21.0640462"></polygon>
                <path d="M26.0789129,42.1562848 L26.0789129,18.7226449 L26.0789129,42.1562848 Z" id="Fill-4" fill="#FEFEFE"></path>
                <line x1="26.0787345" y1="18.7229126" x2="26.0787345" y2="42.1565524" id="Stroke-5" stroke="#1D1D1B" stroke-width="3"></line>
                <path d="M52.333761,42.1562848 L52.333761,18.7226449 L52.333761,42.1562848 Z" id="Fill-6" fill="#FEFEFE"></path>
                <line x1="52.3336718" y1="18.7229126" x2="52.3336718" y2="42.1565524" id="Stroke-7" stroke="#1D1D1B" stroke-width="3"></line>
                <polygon id="Fill-8" fill="#FFFFFF" points="13.1969238 89.2005702 62.2972957 89.2005702 62.2972957 40.1001983 13.1969238 40.1001983"></polygon>
                <polygon id="Stroke-9" stroke="#1D1D1B" stroke-width="3" points="13.1969238 89.2005702 62.2972957 89.2005702 62.2972957 40.1001983 13.1969238 40.1001983"></polygon>
                <g id="Group-28" transform="translate(12.490328, 0.314935)">
                    <path d="M48.1755523,23.0500083 C48.1755523,35.7080637 37.9138556,45.9688682 25.2566924,45.9688682 C12.5986371,45.9688682 2.33694039,35.7080637 2.33694039,23.0500083 C2.33694039,10.391953 12.5986371,0.131148445 25.2566924,0.131148445 C37.9138556,0.131148445 48.1755523,10.391953 48.1755523,23.0500083" id="Fill-10" fill="#FFFFFF"></path>
                    <path d="M48.1755523,23.0500083 C48.1755523,35.7080637 37.9138556,45.9688682 25.2566924,45.9688682 C12.5986371,45.9688682 2.33694039,35.7080637 2.33694039,23.0500083 C2.33694039,10.391953 12.5986371,0.131148445 25.2566924,0.131148445 C37.9138556,0.131148445 48.1755523,10.391953 48.1755523,23.0500083 Z" id="Stroke-12" stroke="#1D1D1B" stroke-width="3"></path>
                    <g id="Group-16" transform="translate(15.166827, 87.432297)" stroke="#1D1D1B" stroke-width="3">
                        <line x1="1.14215129" y1="0.882620113" x2="1.14215129" y2="13.382762" id="Stroke-14"></line>
                    </g>
                    <g id="Group-19" transform="translate(33.902319, 87.432297)" stroke="#1D1D1B" stroke-width="3">
                        <line x1="1.185689" y1="0.882620113" x2="1.185689" y2="13.382762" id="Stroke-17"></line>
                    </g>
                    <path d="M35.0792649,43.1760309 C35.5744172,53.0826454 39.6712448,66.348266 49.4431422,76.3601561" id="Stroke-20" stroke="#1D1D1B" stroke-width="3"></path>
                    <path d="M40.9301806,40.6119449 C40.787434,42.7138887 40.9052,45.0165699 41.2727725,47.4075756 C42.4058237,54.7750848 45.5257292,61.4966657 49.9258934,68.7508698" id="Stroke-22" stroke="#1D1D1B" stroke-width="3"></path>
                    <path d="M15.5112924,43.1760309 C15.0161401,53.0826454 10.9193125,66.348266 1.14830723,76.3601561" id="Stroke-24" stroke="#1D1D1B" stroke-width="3"></path>
                    <path d="M9.6608227,40.6119449 C9.8035693,42.7138887 9.68580335,45.0165699 9.31823084,47.4075756 C8.18517965,54.7750848 5.06527412,61.4966657 0.665109971,68.7508698" id="Stroke-26" stroke="#1D1D1B" stroke-width="3"></path>
                </g>
            </g>
        </g>
    </g>
</svg>