<?xml version="1.0" encoding="UTF-8"?>
<svg width="446px" height="133px" viewBox="0 0 446 133" version="1.1" xmlns="http://www.w3.org/2000/svg" xmlns:xlink="http://www.w3.org/1999/xlink">
    <title>Group 42</title>
    <defs>
        <polygon id="path-1" points="0 0.675675 444.0546 0.675675 444.0546 130.625 0 130.625"></polygon>
    </defs>
    <g id="2_Join" stroke="none" stroke-width="1" fill="none" fill-rule="evenodd">
        <g id="Joining/HOST-WALZER-Copy" transform="translate(-528.000000, -1241.000000)">
            <g id="Group-42" transform="translate(528.500000, 1241.263526)">
                <g id="Group-3" transform="translate(0.000000, 0.699875)">
                    <mask id="mask-2" fill="white">
                        <use xlink:href="#path-1"></use>
                    </mask>
                    <g id="Clip-2"></g>
                    <path d="M444.0546,24.031425 C394.52435,16.526675 391.162475,0.675675 318.4951,0.675675 C227.812475,0.675675 227.812475,30.0883 137.12985,30.0883 C78.56585,30.0883 61.9751,18.993425 30.2016,10.303425 L-0.000275,103.58205 C53.32635,110.57255 66.3806,130.62555 141.256225,130.62555 C231.937475,130.62555 231.937475,101.21155 322.6201,101.21155 C378.388725,101.21155 388.78235,109.30205 418.139975,117.8683 L444.0546,24.031425 Z" id="Fill-1" fill="#016830" mask="url(#mask-2)"></path>
                </g>
                <polygon id="Fill-4" fill="#FEFEFE" points="54.9593 52.3172375 69.788675 57.2906125 66.807675 66.1813625 33.147675 54.8912375 36.021425 46.3249875 54.5908 39.8762375 40.569925 35.1723625 43.550925 26.2829875 76.44505 37.3159875 73.5713 45.8822375"></polygon>
                <path d="M117.6318,43.5771875 L115.1183,60.8760625 C113.4793,72.1496875 105.62255,74.3483125 93.512925,72.5910625 C81.4033,70.8310625 74.4953,66.4888125 76.132925,55.2151875 L78.64505,37.9163125 L91.304675,39.7546875 L88.796675,57.0109375 C88.22055,60.9681875 90.625425,62.5054375 94.887925,63.1228125 C99.150425,63.7415625 101.892175,62.9536875 102.466925,58.9950625 L104.974925,41.7388125 L117.6318,43.5771875 Z" id="Fill-6" fill="#FEFEFE"></path>
                <path d="M147.034525,55.4431625 C147.0084,53.6542875 146.18615,52.8141625 143.7579,52.8499125 L134.21265,52.9915375 L134.288275,58.1890375 L143.8349,58.0487875 C146.220525,58.0130375 147.062025,57.1907875 147.034525,55.4431625 L147.034525,55.4431625 Z M162.22415,73.8447875 L148.1194,74.0524125 L143.049775,65.5177875 L134.39965,65.6470375 L134.52615,74.2545375 L121.742775,74.4429125 L121.29315,44.0169125 L147.5419,43.6305375 C157.811775,43.4792875 161.150275,47.2660375 161.2479,53.9127875 C161.32215,58.8985375 159.054775,61.2759125 155.149775,62.3552875 L155.15665,62.7829125 L162.22415,73.8447875 Z" id="Fill-8" fill="#FEFEFE"></path>
                <polygon id="Fill-10" fill="#FEFEFE" points="207.717125 55.0108625 222.70875 50.5448625 225.385875 59.5318625 191.35875 69.6683625 188.77925 61.0072375 200.256375 45.0476125 186.082875 49.2688625 183.404375 40.2818625 216.656 30.3777375 219.236875 39.0374875"></polygon>
                <polygon id="Fill-12" fill="#FEFEFE" points="239.861875 34.561725 259.714125 29.108475 261.575875 35.89135 241.723625 41.343225 242.829125 45.3706 263.99725 39.558475 266.017125 46.914725 232.519375 56.11485 224.4605 26.768225 257.71075 17.635475 259.766375 25.11685 238.84575 30.862975"></polygon>
                <polygon id="Fill-14" fill="#FEFEFE" points="271.904462 46.5177625 267.965087 16.3475125 280.641212 14.6920125 284.581962 44.8622625"></polygon>
                <polygon id="Fill-16" fill="#FEFEFE" points="322.74055 21.7006625 310.8523 22.0815375 311.5343 43.3871625 298.750925 43.7955375 298.068925 22.4899125 286.1793 22.8721625 285.8878 13.7517875 322.44905 12.5816625"></polygon>
                <polygon id="Fill-18" fill="#FEFEFE" points="352.703175 34.4436125 345.049925 33.9183625 344.5068 41.8287375 337.3623 41.3392375 337.90405 33.4288625 330.249425 32.9036125 330.71005 26.1839875 338.364675 26.7092375 338.900925 18.8841125 346.045425 19.3736125 345.51055 27.1973625 353.165175 27.7226125"></polygon>
                <polygon id="Fill-20" fill="#FEFEFE" points="383.264613 39.6884125 375.730988 38.2405375 374.236363 46.0257875 367.203238 44.6769125 368.697863 36.8916625 361.164238 35.4451625 362.433363 28.8314125 369.966988 30.2779125 371.445113 22.5765375 378.478238 23.9267875 376.998738 31.6281625 384.533738 33.0732875"></polygon>
                <polygon id="Fill-22" fill="#FEFEFE" points="412.878263 48.6904 405.559138 46.390025 403.181763 53.952525 396.350763 51.807525 398.728138 44.245025 391.409013 41.94465 393.427513 35.519275 400.746638 37.81965 403.097888 30.3369 409.927513 32.48465 407.577638 39.966025 414.896763 42.2664"></polygon>
                <polygon id="Fill-24" fill="#FEFEFE" points="59.45885 107.671713 44.8206 103.079213 40.372475 89.3567125 34.338975 91.9307125 32.094975 99.0862125 19.89735 95.2595875 29.00535 66.2278375 41.202975 70.0558375 37.97585 80.3422125 52.71035 73.6652125 66.57585 78.0157125 51.287225 84.6074625"></polygon>
                <path d="M93.798925,100.524188 C94.695425,96.1406875 92.693425,93.1638125 87.014675,92.0033125 C81.3373,90.8414375 78.3288,92.7925625 77.4323,97.1760625 C76.534425,101.560938 78.536425,104.536438 84.215175,105.698313 C89.89255,106.858813 92.902425,104.907688 93.798925,100.524188 M107.493925,103.325063 C105.26505,114.223313 97.15805,117.913813 82.33555,114.883313 C67.514425,111.851438 61.5098,105.273438 63.7373,94.3751875 C65.966175,83.4796875 74.0718,79.7864375 88.8943,82.8183125 C103.7168,85.8488125 109.721425,92.4281875 107.493925,103.325063" id="Fill-26" fill="#FEFEFE"></path>
                <path d="M133.132862,94.845575 C129.040863,94.79195 128.052238,95.4602 128.038488,96.525825 C128.023363,97.590075 128.742488,98.1112 131.722113,98.406825 L142.275238,99.52745 C149.553112,100.307075 154.204738,103.095575 154.119488,109.486575 C153.999863,118.4777 146.734363,120.08645 133.268988,119.9077 C120.057987,119.733075 112.927238,117.5922 112.663237,108.4677 L127.151612,108.6602 C127.328987,111.34695 129.581237,111.931325 133.543988,111.98495 C138.018237,112.044075 139.133363,111.46245 139.149863,110.311575 C139.164987,109.1607 138.448612,108.469075 135.299862,108.086825 L125.428738,106.84795 C118.834238,106.035325 113.532238,104.0457 113.580362,97.227075 C113.647737,88.960575 121.899113,87.02595 133.403738,87.178575 C144.824488,87.329825 152.638613,89.47895 152.912238,97.708325 L138.679613,97.518575 C138.531113,95.940075 136.838487,94.895075 133.132862,94.845575" id="Fill-28" fill="#FEFEFE"></path>
                <polygon id="Fill-30" fill="#FEFEFE" points="194.078637 93.0435 182.283887 94.55325 184.989887 115.691125 172.306887 117.315 169.599513 96.177125 157.804763 97.686875 156.645637 88.64075 192.919512 83.996"></polygon>
                <polygon id="Fill-32" fill="#FEFEFE" points="212.481363 89.9229375 232.120488 83.7313125 234.236613 90.4413125 214.597487 96.6329375 215.852863 100.616313 236.794113 94.0163125 239.088988 101.294188 205.950113 111.741438 196.796738 82.7096875 229.692238 72.3394375 232.024238 79.7396875 211.327738 86.2640625"></polygon>
                <polygon id="Fill-34" fill="#FEFEFE" points="278.830475 60.47855 284.8681 90.30505 270.621725 93.188425 254.853225 79.94305 254.6016 79.993925 257.798475 95.784425 246.01885 98.168675 239.981225 68.34355 254.393975 65.4258 269.961725 78.5378 270.211975 78.486925 267.05085 62.8628"></polygon>
                <polygon id="Fill-36" fill="#FEFEFE" points="291.347787 90.123 290.357787 59.698375 303.142538 59.28175 303.839662 80.757875 325.017412 80.070375 325.308913 89.018875"></polygon>
                <path d="M353.523637,75.5566625 C353.833012,71.0920375 351.454262,68.4066625 345.671012,68.0065375 C339.886387,67.6077875 337.162512,69.9397875 336.853137,74.4057875 C336.543762,78.8704125 338.923887,81.5557875 344.707137,81.9559125 C350.490387,82.3546625 353.215637,80.0226625 353.523637,75.5566625 M367.474387,76.5205375 C366.707137,87.6195375 359.158387,92.3550375 344.060887,91.3127875 C328.963387,90.2691625 322.137887,84.5422875 322.903762,73.4419125 C323.671012,62.3429125 331.218387,57.6074125 346.317262,58.6510375 C361.413387,59.6932875 368.240262,65.4201625 367.474387,76.5205375" id="Fill-38" fill="#FEFEFE"></path>
                <path d="M392.4734,73.6982125 C388.5134,72.6669625 387.39415,73.0794625 387.12465,74.1107125 C386.856525,75.1419625 387.428525,75.8198375 390.2514,76.8194625 L400.235275,80.4315875 C407.1144,82.9285875 410.965775,86.7497125 409.354275,92.9372125 C407.088275,101.640963 399.6454,101.463588 386.6104,98.0700875 C373.824275,94.7398375 367.4099,90.9558375 369.33765,82.0320875 L383.36265,85.6840875 C382.891025,88.3364625 384.9384,89.4419625 388.77465,90.4415875 C393.1059,91.5690875 394.328275,91.2707125 394.6184,90.1569625 C394.908525,89.0432125 394.37915,88.2003375 391.413275,87.0755875 L382.1224,83.5115875 C375.911525,81.1452125 371.239275,77.9455875 372.9154,71.3345875 C374.95865,63.3224625 383.435525,63.4145875 394.57165,66.3158375 C405.62665,69.1950875 412.701025,73.1523375 411.00015,81.2098375 L397.221275,77.6224625 C397.455025,76.0522125 396.06215,74.6332125 392.4734,73.6982125" id="Fill-40" fill="#FEFEFE"></path>
            </g>
        </g>
    </g>
</svg>