<?xml version="1.0" encoding="UTF-8"?>
<svg width="290px" height="57px" viewBox="0 0 290 57" version="1.1" xmlns="http://www.w3.org/2000/svg" xmlns:xlink="http://www.w3.org/1999/xlink">
    <title>Group 11</title>
    <defs>
        <polygon id="path-1" points="6.45450836e-05 0.337570787 51.0403803 0.337570787 51.0403803 54.863192 6.45450836e-05 54.863192"></polygon>
        <polygon id="path-3" points="0.461690983 0.518426112 47.8621159 0.518426112 47.8621159 53.4176403 0.461690983 53.4176403"></polygon>
    </defs>
    <g id="PAGE" stroke="none" stroke-width="1" fill="none" fill-rule="evenodd">
        <g id="Custom-Preset-3-Copy-10" transform="translate(-1181.000000, -29.000000)">
            <g id="Group-11" transform="translate(1181.976521, 29.230336)">
                <g id="Group-3" transform="translate(0.000000, 0.307622)">
                    <mask id="mask-2" fill="white">
                        <use xlink:href="#path-1"></use>
                    </mask>
                    <g id="Clip-2"></g>
                    <path d="M51.0403803,24.8897461 L51.0403803,53.31411 L45.9284097,53.31411 L44.5342359,43.6329929 C41.3586178,51.0679411 34.0785778,54.863192 26.0233514,54.863192 C9.52691889,54.863192 6.45450836e-05,42.5486355 6.45450836e-05,27.3682773 C6.45450836e-05,12.5751896 10.6106308,0.337441697 26.953446,0.337441697 C40.429814,0.337441697 49.8785688,9.55447964 50.5756557,19.3905049 L37.7182751,19.3905049 C36.557109,14.9762667 31.7549548,11.8006486 26.5655301,11.7231945 C17.4265917,11.7231945 12.9342539,20.0875918 12.9342539,27.6780937 C12.9342539,35.3454042 16.4196884,44.0202634 27.4949793,44.0202634 C34.0011237,44.0202634 38.3379079,39.1406551 39.1130943,34.2616922 L24.3200066,34.2616922 L24.3200066,24.8897461 L51.0403803,24.8897461 Z" id="Fill-1" fill="#000000" mask="url(#mask-2)"></path>
                </g>
                <path d="M108.150516,33.7943213 L96.6879544,10.4044738 L94.1319691,33.7943213 L108.150516,33.7943213 Z M131.453227,53.6219255 L118.063995,53.6219255 L113.417395,44.2499794 L93.0482571,44.2499794 L92.1181625,53.6219255 L80.7227279,53.6219255 L86.9184105,2.11688511 L104.887116,2.11688511 L131.453227,53.6219255 Z" id="Fill-4" fill="#000000"></path>
                <path d="M182.799358,13.2697592 C173.273149,13.2697592 169.091273,16.2652965 169.091273,23.3387922 C169.091273,34.3856833 176.216405,42.7784805 188.453507,42.6242178 L191.241855,42.6242178 L185.587705,13.2697592 L182.799358,13.2697592 Z M182.876812,2.1170142 L195.811647,2.1170142 L205.80258,53.6220546 L190.234951,53.6220546 C170.097531,53.6220546 156.311346,43.6588755 156.311346,22.7191594 C156.311346,10.7228102 166.457833,2.1170142 182.876812,2.1170142 L182.876812,2.1170142 Z" id="Fill-6" fill="#000000"></path>
                <g id="Group-10" transform="translate(240.107711, 1.598524)">
                    <mask id="mask-4" fill="white">
                        <use xlink:href="#path-3"></use>
                    </mask>
                    <g id="Clip-9"></g>
                    <path d="M47.8623095,30.6467803 C47.8623095,44.3555106 39.6521749,53.4176403 24.1620002,53.4176403 C8.67182562,53.4176403 0.461690983,44.3555106 0.461690983,30.6467803 L0.461690983,0.518426112 L12.9318011,0.518426112 L12.9318011,30.414418 C12.9318011,38.8562694 18.2761341,42.1867958 24.1620002,42.1867958 C30.125966,42.1867958 35.3928448,39.4759022 35.3928448,30.414418 L35.3928448,0.518426112 L47.8623095,0.518426112 L47.8623095,30.6467803 Z" id="Fill-8" fill="#000000" mask="url(#mask-4)"></path>
                </g>
            </g>
        </g>
    </g>
</svg>