<?xml version="1.0" encoding="UTF-8"?>
<svg width="290px" height="56px" viewBox="0 0 290 56" version="1.1" xmlns="http://www.w3.org/2000/svg" xmlns:xlink="http://www.w3.org/1999/xlink">
    <title>Group 10</title>
    <defs>
        <polygon id="path-1" points="0.462841176 0.519847059 47.9813529 0.519847059 47.9813529 53.5508471 0.462841176 53.5508471"></polygon>
    </defs>
    <g id="PAGE" stroke="none" stroke-width="1" fill="none" fill-rule="evenodd">
        <g id="Custom-Preset-3-Copy-10" transform="translate(-779.000000, -30.000000)">
            <g id="Group-10" transform="translate(779.500000, 30.230336)">
                <path d="M51.1675353,24.6132118 L51.1675353,53.1083882 L46.0428294,53.1083882 L44.6451824,43.4031529 C41.4616529,50.8566235 34.1634765,54.6613294 26.0881824,54.6613294 C9.55065294,54.6613294 6.47058824e-05,42.3160941 6.47058824e-05,27.0979176 C6.47058824e-05,12.2679765 10.6370647,-0.000258823529 27.0205941,-0.000258823529 C40.5305353,-0.000258823529 50.0028294,9.23974118 50.7016529,19.1002706 L37.8122412,19.1002706 C36.6481824,14.6750353 31.8340647,11.4915059 26.6317118,11.4138588 C17.4700059,11.4138588 12.9664765,19.7990941 12.9664765,27.4085059 C12.9664765,35.0949176 16.4605941,43.7913882 27.5634765,43.7913882 C34.0858294,43.7913882 38.4334176,38.8996235 39.2105353,34.0085059 L24.3805941,34.0085059 L24.3805941,24.6132118 L51.1675353,24.6132118 Z" id="Fill-1" fill="#000000"></path>
                <path d="M114.993224,33.2315824 L112.430871,9.78346471 L100.939753,33.2315824 L114.993224,33.2315824 Z M104.589165,1.47522941 L122.602635,1.47522941 L128.813753,53.1085824 L117.012047,53.1085824 L116.080282,43.7132882 L95.6597529,43.7132882 L91.0015765,53.1085824 L77.9575176,53.1085824 L104.589165,1.47522941 Z" id="Fill-3" fill="#000000"></path>
                <path d="M180.6046,12.6558882 L174.936365,42.0834765 L177.732306,42.0834765 C189.999894,42.2381235 197.142776,34.3964176 197.142776,22.7500059 C197.142776,16.1500059 192.949835,12.6558882 183.399894,12.6558882 L180.6046,12.6558882 Z M209.953894,22.1288294 C209.953894,41.2287118 196.133365,53.1087118 175.946424,53.1087118 L160.340012,53.1087118 L170.355188,1.47535882 L183.322247,1.47535882 C199.782776,1.47535882 209.953894,8.85118235 209.953894,22.1288294 L209.953894,22.1288294 Z" id="Fill-5" fill="#000000"></path>
                <g id="Group-9" transform="translate(240.705882, 0.955447)">
                    <mask id="mask-2" fill="white">
                        <use xlink:href="#path-1"></use>
                    </mask>
                    <g id="Clip-8"></g>
                    <path d="M47.9815471,30.7232588 C47.9815471,44.4661412 39.7509588,53.5508471 24.2221941,53.5508471 C8.69342941,53.5508471 0.462841176,44.4661412 0.462841176,30.7232588 L0.462841176,0.519847059 L12.9640176,0.519847059 L12.9640176,30.4903176 C12.9640176,38.9532 18.3216647,42.2920235 24.2221941,42.2920235 C30.2010176,42.2920235 35.4810176,39.5743765 35.4810176,30.4903176 L35.4810176,0.519847059 L47.9815471,0.519847059 L47.9815471,30.7232588 Z" id="Fill-7" fill="#000000" mask="url(#mask-2)"></path>
                </g>
            </g>
        </g>
    </g>
</svg>