<?xml version="1.0" encoding="UTF-8"?>
<svg width="38px" height="38px" viewBox="0 0 38 38" version="1.1" xmlns="http://www.w3.org/2000/svg" xmlns:xlink="http://www.w3.org/1999/xlink">
    <title>Combined Shape</title>
    <g id="Symbols" stroke="none" stroke-width="1" fill="none" fill-rule="evenodd">
        <g id="footer-copy-5" transform="translate(-418.000000, -96.000000)" fill="#FFFFFF" fill-rule="nonzero">
            <path d="M453.951168,96.5806452 C455.082686,96.5806452 456,97.4947376 456,98.6227453 L456,98.6227453 L456,131.538401 C456,132.666266 455.082542,133.580645 453.951168,133.580645 L453.951168,133.580645 L444.492709,133.580645 L444.493438,120.309349 L449.318989,120.309349 L450.041547,114.725302 L444.493438,114.725302 L444.493438,111.160241 C444.493438,109.54353 444.943884,108.441795 447.270013,108.441795 L450.23688,108.440503 L450.23688,103.446087 C449.723771,103.378036 447.962609,103.225998 445.913633,103.225998 C441.63605,103.225998 438.707501,105.828298 438.707501,110.60722 L438.707501,114.725302 L433.869561,114.725302 L433.869561,120.309349 L438.707501,120.309349 L438.706709,133.580645 L420.924685,133.580645 C419.844187,133.580645 418.959519,132.747371 418.881327,131.690794 L418.875709,131.538401 L418.875709,98.6227453 C418.875709,97.4947376 419.792879,96.5806452 420.924685,96.5806452 L420.924685,96.5806452 Z" id="Combined-Shape"></path>
        </g>
    </g>
</svg>