<?xml version="1.0" encoding="UTF-8"?>
<svg width="40px" height="40px" viewBox="0 0 40 40" version="1.1" xmlns="http://www.w3.org/2000/svg" xmlns:xlink="http://www.w3.org/1999/xlink">
    <title>Shape</title>
    <g id="Symbols" stroke="none" stroke-width="1" fill="none" fill-rule="evenodd">
        <g id="footer-copy-5" transform="translate(-349.000000, -95.000000)" fill="#FFFFFF" fill-rule="nonzero">
            <path d="M368.565657,99.0955202 C373.789687,99.0955202 374.409266,99.1150202 376.473443,99.2092702 C381.775736,99.4497702 384.252422,101.957145 384.493731,107.202645 C384.588299,109.25827 384.606234,109.87577 384.606234,115.08227 C384.606234,120.290395 384.586668,120.90627 384.493731,122.961895 C384.250791,128.20252 381.780627,130.71477 376.473443,130.95527 C374.409266,131.04952 373.792948,131.06902 368.565657,131.06902 C363.341626,131.06902 362.722047,131.04952 360.659501,130.95527 C355.344164,130.713145 352.880522,128.194395 352.639212,122.96027 C352.544645,120.904645 352.525079,120.28877 352.525079,115.080645 C352.525079,109.874145 352.546275,109.25827 352.639212,107.20102 C352.882152,101.957145 355.352316,99.4481452 360.659501,99.2076452 C362.723678,99.1150202 363.341626,99.0955202 368.565657,99.0955202 L368.565657,99.0955202 Z M368.565657,95.5806452 C363.25195,95.5806452 362.586718,95.6033952 360.499715,95.6976452 C353.39412,96.0226452 349.445119,99.9518952 349.119024,107.040145 C349.022827,109.12177 349,109.78477 349,115.080645 C349,120.37652 349.022827,121.041145 349.117394,123.121145 C349.443488,130.202895 353.385968,134.138645 360.498084,134.463645 C362.586718,134.557895 363.25195,134.580645 368.565657,134.580645 C373.879363,134.580645 374.546226,134.557895 376.633229,134.463645 C383.732301,134.138645 387.691086,130.209395 388.012289,123.121145 C388.108487,121.041145 388.131313,120.37652 388.131313,115.080645 C388.131313,109.78477 388.108487,109.12177 388.013919,107.04177 C387.694347,99.9665202 383.746976,96.0242702 376.634859,95.6992702 C374.546226,95.6033952 373.879363,95.5806452 368.565657,95.5806452 Z M368.565657,105.067395 C363.017162,105.067395 358.518692,109.55077 358.518692,115.080645 C358.518692,120.61052 363.017162,125.09552 368.565657,125.09552 C374.114151,125.09552 378.612621,120.612145 378.612621,115.080645 C378.612621,109.55077 374.114151,105.067395 368.565657,105.067395 Z M368.565657,121.580645 C364.963945,121.580645 362.043771,118.671895 362.043771,115.080645 C362.043771,111.49102 364.963945,108.580645 368.565657,108.580645 C372.167368,108.580645 375.087542,111.49102 375.087542,115.080645 C375.087542,118.671895 372.167368,121.580645 368.565657,121.580645 Z M379.010456,102.33252 C377.712601,102.33252 376.660947,103.380645 376.660947,104.67252 C376.660947,105.964395 377.712601,107.01252 379.010456,107.01252 C380.306681,107.01252 381.356705,105.964395 381.356705,104.67252 C381.356705,103.380645 380.306681,102.33252 379.010456,102.33252 Z" id="Shape"></path>
        </g>
    </g>
</svg>